%TF.GenerationSoftware,KiCad,Pcbnew,8.0.3*%
%TF.CreationDate,2024-07-02T20:09:31+01:00*%
%TF.ProjectId,Tims_I2C_Dual_Motor_Driver,54696d73-5f49-4324-935f-4475616c5f4d,rev?*%
%TF.SameCoordinates,Original*%
%TF.FileFunction,Copper,L2,Bot*%
%TF.FilePolarity,Positive*%
%FSLAX46Y46*%
G04 Gerber Fmt 4.6, Leading zero omitted, Abs format (unit mm)*
G04 Created by KiCad (PCBNEW 8.0.3) date 2024-07-02 20:09:31*
%MOMM*%
%LPD*%
G01*
G04 APERTURE LIST*
G04 Aperture macros list*
%AMRoundRect*
0 Rectangle with rounded corners*
0 $1 Rounding radius*
0 $2 $3 $4 $5 $6 $7 $8 $9 X,Y pos of 4 corners*
0 Add a 4 corners polygon primitive as box body*
4,1,4,$2,$3,$4,$5,$6,$7,$8,$9,$2,$3,0*
0 Add four circle primitives for the rounded corners*
1,1,$1+$1,$2,$3*
1,1,$1+$1,$4,$5*
1,1,$1+$1,$6,$7*
1,1,$1+$1,$8,$9*
0 Add four rect primitives between the rounded corners*
20,1,$1+$1,$2,$3,$4,$5,0*
20,1,$1+$1,$4,$5,$6,$7,0*
20,1,$1+$1,$6,$7,$8,$9,0*
20,1,$1+$1,$8,$9,$2,$3,0*%
G04 Aperture macros list end*
%TA.AperFunction,SMDPad,CuDef*%
%ADD10RoundRect,0.400000X-0.600000X1.600000X-0.600000X-1.600000X0.600000X-1.600000X0.600000X1.600000X0*%
%TD*%
%TA.AperFunction,ViaPad*%
%ADD11C,1.400000*%
%TD*%
%TA.AperFunction,ViaPad*%
%ADD12C,1.000000*%
%TD*%
%TA.AperFunction,ViaPad*%
%ADD13C,0.600000*%
%TD*%
%TA.AperFunction,ViaPad*%
%ADD14C,1.200000*%
%TD*%
%TA.AperFunction,Conductor*%
%ADD15C,0.400000*%
%TD*%
%TA.AperFunction,Conductor*%
%ADD16C,1.000000*%
%TD*%
%TA.AperFunction,Conductor*%
%ADD17C,0.800000*%
%TD*%
G04 APERTURE END LIST*
D10*
%TO.P,Pad10,1,1*%
%TO.N,GND*%
X145377500Y-88540000D03*
%TD*%
%TO.P,Pad11,1,1*%
%TO.N,GND*%
X163477500Y-88540000D03*
%TD*%
%TO.P,Pad9,1,1*%
%TO.N,GND*%
X178677500Y-76540000D03*
%TD*%
%TO.P,Pad6,1,1*%
%TO.N,VCC*%
X131177500Y-111040000D03*
%TD*%
%TO.P,Pad8,1,1*%
%TO.N,+VDC*%
X182677500Y-76540000D03*
%TD*%
%TO.P,Pad7,1,1*%
%TO.N,GND*%
X127677500Y-111040000D03*
%TD*%
D11*
%TO.N,GND*%
X129677500Y-78540000D03*
X179677500Y-78540000D03*
X145677500Y-78540000D03*
D12*
X127677500Y-109040000D03*
D11*
X145877500Y-89340000D03*
D13*
X136877500Y-93740000D03*
X170155500Y-93714000D03*
X164677500Y-88540000D03*
D11*
X177677500Y-78540000D03*
X163677500Y-78540000D03*
D13*
X174677500Y-98540000D03*
D14*
X167361500Y-87872000D03*
X149624500Y-87618000D03*
D12*
X171177500Y-106040000D03*
D13*
X158177500Y-88040000D03*
X136877500Y-87740000D03*
D12*
X155677500Y-106040000D03*
D11*
X133677500Y-78540000D03*
D13*
X157177500Y-104040000D03*
D11*
X145877500Y-87740000D03*
X163877500Y-89340000D03*
D13*
X177677500Y-88040000D03*
X146677500Y-88540000D03*
X144277500Y-98140000D03*
D12*
X152477500Y-106040000D03*
D11*
X163877500Y-87740000D03*
D13*
%TO.N,/FWD_REV_A*%
X180677500Y-92340000D03*
X167361500Y-96508000D03*
%TO.N,/MOTOR__A(PWM)*%
X178877500Y-88140000D03*
X152877500Y-87340000D03*
%TO.N,/FWD_REV_B*%
X184277500Y-91740000D03*
X171677500Y-93740000D03*
%TO.N,/MOTOR__B(PWM)*%
X171679500Y-91940000D03*
X182277500Y-91740000D03*
D12*
%TO.N,VCC*%
X162877500Y-107540000D03*
X150597500Y-107540000D03*
X179677500Y-109040000D03*
X174677500Y-91340000D03*
D13*
X156177500Y-81240000D03*
X129677500Y-95340000D03*
D12*
X131177500Y-109040000D03*
D13*
X172677500Y-101540000D03*
X129477500Y-89340000D03*
X166599500Y-80252000D03*
X138677500Y-104140000D03*
%TO.N,/SCL*%
X147677500Y-110540000D03*
X147677500Y-108540000D03*
%TO.N,/STATION_A*%
X146177500Y-102540000D03*
X129677500Y-84290000D03*
%TO.N,/STATION_B*%
X131677500Y-84290000D03*
X149177500Y-102540000D03*
%TO.N,/QUAD_A1*%
X157177500Y-90940000D03*
X157126151Y-97978602D03*
%TO.N,/QUAD_A2*%
X156177500Y-90940000D03*
X156177500Y-97940000D03*
%TO.N,/QUAD_B2*%
X161877500Y-98815000D03*
X161877500Y-100215000D03*
%TO.N,/SWIM*%
X160277500Y-98794000D03*
X159877500Y-104540000D03*
%TO.N,/nFAULT_A*%
X140177500Y-86040000D03*
X147295500Y-84062000D03*
%TO.N,/nFAULT_B*%
X165075500Y-84062000D03*
X140177500Y-87540000D03*
%TO.N,/CURRENT_SENSE_A*%
X153952500Y-90415000D03*
X145517500Y-84062000D03*
%TO.N,/CURRENT_SENSE_B*%
X163551500Y-84062000D03*
X154777500Y-90440000D03*
D14*
%TO.N,+VDC*%
X162253500Y-95013355D03*
X144247500Y-94984000D03*
D11*
X181677500Y-78540000D03*
D14*
X169177500Y-90040000D03*
X151177500Y-91682000D03*
D11*
X183677500Y-78540000D03*
%TD*%
D15*
%TO.N,GND*%
X154477500Y-78540000D02*
X158177500Y-78540000D01*
D16*
X149624500Y-87618000D02*
X148677500Y-86671000D01*
X125477500Y-93740000D02*
X125477500Y-108840000D01*
D15*
X169877500Y-99340000D02*
X169877500Y-106040000D01*
D16*
X148677500Y-78540000D02*
X158177500Y-78540000D01*
X125677500Y-83540000D02*
X127677500Y-85540000D01*
D15*
X154477500Y-84340000D02*
X154477500Y-78540000D01*
D16*
X148677500Y-86671000D02*
X148677500Y-78540000D01*
D15*
X144277500Y-98140000D02*
X144277500Y-106040000D01*
X177677500Y-88040000D02*
X177677500Y-78540000D01*
D16*
X125477500Y-89940000D02*
X125477500Y-93740000D01*
X168885500Y-86348000D02*
X168885500Y-78540000D01*
X129677500Y-78540000D02*
X126677500Y-78540000D01*
D17*
X155677500Y-106040000D02*
X169877500Y-106040000D01*
D16*
X125677500Y-79540000D02*
X125677500Y-83540000D01*
D17*
X155677500Y-106040000D02*
X144277500Y-106040000D01*
X144277500Y-106040000D02*
X130677500Y-106040000D01*
D15*
X174677500Y-98540000D02*
X170677500Y-98540000D01*
D16*
X167361500Y-87872000D02*
X168885500Y-86348000D01*
D15*
X136877500Y-93740000D02*
X125477500Y-93740000D01*
D16*
X126677500Y-78540000D02*
X125677500Y-79540000D01*
D17*
X171177500Y-106040000D02*
X169877500Y-106040000D01*
D15*
X158177500Y-88040000D02*
X154477500Y-84340000D01*
D16*
X158177500Y-78540000D02*
X177677500Y-78540000D01*
D15*
X136877500Y-87740000D02*
X127677500Y-87740000D01*
D17*
X130677500Y-106040000D02*
X127677500Y-109040000D01*
D16*
X127677500Y-85540000D02*
X127677500Y-87740000D01*
X129677500Y-78540000D02*
X148677500Y-78540000D01*
D15*
X170677500Y-98540000D02*
X169877500Y-99340000D01*
D16*
X127677500Y-87740000D02*
X125477500Y-89940000D01*
X125477500Y-108840000D02*
X127677500Y-111040000D01*
D15*
%TO.N,/FWD_REV_A*%
X167361500Y-96508000D02*
X167361500Y-95268050D01*
X167361500Y-95268050D02*
X171389550Y-91240000D01*
X171389550Y-91240000D02*
X172177500Y-91240000D01*
X173277500Y-92340000D02*
X180677500Y-92340000D01*
X172177500Y-91240000D02*
X173277500Y-92340000D01*
%TO.N,/MOTOR__A(PWM)*%
X154477500Y-88940000D02*
X158877500Y-88940000D01*
X178077500Y-88940000D02*
X178877500Y-88140000D01*
X159877500Y-83164000D02*
X161011500Y-82030000D01*
X165837500Y-82030000D02*
X166345500Y-82538000D01*
X166345500Y-88270214D02*
X167015286Y-88940000D01*
X161011500Y-82030000D02*
X165837500Y-82030000D01*
X152877500Y-87340000D02*
X154477500Y-88940000D01*
X158877500Y-88940000D02*
X159877500Y-87940000D01*
X166345500Y-82538000D02*
X166345500Y-88270214D01*
X159877500Y-87940000D02*
X159877500Y-83164000D01*
X167015286Y-88940000D02*
X178077500Y-88940000D01*
%TO.N,/FWD_REV_B*%
X182277500Y-93740000D02*
X184277500Y-91740000D01*
X171677500Y-93740000D02*
X182277500Y-93740000D01*
%TO.N,/MOTOR__B(PWM)*%
X180977500Y-93040000D02*
X182277500Y-91740000D01*
X173128972Y-93040000D02*
X180977500Y-93040000D01*
X172028972Y-91940000D02*
X173128972Y-93040000D01*
X171679500Y-91940000D02*
X172028972Y-91940000D01*
%TO.N,VCC*%
X138677500Y-91140000D02*
X138677500Y-95340000D01*
X129677500Y-95340000D02*
X138677500Y-95340000D01*
D17*
X186177500Y-89540000D02*
X186177500Y-107040000D01*
X186177500Y-107040000D02*
X184177500Y-109040000D01*
D15*
X129477500Y-89340000D02*
X136877500Y-89340000D01*
X166599500Y-80252000D02*
X166543500Y-80252000D01*
D17*
X180877500Y-91340000D02*
X182677500Y-89540000D01*
D15*
X166543500Y-80252000D02*
X165555500Y-81240000D01*
D17*
X182677500Y-89540000D02*
X186177500Y-89540000D01*
X150597500Y-107540000D02*
X132677500Y-107540000D01*
D15*
X172677500Y-101540000D02*
X172677500Y-107540000D01*
X165555500Y-81240000D02*
X156177500Y-81240000D01*
D17*
X162877500Y-107540000D02*
X172677500Y-107540000D01*
X184177500Y-109040000D02*
X179677500Y-109040000D01*
X174677500Y-91340000D02*
X180877500Y-91340000D01*
X178177500Y-107540000D02*
X179677500Y-109040000D01*
D15*
X138677500Y-95340000D02*
X138677500Y-104140000D01*
D17*
X150597500Y-107540000D02*
X162877500Y-107540000D01*
X132677500Y-107540000D02*
X131177500Y-109040000D01*
X172677500Y-107540000D02*
X178177500Y-107540000D01*
D15*
X136877500Y-89340000D02*
X138677500Y-91140000D01*
%TO.N,/SCL*%
X147677500Y-108540000D02*
X147677500Y-110540000D01*
%TO.N,/STATION_A*%
X146177500Y-99050050D02*
X146177500Y-102540000D01*
X137678972Y-85390000D02*
X138327500Y-86038528D01*
X139277500Y-96364000D02*
X140353500Y-97440000D01*
X138327500Y-89941472D02*
X139277500Y-90891472D01*
X139277500Y-90891472D02*
X139277500Y-96364000D01*
X140353500Y-97440000D02*
X144567450Y-97440000D01*
X138327500Y-86038528D02*
X138327500Y-89941472D01*
X129677500Y-84290000D02*
X130777500Y-85390000D01*
X144567450Y-97440000D02*
X146177500Y-99050050D01*
X130777500Y-85390000D02*
X137678972Y-85390000D01*
%TO.N,/STATION_B*%
X140769500Y-96840000D02*
X139929500Y-96000000D01*
X139929500Y-96000000D02*
X139929500Y-90579472D01*
X149177500Y-101201522D02*
X144815978Y-96840000D01*
X139929500Y-90579472D02*
X138927500Y-89577472D01*
X149177500Y-102540000D02*
X149177500Y-101201522D01*
X137927500Y-84790000D02*
X132177500Y-84790000D01*
X138927500Y-85790000D02*
X137927500Y-84790000D01*
X144815978Y-96840000D02*
X140769500Y-96840000D01*
X132177500Y-84790000D02*
X131677500Y-84290000D01*
X138927500Y-89577472D02*
X138927500Y-85790000D01*
%TO.N,/QUAD_A1*%
X157177500Y-97927253D02*
X157177500Y-90940000D01*
X157126151Y-97978602D02*
X157177500Y-97927253D01*
%TO.N,/QUAD_A2*%
X156177500Y-97940000D02*
X156177500Y-90940000D01*
%TO.N,/QUAD_B2*%
X161877500Y-98815000D02*
X161877500Y-100215000D01*
%TO.N,/SWIM*%
X160277500Y-104140000D02*
X159877500Y-104540000D01*
X160277500Y-98794000D02*
X160277500Y-104140000D01*
%TO.N,/nFAULT_A*%
X146025500Y-81776000D02*
X140945500Y-81776000D01*
X140177500Y-82544000D02*
X140177500Y-86040000D01*
X147295500Y-84062000D02*
X147295500Y-83046000D01*
X140945500Y-81776000D02*
X140177500Y-82544000D01*
X147295500Y-83046000D02*
X146025500Y-81776000D01*
%TO.N,/nFAULT_B*%
X140877500Y-83368000D02*
X141707500Y-82538000D01*
X159177500Y-89540000D02*
X160503500Y-88214000D01*
X160503500Y-88214000D02*
X160503500Y-83554000D01*
X140177500Y-87540000D02*
X140877500Y-86840000D01*
X150132286Y-89540000D02*
X159177500Y-89540000D01*
X140877500Y-86840000D02*
X140877500Y-83368000D01*
X147777500Y-87185214D02*
X150132286Y-89540000D01*
X161427500Y-82630000D02*
X163643500Y-82630000D01*
X146577500Y-83344000D02*
X146577500Y-84540000D01*
X146577500Y-84540000D02*
X147777500Y-85740000D01*
X163643500Y-82630000D02*
X165075500Y-84062000D01*
X141707500Y-82538000D02*
X145771500Y-82538000D01*
X145771500Y-82538000D02*
X146577500Y-83344000D01*
X147777500Y-85740000D02*
X147777500Y-87185214D01*
X160503500Y-83554000D02*
X161427500Y-82630000D01*
%TO.N,/CURRENT_SENSE_A*%
X150158758Y-90415000D02*
X147177500Y-87433742D01*
X147177500Y-87433742D02*
X147177500Y-85988528D01*
X147177500Y-85988528D02*
X145517500Y-84328528D01*
X153952500Y-90415000D02*
X150158758Y-90415000D01*
X145517500Y-84328528D02*
X145517500Y-84062000D01*
%TO.N,/CURRENT_SENSE_B*%
X154777500Y-90440000D02*
X154977500Y-90240000D01*
X161519500Y-84062000D02*
X163551500Y-84062000D01*
X159326028Y-90240000D02*
X161103500Y-88462528D01*
X161103500Y-84478000D02*
X161519500Y-84062000D01*
X154977500Y-90240000D02*
X159326028Y-90240000D01*
X161103500Y-88462528D02*
X161103500Y-84478000D01*
D16*
%TO.N,+VDC*%
X162027500Y-94984000D02*
X158032898Y-98978602D01*
X182677500Y-81740000D02*
X180877500Y-83540000D01*
X180877500Y-89340000D02*
X180177500Y-90040000D01*
X183677500Y-78540000D02*
X182677500Y-78540000D01*
X148819500Y-94984000D02*
X144247500Y-94984000D01*
X180177500Y-90040000D02*
X169177500Y-90040000D01*
X155801888Y-98978602D02*
X155177500Y-98354214D01*
X153863500Y-92626000D02*
X151177500Y-92626000D01*
X169177500Y-90040000D02*
X166971500Y-90040000D01*
X151177500Y-92626000D02*
X148819500Y-94984000D01*
X151177500Y-91682000D02*
X151177500Y-92626000D01*
X155177500Y-98354214D02*
X155177500Y-93940000D01*
X182677500Y-78540000D02*
X182677500Y-81740000D01*
X158032898Y-98978602D02*
X155801888Y-98978602D01*
X166971500Y-90040000D02*
X162027500Y-94984000D01*
X180877500Y-83540000D02*
X180877500Y-89340000D01*
X182677500Y-78540000D02*
X181677500Y-78540000D01*
X155177500Y-93940000D02*
X153863500Y-92626000D01*
%TD*%
%TA.AperFunction,Conductor*%
%TO.N,GND*%
G36*
X164373523Y-84269390D02*
G01*
X164422657Y-84319065D01*
X164429442Y-84333924D01*
X164450681Y-84389928D01*
X164450682Y-84389931D01*
X164498271Y-84458874D01*
X164547317Y-84529929D01*
X164640033Y-84612068D01*
X164674650Y-84642736D01*
X164825273Y-84721789D01*
X164825275Y-84721790D01*
X164990444Y-84762500D01*
X165160556Y-84762500D01*
X165325725Y-84721790D01*
X165476352Y-84642734D01*
X165538773Y-84587433D01*
X165602006Y-84557712D01*
X165671269Y-84566896D01*
X165724573Y-84612068D01*
X165744993Y-84678887D01*
X165745000Y-84680249D01*
X165745000Y-88183544D01*
X165744999Y-88183562D01*
X165744999Y-88349268D01*
X165744998Y-88349268D01*
X165744999Y-88349271D01*
X165785923Y-88501999D01*
X165803603Y-88532621D01*
X165847081Y-88607927D01*
X165864979Y-88638928D01*
X165864981Y-88638931D01*
X165983849Y-88757799D01*
X165983855Y-88757804D01*
X166394344Y-89168293D01*
X166427829Y-89229616D01*
X166422845Y-89299308D01*
X166394344Y-89343655D01*
X165110958Y-90627040D01*
X165049635Y-90660525D01*
X164979943Y-90655541D01*
X164924010Y-90613669D01*
X164899593Y-90548205D01*
X164912793Y-90483062D01*
X164922350Y-90464304D01*
X164971315Y-90281564D01*
X164971315Y-90281563D01*
X164977499Y-90202987D01*
X164977500Y-90202975D01*
X164977500Y-88790000D01*
X163727500Y-88790000D01*
X163727500Y-91040000D01*
X164140476Y-91040000D01*
X164140487Y-91039999D01*
X164219063Y-91033815D01*
X164219064Y-91033815D01*
X164401805Y-90984850D01*
X164420565Y-90975292D01*
X164489234Y-90962396D01*
X164553974Y-90988672D01*
X164594232Y-91045778D01*
X164597224Y-91115584D01*
X164564541Y-91173458D01*
X161328036Y-94409964D01*
X157989681Y-97748319D01*
X157928358Y-97781804D01*
X157858666Y-97776820D01*
X157802733Y-97734948D01*
X157778316Y-97669484D01*
X157778000Y-97660638D01*
X157778000Y-91341800D01*
X157797685Y-91274761D01*
X157799929Y-91271389D01*
X157802318Y-91267930D01*
X157862640Y-91108872D01*
X157881985Y-90949552D01*
X157909607Y-90885375D01*
X157967541Y-90846319D01*
X158005081Y-90840500D01*
X159239359Y-90840500D01*
X159239375Y-90840501D01*
X159246971Y-90840501D01*
X159405082Y-90840501D01*
X159405085Y-90840501D01*
X159557813Y-90799577D01*
X159627261Y-90759481D01*
X159694744Y-90720520D01*
X159806548Y-90608716D01*
X159806548Y-90608714D01*
X159816752Y-90598511D01*
X159816756Y-90598506D01*
X160212275Y-90202987D01*
X161977500Y-90202987D01*
X161983684Y-90281563D01*
X161983684Y-90281564D01*
X162032650Y-90464307D01*
X162118537Y-90632873D01*
X162118538Y-90632875D01*
X162237599Y-90779900D01*
X162384624Y-90898961D01*
X162384626Y-90898962D01*
X162553192Y-90984849D01*
X162735936Y-91033815D01*
X162814512Y-91039999D01*
X162814524Y-91040000D01*
X163227500Y-91040000D01*
X163227500Y-88790000D01*
X161977500Y-88790000D01*
X161977500Y-90202987D01*
X160212275Y-90202987D01*
X161462006Y-88953256D01*
X161462011Y-88953252D01*
X161472214Y-88943048D01*
X161472216Y-88943048D01*
X161584020Y-88831244D01*
X161636989Y-88739499D01*
X161663077Y-88694313D01*
X161704001Y-88541585D01*
X161704001Y-88383471D01*
X161704001Y-88375876D01*
X161704000Y-88375858D01*
X161704000Y-86877012D01*
X161977500Y-86877012D01*
X161977500Y-88290000D01*
X163227500Y-88290000D01*
X163727500Y-88290000D01*
X164977500Y-88290000D01*
X164977500Y-86877024D01*
X164977499Y-86877012D01*
X164971315Y-86798436D01*
X164971315Y-86798435D01*
X164922349Y-86615692D01*
X164836462Y-86447126D01*
X164836461Y-86447124D01*
X164717400Y-86300099D01*
X164570375Y-86181038D01*
X164570373Y-86181037D01*
X164401807Y-86095150D01*
X164219063Y-86046184D01*
X164140487Y-86040000D01*
X163727500Y-86040000D01*
X163727500Y-88290000D01*
X163227500Y-88290000D01*
X163227500Y-86040000D01*
X162814512Y-86040000D01*
X162735936Y-86046184D01*
X162735935Y-86046184D01*
X162553192Y-86095150D01*
X162384626Y-86181037D01*
X162384624Y-86181038D01*
X162237599Y-86300099D01*
X162118538Y-86447124D01*
X162118537Y-86447126D01*
X162032650Y-86615692D01*
X161983684Y-86798435D01*
X161983684Y-86798436D01*
X161977500Y-86877012D01*
X161704000Y-86877012D01*
X161704000Y-84786500D01*
X161723685Y-84719461D01*
X161776489Y-84673706D01*
X161828000Y-84662500D01*
X163157746Y-84662500D01*
X163215371Y-84676703D01*
X163301275Y-84721790D01*
X163466444Y-84762500D01*
X163636556Y-84762500D01*
X163801725Y-84721790D01*
X163887628Y-84676704D01*
X163952349Y-84642736D01*
X163952350Y-84642734D01*
X163952352Y-84642734D01*
X164079683Y-84529929D01*
X164176318Y-84389930D01*
X164197558Y-84333923D01*
X164239735Y-84278221D01*
X164305333Y-84254163D01*
X164373523Y-84269390D01*
G37*
%TD.AperFunction*%
%TA.AperFunction,Conductor*%
G36*
X187595039Y-73585185D02*
G01*
X187640794Y-73637989D01*
X187652000Y-73689500D01*
X187652000Y-113390500D01*
X187632315Y-113457539D01*
X187579511Y-113503294D01*
X187528000Y-113514500D01*
X128977860Y-113514500D01*
X128910821Y-113494815D01*
X128865066Y-113442011D01*
X128855122Y-113372853D01*
X128884147Y-113309297D01*
X128899824Y-113294134D01*
X128917400Y-113279900D01*
X129036461Y-113132875D01*
X129036462Y-113132873D01*
X129122349Y-112964307D01*
X129171315Y-112781564D01*
X129171315Y-112781563D01*
X129177499Y-112702987D01*
X129177500Y-112702975D01*
X129177500Y-111290000D01*
X126177500Y-111290000D01*
X126177500Y-112702987D01*
X126183684Y-112781563D01*
X126183684Y-112781564D01*
X126232650Y-112964307D01*
X126318537Y-113132873D01*
X126318538Y-113132875D01*
X126437599Y-113279900D01*
X126455176Y-113294134D01*
X126494887Y-113351621D01*
X126497215Y-113421452D01*
X126461420Y-113481456D01*
X126398866Y-113512582D01*
X126377140Y-113514500D01*
X123827000Y-113514500D01*
X123759961Y-113494815D01*
X123714206Y-113442011D01*
X123703000Y-113390500D01*
X123703000Y-109377012D01*
X126177500Y-109377012D01*
X126177500Y-110790000D01*
X127427500Y-110790000D01*
X127927500Y-110790000D01*
X129177500Y-110790000D01*
X129177500Y-109377024D01*
X129177499Y-109377012D01*
X129171315Y-109298436D01*
X129171315Y-109298435D01*
X129122349Y-109115692D01*
X129036462Y-108947126D01*
X129036461Y-108947124D01*
X128917400Y-108800099D01*
X128770375Y-108681038D01*
X128770373Y-108681037D01*
X128601807Y-108595150D01*
X128419063Y-108546184D01*
X128340487Y-108540000D01*
X127927500Y-108540000D01*
X127927500Y-110790000D01*
X127427500Y-110790000D01*
X127427500Y-108540000D01*
X127014512Y-108540000D01*
X126935936Y-108546184D01*
X126935935Y-108546184D01*
X126753192Y-108595150D01*
X126584626Y-108681037D01*
X126584624Y-108681038D01*
X126437599Y-108800099D01*
X126318538Y-108947124D01*
X126318537Y-108947126D01*
X126232650Y-109115692D01*
X126183684Y-109298435D01*
X126183684Y-109298436D01*
X126177500Y-109377012D01*
X123703000Y-109377012D01*
X123703000Y-89340000D01*
X128771855Y-89340000D01*
X128792359Y-89508869D01*
X128792360Y-89508874D01*
X128852682Y-89667931D01*
X128914975Y-89758177D01*
X128949317Y-89807929D01*
X129055005Y-89901560D01*
X129076650Y-89920736D01*
X129227273Y-89999789D01*
X129227275Y-89999790D01*
X129392444Y-90040500D01*
X129562556Y-90040500D01*
X129727725Y-89999790D01*
X129813628Y-89954703D01*
X129871254Y-89940500D01*
X136577403Y-89940500D01*
X136644442Y-89960185D01*
X136665084Y-89976819D01*
X138040681Y-91352416D01*
X138074166Y-91413739D01*
X138077000Y-91440097D01*
X138077000Y-94615500D01*
X138057315Y-94682539D01*
X138004511Y-94728294D01*
X137953000Y-94739500D01*
X130071254Y-94739500D01*
X130013628Y-94725296D01*
X129969959Y-94702376D01*
X129927724Y-94680209D01*
X129762556Y-94639500D01*
X129592444Y-94639500D01*
X129427273Y-94680210D01*
X129276650Y-94759263D01*
X129149316Y-94872072D01*
X129052682Y-95012068D01*
X128992360Y-95171125D01*
X128992359Y-95171130D01*
X128971855Y-95340000D01*
X128992359Y-95508869D01*
X128992360Y-95508874D01*
X129052682Y-95667931D01*
X129080835Y-95708717D01*
X129149317Y-95807929D01*
X129235747Y-95884499D01*
X129276650Y-95920736D01*
X129407364Y-95989340D01*
X129427275Y-95999790D01*
X129592444Y-96040500D01*
X129762556Y-96040500D01*
X129927725Y-95999790D01*
X130013628Y-95954703D01*
X130071254Y-95940500D01*
X137953000Y-95940500D01*
X138020039Y-95960185D01*
X138065794Y-96012989D01*
X138077000Y-96064500D01*
X138077000Y-103738199D01*
X138057315Y-103805238D01*
X138055051Y-103808638D01*
X138052682Y-103812069D01*
X137992360Y-103971125D01*
X137992359Y-103971130D01*
X137971855Y-104140000D01*
X137992359Y-104308869D01*
X137992360Y-104308874D01*
X138052682Y-104467931D01*
X138080835Y-104508717D01*
X138149317Y-104607929D01*
X138233325Y-104682353D01*
X138276650Y-104720736D01*
X138427273Y-104799789D01*
X138427275Y-104799790D01*
X138592444Y-104840500D01*
X138762556Y-104840500D01*
X138927725Y-104799790D01*
X139068197Y-104726064D01*
X139078349Y-104720736D01*
X139078350Y-104720734D01*
X139078352Y-104720734D01*
X139205683Y-104607929D01*
X139302318Y-104467930D01*
X139362640Y-104308872D01*
X139383145Y-104140000D01*
X139362640Y-103971128D01*
X139302318Y-103812070D01*
X139299948Y-103808637D01*
X139298989Y-103805727D01*
X139298831Y-103805426D01*
X139298881Y-103805399D01*
X139278067Y-103742283D01*
X139278000Y-103738199D01*
X139278000Y-97513097D01*
X139297685Y-97446058D01*
X139350489Y-97400303D01*
X139419647Y-97390359D01*
X139483203Y-97419384D01*
X139489676Y-97425411D01*
X139984784Y-97920520D01*
X140121715Y-97999577D01*
X140274443Y-98040501D01*
X140274446Y-98040501D01*
X140440154Y-98040501D01*
X140440170Y-98040500D01*
X144267353Y-98040500D01*
X144334392Y-98060185D01*
X144355034Y-98076819D01*
X145540681Y-99262466D01*
X145574166Y-99323789D01*
X145577000Y-99350147D01*
X145577000Y-102138199D01*
X145557315Y-102205238D01*
X145555051Y-102208638D01*
X145552682Y-102212069D01*
X145492360Y-102371125D01*
X145492359Y-102371130D01*
X145471855Y-102540000D01*
X145492359Y-102708869D01*
X145492360Y-102708874D01*
X145552682Y-102867931D01*
X145614975Y-102958177D01*
X145649317Y-103007929D01*
X145755005Y-103101560D01*
X145776650Y-103120736D01*
X145927273Y-103199789D01*
X145927275Y-103199790D01*
X146092444Y-103240500D01*
X146262556Y-103240500D01*
X146427725Y-103199790D01*
X146507192Y-103158081D01*
X146578349Y-103120736D01*
X146578350Y-103120734D01*
X146578352Y-103120734D01*
X146705683Y-103007929D01*
X146802318Y-102867930D01*
X146862640Y-102708872D01*
X146883145Y-102540000D01*
X146862640Y-102371128D01*
X146802318Y-102212070D01*
X146799948Y-102208637D01*
X146798989Y-102205727D01*
X146798831Y-102205426D01*
X146798881Y-102205399D01*
X146778067Y-102142283D01*
X146778000Y-102138199D01*
X146778000Y-99950619D01*
X146797685Y-99883580D01*
X146850489Y-99837825D01*
X146919647Y-99827881D01*
X146983203Y-99856906D01*
X146989681Y-99862938D01*
X148540681Y-101413938D01*
X148574166Y-101475261D01*
X148577000Y-101501619D01*
X148577000Y-102138199D01*
X148557315Y-102205238D01*
X148555051Y-102208638D01*
X148552682Y-102212069D01*
X148492360Y-102371125D01*
X148492359Y-102371130D01*
X148471855Y-102540000D01*
X148492359Y-102708869D01*
X148492360Y-102708874D01*
X148552682Y-102867931D01*
X148614975Y-102958177D01*
X148649317Y-103007929D01*
X148755005Y-103101560D01*
X148776650Y-103120736D01*
X148927273Y-103199789D01*
X148927275Y-103199790D01*
X149092444Y-103240500D01*
X149262556Y-103240500D01*
X149427725Y-103199790D01*
X149507192Y-103158081D01*
X149578349Y-103120736D01*
X149578350Y-103120734D01*
X149578352Y-103120734D01*
X149705683Y-103007929D01*
X149802318Y-102867930D01*
X149862640Y-102708872D01*
X149883145Y-102540000D01*
X149862640Y-102371128D01*
X149802318Y-102212070D01*
X149799948Y-102208637D01*
X149798989Y-102205727D01*
X149798831Y-102205426D01*
X149798881Y-102205399D01*
X149778067Y-102142283D01*
X149778000Y-102138199D01*
X149778000Y-101290582D01*
X149778001Y-101290569D01*
X149778001Y-101122466D01*
X149764498Y-101072072D01*
X149737077Y-100969738D01*
X149705763Y-100915500D01*
X149658024Y-100832812D01*
X149658018Y-100832804D01*
X145303568Y-96478355D01*
X145303566Y-96478352D01*
X145184695Y-96359481D01*
X145184694Y-96359480D01*
X145097882Y-96309360D01*
X145097882Y-96309359D01*
X145097878Y-96309358D01*
X145047763Y-96280423D01*
X144895035Y-96239499D01*
X144736921Y-96239499D01*
X144729325Y-96239499D01*
X144729309Y-96239500D01*
X141069597Y-96239500D01*
X141002558Y-96219815D01*
X140981916Y-96203181D01*
X140566319Y-95787584D01*
X140532834Y-95726261D01*
X140530000Y-95699903D01*
X140530000Y-90668531D01*
X140530001Y-90668518D01*
X140530001Y-90500417D01*
X140530001Y-90500415D01*
X140489077Y-90347687D01*
X140450119Y-90280210D01*
X140410020Y-90210756D01*
X140402251Y-90202987D01*
X143877500Y-90202987D01*
X143883684Y-90281563D01*
X143883684Y-90281564D01*
X143932650Y-90464307D01*
X144018537Y-90632873D01*
X144018538Y-90632875D01*
X144137599Y-90779900D01*
X144284624Y-90898961D01*
X144284626Y-90898962D01*
X144453192Y-90984849D01*
X144635936Y-91033815D01*
X144714512Y-91039999D01*
X144714524Y-91040000D01*
X145127500Y-91040000D01*
X145627500Y-91040000D01*
X146040476Y-91040000D01*
X146040487Y-91039999D01*
X146119063Y-91033815D01*
X146119064Y-91033815D01*
X146301807Y-90984849D01*
X146470373Y-90898962D01*
X146470375Y-90898961D01*
X146617400Y-90779900D01*
X146736461Y-90632875D01*
X146736462Y-90632873D01*
X146822349Y-90464307D01*
X146871315Y-90281564D01*
X146871315Y-90281563D01*
X146877499Y-90202987D01*
X146877500Y-90202975D01*
X146877500Y-88790000D01*
X145627500Y-88790000D01*
X145627500Y-91040000D01*
X145127500Y-91040000D01*
X145127500Y-88790000D01*
X143877500Y-88790000D01*
X143877500Y-90202987D01*
X140402251Y-90202987D01*
X140298216Y-90098952D01*
X140298215Y-90098951D01*
X140293885Y-90094621D01*
X140293874Y-90094611D01*
X139564319Y-89365056D01*
X139530834Y-89303733D01*
X139528000Y-89277375D01*
X139528000Y-88175967D01*
X139547685Y-88108928D01*
X139600489Y-88063173D01*
X139669647Y-88053229D01*
X139733203Y-88082254D01*
X139734095Y-88083036D01*
X139763322Y-88108928D01*
X139776650Y-88120736D01*
X139910826Y-88191157D01*
X139927275Y-88199790D01*
X140092444Y-88240500D01*
X140262556Y-88240500D01*
X140427725Y-88199790D01*
X140541644Y-88140000D01*
X140578349Y-88120736D01*
X140578350Y-88120734D01*
X140578352Y-88120734D01*
X140705683Y-88007929D01*
X140802318Y-87867930D01*
X140856121Y-87726060D01*
X140884378Y-87682355D01*
X141236006Y-87330728D01*
X141236011Y-87330724D01*
X141246214Y-87320520D01*
X141246216Y-87320520D01*
X141358020Y-87208716D01*
X141437077Y-87071784D01*
X141478000Y-86919057D01*
X141478000Y-86877012D01*
X143877500Y-86877012D01*
X143877500Y-88290000D01*
X145127500Y-88290000D01*
X145127500Y-86040000D01*
X144714512Y-86040000D01*
X144635936Y-86046184D01*
X144635935Y-86046184D01*
X144453192Y-86095150D01*
X144284626Y-86181037D01*
X144284624Y-86181038D01*
X144137599Y-86300099D01*
X144018538Y-86447124D01*
X144018537Y-86447126D01*
X143932650Y-86615692D01*
X143883684Y-86798435D01*
X143883684Y-86798436D01*
X143877500Y-86877012D01*
X141478000Y-86877012D01*
X141478000Y-83668097D01*
X141497685Y-83601058D01*
X141514319Y-83580416D01*
X141919916Y-83174819D01*
X141981239Y-83141334D01*
X142007597Y-83138500D01*
X145315957Y-83138500D01*
X145382996Y-83158185D01*
X145428751Y-83210989D01*
X145438695Y-83280147D01*
X145409670Y-83343703D01*
X145350892Y-83381477D01*
X145345632Y-83382897D01*
X145267273Y-83402210D01*
X145116650Y-83481263D01*
X144989316Y-83594072D01*
X144892682Y-83734068D01*
X144832360Y-83893125D01*
X144832359Y-83893130D01*
X144811855Y-84062000D01*
X144832359Y-84230869D01*
X144832360Y-84230874D01*
X144892682Y-84389930D01*
X144912518Y-84418668D01*
X144930241Y-84457011D01*
X144957922Y-84560311D01*
X144986858Y-84610428D01*
X144986859Y-84610432D01*
X144986860Y-84610432D01*
X145025121Y-84676704D01*
X145036979Y-84697242D01*
X145036981Y-84697245D01*
X145155849Y-84816113D01*
X145155855Y-84816118D01*
X146171047Y-85831310D01*
X146204532Y-85892633D01*
X146199548Y-85962325D01*
X146157676Y-86018258D01*
X146092212Y-86042675D01*
X146073638Y-86042609D01*
X146040490Y-86040000D01*
X145627500Y-86040000D01*
X145627500Y-88290000D01*
X146877500Y-88290000D01*
X146877500Y-88282339D01*
X146897185Y-88215300D01*
X146949989Y-88169545D01*
X147019147Y-88159601D01*
X147082703Y-88188626D01*
X147089181Y-88194658D01*
X149673897Y-90779374D01*
X149673907Y-90779385D01*
X149678237Y-90783715D01*
X149678238Y-90783716D01*
X149790042Y-90895520D01*
X149790044Y-90895521D01*
X149790048Y-90895524D01*
X149926967Y-90974573D01*
X149926974Y-90974577D01*
X150038777Y-91004534D01*
X150079700Y-91015500D01*
X150079701Y-91015500D01*
X150192415Y-91015500D01*
X150259454Y-91035185D01*
X150305209Y-91087989D01*
X150315153Y-91157147D01*
X150301773Y-91197953D01*
X150248688Y-91297267D01*
X150191475Y-91485870D01*
X150172159Y-91682000D01*
X150191475Y-91878129D01*
X150248687Y-92066730D01*
X150262358Y-92092305D01*
X150277000Y-92150759D01*
X150277000Y-92201638D01*
X150257315Y-92268677D01*
X150240681Y-92289319D01*
X148482819Y-94047181D01*
X148421496Y-94080666D01*
X148395138Y-94083500D01*
X144716259Y-94083500D01*
X144657806Y-94068858D01*
X144648693Y-94063987D01*
X144632230Y-94055187D01*
X144443629Y-93997975D01*
X144247500Y-93978659D01*
X144051370Y-93997975D01*
X143862766Y-94055188D01*
X143688967Y-94148086D01*
X143688960Y-94148090D01*
X143536616Y-94273116D01*
X143411590Y-94425460D01*
X143411586Y-94425467D01*
X143318688Y-94599266D01*
X143261475Y-94787870D01*
X143242159Y-94984000D01*
X143261475Y-95180129D01*
X143318688Y-95368733D01*
X143411586Y-95542532D01*
X143411590Y-95542539D01*
X143536616Y-95694883D01*
X143688960Y-95819909D01*
X143688967Y-95819913D01*
X143862766Y-95912811D01*
X143862769Y-95912811D01*
X143862773Y-95912814D01*
X144051368Y-95970024D01*
X144247500Y-95989341D01*
X144443632Y-95970024D01*
X144632227Y-95912814D01*
X144657806Y-95899141D01*
X144716259Y-95884500D01*
X148908193Y-95884500D01*
X148908194Y-95884499D01*
X149082166Y-95849895D01*
X149164106Y-95815953D01*
X149246047Y-95782013D01*
X149355743Y-95708716D01*
X149393536Y-95683464D01*
X151514180Y-93562818D01*
X151575503Y-93529334D01*
X151601861Y-93526500D01*
X153439138Y-93526500D01*
X153506177Y-93546185D01*
X153526819Y-93562819D01*
X154240681Y-94276680D01*
X154274166Y-94338003D01*
X154277000Y-94364361D01*
X154277000Y-98442910D01*
X154311603Y-98616873D01*
X154311604Y-98616877D01*
X154311605Y-98616880D01*
X154323721Y-98646130D01*
X154337379Y-98679102D01*
X154337378Y-98679102D01*
X154337379Y-98679103D01*
X154379484Y-98780756D01*
X154379485Y-98780758D01*
X154438563Y-98869174D01*
X154438564Y-98869175D01*
X154478034Y-98928248D01*
X155227854Y-99678068D01*
X155286924Y-99717535D01*
X155286927Y-99717538D01*
X155375337Y-99776612D01*
X155375341Y-99776615D01*
X155457281Y-99810555D01*
X155539222Y-99844497D01*
X155713191Y-99879101D01*
X155713195Y-99879102D01*
X155713196Y-99879102D01*
X158121591Y-99879102D01*
X158121592Y-99879101D01*
X158295564Y-99844497D01*
X158377504Y-99810555D01*
X158459445Y-99776615D01*
X158459447Y-99776613D01*
X158459450Y-99776612D01*
X158547853Y-99717541D01*
X158547853Y-99717540D01*
X158547857Y-99717538D01*
X158606934Y-99678066D01*
X159383463Y-98901535D01*
X159444784Y-98868052D01*
X159514475Y-98873036D01*
X159570409Y-98914907D01*
X159591537Y-98959536D01*
X159592358Y-98962867D01*
X159592360Y-98962872D01*
X159652682Y-99121930D01*
X159655049Y-99125360D01*
X159656009Y-99128269D01*
X159656168Y-99128572D01*
X159656117Y-99128598D01*
X159676933Y-99191713D01*
X159677000Y-99195800D01*
X159677000Y-103779151D01*
X159657315Y-103846190D01*
X159610627Y-103888947D01*
X159476649Y-103959265D01*
X159349316Y-104072072D01*
X159252682Y-104212068D01*
X159192360Y-104371125D01*
X159192359Y-104371130D01*
X159171855Y-104540000D01*
X159192359Y-104708869D01*
X159192360Y-104708874D01*
X159252682Y-104867931D01*
X159314975Y-104958177D01*
X159349317Y-105007929D01*
X159455005Y-105101560D01*
X159476650Y-105120736D01*
X159627273Y-105199789D01*
X159627275Y-105199790D01*
X159792444Y-105240500D01*
X159962556Y-105240500D01*
X160127725Y-105199790D01*
X160207192Y-105158081D01*
X160278349Y-105120736D01*
X160278350Y-105120734D01*
X160278352Y-105120734D01*
X160405683Y-105007929D01*
X160502318Y-104867930D01*
X160556121Y-104726060D01*
X160584378Y-104682355D01*
X160636006Y-104630728D01*
X160636011Y-104630724D01*
X160646214Y-104620520D01*
X160646216Y-104620520D01*
X160758020Y-104508716D01*
X160837077Y-104371784D01*
X160878000Y-104219057D01*
X160878000Y-99195800D01*
X160897685Y-99128761D01*
X160899929Y-99125389D01*
X160902318Y-99121930D01*
X160957627Y-98976088D01*
X160999803Y-98920388D01*
X161065400Y-98896330D01*
X161133591Y-98911556D01*
X161182724Y-98961232D01*
X161188877Y-98977170D01*
X161189700Y-98976858D01*
X161247246Y-99128598D01*
X161252682Y-99142930D01*
X161255049Y-99146360D01*
X161256009Y-99149269D01*
X161256168Y-99149572D01*
X161256117Y-99149598D01*
X161276933Y-99212713D01*
X161277000Y-99216800D01*
X161277000Y-99813199D01*
X161257315Y-99880238D01*
X161255051Y-99883638D01*
X161252682Y-99887069D01*
X161192360Y-100046125D01*
X161192359Y-100046130D01*
X161171855Y-100215000D01*
X161192359Y-100383869D01*
X161192360Y-100383874D01*
X161252682Y-100542931D01*
X161314975Y-100633177D01*
X161349317Y-100682929D01*
X161455005Y-100776560D01*
X161476650Y-100795736D01*
X161627273Y-100874789D01*
X161627275Y-100874790D01*
X161792444Y-100915500D01*
X161962556Y-100915500D01*
X162127725Y-100874790D01*
X162207722Y-100832804D01*
X162278349Y-100795736D01*
X162278350Y-100795734D01*
X162278352Y-100795734D01*
X162405683Y-100682929D01*
X162502318Y-100542930D01*
X162562640Y-100383872D01*
X162583145Y-100215000D01*
X162562640Y-100046128D01*
X162502318Y-99887070D01*
X162499948Y-99883637D01*
X162498989Y-99880727D01*
X162498831Y-99880426D01*
X162498881Y-99880399D01*
X162478067Y-99817283D01*
X162478000Y-99813199D01*
X162478000Y-99216800D01*
X162497685Y-99149761D01*
X162499929Y-99146389D01*
X162502318Y-99142930D01*
X162562640Y-98983872D01*
X162583145Y-98815000D01*
X162562640Y-98646128D01*
X162557216Y-98631827D01*
X162502317Y-98487068D01*
X162467976Y-98437318D01*
X162405683Y-98347071D01*
X162278352Y-98234266D01*
X162278349Y-98234263D01*
X162127726Y-98155210D01*
X161962556Y-98114500D01*
X161792444Y-98114500D01*
X161627273Y-98155210D01*
X161476650Y-98234263D01*
X161349316Y-98347072D01*
X161252682Y-98487068D01*
X161252682Y-98487069D01*
X161197373Y-98632909D01*
X161155195Y-98688612D01*
X161089598Y-98712669D01*
X161021407Y-98697442D01*
X160972274Y-98647766D01*
X160966129Y-98631827D01*
X160965300Y-98632142D01*
X160902317Y-98466068D01*
X160820178Y-98347071D01*
X160805683Y-98326071D01*
X160678352Y-98213266D01*
X160678349Y-98213263D01*
X160527726Y-98134210D01*
X160438791Y-98112290D01*
X160378411Y-98077134D01*
X160346622Y-98014915D01*
X160353518Y-97945386D01*
X160380783Y-97904214D01*
X162236329Y-96048668D01*
X162297650Y-96015185D01*
X162311848Y-96012948D01*
X162449632Y-95999379D01*
X162638227Y-95942169D01*
X162641350Y-95940500D01*
X162812032Y-95849268D01*
X162812038Y-95849265D01*
X162964383Y-95724238D01*
X163089410Y-95571893D01*
X163182314Y-95398082D01*
X163239524Y-95209487D01*
X163253093Y-95071709D01*
X163279253Y-95006923D01*
X163288806Y-94996192D01*
X167308181Y-90976819D01*
X167369504Y-90943334D01*
X167395862Y-90940500D01*
X168708741Y-90940500D01*
X168767193Y-90955141D01*
X168792773Y-90968814D01*
X168981368Y-91026024D01*
X169177500Y-91045341D01*
X169373632Y-91026024D01*
X169562227Y-90968814D01*
X169587806Y-90955141D01*
X169646259Y-90940500D01*
X170540453Y-90940500D01*
X170607492Y-90960185D01*
X170653247Y-91012989D01*
X170663191Y-91082147D01*
X170634166Y-91145703D01*
X170628134Y-91152180D01*
X168791172Y-92989142D01*
X166992786Y-94787528D01*
X166880981Y-94899332D01*
X166880980Y-94899334D01*
X166839440Y-94971284D01*
X166801923Y-95036265D01*
X166760999Y-95188993D01*
X166760999Y-95188995D01*
X166760999Y-95357096D01*
X166761000Y-95357109D01*
X166761000Y-96106199D01*
X166741315Y-96173238D01*
X166739051Y-96176638D01*
X166736682Y-96180069D01*
X166676360Y-96339125D01*
X166676359Y-96339130D01*
X166655855Y-96508000D01*
X166676359Y-96676869D01*
X166676360Y-96676874D01*
X166736682Y-96835931D01*
X166798975Y-96926177D01*
X166833317Y-96975929D01*
X166939005Y-97069560D01*
X166960650Y-97088736D01*
X167111273Y-97167789D01*
X167111275Y-97167790D01*
X167276444Y-97208500D01*
X167446556Y-97208500D01*
X167611725Y-97167790D01*
X167691192Y-97126081D01*
X167762349Y-97088736D01*
X167762350Y-97088734D01*
X167762352Y-97088734D01*
X167889683Y-96975929D01*
X167986318Y-96835930D01*
X168046640Y-96676872D01*
X168067145Y-96508000D01*
X168046640Y-96339128D01*
X167986318Y-96180070D01*
X167983948Y-96176637D01*
X167982989Y-96173727D01*
X167982831Y-96173426D01*
X167982881Y-96173399D01*
X167962067Y-96110283D01*
X167962000Y-96106199D01*
X167962000Y-95568146D01*
X167981685Y-95501107D01*
X167998314Y-95480470D01*
X171026116Y-92452667D01*
X171087437Y-92419184D01*
X171157129Y-92424168D01*
X171196021Y-92447533D01*
X171278648Y-92520734D01*
X171429275Y-92599790D01*
X171594444Y-92640500D01*
X171764556Y-92640500D01*
X171789458Y-92634362D01*
X171859261Y-92637431D01*
X171906815Y-92667078D01*
X172167556Y-92927819D01*
X172201041Y-92989142D01*
X172196057Y-93058834D01*
X172154185Y-93114767D01*
X172088721Y-93139184D01*
X172079875Y-93139500D01*
X172071254Y-93139500D01*
X172013628Y-93125296D01*
X171969959Y-93102376D01*
X171927724Y-93080209D01*
X171762556Y-93039500D01*
X171592444Y-93039500D01*
X171427273Y-93080210D01*
X171276650Y-93159263D01*
X171149316Y-93272072D01*
X171052682Y-93412068D01*
X170992360Y-93571125D01*
X170992359Y-93571130D01*
X170971855Y-93740000D01*
X170992359Y-93908869D01*
X170992360Y-93908874D01*
X171052682Y-94067931D01*
X171108010Y-94148086D01*
X171149317Y-94207929D01*
X171226921Y-94276680D01*
X171276650Y-94320736D01*
X171359771Y-94364361D01*
X171427275Y-94399790D01*
X171592444Y-94440500D01*
X171762556Y-94440500D01*
X171927725Y-94399790D01*
X172013628Y-94354703D01*
X172071254Y-94340500D01*
X182190831Y-94340500D01*
X182190847Y-94340501D01*
X182198443Y-94340501D01*
X182356554Y-94340501D01*
X182356557Y-94340501D01*
X182509285Y-94299577D01*
X182559404Y-94270639D01*
X182646216Y-94220520D01*
X182758020Y-94108716D01*
X182758020Y-94108714D01*
X182768228Y-94098507D01*
X182768230Y-94098504D01*
X184422622Y-92444111D01*
X184480624Y-92411398D01*
X184527725Y-92399790D01*
X184678352Y-92320734D01*
X184805683Y-92207929D01*
X184902318Y-92067930D01*
X184962640Y-91908872D01*
X184983145Y-91740000D01*
X184962640Y-91571128D01*
X184902318Y-91412070D01*
X184805683Y-91272071D01*
X184678352Y-91159266D01*
X184678349Y-91159263D01*
X184527726Y-91080210D01*
X184362556Y-91039500D01*
X184192444Y-91039500D01*
X184027273Y-91080210D01*
X183876650Y-91159263D01*
X183760138Y-91262484D01*
X183753994Y-91267928D01*
X183749316Y-91272072D01*
X183652682Y-91412068D01*
X183652682Y-91412069D01*
X183598880Y-91553934D01*
X183570619Y-91597644D01*
X183175718Y-91992545D01*
X183114395Y-92026030D01*
X183044703Y-92021046D01*
X182988770Y-91979174D01*
X182964353Y-91913710D01*
X182964940Y-91889922D01*
X182983145Y-91740000D01*
X182962640Y-91571128D01*
X182902318Y-91412070D01*
X182805683Y-91272071D01*
X182678352Y-91159266D01*
X182678349Y-91159263D01*
X182527725Y-91080209D01*
X182520710Y-91077549D01*
X182521793Y-91074691D01*
X182473483Y-91046517D01*
X182441738Y-90984275D01*
X182448684Y-90914751D01*
X182475916Y-90873661D01*
X182972759Y-90376819D01*
X183034082Y-90343334D01*
X183060440Y-90340500D01*
X185253000Y-90340500D01*
X185320039Y-90360185D01*
X185365794Y-90412989D01*
X185377000Y-90464500D01*
X185377000Y-106657060D01*
X185357315Y-106724099D01*
X185340681Y-106744741D01*
X183882241Y-108203181D01*
X183820918Y-108236666D01*
X183794560Y-108239500D01*
X180119867Y-108239500D01*
X180069431Y-108228779D01*
X179962309Y-108181084D01*
X179925064Y-108155486D01*
X178687791Y-106918212D01*
X178687788Y-106918210D01*
X178556685Y-106830609D01*
X178556672Y-106830602D01*
X178411001Y-106770264D01*
X178410989Y-106770261D01*
X178256345Y-106739500D01*
X178256342Y-106739500D01*
X173402000Y-106739500D01*
X173334961Y-106719815D01*
X173289206Y-106667011D01*
X173278000Y-106615500D01*
X173278000Y-101941800D01*
X173297685Y-101874761D01*
X173299929Y-101871389D01*
X173302318Y-101867930D01*
X173362640Y-101708872D01*
X173383145Y-101540000D01*
X173362640Y-101371128D01*
X173302318Y-101212070D01*
X173205683Y-101072071D01*
X173110816Y-100988026D01*
X173078349Y-100959263D01*
X172927726Y-100880210D01*
X172762556Y-100839500D01*
X172592444Y-100839500D01*
X172427273Y-100880210D01*
X172276650Y-100959263D01*
X172149316Y-101072072D01*
X172052682Y-101212068D01*
X171992360Y-101371125D01*
X171992359Y-101371130D01*
X171971855Y-101540000D01*
X171992359Y-101708869D01*
X171992360Y-101708874D01*
X172052681Y-101867928D01*
X172052682Y-101867930D01*
X172055049Y-101871360D01*
X172056009Y-101874269D01*
X172056168Y-101874572D01*
X172056117Y-101874598D01*
X172076933Y-101937713D01*
X172077000Y-101941800D01*
X172077000Y-106615500D01*
X172057315Y-106682539D01*
X172004511Y-106728294D01*
X171953000Y-106739500D01*
X163319867Y-106739500D01*
X163269431Y-106728779D01*
X163157307Y-106678857D01*
X163157302Y-106678855D01*
X163011501Y-106647865D01*
X162972146Y-106639500D01*
X162782854Y-106639500D01*
X162750397Y-106646398D01*
X162597697Y-106678855D01*
X162597692Y-106678857D01*
X162485569Y-106728779D01*
X162435133Y-106739500D01*
X151039867Y-106739500D01*
X150989431Y-106728779D01*
X150877307Y-106678857D01*
X150877302Y-106678855D01*
X150731501Y-106647865D01*
X150692146Y-106639500D01*
X150502854Y-106639500D01*
X150470397Y-106646398D01*
X150317697Y-106678855D01*
X150317692Y-106678857D01*
X150205569Y-106728779D01*
X150155133Y-106739500D01*
X132598654Y-106739500D01*
X132444009Y-106770261D01*
X132443997Y-106770264D01*
X132401332Y-106787936D01*
X132401333Y-106787937D01*
X132298323Y-106830604D01*
X132298314Y-106830609D01*
X132167212Y-106918209D01*
X132167210Y-106918212D01*
X130929933Y-108155487D01*
X130892689Y-108181085D01*
X130724767Y-108255850D01*
X130724765Y-108255851D01*
X130571629Y-108367111D01*
X130444966Y-108507785D01*
X130350321Y-108671715D01*
X130350319Y-108671719D01*
X130291699Y-108852133D01*
X130252261Y-108909808D01*
X130236891Y-108920545D01*
X130194172Y-108945809D01*
X130194167Y-108945813D01*
X130083313Y-109056666D01*
X130083310Y-109056670D01*
X130003506Y-109191612D01*
X130003505Y-109191615D01*
X129959768Y-109342156D01*
X129959767Y-109342162D01*
X129957000Y-109377324D01*
X129957000Y-112702675D01*
X129959767Y-112737837D01*
X129959768Y-112737843D01*
X130003505Y-112888384D01*
X130003506Y-112888387D01*
X130083310Y-113023329D01*
X130083316Y-113023337D01*
X130194162Y-113134183D01*
X130194166Y-113134186D01*
X130194168Y-113134188D01*
X130329111Y-113213993D01*
X130368813Y-113225527D01*
X130479656Y-113257731D01*
X130479659Y-113257731D01*
X130479661Y-113257732D01*
X130514832Y-113260500D01*
X130514840Y-113260500D01*
X131840160Y-113260500D01*
X131840168Y-113260500D01*
X131875339Y-113257732D01*
X131875341Y-113257731D01*
X131875343Y-113257731D01*
X131915041Y-113246197D01*
X132025889Y-113213993D01*
X132160832Y-113134188D01*
X132271688Y-113023332D01*
X132351493Y-112888389D01*
X132395232Y-112737839D01*
X132398000Y-112702668D01*
X132398000Y-111540000D01*
X139647038Y-111540000D01*
X139666837Y-111741031D01*
X139725478Y-111934345D01*
X139820698Y-112112488D01*
X139820703Y-112112495D01*
X139948852Y-112268647D01*
X140048308Y-112350267D01*
X140105006Y-112396798D01*
X140105009Y-112396799D01*
X140105011Y-112396801D01*
X140283154Y-112492021D01*
X140283156Y-112492021D01*
X140283159Y-112492023D01*
X140476467Y-112550662D01*
X140677500Y-112570462D01*
X140878533Y-112550662D01*
X141071841Y-112492023D01*
X141249994Y-112396798D01*
X141406147Y-112268647D01*
X141534298Y-112112494D01*
X141629523Y-111934341D01*
X141688162Y-111741033D01*
X141707962Y-111540000D01*
X169647038Y-111540000D01*
X169666837Y-111741031D01*
X169725478Y-111934345D01*
X169820698Y-112112488D01*
X169820703Y-112112495D01*
X169948852Y-112268647D01*
X170048308Y-112350267D01*
X170105006Y-112396798D01*
X170105009Y-112396799D01*
X170105011Y-112396801D01*
X170283154Y-112492021D01*
X170283156Y-112492021D01*
X170283159Y-112492023D01*
X170476467Y-112550662D01*
X170677500Y-112570462D01*
X170878533Y-112550662D01*
X171071841Y-112492023D01*
X171249994Y-112396798D01*
X171406147Y-112268647D01*
X171534298Y-112112494D01*
X171629523Y-111934341D01*
X171688162Y-111741033D01*
X171707962Y-111540000D01*
X171688162Y-111338967D01*
X171629523Y-111145659D01*
X171629521Y-111145656D01*
X171629521Y-111145654D01*
X171534301Y-110967511D01*
X171534299Y-110967509D01*
X171534298Y-110967506D01*
X171495324Y-110920016D01*
X171406147Y-110811352D01*
X171249995Y-110683203D01*
X171249988Y-110683198D01*
X171071845Y-110587978D01*
X170878531Y-110529337D01*
X170677500Y-110509538D01*
X170476468Y-110529337D01*
X170283154Y-110587978D01*
X170105011Y-110683198D01*
X170105004Y-110683203D01*
X169948852Y-110811352D01*
X169820703Y-110967504D01*
X169820698Y-110967511D01*
X169725478Y-111145654D01*
X169666837Y-111338968D01*
X169647038Y-111540000D01*
X141707962Y-111540000D01*
X141688162Y-111338967D01*
X141629523Y-111145659D01*
X141629521Y-111145656D01*
X141629521Y-111145654D01*
X141534301Y-110967511D01*
X141534299Y-110967509D01*
X141534298Y-110967506D01*
X141495324Y-110920016D01*
X141406147Y-110811352D01*
X141249995Y-110683203D01*
X141249988Y-110683198D01*
X141071845Y-110587978D01*
X140878531Y-110529337D01*
X140677500Y-110509538D01*
X140476468Y-110529337D01*
X140283154Y-110587978D01*
X140105011Y-110683198D01*
X140105004Y-110683203D01*
X139948852Y-110811352D01*
X139820703Y-110967504D01*
X139820698Y-110967511D01*
X139725478Y-111145654D01*
X139666837Y-111338968D01*
X139647038Y-111540000D01*
X132398000Y-111540000D01*
X132398000Y-109377332D01*
X132395232Y-109342161D01*
X132395231Y-109342156D01*
X132351495Y-109191615D01*
X132351493Y-109191611D01*
X132328534Y-109152789D01*
X132311352Y-109085069D01*
X132333512Y-109018806D01*
X132347580Y-109001996D01*
X132972759Y-108376819D01*
X133034082Y-108343334D01*
X133060440Y-108340500D01*
X146856112Y-108340500D01*
X146923151Y-108360185D01*
X146968906Y-108412989D01*
X146979208Y-108479447D01*
X146971855Y-108540000D01*
X146992359Y-108708869D01*
X146992360Y-108708874D01*
X147046691Y-108852133D01*
X147052682Y-108867930D01*
X147055049Y-108871360D01*
X147056009Y-108874269D01*
X147056168Y-108874572D01*
X147056117Y-108874598D01*
X147076933Y-108937713D01*
X147077000Y-108941800D01*
X147077000Y-110138199D01*
X147057315Y-110205238D01*
X147055051Y-110208638D01*
X147052682Y-110212069D01*
X146992360Y-110371125D01*
X146992359Y-110371130D01*
X146971855Y-110540000D01*
X146992359Y-110708869D01*
X146992360Y-110708874D01*
X147052682Y-110867931D01*
X147114975Y-110958177D01*
X147149317Y-111007929D01*
X147255005Y-111101560D01*
X147276650Y-111120736D01*
X147364942Y-111167075D01*
X147427275Y-111199790D01*
X147592444Y-111240500D01*
X147762556Y-111240500D01*
X147927725Y-111199790D01*
X148030862Y-111145659D01*
X148078349Y-111120736D01*
X148078350Y-111120734D01*
X148078352Y-111120734D01*
X148205683Y-111007929D01*
X148302318Y-110867930D01*
X148362640Y-110708872D01*
X148383145Y-110540000D01*
X148362640Y-110371128D01*
X148302318Y-110212070D01*
X148299948Y-110208637D01*
X148298989Y-110205727D01*
X148298831Y-110205426D01*
X148298881Y-110205399D01*
X148278067Y-110142283D01*
X148278000Y-110138199D01*
X148278000Y-108941800D01*
X148297685Y-108874761D01*
X148299929Y-108871389D01*
X148302318Y-108867930D01*
X148362640Y-108708872D01*
X148383145Y-108540000D01*
X148375792Y-108479445D01*
X148387252Y-108410524D01*
X148434156Y-108358737D01*
X148498888Y-108340500D01*
X150155133Y-108340500D01*
X150205569Y-108351221D01*
X150317692Y-108401142D01*
X150317697Y-108401144D01*
X150502854Y-108440500D01*
X150502855Y-108440500D01*
X150692144Y-108440500D01*
X150692146Y-108440500D01*
X150877303Y-108401144D01*
X150953739Y-108367112D01*
X150989431Y-108351221D01*
X151039867Y-108340500D01*
X162435133Y-108340500D01*
X162485569Y-108351221D01*
X162597692Y-108401142D01*
X162597697Y-108401144D01*
X162782854Y-108440500D01*
X162782855Y-108440500D01*
X162972144Y-108440500D01*
X162972146Y-108440500D01*
X163157303Y-108401144D01*
X163233739Y-108367112D01*
X163269431Y-108351221D01*
X163319867Y-108340500D01*
X172598658Y-108340500D01*
X177794560Y-108340500D01*
X177861599Y-108360185D01*
X177882241Y-108376819D01*
X178798762Y-109293340D01*
X178829012Y-109342703D01*
X178850318Y-109408277D01*
X178850321Y-109408284D01*
X178944967Y-109572216D01*
X179025619Y-109661789D01*
X179071629Y-109712888D01*
X179224765Y-109824148D01*
X179224770Y-109824151D01*
X179397692Y-109901142D01*
X179397697Y-109901144D01*
X179582854Y-109940500D01*
X179582855Y-109940500D01*
X179772144Y-109940500D01*
X179772146Y-109940500D01*
X179957303Y-109901144D01*
X180069431Y-109851221D01*
X180119867Y-109840500D01*
X184256344Y-109840500D01*
X184256345Y-109840499D01*
X184410997Y-109809737D01*
X184556679Y-109749394D01*
X184687789Y-109661789D01*
X186799289Y-107550289D01*
X186858844Y-107461158D01*
X186886894Y-107419179D01*
X186947237Y-107273497D01*
X186978000Y-107118842D01*
X186978000Y-89461158D01*
X186978000Y-89461155D01*
X186977999Y-89461153D01*
X186954627Y-89343655D01*
X186947237Y-89306503D01*
X186935172Y-89277375D01*
X186886897Y-89160827D01*
X186886890Y-89160814D01*
X186799289Y-89029711D01*
X186799286Y-89029707D01*
X186687791Y-88918212D01*
X186687788Y-88918210D01*
X186556685Y-88830609D01*
X186556672Y-88830602D01*
X186411001Y-88770264D01*
X186410989Y-88770261D01*
X186256345Y-88739500D01*
X186256342Y-88739500D01*
X182756342Y-88739500D01*
X182598657Y-88739500D01*
X182598654Y-88739500D01*
X182444009Y-88770261D01*
X182444001Y-88770263D01*
X182419474Y-88780423D01*
X182419473Y-88780423D01*
X182298327Y-88830602D01*
X182298314Y-88830609D01*
X182167212Y-88918209D01*
X182167210Y-88918212D01*
X181989681Y-89095741D01*
X181928358Y-89129226D01*
X181858666Y-89124242D01*
X181802733Y-89082370D01*
X181778316Y-89016906D01*
X181778000Y-89008060D01*
X181778000Y-86540000D01*
X184647038Y-86540000D01*
X184666837Y-86741031D01*
X184725478Y-86934345D01*
X184820698Y-87112488D01*
X184820703Y-87112495D01*
X184948852Y-87268647D01*
X185024494Y-87330724D01*
X185105006Y-87396798D01*
X185105009Y-87396799D01*
X185105011Y-87396801D01*
X185283154Y-87492021D01*
X185283156Y-87492021D01*
X185283159Y-87492023D01*
X185476467Y-87550662D01*
X185677500Y-87570462D01*
X185878533Y-87550662D01*
X186071841Y-87492023D01*
X186249994Y-87396798D01*
X186406147Y-87268647D01*
X186534298Y-87112494D01*
X186629523Y-86934341D01*
X186688162Y-86741033D01*
X186707962Y-86540000D01*
X186688162Y-86338967D01*
X186629523Y-86145659D01*
X186629521Y-86145656D01*
X186629521Y-86145654D01*
X186534301Y-85967511D01*
X186534299Y-85967509D01*
X186534298Y-85967506D01*
X186486670Y-85909471D01*
X186406147Y-85811352D01*
X186249995Y-85683203D01*
X186249988Y-85683198D01*
X186071845Y-85587978D01*
X185878531Y-85529337D01*
X185677500Y-85509538D01*
X185476468Y-85529337D01*
X185283154Y-85587978D01*
X185105011Y-85683198D01*
X185105004Y-85683203D01*
X184948852Y-85811352D01*
X184820703Y-85967504D01*
X184820698Y-85967511D01*
X184725478Y-86145654D01*
X184666837Y-86338968D01*
X184647038Y-86540000D01*
X181778000Y-86540000D01*
X181778000Y-83964361D01*
X181797685Y-83897322D01*
X181814319Y-83876680D01*
X183376957Y-82314042D01*
X183376963Y-82314036D01*
X183378180Y-82312215D01*
X183382189Y-82306216D01*
X183475509Y-82166553D01*
X183475509Y-82166552D01*
X183475513Y-82166547D01*
X183543394Y-82002666D01*
X183578000Y-81828691D01*
X183578000Y-79764500D01*
X183597685Y-79697461D01*
X183650489Y-79651706D01*
X183702000Y-79640500D01*
X183779474Y-79640500D01*
X183779476Y-79640500D01*
X183979956Y-79603024D01*
X184170137Y-79529348D01*
X184343541Y-79421981D01*
X184494264Y-79284579D01*
X184617173Y-79121821D01*
X184708082Y-78939250D01*
X184763897Y-78743083D01*
X184782715Y-78540000D01*
X184763897Y-78336917D01*
X184708082Y-78140750D01*
X184617173Y-77958179D01*
X184494264Y-77795421D01*
X184494262Y-77795418D01*
X184343541Y-77658019D01*
X184343539Y-77658017D01*
X184170142Y-77550655D01*
X184170135Y-77550651D01*
X184094372Y-77521300D01*
X183979956Y-77476976D01*
X183979954Y-77476975D01*
X183977206Y-77475911D01*
X183921805Y-77433338D01*
X183898214Y-77367571D01*
X183898000Y-77360284D01*
X183898000Y-74877339D01*
X183897999Y-74877324D01*
X183897975Y-74877024D01*
X183895232Y-74842161D01*
X183882528Y-74798435D01*
X183851494Y-74691615D01*
X183851493Y-74691612D01*
X183851493Y-74691611D01*
X183771688Y-74556668D01*
X183771686Y-74556666D01*
X183771683Y-74556662D01*
X183660837Y-74445816D01*
X183660829Y-74445810D01*
X183525887Y-74366006D01*
X183525884Y-74366005D01*
X183375343Y-74322268D01*
X183375337Y-74322267D01*
X183340175Y-74319500D01*
X183340168Y-74319500D01*
X182014832Y-74319500D01*
X182014824Y-74319500D01*
X181979662Y-74322267D01*
X181979656Y-74322268D01*
X181829115Y-74366005D01*
X181829112Y-74366006D01*
X181694170Y-74445810D01*
X181694162Y-74445816D01*
X181583316Y-74556662D01*
X181583310Y-74556670D01*
X181503506Y-74691612D01*
X181503505Y-74691615D01*
X181459768Y-74842156D01*
X181459767Y-74842162D01*
X181457000Y-74877324D01*
X181457000Y-77360284D01*
X181437315Y-77427323D01*
X181384511Y-77473078D01*
X181377794Y-77475911D01*
X181375045Y-77476975D01*
X181375044Y-77476976D01*
X181307865Y-77503000D01*
X181184864Y-77550651D01*
X181184857Y-77550655D01*
X181011460Y-77658017D01*
X181011458Y-77658019D01*
X180860737Y-77795418D01*
X180737827Y-77958178D01*
X180646922Y-78140739D01*
X180646917Y-78140752D01*
X180591102Y-78336917D01*
X180572285Y-78539999D01*
X180572285Y-78540000D01*
X180591102Y-78743082D01*
X180646917Y-78939247D01*
X180646922Y-78939260D01*
X180737827Y-79121821D01*
X180860737Y-79284581D01*
X181011458Y-79421980D01*
X181011460Y-79421982D01*
X181110641Y-79483392D01*
X181184863Y-79529348D01*
X181375044Y-79603024D01*
X181575524Y-79640500D01*
X181653000Y-79640500D01*
X181720039Y-79660185D01*
X181765794Y-79712989D01*
X181777000Y-79764500D01*
X181777000Y-81315637D01*
X181757315Y-81382676D01*
X181740681Y-81403318D01*
X180178038Y-82965960D01*
X180178037Y-82965961D01*
X180156153Y-82998715D01*
X180156152Y-82998716D01*
X180079490Y-83113447D01*
X180079483Y-83113460D01*
X180066627Y-83144500D01*
X180066627Y-83144501D01*
X180011605Y-83277333D01*
X180011603Y-83277341D01*
X179977845Y-83447053D01*
X179977846Y-83447054D01*
X179977000Y-83451307D01*
X179977000Y-88915638D01*
X179957315Y-88982677D01*
X179940681Y-89003319D01*
X179840819Y-89103181D01*
X179779496Y-89136666D01*
X179753138Y-89139500D01*
X179026596Y-89139500D01*
X178959557Y-89119815D01*
X178913802Y-89067011D01*
X178903858Y-88997853D01*
X178932883Y-88934297D01*
X178938895Y-88927838D01*
X179022623Y-88844110D01*
X179080624Y-88811398D01*
X179127725Y-88799790D01*
X179278352Y-88720734D01*
X179405683Y-88607929D01*
X179502318Y-88467930D01*
X179562640Y-88308872D01*
X179583145Y-88140000D01*
X179562640Y-87971128D01*
X179502318Y-87812070D01*
X179499458Y-87807927D01*
X179412780Y-87682353D01*
X179405683Y-87672071D01*
X179278352Y-87559266D01*
X179278349Y-87559263D01*
X179127726Y-87480210D01*
X178962556Y-87439500D01*
X178792444Y-87439500D01*
X178627273Y-87480210D01*
X178476650Y-87559263D01*
X178349316Y-87672072D01*
X178252682Y-87812068D01*
X178252682Y-87812069D01*
X178198880Y-87953934D01*
X178170619Y-87997644D01*
X177865082Y-88303182D01*
X177803761Y-88336666D01*
X177777403Y-88339500D01*
X167315383Y-88339500D01*
X167248344Y-88319815D01*
X167227702Y-88303181D01*
X166982319Y-88057798D01*
X166948834Y-87996475D01*
X166946000Y-87970117D01*
X166946000Y-82458945D01*
X166946000Y-82458943D01*
X166905077Y-82306216D01*
X166829486Y-82175287D01*
X166826024Y-82169290D01*
X166826021Y-82169286D01*
X166826020Y-82169284D01*
X166714216Y-82057480D01*
X166714215Y-82057479D01*
X166709885Y-82053149D01*
X166709874Y-82053139D01*
X166325090Y-81668355D01*
X166325088Y-81668352D01*
X166238416Y-81581680D01*
X166204931Y-81520357D01*
X166209915Y-81450665D01*
X166238416Y-81406318D01*
X166428311Y-81216423D01*
X166670304Y-80974429D01*
X166728306Y-80941716D01*
X166849725Y-80911790D01*
X167000352Y-80832734D01*
X167127683Y-80719929D01*
X167224318Y-80579930D01*
X167284640Y-80420872D01*
X167305145Y-80252000D01*
X167284640Y-80083128D01*
X167224318Y-79924070D01*
X167127683Y-79784071D01*
X167000352Y-79671266D01*
X167000349Y-79671263D01*
X166849726Y-79592210D01*
X166684556Y-79551500D01*
X166514444Y-79551500D01*
X166349273Y-79592210D01*
X166198650Y-79671263D01*
X166071316Y-79784072D01*
X165974682Y-79924068D01*
X165974681Y-79924071D01*
X165955091Y-79975724D01*
X165926831Y-80019432D01*
X165343084Y-80603181D01*
X165281761Y-80636666D01*
X165255403Y-80639500D01*
X156571254Y-80639500D01*
X156513628Y-80625296D01*
X156469959Y-80602376D01*
X156427724Y-80580209D01*
X156262556Y-80539500D01*
X156092444Y-80539500D01*
X155927273Y-80580210D01*
X155776650Y-80659263D01*
X155649316Y-80772072D01*
X155552682Y-80912068D01*
X155492360Y-81071125D01*
X155492359Y-81071130D01*
X155471855Y-81240000D01*
X155492359Y-81408869D01*
X155492360Y-81408874D01*
X155552682Y-81567931D01*
X155614975Y-81658177D01*
X155649317Y-81707929D01*
X155755005Y-81801560D01*
X155776650Y-81820736D01*
X155927273Y-81899789D01*
X155927275Y-81899790D01*
X156092444Y-81940500D01*
X156262556Y-81940500D01*
X156427725Y-81899790D01*
X156513628Y-81854703D01*
X156571254Y-81840500D01*
X160052403Y-81840500D01*
X160119442Y-81860185D01*
X160165197Y-81912989D01*
X160175141Y-81982147D01*
X160146116Y-82045703D01*
X160140087Y-82052177D01*
X159733321Y-82458943D01*
X159508786Y-82683478D01*
X159396981Y-82795282D01*
X159396979Y-82795285D01*
X159346861Y-82882094D01*
X159346859Y-82882096D01*
X159317925Y-82932209D01*
X159317924Y-82932210D01*
X159302044Y-82991472D01*
X159276999Y-83084943D01*
X159276999Y-83084945D01*
X159276999Y-83253046D01*
X159277000Y-83253059D01*
X159277000Y-87639902D01*
X159257315Y-87706941D01*
X159240681Y-87727583D01*
X158665084Y-88303181D01*
X158603761Y-88336666D01*
X158577403Y-88339500D01*
X154777598Y-88339500D01*
X154710559Y-88319815D01*
X154689917Y-88303181D01*
X153584380Y-87197644D01*
X153556119Y-87153934D01*
X153540403Y-87112495D01*
X153502318Y-87012070D01*
X153405683Y-86872071D01*
X153278352Y-86759266D01*
X153278349Y-86759263D01*
X153127726Y-86680210D01*
X152962556Y-86639500D01*
X152792444Y-86639500D01*
X152627273Y-86680210D01*
X152476650Y-86759263D01*
X152349316Y-86872072D01*
X152252682Y-87012068D01*
X152192360Y-87171125D01*
X152192359Y-87171130D01*
X152171855Y-87340000D01*
X152192359Y-87508869D01*
X152192360Y-87508874D01*
X152252682Y-87667931D01*
X152280942Y-87708872D01*
X152349317Y-87807929D01*
X152476648Y-87920734D01*
X152627275Y-87999790D01*
X152674371Y-88011397D01*
X152732378Y-88044113D01*
X153416083Y-88727819D01*
X153449568Y-88789142D01*
X153444584Y-88858834D01*
X153402712Y-88914767D01*
X153337248Y-88939184D01*
X153328402Y-88939500D01*
X150432383Y-88939500D01*
X150365344Y-88919815D01*
X150344702Y-88903181D01*
X148414319Y-86972798D01*
X148380834Y-86911475D01*
X148378000Y-86885117D01*
X148378000Y-85660945D01*
X148377998Y-85660936D01*
X148372303Y-85639679D01*
X148337077Y-85508215D01*
X148296554Y-85438028D01*
X148296554Y-85438026D01*
X148258024Y-85371290D01*
X148258021Y-85371286D01*
X148258020Y-85371284D01*
X148146216Y-85259480D01*
X148146215Y-85259479D01*
X148141885Y-85255149D01*
X148141874Y-85255139D01*
X147701008Y-84814273D01*
X147667523Y-84752950D01*
X147672507Y-84683258D01*
X147706459Y-84633779D01*
X147823683Y-84529929D01*
X147920318Y-84389930D01*
X147980640Y-84230872D01*
X148001145Y-84062000D01*
X147980640Y-83893128D01*
X147920318Y-83734070D01*
X147917948Y-83730637D01*
X147916989Y-83727727D01*
X147916831Y-83727426D01*
X147916881Y-83727399D01*
X147896067Y-83664283D01*
X147896000Y-83660199D01*
X147896000Y-82966943D01*
X147895999Y-82966939D01*
X147886694Y-82932210D01*
X147879863Y-82906716D01*
X147855077Y-82814215D01*
X147853647Y-82811739D01*
X147835818Y-82780858D01*
X147813376Y-82741987D01*
X147776020Y-82677284D01*
X147664216Y-82565480D01*
X147664215Y-82565479D01*
X147659885Y-82561149D01*
X147659874Y-82561139D01*
X146513090Y-81414355D01*
X146513088Y-81414352D01*
X146394217Y-81295481D01*
X146394216Y-81295480D01*
X146298121Y-81240000D01*
X146257285Y-81216423D01*
X146104557Y-81175499D01*
X145946443Y-81175499D01*
X145938847Y-81175499D01*
X145938831Y-81175500D01*
X141032169Y-81175500D01*
X141032153Y-81175499D01*
X141024557Y-81175499D01*
X140866443Y-81175499D01*
X140751897Y-81206192D01*
X140713714Y-81216423D01*
X140672879Y-81240000D01*
X140672878Y-81240000D01*
X140576787Y-81295477D01*
X140576782Y-81295481D01*
X139696981Y-82175282D01*
X139696977Y-82175287D01*
X139650079Y-82256519D01*
X139650079Y-82256520D01*
X139617923Y-82312214D01*
X139617923Y-82312215D01*
X139576999Y-82464943D01*
X139576999Y-82464945D01*
X139576999Y-82633046D01*
X139577000Y-82633059D01*
X139577000Y-85290902D01*
X139557315Y-85357941D01*
X139504511Y-85403696D01*
X139435353Y-85413640D01*
X139371797Y-85384615D01*
X139365319Y-85378583D01*
X138415090Y-84428355D01*
X138415088Y-84428352D01*
X138296217Y-84309481D01*
X138296216Y-84309480D01*
X138209404Y-84259360D01*
X138209404Y-84259359D01*
X138209400Y-84259358D01*
X138159285Y-84230423D01*
X138006557Y-84189499D01*
X137848443Y-84189499D01*
X137840847Y-84189499D01*
X137840831Y-84189500D01*
X132477598Y-84189500D01*
X132410559Y-84169815D01*
X132389917Y-84153181D01*
X132384380Y-84147644D01*
X132356119Y-84103934D01*
X132302317Y-83962068D01*
X132226264Y-83851888D01*
X132205683Y-83822071D01*
X132099190Y-83727727D01*
X132078349Y-83709263D01*
X131927726Y-83630210D01*
X131762556Y-83589500D01*
X131592444Y-83589500D01*
X131427273Y-83630210D01*
X131276650Y-83709263D01*
X131149316Y-83822072D01*
X131052682Y-83962068D01*
X130992360Y-84121125D01*
X130992359Y-84121130D01*
X130971855Y-84290000D01*
X130990058Y-84439919D01*
X130978597Y-84508842D01*
X130931693Y-84560628D01*
X130864238Y-84578835D01*
X130797647Y-84557682D01*
X130779281Y-84542546D01*
X130384380Y-84147645D01*
X130356119Y-84103934D01*
X130340216Y-84062000D01*
X130302318Y-83962070D01*
X130205683Y-83822071D01*
X130099190Y-83727727D01*
X130078349Y-83709263D01*
X129927726Y-83630210D01*
X129762556Y-83589500D01*
X129592444Y-83589500D01*
X129427273Y-83630210D01*
X129276650Y-83709263D01*
X129149316Y-83822072D01*
X129052682Y-83962068D01*
X128992360Y-84121125D01*
X128992359Y-84121130D01*
X128971855Y-84290000D01*
X128992359Y-84458869D01*
X128992360Y-84458874D01*
X129052682Y-84617931D01*
X129109451Y-84700174D01*
X129149317Y-84757929D01*
X129276648Y-84870734D01*
X129427275Y-84949790D01*
X129474371Y-84961397D01*
X129532378Y-84994113D01*
X130292639Y-85754374D01*
X130292649Y-85754385D01*
X130296979Y-85758715D01*
X130296980Y-85758716D01*
X130408784Y-85870520D01*
X130408786Y-85870521D01*
X130408790Y-85870524D01*
X130476245Y-85909469D01*
X130476249Y-85909470D01*
X130476250Y-85909471D01*
X130545715Y-85949577D01*
X130698443Y-85990501D01*
X130698446Y-85990501D01*
X130864153Y-85990501D01*
X130864169Y-85990500D01*
X137378875Y-85990500D01*
X137445914Y-86010185D01*
X137466556Y-86026819D01*
X137690681Y-86250944D01*
X137724166Y-86312267D01*
X137727000Y-86338625D01*
X137727000Y-89040903D01*
X137707315Y-89107942D01*
X137654511Y-89153697D01*
X137585353Y-89163641D01*
X137521797Y-89134616D01*
X137515319Y-89128584D01*
X137365090Y-88978355D01*
X137365088Y-88978352D01*
X137246217Y-88859481D01*
X137246216Y-88859480D01*
X137159404Y-88809360D01*
X137159404Y-88809359D01*
X137159400Y-88809358D01*
X137109285Y-88780423D01*
X136956557Y-88739499D01*
X136798443Y-88739499D01*
X136790847Y-88739499D01*
X136790831Y-88739500D01*
X129871254Y-88739500D01*
X129813628Y-88725296D01*
X129769959Y-88702376D01*
X129727724Y-88680209D01*
X129562556Y-88639500D01*
X129392444Y-88639500D01*
X129227273Y-88680210D01*
X129076650Y-88759263D01*
X128949316Y-88872072D01*
X128852682Y-89012068D01*
X128792360Y-89171125D01*
X128792359Y-89171130D01*
X128771855Y-89340000D01*
X123703000Y-89340000D01*
X123703000Y-86540000D01*
X124647038Y-86540000D01*
X124666837Y-86741031D01*
X124725478Y-86934345D01*
X124820698Y-87112488D01*
X124820703Y-87112495D01*
X124948852Y-87268647D01*
X125024494Y-87330724D01*
X125105006Y-87396798D01*
X125105009Y-87396799D01*
X125105011Y-87396801D01*
X125283154Y-87492021D01*
X125283156Y-87492021D01*
X125283159Y-87492023D01*
X125476467Y-87550662D01*
X125677500Y-87570462D01*
X125878533Y-87550662D01*
X126071841Y-87492023D01*
X126249994Y-87396798D01*
X126406147Y-87268647D01*
X126534298Y-87112494D01*
X126629523Y-86934341D01*
X126688162Y-86741033D01*
X126707962Y-86540000D01*
X126688162Y-86338967D01*
X126629523Y-86145659D01*
X126629521Y-86145656D01*
X126629521Y-86145654D01*
X126534301Y-85967511D01*
X126534299Y-85967509D01*
X126534298Y-85967506D01*
X126486670Y-85909471D01*
X126406147Y-85811352D01*
X126249995Y-85683203D01*
X126249988Y-85683198D01*
X126071845Y-85587978D01*
X125878531Y-85529337D01*
X125677500Y-85509538D01*
X125476468Y-85529337D01*
X125283154Y-85587978D01*
X125105011Y-85683198D01*
X125105004Y-85683203D01*
X124948852Y-85811352D01*
X124820703Y-85967504D01*
X124820698Y-85967511D01*
X124725478Y-86145654D01*
X124666837Y-86338968D01*
X124647038Y-86540000D01*
X123703000Y-86540000D01*
X123703000Y-78202987D01*
X177177500Y-78202987D01*
X177183684Y-78281563D01*
X177183684Y-78281564D01*
X177232650Y-78464307D01*
X177318537Y-78632873D01*
X177318538Y-78632875D01*
X177437599Y-78779900D01*
X177584624Y-78898961D01*
X177584626Y-78898962D01*
X177753192Y-78984849D01*
X177935936Y-79033815D01*
X178014512Y-79039999D01*
X178014524Y-79040000D01*
X178427500Y-79040000D01*
X178927500Y-79040000D01*
X179340476Y-79040000D01*
X179340487Y-79039999D01*
X179419063Y-79033815D01*
X179419064Y-79033815D01*
X179601807Y-78984849D01*
X179770373Y-78898962D01*
X179770375Y-78898961D01*
X179917400Y-78779900D01*
X180036461Y-78632875D01*
X180036462Y-78632873D01*
X180122349Y-78464307D01*
X180171315Y-78281564D01*
X180171315Y-78281563D01*
X180177499Y-78202987D01*
X180177500Y-78202975D01*
X180177500Y-76790000D01*
X178927500Y-76790000D01*
X178927500Y-79040000D01*
X178427500Y-79040000D01*
X178427500Y-76790000D01*
X177177500Y-76790000D01*
X177177500Y-78202987D01*
X123703000Y-78202987D01*
X123703000Y-74877012D01*
X177177500Y-74877012D01*
X177177500Y-76290000D01*
X178427500Y-76290000D01*
X178927500Y-76290000D01*
X180177500Y-76290000D01*
X180177500Y-74877024D01*
X180177499Y-74877012D01*
X180171315Y-74798436D01*
X180171315Y-74798435D01*
X180122349Y-74615692D01*
X180036462Y-74447126D01*
X180036461Y-74447124D01*
X179917400Y-74300099D01*
X179770375Y-74181038D01*
X179770373Y-74181037D01*
X179601807Y-74095150D01*
X179419063Y-74046184D01*
X179340487Y-74040000D01*
X178927500Y-74040000D01*
X178927500Y-76290000D01*
X178427500Y-76290000D01*
X178427500Y-74040000D01*
X178014512Y-74040000D01*
X177935936Y-74046184D01*
X177935935Y-74046184D01*
X177753192Y-74095150D01*
X177584626Y-74181037D01*
X177584624Y-74181038D01*
X177437599Y-74300099D01*
X177318538Y-74447124D01*
X177318537Y-74447126D01*
X177232650Y-74615692D01*
X177183684Y-74798435D01*
X177183684Y-74798436D01*
X177177500Y-74877012D01*
X123703000Y-74877012D01*
X123703000Y-73689500D01*
X123722685Y-73622461D01*
X123775489Y-73576706D01*
X123827000Y-73565500D01*
X187528000Y-73565500D01*
X187595039Y-73585185D01*
G37*
%TD.AperFunction*%
%TD*%
M02*
