%TF.GenerationSoftware,KiCad,Pcbnew,8.0.3*%
%TF.CreationDate,2024-07-02T20:09:31+01:00*%
%TF.ProjectId,Tims_I2C_Dual_Motor_Driver,54696d73-5f49-4324-935f-4475616c5f4d,rev?*%
%TF.SameCoordinates,Original*%
%TF.FileFunction,Legend,Top*%
%TF.FilePolarity,Positive*%
%FSLAX46Y46*%
G04 Gerber Fmt 4.6, Leading zero omitted, Abs format (unit mm)*
G04 Created by KiCad (PCBNEW 8.0.3) date 2024-07-02 20:09:31*
%MOMM*%
%LPD*%
G01*
G04 APERTURE LIST*
%ADD10C,0.100000*%
%ADD11C,0.200000*%
%ADD12C,0.180000*%
%ADD13C,0.120000*%
G04 APERTURE END LIST*
D10*
X159217500Y-109970000D02*
G75*
G02*
X157217500Y-109970000I-1000000J0D01*
G01*
X157217500Y-109970000D02*
G75*
G02*
X159217500Y-109970000I1000000J0D01*
G01*
X156677500Y-109970000D02*
G75*
G02*
X154677500Y-109970000I-1000000J0D01*
G01*
X154677500Y-109970000D02*
G75*
G02*
X156677500Y-109970000I1000000J0D01*
G01*
X154137500Y-109970000D02*
G75*
G02*
X152137500Y-109970000I-1000000J0D01*
G01*
X152137500Y-109970000D02*
G75*
G02*
X154137500Y-109970000I1000000J0D01*
G01*
D11*
X172277500Y-111540000D02*
G75*
G02*
X169077500Y-111540000I-1600000J0D01*
G01*
X169077500Y-111540000D02*
G75*
G02*
X172277500Y-111540000I1600000J0D01*
G01*
X127277500Y-86540000D02*
G75*
G02*
X124077500Y-86540000I-1600000J0D01*
G01*
X124077500Y-86540000D02*
G75*
G02*
X127277500Y-86540000I1600000J0D01*
G01*
X187277500Y-86540000D02*
G75*
G02*
X184077500Y-86540000I-1600000J0D01*
G01*
X184077500Y-86540000D02*
G75*
G02*
X187277500Y-86540000I1600000J0D01*
G01*
X167477500Y-105640000D02*
X167477500Y-109140000D01*
D10*
X161757500Y-109970000D02*
G75*
G02*
X159757500Y-109970000I-1000000J0D01*
G01*
X159757500Y-109970000D02*
G75*
G02*
X161757500Y-109970000I1000000J0D01*
G01*
X126677500Y-92540000D02*
X128477500Y-92940000D01*
X126537807Y-89140000D02*
X128677500Y-88340000D01*
D11*
X142277500Y-111540000D02*
G75*
G02*
X139077500Y-111540000I-1600000J0D01*
G01*
X139077500Y-111540000D02*
G75*
G02*
X142277500Y-111540000I1600000J0D01*
G01*
X167277500Y-106140000D02*
X167677500Y-106140000D01*
X167477500Y-105640000D02*
X167277500Y-106140000D01*
X167677500Y-106140000D02*
X167477500Y-105640000D01*
D10*
X151597500Y-109970000D02*
G75*
G02*
X149597500Y-109970000I-1000000J0D01*
G01*
X149597500Y-109970000D02*
G75*
G02*
X151597500Y-109970000I1000000J0D01*
G01*
X182320357Y-90441870D02*
X182406071Y-90479965D01*
X182406071Y-90479965D02*
X182434642Y-90518061D01*
X182434642Y-90518061D02*
X182463214Y-90594251D01*
X182463214Y-90594251D02*
X182463214Y-90708537D01*
X182463214Y-90708537D02*
X182434642Y-90784727D01*
X182434642Y-90784727D02*
X182406071Y-90822823D01*
X182406071Y-90822823D02*
X182348928Y-90860918D01*
X182348928Y-90860918D02*
X182120357Y-90860918D01*
X182120357Y-90860918D02*
X182120357Y-90060918D01*
X182120357Y-90060918D02*
X182320357Y-90060918D01*
X182320357Y-90060918D02*
X182377500Y-90099013D01*
X182377500Y-90099013D02*
X182406071Y-90137108D01*
X182406071Y-90137108D02*
X182434642Y-90213299D01*
X182434642Y-90213299D02*
X182434642Y-90289489D01*
X182434642Y-90289489D02*
X182406071Y-90365680D01*
X182406071Y-90365680D02*
X182377500Y-90403775D01*
X182377500Y-90403775D02*
X182320357Y-90441870D01*
X182320357Y-90441870D02*
X182120357Y-90441870D01*
X181434643Y-92148873D02*
X181434643Y-91348873D01*
X181434643Y-91348873D02*
X181663214Y-91348873D01*
X181663214Y-91348873D02*
X181720357Y-91386968D01*
X181720357Y-91386968D02*
X181748928Y-91425063D01*
X181748928Y-91425063D02*
X181777500Y-91501254D01*
X181777500Y-91501254D02*
X181777500Y-91615539D01*
X181777500Y-91615539D02*
X181748928Y-91691730D01*
X181748928Y-91691730D02*
X181720357Y-91729825D01*
X181720357Y-91729825D02*
X181663214Y-91767920D01*
X181663214Y-91767920D02*
X181434643Y-91767920D01*
X181977500Y-91348873D02*
X182120357Y-92148873D01*
X182120357Y-92148873D02*
X182234643Y-91577444D01*
X182234643Y-91577444D02*
X182348928Y-92148873D01*
X182348928Y-92148873D02*
X182491786Y-91348873D01*
X182720357Y-92148873D02*
X182720357Y-91348873D01*
X182720357Y-91348873D02*
X182920357Y-91920301D01*
X182920357Y-91920301D02*
X183120357Y-91348873D01*
X183120357Y-91348873D02*
X183120357Y-92148873D01*
X178934642Y-90632346D02*
X179220357Y-90632346D01*
X178877499Y-90860918D02*
X179077499Y-90060918D01*
X179077499Y-90060918D02*
X179277499Y-90860918D01*
X178548929Y-91729825D02*
X178348929Y-91729825D01*
X178348929Y-92148873D02*
X178348929Y-91348873D01*
X178348929Y-91348873D02*
X178634643Y-91348873D01*
X179291786Y-91310778D02*
X178777500Y-92339349D01*
X179834643Y-92148873D02*
X179634643Y-91767920D01*
X179491786Y-92148873D02*
X179491786Y-91348873D01*
X179491786Y-91348873D02*
X179720357Y-91348873D01*
X179720357Y-91348873D02*
X179777500Y-91386968D01*
X179777500Y-91386968D02*
X179806071Y-91425063D01*
X179806071Y-91425063D02*
X179834643Y-91501254D01*
X179834643Y-91501254D02*
X179834643Y-91615539D01*
X179834643Y-91615539D02*
X179806071Y-91691730D01*
X179806071Y-91691730D02*
X179777500Y-91729825D01*
X179777500Y-91729825D02*
X179720357Y-91767920D01*
X179720357Y-91767920D02*
X179491786Y-91767920D01*
D11*
X125639405Y-89296560D02*
X126115595Y-89296560D01*
X125544167Y-89582275D02*
X125877500Y-88582275D01*
X125877500Y-88582275D02*
X126210833Y-89582275D01*
X124567975Y-90668409D02*
X124234642Y-90668409D01*
X124234642Y-91192219D02*
X124234642Y-90192219D01*
X124234642Y-90192219D02*
X124710832Y-90192219D01*
X125520356Y-91192219D02*
X125520356Y-90668409D01*
X125520356Y-90668409D02*
X125472737Y-90573171D01*
X125472737Y-90573171D02*
X125377499Y-90525552D01*
X125377499Y-90525552D02*
X125187023Y-90525552D01*
X125187023Y-90525552D02*
X125091785Y-90573171D01*
X125520356Y-91144600D02*
X125425118Y-91192219D01*
X125425118Y-91192219D02*
X125187023Y-91192219D01*
X125187023Y-91192219D02*
X125091785Y-91144600D01*
X125091785Y-91144600D02*
X125044166Y-91049361D01*
X125044166Y-91049361D02*
X125044166Y-90954123D01*
X125044166Y-90954123D02*
X125091785Y-90858885D01*
X125091785Y-90858885D02*
X125187023Y-90811266D01*
X125187023Y-90811266D02*
X125425118Y-90811266D01*
X125425118Y-90811266D02*
X125520356Y-90763647D01*
X126425118Y-90525552D02*
X126425118Y-91192219D01*
X125996547Y-90525552D02*
X125996547Y-91049361D01*
X125996547Y-91049361D02*
X126044166Y-91144600D01*
X126044166Y-91144600D02*
X126139404Y-91192219D01*
X126139404Y-91192219D02*
X126282261Y-91192219D01*
X126282261Y-91192219D02*
X126377499Y-91144600D01*
X126377499Y-91144600D02*
X126425118Y-91096980D01*
X127044166Y-91192219D02*
X126948928Y-91144600D01*
X126948928Y-91144600D02*
X126901309Y-91049361D01*
X126901309Y-91049361D02*
X126901309Y-90192219D01*
X127282262Y-90525552D02*
X127663214Y-90525552D01*
X127425119Y-90192219D02*
X127425119Y-91049361D01*
X127425119Y-91049361D02*
X127472738Y-91144600D01*
X127472738Y-91144600D02*
X127567976Y-91192219D01*
X127567976Y-91192219D02*
X127663214Y-91192219D01*
X125948928Y-92278353D02*
X126091785Y-92325972D01*
X126091785Y-92325972D02*
X126139404Y-92373591D01*
X126139404Y-92373591D02*
X126187023Y-92468829D01*
X126187023Y-92468829D02*
X126187023Y-92611686D01*
X126187023Y-92611686D02*
X126139404Y-92706924D01*
X126139404Y-92706924D02*
X126091785Y-92754544D01*
X126091785Y-92754544D02*
X125996547Y-92802163D01*
X125996547Y-92802163D02*
X125615595Y-92802163D01*
X125615595Y-92802163D02*
X125615595Y-91802163D01*
X125615595Y-91802163D02*
X125948928Y-91802163D01*
X125948928Y-91802163D02*
X126044166Y-91849782D01*
X126044166Y-91849782D02*
X126091785Y-91897401D01*
X126091785Y-91897401D02*
X126139404Y-91992639D01*
X126139404Y-91992639D02*
X126139404Y-92087877D01*
X126139404Y-92087877D02*
X126091785Y-92183115D01*
X126091785Y-92183115D02*
X126044166Y-92230734D01*
X126044166Y-92230734D02*
X125948928Y-92278353D01*
X125948928Y-92278353D02*
X125615595Y-92278353D01*
D10*
X149604148Y-112398019D02*
X150311255Y-112822284D01*
X150311255Y-112822284D02*
X149886991Y-112115177D01*
X150782660Y-112243129D02*
X150789394Y-112290270D01*
X150789394Y-112290270D02*
X150755723Y-112377816D01*
X150755723Y-112377816D02*
X150715316Y-112418222D01*
X150715316Y-112418222D02*
X150627770Y-112451894D01*
X150627770Y-112451894D02*
X150533489Y-112438425D01*
X150533489Y-112438425D02*
X150459411Y-112404754D01*
X150459411Y-112404754D02*
X150331458Y-112317207D01*
X150331458Y-112317207D02*
X150250646Y-112236395D01*
X150250646Y-112236395D02*
X150163100Y-112108442D01*
X150163100Y-112108442D02*
X150129428Y-112034364D01*
X150129428Y-112034364D02*
X150115959Y-111940083D01*
X150115959Y-111940083D02*
X150149631Y-111852537D01*
X150149631Y-111852537D02*
X150190037Y-111812131D01*
X150190037Y-111812131D02*
X150277584Y-111778459D01*
X150277584Y-111778459D02*
X150324724Y-111785193D01*
X151206924Y-111818865D02*
X151213658Y-111866006D01*
X151213658Y-111866006D02*
X151179987Y-111953552D01*
X151179987Y-111953552D02*
X151139581Y-111993958D01*
X151139581Y-111993958D02*
X151052034Y-112027630D01*
X151052034Y-112027630D02*
X150957753Y-112014161D01*
X150957753Y-112014161D02*
X150883675Y-111980490D01*
X150883675Y-111980490D02*
X150755723Y-111892943D01*
X150755723Y-111892943D02*
X150674910Y-111812131D01*
X150674910Y-111812131D02*
X150587364Y-111684178D01*
X150587364Y-111684178D02*
X150553692Y-111610100D01*
X150553692Y-111610100D02*
X150540223Y-111515819D01*
X150540223Y-111515819D02*
X150573895Y-111428273D01*
X150573895Y-111428273D02*
X150614301Y-111387867D01*
X150614301Y-111387867D02*
X150701848Y-111354195D01*
X150701848Y-111354195D02*
X150748988Y-111360929D01*
D12*
X180210833Y-88422522D02*
X180210833Y-87522522D01*
X180210833Y-87522522D02*
X180477499Y-88165379D01*
X180477499Y-88165379D02*
X180744166Y-87522522D01*
X180744166Y-87522522D02*
X180744166Y-88422522D01*
X181239404Y-88422522D02*
X181163214Y-88379665D01*
X181163214Y-88379665D02*
X181125119Y-88336807D01*
X181125119Y-88336807D02*
X181087023Y-88251093D01*
X181087023Y-88251093D02*
X181087023Y-87993950D01*
X181087023Y-87993950D02*
X181125119Y-87908236D01*
X181125119Y-87908236D02*
X181163214Y-87865379D01*
X181163214Y-87865379D02*
X181239404Y-87822522D01*
X181239404Y-87822522D02*
X181353690Y-87822522D01*
X181353690Y-87822522D02*
X181429881Y-87865379D01*
X181429881Y-87865379D02*
X181467976Y-87908236D01*
X181467976Y-87908236D02*
X181506071Y-87993950D01*
X181506071Y-87993950D02*
X181506071Y-88251093D01*
X181506071Y-88251093D02*
X181467976Y-88336807D01*
X181467976Y-88336807D02*
X181429881Y-88379665D01*
X181429881Y-88379665D02*
X181353690Y-88422522D01*
X181353690Y-88422522D02*
X181239404Y-88422522D01*
X181734643Y-87822522D02*
X182039405Y-87822522D01*
X181848929Y-87522522D02*
X181848929Y-88293950D01*
X181848929Y-88293950D02*
X181887024Y-88379665D01*
X181887024Y-88379665D02*
X181963214Y-88422522D01*
X181963214Y-88422522D02*
X182039405Y-88422522D01*
X182420357Y-88422522D02*
X182344167Y-88379665D01*
X182344167Y-88379665D02*
X182306072Y-88336807D01*
X182306072Y-88336807D02*
X182267976Y-88251093D01*
X182267976Y-88251093D02*
X182267976Y-87993950D01*
X182267976Y-87993950D02*
X182306072Y-87908236D01*
X182306072Y-87908236D02*
X182344167Y-87865379D01*
X182344167Y-87865379D02*
X182420357Y-87822522D01*
X182420357Y-87822522D02*
X182534643Y-87822522D01*
X182534643Y-87822522D02*
X182610834Y-87865379D01*
X182610834Y-87865379D02*
X182648929Y-87908236D01*
X182648929Y-87908236D02*
X182687024Y-87993950D01*
X182687024Y-87993950D02*
X182687024Y-88251093D01*
X182687024Y-88251093D02*
X182648929Y-88336807D01*
X182648929Y-88336807D02*
X182610834Y-88379665D01*
X182610834Y-88379665D02*
X182534643Y-88422522D01*
X182534643Y-88422522D02*
X182420357Y-88422522D01*
X183029882Y-88422522D02*
X183029882Y-87822522D01*
X183029882Y-87993950D02*
X183067977Y-87908236D01*
X183067977Y-87908236D02*
X183106072Y-87865379D01*
X183106072Y-87865379D02*
X183182263Y-87822522D01*
X183182263Y-87822522D02*
X183258453Y-87822522D01*
X180096548Y-89871472D02*
X180096548Y-88971472D01*
X180096548Y-88971472D02*
X180401310Y-88971472D01*
X180401310Y-88971472D02*
X180477500Y-89014329D01*
X180477500Y-89014329D02*
X180515595Y-89057186D01*
X180515595Y-89057186D02*
X180553691Y-89142900D01*
X180553691Y-89142900D02*
X180553691Y-89271472D01*
X180553691Y-89271472D02*
X180515595Y-89357186D01*
X180515595Y-89357186D02*
X180477500Y-89400043D01*
X180477500Y-89400043D02*
X180401310Y-89442900D01*
X180401310Y-89442900D02*
X180096548Y-89442900D01*
X181010833Y-89871472D02*
X180934643Y-89828615D01*
X180934643Y-89828615D02*
X180896548Y-89785757D01*
X180896548Y-89785757D02*
X180858452Y-89700043D01*
X180858452Y-89700043D02*
X180858452Y-89442900D01*
X180858452Y-89442900D02*
X180896548Y-89357186D01*
X180896548Y-89357186D02*
X180934643Y-89314329D01*
X180934643Y-89314329D02*
X181010833Y-89271472D01*
X181010833Y-89271472D02*
X181125119Y-89271472D01*
X181125119Y-89271472D02*
X181201310Y-89314329D01*
X181201310Y-89314329D02*
X181239405Y-89357186D01*
X181239405Y-89357186D02*
X181277500Y-89442900D01*
X181277500Y-89442900D02*
X181277500Y-89700043D01*
X181277500Y-89700043D02*
X181239405Y-89785757D01*
X181239405Y-89785757D02*
X181201310Y-89828615D01*
X181201310Y-89828615D02*
X181125119Y-89871472D01*
X181125119Y-89871472D02*
X181010833Y-89871472D01*
X181544167Y-89271472D02*
X181696548Y-89871472D01*
X181696548Y-89871472D02*
X181848929Y-89442900D01*
X181848929Y-89442900D02*
X182001310Y-89871472D01*
X182001310Y-89871472D02*
X182153691Y-89271472D01*
X182763215Y-89828615D02*
X182687024Y-89871472D01*
X182687024Y-89871472D02*
X182534643Y-89871472D01*
X182534643Y-89871472D02*
X182458453Y-89828615D01*
X182458453Y-89828615D02*
X182420357Y-89742900D01*
X182420357Y-89742900D02*
X182420357Y-89400043D01*
X182420357Y-89400043D02*
X182458453Y-89314329D01*
X182458453Y-89314329D02*
X182534643Y-89271472D01*
X182534643Y-89271472D02*
X182687024Y-89271472D01*
X182687024Y-89271472D02*
X182763215Y-89314329D01*
X182763215Y-89314329D02*
X182801310Y-89400043D01*
X182801310Y-89400043D02*
X182801310Y-89485757D01*
X182801310Y-89485757D02*
X182420357Y-89571472D01*
X183144167Y-89871472D02*
X183144167Y-89271472D01*
X183144167Y-89442900D02*
X183182262Y-89357186D01*
X183182262Y-89357186D02*
X183220357Y-89314329D01*
X183220357Y-89314329D02*
X183296548Y-89271472D01*
X183296548Y-89271472D02*
X183372738Y-89271472D01*
D11*
X131944167Y-99987247D02*
X132277500Y-100987247D01*
X132277500Y-100987247D02*
X132610833Y-99987247D01*
X133515595Y-100892008D02*
X133467976Y-100939628D01*
X133467976Y-100939628D02*
X133325119Y-100987247D01*
X133325119Y-100987247D02*
X133229881Y-100987247D01*
X133229881Y-100987247D02*
X133087024Y-100939628D01*
X133087024Y-100939628D02*
X132991786Y-100844389D01*
X132991786Y-100844389D02*
X132944167Y-100749151D01*
X132944167Y-100749151D02*
X132896548Y-100558675D01*
X132896548Y-100558675D02*
X132896548Y-100415818D01*
X132896548Y-100415818D02*
X132944167Y-100225342D01*
X132944167Y-100225342D02*
X132991786Y-100130104D01*
X132991786Y-100130104D02*
X133087024Y-100034866D01*
X133087024Y-100034866D02*
X133229881Y-99987247D01*
X133229881Y-99987247D02*
X133325119Y-99987247D01*
X133325119Y-99987247D02*
X133467976Y-100034866D01*
X133467976Y-100034866D02*
X133515595Y-100082485D01*
X134515595Y-100892008D02*
X134467976Y-100939628D01*
X134467976Y-100939628D02*
X134325119Y-100987247D01*
X134325119Y-100987247D02*
X134229881Y-100987247D01*
X134229881Y-100987247D02*
X134087024Y-100939628D01*
X134087024Y-100939628D02*
X133991786Y-100844389D01*
X133991786Y-100844389D02*
X133944167Y-100749151D01*
X133944167Y-100749151D02*
X133896548Y-100558675D01*
X133896548Y-100558675D02*
X133896548Y-100415818D01*
X133896548Y-100415818D02*
X133944167Y-100225342D01*
X133944167Y-100225342D02*
X133991786Y-100130104D01*
X133991786Y-100130104D02*
X134087024Y-100034866D01*
X134087024Y-100034866D02*
X134229881Y-99987247D01*
X134229881Y-99987247D02*
X134325119Y-99987247D01*
X134325119Y-99987247D02*
X134467976Y-100034866D01*
X134467976Y-100034866D02*
X134515595Y-100082485D01*
X131301309Y-102597191D02*
X131301309Y-101597191D01*
X131301309Y-101597191D02*
X131682261Y-101597191D01*
X131682261Y-101597191D02*
X131777499Y-101644810D01*
X131777499Y-101644810D02*
X131825118Y-101692429D01*
X131825118Y-101692429D02*
X131872737Y-101787667D01*
X131872737Y-101787667D02*
X131872737Y-101930524D01*
X131872737Y-101930524D02*
X131825118Y-102025762D01*
X131825118Y-102025762D02*
X131777499Y-102073381D01*
X131777499Y-102073381D02*
X131682261Y-102121000D01*
X131682261Y-102121000D02*
X131301309Y-102121000D01*
X132444166Y-102597191D02*
X132348928Y-102549572D01*
X132348928Y-102549572D02*
X132301309Y-102501952D01*
X132301309Y-102501952D02*
X132253690Y-102406714D01*
X132253690Y-102406714D02*
X132253690Y-102121000D01*
X132253690Y-102121000D02*
X132301309Y-102025762D01*
X132301309Y-102025762D02*
X132348928Y-101978143D01*
X132348928Y-101978143D02*
X132444166Y-101930524D01*
X132444166Y-101930524D02*
X132587023Y-101930524D01*
X132587023Y-101930524D02*
X132682261Y-101978143D01*
X132682261Y-101978143D02*
X132729880Y-102025762D01*
X132729880Y-102025762D02*
X132777499Y-102121000D01*
X132777499Y-102121000D02*
X132777499Y-102406714D01*
X132777499Y-102406714D02*
X132729880Y-102501952D01*
X132729880Y-102501952D02*
X132682261Y-102549572D01*
X132682261Y-102549572D02*
X132587023Y-102597191D01*
X132587023Y-102597191D02*
X132444166Y-102597191D01*
X133110833Y-101930524D02*
X133301309Y-102597191D01*
X133301309Y-102597191D02*
X133491785Y-102121000D01*
X133491785Y-102121000D02*
X133682261Y-102597191D01*
X133682261Y-102597191D02*
X133872737Y-101930524D01*
X134634642Y-102549572D02*
X134539404Y-102597191D01*
X134539404Y-102597191D02*
X134348928Y-102597191D01*
X134348928Y-102597191D02*
X134253690Y-102549572D01*
X134253690Y-102549572D02*
X134206071Y-102454333D01*
X134206071Y-102454333D02*
X134206071Y-102073381D01*
X134206071Y-102073381D02*
X134253690Y-101978143D01*
X134253690Y-101978143D02*
X134348928Y-101930524D01*
X134348928Y-101930524D02*
X134539404Y-101930524D01*
X134539404Y-101930524D02*
X134634642Y-101978143D01*
X134634642Y-101978143D02*
X134682261Y-102073381D01*
X134682261Y-102073381D02*
X134682261Y-102168619D01*
X134682261Y-102168619D02*
X134206071Y-102263857D01*
X135110833Y-102597191D02*
X135110833Y-101930524D01*
X135110833Y-102121000D02*
X135158452Y-102025762D01*
X135158452Y-102025762D02*
X135206071Y-101978143D01*
X135206071Y-101978143D02*
X135301309Y-101930524D01*
X135301309Y-101930524D02*
X135396547Y-101930524D01*
X172744167Y-100392219D02*
X172744167Y-99392219D01*
X173172738Y-99487457D02*
X173220357Y-99439838D01*
X173220357Y-99439838D02*
X173315595Y-99392219D01*
X173315595Y-99392219D02*
X173553690Y-99392219D01*
X173553690Y-99392219D02*
X173648928Y-99439838D01*
X173648928Y-99439838D02*
X173696547Y-99487457D01*
X173696547Y-99487457D02*
X173744166Y-99582695D01*
X173744166Y-99582695D02*
X173744166Y-99677933D01*
X173744166Y-99677933D02*
X173696547Y-99820790D01*
X173696547Y-99820790D02*
X173125119Y-100392219D01*
X173125119Y-100392219D02*
X173744166Y-100392219D01*
X174744166Y-100296980D02*
X174696547Y-100344600D01*
X174696547Y-100344600D02*
X174553690Y-100392219D01*
X174553690Y-100392219D02*
X174458452Y-100392219D01*
X174458452Y-100392219D02*
X174315595Y-100344600D01*
X174315595Y-100344600D02*
X174220357Y-100249361D01*
X174220357Y-100249361D02*
X174172738Y-100154123D01*
X174172738Y-100154123D02*
X174125119Y-99963647D01*
X174125119Y-99963647D02*
X174125119Y-99820790D01*
X174125119Y-99820790D02*
X174172738Y-99630314D01*
X174172738Y-99630314D02*
X174220357Y-99535076D01*
X174220357Y-99535076D02*
X174315595Y-99439838D01*
X174315595Y-99439838D02*
X174458452Y-99392219D01*
X174458452Y-99392219D02*
X174553690Y-99392219D01*
X174553690Y-99392219D02*
X174696547Y-99439838D01*
X174696547Y-99439838D02*
X174744166Y-99487457D01*
X175934643Y-100392219D02*
X175934643Y-99392219D01*
X175934643Y-99392219D02*
X176172738Y-99392219D01*
X176172738Y-99392219D02*
X176315595Y-99439838D01*
X176315595Y-99439838D02*
X176410833Y-99535076D01*
X176410833Y-99535076D02*
X176458452Y-99630314D01*
X176458452Y-99630314D02*
X176506071Y-99820790D01*
X176506071Y-99820790D02*
X176506071Y-99963647D01*
X176506071Y-99963647D02*
X176458452Y-100154123D01*
X176458452Y-100154123D02*
X176410833Y-100249361D01*
X176410833Y-100249361D02*
X176315595Y-100344600D01*
X176315595Y-100344600D02*
X176172738Y-100392219D01*
X176172738Y-100392219D02*
X175934643Y-100392219D01*
X176839405Y-99392219D02*
X177506071Y-100392219D01*
X177506071Y-99392219D02*
X176839405Y-100392219D01*
D10*
X162091785Y-111460918D02*
X161891785Y-111079965D01*
X161748928Y-111460918D02*
X161748928Y-110660918D01*
X161748928Y-110660918D02*
X161977499Y-110660918D01*
X161977499Y-110660918D02*
X162034642Y-110699013D01*
X162034642Y-110699013D02*
X162063213Y-110737108D01*
X162063213Y-110737108D02*
X162091785Y-110813299D01*
X162091785Y-110813299D02*
X162091785Y-110927584D01*
X162091785Y-110927584D02*
X162063213Y-111003775D01*
X162063213Y-111003775D02*
X162034642Y-111041870D01*
X162034642Y-111041870D02*
X161977499Y-111079965D01*
X161977499Y-111079965D02*
X161748928Y-111079965D01*
X162577499Y-111422823D02*
X162520356Y-111460918D01*
X162520356Y-111460918D02*
X162406071Y-111460918D01*
X162406071Y-111460918D02*
X162348928Y-111422823D01*
X162348928Y-111422823D02*
X162320356Y-111346632D01*
X162320356Y-111346632D02*
X162320356Y-111041870D01*
X162320356Y-111041870D02*
X162348928Y-110965680D01*
X162348928Y-110965680D02*
X162406071Y-110927584D01*
X162406071Y-110927584D02*
X162520356Y-110927584D01*
X162520356Y-110927584D02*
X162577499Y-110965680D01*
X162577499Y-110965680D02*
X162606071Y-111041870D01*
X162606071Y-111041870D02*
X162606071Y-111118061D01*
X162606071Y-111118061D02*
X162320356Y-111194251D01*
X162834642Y-111422823D02*
X162920357Y-111460918D01*
X162920357Y-111460918D02*
X163063214Y-111460918D01*
X163063214Y-111460918D02*
X163120357Y-111422823D01*
X163120357Y-111422823D02*
X163148928Y-111384727D01*
X163148928Y-111384727D02*
X163177499Y-111308537D01*
X163177499Y-111308537D02*
X163177499Y-111232346D01*
X163177499Y-111232346D02*
X163148928Y-111156156D01*
X163148928Y-111156156D02*
X163120357Y-111118061D01*
X163120357Y-111118061D02*
X163063214Y-111079965D01*
X163063214Y-111079965D02*
X162948928Y-111041870D01*
X162948928Y-111041870D02*
X162891785Y-111003775D01*
X162891785Y-111003775D02*
X162863214Y-110965680D01*
X162863214Y-110965680D02*
X162834642Y-110889489D01*
X162834642Y-110889489D02*
X162834642Y-110813299D01*
X162834642Y-110813299D02*
X162863214Y-110737108D01*
X162863214Y-110737108D02*
X162891785Y-110699013D01*
X162891785Y-110699013D02*
X162948928Y-110660918D01*
X162948928Y-110660918D02*
X163091785Y-110660918D01*
X163091785Y-110660918D02*
X163177499Y-110699013D01*
X163663214Y-111422823D02*
X163606071Y-111460918D01*
X163606071Y-111460918D02*
X163491786Y-111460918D01*
X163491786Y-111460918D02*
X163434643Y-111422823D01*
X163434643Y-111422823D02*
X163406071Y-111346632D01*
X163406071Y-111346632D02*
X163406071Y-111041870D01*
X163406071Y-111041870D02*
X163434643Y-110965680D01*
X163434643Y-110965680D02*
X163491786Y-110927584D01*
X163491786Y-110927584D02*
X163606071Y-110927584D01*
X163606071Y-110927584D02*
X163663214Y-110965680D01*
X163663214Y-110965680D02*
X163691786Y-111041870D01*
X163691786Y-111041870D02*
X163691786Y-111118061D01*
X163691786Y-111118061D02*
X163406071Y-111194251D01*
X163863214Y-110927584D02*
X164091786Y-110927584D01*
X163948929Y-110660918D02*
X163948929Y-111346632D01*
X163948929Y-111346632D02*
X163977500Y-111422823D01*
X163977500Y-111422823D02*
X164034643Y-111460918D01*
X164034643Y-111460918D02*
X164091786Y-111460918D01*
X162291786Y-112748873D02*
X162291786Y-111948873D01*
X162548928Y-112025063D02*
X162577500Y-111986968D01*
X162577500Y-111986968D02*
X162634643Y-111948873D01*
X162634643Y-111948873D02*
X162777500Y-111948873D01*
X162777500Y-111948873D02*
X162834643Y-111986968D01*
X162834643Y-111986968D02*
X162863214Y-112025063D01*
X162863214Y-112025063D02*
X162891785Y-112101254D01*
X162891785Y-112101254D02*
X162891785Y-112177444D01*
X162891785Y-112177444D02*
X162863214Y-112291730D01*
X162863214Y-112291730D02*
X162520357Y-112748873D01*
X162520357Y-112748873D02*
X162891785Y-112748873D01*
X163491786Y-112672682D02*
X163463214Y-112710778D01*
X163463214Y-112710778D02*
X163377500Y-112748873D01*
X163377500Y-112748873D02*
X163320357Y-112748873D01*
X163320357Y-112748873D02*
X163234643Y-112710778D01*
X163234643Y-112710778D02*
X163177500Y-112634587D01*
X163177500Y-112634587D02*
X163148929Y-112558397D01*
X163148929Y-112558397D02*
X163120357Y-112406016D01*
X163120357Y-112406016D02*
X163120357Y-112291730D01*
X163120357Y-112291730D02*
X163148929Y-112139349D01*
X163148929Y-112139349D02*
X163177500Y-112063158D01*
X163177500Y-112063158D02*
X163234643Y-111986968D01*
X163234643Y-111986968D02*
X163320357Y-111948873D01*
X163320357Y-111948873D02*
X163377500Y-111948873D01*
X163377500Y-111948873D02*
X163463214Y-111986968D01*
X163463214Y-111986968D02*
X163491786Y-112025063D01*
X157838514Y-113095024D02*
X157272829Y-112529339D01*
X157272829Y-112529339D02*
X158080951Y-112852588D01*
X158080951Y-112852588D02*
X157515266Y-112286902D01*
X158525418Y-112408121D02*
X158114623Y-112280168D01*
X158282981Y-112650558D02*
X157717296Y-112084872D01*
X157717296Y-112084872D02*
X157878920Y-111923248D01*
X157878920Y-111923248D02*
X157946264Y-111909779D01*
X157946264Y-111909779D02*
X157993404Y-111916513D01*
X157993404Y-111916513D02*
X158067482Y-111950185D01*
X158067482Y-111950185D02*
X158148294Y-112030997D01*
X158148294Y-112030997D02*
X158181966Y-112105075D01*
X158181966Y-112105075D02*
X158188700Y-112152216D01*
X158188700Y-112152216D02*
X158175232Y-112219559D01*
X158175232Y-112219559D02*
X158013607Y-112381184D01*
X158660105Y-112219559D02*
X158747651Y-112185887D01*
X158747651Y-112185887D02*
X158848667Y-112084872D01*
X158848667Y-112084872D02*
X158862135Y-112017529D01*
X158862135Y-112017529D02*
X158855401Y-111970388D01*
X158855401Y-111970388D02*
X158821729Y-111896310D01*
X158821729Y-111896310D02*
X158767854Y-111842435D01*
X158767854Y-111842435D02*
X158693777Y-111808764D01*
X158693777Y-111808764D02*
X158646636Y-111802029D01*
X158646636Y-111802029D02*
X158579293Y-111815498D01*
X158579293Y-111815498D02*
X158471543Y-111869373D01*
X158471543Y-111869373D02*
X158404200Y-111882842D01*
X158404200Y-111882842D02*
X158357059Y-111876107D01*
X158357059Y-111876107D02*
X158282981Y-111842435D01*
X158282981Y-111842435D02*
X158229106Y-111788561D01*
X158229106Y-111788561D02*
X158195435Y-111714483D01*
X158195435Y-111714483D02*
X158188700Y-111667342D01*
X158188700Y-111667342D02*
X158202169Y-111599999D01*
X158202169Y-111599999D02*
X158303184Y-111498984D01*
X158303184Y-111498984D02*
X158390731Y-111465312D01*
X158485012Y-111317156D02*
X158727449Y-111074719D01*
X159171916Y-111761623D02*
X158606230Y-111195938D01*
X184320357Y-90441870D02*
X184406071Y-90479965D01*
X184406071Y-90479965D02*
X184434642Y-90518061D01*
X184434642Y-90518061D02*
X184463214Y-90594251D01*
X184463214Y-90594251D02*
X184463214Y-90708537D01*
X184463214Y-90708537D02*
X184434642Y-90784727D01*
X184434642Y-90784727D02*
X184406071Y-90822823D01*
X184406071Y-90822823D02*
X184348928Y-90860918D01*
X184348928Y-90860918D02*
X184120357Y-90860918D01*
X184120357Y-90860918D02*
X184120357Y-90060918D01*
X184120357Y-90060918D02*
X184320357Y-90060918D01*
X184320357Y-90060918D02*
X184377500Y-90099013D01*
X184377500Y-90099013D02*
X184406071Y-90137108D01*
X184406071Y-90137108D02*
X184434642Y-90213299D01*
X184434642Y-90213299D02*
X184434642Y-90289489D01*
X184434642Y-90289489D02*
X184406071Y-90365680D01*
X184406071Y-90365680D02*
X184377500Y-90403775D01*
X184377500Y-90403775D02*
X184320357Y-90441870D01*
X184320357Y-90441870D02*
X184120357Y-90441870D01*
X183748929Y-91729825D02*
X183548929Y-91729825D01*
X183548929Y-92148873D02*
X183548929Y-91348873D01*
X183548929Y-91348873D02*
X183834643Y-91348873D01*
X184491786Y-91310778D02*
X183977500Y-92339349D01*
X185034643Y-92148873D02*
X184834643Y-91767920D01*
X184691786Y-92148873D02*
X184691786Y-91348873D01*
X184691786Y-91348873D02*
X184920357Y-91348873D01*
X184920357Y-91348873D02*
X184977500Y-91386968D01*
X184977500Y-91386968D02*
X185006071Y-91425063D01*
X185006071Y-91425063D02*
X185034643Y-91501254D01*
X185034643Y-91501254D02*
X185034643Y-91615539D01*
X185034643Y-91615539D02*
X185006071Y-91691730D01*
X185006071Y-91691730D02*
X184977500Y-91729825D01*
X184977500Y-91729825D02*
X184920357Y-91767920D01*
X184920357Y-91767920D02*
X184691786Y-91767920D01*
X176934642Y-90632346D02*
X177220357Y-90632346D01*
X176877499Y-90860918D02*
X177077499Y-90060918D01*
X177077499Y-90060918D02*
X177277499Y-90860918D01*
X176234643Y-92148873D02*
X176234643Y-91348873D01*
X176234643Y-91348873D02*
X176463214Y-91348873D01*
X176463214Y-91348873D02*
X176520357Y-91386968D01*
X176520357Y-91386968D02*
X176548928Y-91425063D01*
X176548928Y-91425063D02*
X176577500Y-91501254D01*
X176577500Y-91501254D02*
X176577500Y-91615539D01*
X176577500Y-91615539D02*
X176548928Y-91691730D01*
X176548928Y-91691730D02*
X176520357Y-91729825D01*
X176520357Y-91729825D02*
X176463214Y-91767920D01*
X176463214Y-91767920D02*
X176234643Y-91767920D01*
X176777500Y-91348873D02*
X176920357Y-92148873D01*
X176920357Y-92148873D02*
X177034643Y-91577444D01*
X177034643Y-91577444D02*
X177148928Y-92148873D01*
X177148928Y-92148873D02*
X177291786Y-91348873D01*
X177520357Y-92148873D02*
X177520357Y-91348873D01*
X177520357Y-91348873D02*
X177720357Y-91920301D01*
X177720357Y-91920301D02*
X177920357Y-91348873D01*
X177920357Y-91348873D02*
X177920357Y-92148873D01*
X152601476Y-113078188D02*
X152689022Y-113044517D01*
X152689022Y-113044517D02*
X152790038Y-112943501D01*
X152790038Y-112943501D02*
X152803506Y-112876158D01*
X152803506Y-112876158D02*
X152796772Y-112829017D01*
X152796772Y-112829017D02*
X152763100Y-112754939D01*
X152763100Y-112754939D02*
X152709225Y-112701065D01*
X152709225Y-112701065D02*
X152635147Y-112667393D01*
X152635147Y-112667393D02*
X152588007Y-112660659D01*
X152588007Y-112660659D02*
X152520664Y-112674127D01*
X152520664Y-112674127D02*
X152412914Y-112728002D01*
X152412914Y-112728002D02*
X152345570Y-112741471D01*
X152345570Y-112741471D02*
X152298430Y-112734736D01*
X152298430Y-112734736D02*
X152224352Y-112701065D01*
X152224352Y-112701065D02*
X152170477Y-112647190D01*
X152170477Y-112647190D02*
X152136806Y-112573112D01*
X152136806Y-112573112D02*
X152130071Y-112525972D01*
X152130071Y-112525972D02*
X152143540Y-112458628D01*
X152143540Y-112458628D02*
X152244555Y-112357613D01*
X152244555Y-112357613D02*
X152332102Y-112323941D01*
X152446586Y-112155582D02*
X153113287Y-112620252D01*
X153113287Y-112620252D02*
X152790038Y-112135379D01*
X152790038Y-112135379D02*
X153274911Y-112458628D01*
X153274911Y-112458628D02*
X152810241Y-111791927D01*
X153537551Y-112195988D02*
X152971865Y-111630303D01*
X153739581Y-111993958D02*
X153173895Y-111428273D01*
X153173895Y-111428273D02*
X153719378Y-111690912D01*
X153719378Y-111690912D02*
X153456738Y-111145430D01*
X153456738Y-111145430D02*
X154022424Y-111711115D01*
X168491786Y-106860918D02*
X168491786Y-106060918D01*
X168748928Y-106137108D02*
X168777500Y-106099013D01*
X168777500Y-106099013D02*
X168834643Y-106060918D01*
X168834643Y-106060918D02*
X168977500Y-106060918D01*
X168977500Y-106060918D02*
X169034643Y-106099013D01*
X169034643Y-106099013D02*
X169063214Y-106137108D01*
X169063214Y-106137108D02*
X169091785Y-106213299D01*
X169091785Y-106213299D02*
X169091785Y-106289489D01*
X169091785Y-106289489D02*
X169063214Y-106403775D01*
X169063214Y-106403775D02*
X168720357Y-106860918D01*
X168720357Y-106860918D02*
X169091785Y-106860918D01*
X169691786Y-106784727D02*
X169663214Y-106822823D01*
X169663214Y-106822823D02*
X169577500Y-106860918D01*
X169577500Y-106860918D02*
X169520357Y-106860918D01*
X169520357Y-106860918D02*
X169434643Y-106822823D01*
X169434643Y-106822823D02*
X169377500Y-106746632D01*
X169377500Y-106746632D02*
X169348929Y-106670442D01*
X169348929Y-106670442D02*
X169320357Y-106518061D01*
X169320357Y-106518061D02*
X169320357Y-106403775D01*
X169320357Y-106403775D02*
X169348929Y-106251394D01*
X169348929Y-106251394D02*
X169377500Y-106175203D01*
X169377500Y-106175203D02*
X169434643Y-106099013D01*
X169434643Y-106099013D02*
X169520357Y-106060918D01*
X169520357Y-106060918D02*
X169577500Y-106060918D01*
X169577500Y-106060918D02*
X169663214Y-106099013D01*
X169663214Y-106099013D02*
X169691786Y-106137108D01*
X167791786Y-108148873D02*
X167791786Y-107348873D01*
X167791786Y-107348873D02*
X168020357Y-107348873D01*
X168020357Y-107348873D02*
X168077500Y-107386968D01*
X168077500Y-107386968D02*
X168106071Y-107425063D01*
X168106071Y-107425063D02*
X168134643Y-107501254D01*
X168134643Y-107501254D02*
X168134643Y-107615539D01*
X168134643Y-107615539D02*
X168106071Y-107691730D01*
X168106071Y-107691730D02*
X168077500Y-107729825D01*
X168077500Y-107729825D02*
X168020357Y-107767920D01*
X168020357Y-107767920D02*
X167791786Y-107767920D01*
X168648929Y-107615539D02*
X168648929Y-108148873D01*
X168391786Y-107615539D02*
X168391786Y-108034587D01*
X168391786Y-108034587D02*
X168420357Y-108110778D01*
X168420357Y-108110778D02*
X168477500Y-108148873D01*
X168477500Y-108148873D02*
X168563214Y-108148873D01*
X168563214Y-108148873D02*
X168620357Y-108110778D01*
X168620357Y-108110778D02*
X168648929Y-108072682D01*
X169020357Y-108148873D02*
X168963214Y-108110778D01*
X168963214Y-108110778D02*
X168934643Y-108034587D01*
X168934643Y-108034587D02*
X168934643Y-107348873D01*
X169334643Y-108148873D02*
X169277500Y-108110778D01*
X169277500Y-108110778D02*
X169248929Y-108034587D01*
X169248929Y-108034587D02*
X169248929Y-107348873D01*
X169820358Y-107615539D02*
X169820358Y-108148873D01*
X169563215Y-107615539D02*
X169563215Y-108034587D01*
X169563215Y-108034587D02*
X169591786Y-108110778D01*
X169591786Y-108110778D02*
X169648929Y-108148873D01*
X169648929Y-108148873D02*
X169734643Y-108148873D01*
X169734643Y-108148873D02*
X169791786Y-108110778D01*
X169791786Y-108110778D02*
X169820358Y-108072682D01*
X170106072Y-107615539D02*
X170106072Y-108415539D01*
X170106072Y-107653635D02*
X170163215Y-107615539D01*
X170163215Y-107615539D02*
X170277500Y-107615539D01*
X170277500Y-107615539D02*
X170334643Y-107653635D01*
X170334643Y-107653635D02*
X170363215Y-107691730D01*
X170363215Y-107691730D02*
X170391786Y-107767920D01*
X170391786Y-107767920D02*
X170391786Y-107996492D01*
X170391786Y-107996492D02*
X170363215Y-108072682D01*
X170363215Y-108072682D02*
X170334643Y-108110778D01*
X170334643Y-108110778D02*
X170277500Y-108148873D01*
X170277500Y-108148873D02*
X170163215Y-108148873D01*
X170163215Y-108148873D02*
X170106072Y-108110778D01*
X155073523Y-112182520D02*
X155006180Y-112195988D01*
X155006180Y-112195988D02*
X154945570Y-112256598D01*
X154945570Y-112256598D02*
X154911899Y-112344144D01*
X154911899Y-112344144D02*
X154925367Y-112438425D01*
X154925367Y-112438425D02*
X154959039Y-112512503D01*
X154959039Y-112512503D02*
X155046586Y-112640456D01*
X155046586Y-112640456D02*
X155127398Y-112721268D01*
X155127398Y-112721268D02*
X155255351Y-112808814D01*
X155255351Y-112808814D02*
X155329428Y-112842486D01*
X155329428Y-112842486D02*
X155423709Y-112855955D01*
X155423709Y-112855955D02*
X155511256Y-112822283D01*
X155511256Y-112822283D02*
X155551662Y-112781877D01*
X155551662Y-112781877D02*
X155585334Y-112694330D01*
X155585334Y-112694330D02*
X155578599Y-112647190D01*
X155578599Y-112647190D02*
X155390038Y-112458628D01*
X155390038Y-112458628D02*
X155309225Y-112539440D01*
X155814302Y-112519237D02*
X155248616Y-111953552D01*
X155248616Y-111953552D02*
X156056738Y-112276801D01*
X156056738Y-112276801D02*
X155491053Y-111711115D01*
X156258768Y-112074770D02*
X155693083Y-111509085D01*
X155693083Y-111509085D02*
X155794098Y-111408070D01*
X155794098Y-111408070D02*
X155881645Y-111374398D01*
X155881645Y-111374398D02*
X155975926Y-111387867D01*
X155975926Y-111387867D02*
X156050004Y-111421538D01*
X156050004Y-111421538D02*
X156177956Y-111509085D01*
X156177956Y-111509085D02*
X156258768Y-111589897D01*
X156258768Y-111589897D02*
X156346315Y-111717850D01*
X156346315Y-111717850D02*
X156379987Y-111791928D01*
X156379987Y-111791928D02*
X156393455Y-111886209D01*
X156393455Y-111886209D02*
X156359784Y-111973755D01*
X156359784Y-111973755D02*
X156258768Y-112074770D01*
X173862778Y-98070761D02*
X173451983Y-97942808D01*
X173620341Y-98313197D02*
X173054656Y-97747512D01*
X173054656Y-97747512D02*
X173216280Y-97585888D01*
X173216280Y-97585888D02*
X173283624Y-97572419D01*
X173283624Y-97572419D02*
X173330764Y-97579153D01*
X173330764Y-97579153D02*
X173404842Y-97612825D01*
X173404842Y-97612825D02*
X173485654Y-97693637D01*
X173485654Y-97693637D02*
X173519326Y-97767715D01*
X173519326Y-97767715D02*
X173526060Y-97814856D01*
X173526060Y-97814856D02*
X173512592Y-97882199D01*
X173512592Y-97882199D02*
X173350967Y-98043823D01*
X173512592Y-97397326D02*
X173505857Y-97350185D01*
X173505857Y-97350185D02*
X173519326Y-97282842D01*
X173519326Y-97282842D02*
X173620341Y-97181827D01*
X173620341Y-97181827D02*
X173687685Y-97168358D01*
X173687685Y-97168358D02*
X173734825Y-97175092D01*
X173734825Y-97175092D02*
X173808903Y-97208764D01*
X173808903Y-97208764D02*
X173862778Y-97262639D01*
X173862778Y-97262639D02*
X173923387Y-97363654D01*
X173923387Y-97363654D02*
X174004199Y-97929340D01*
X174004199Y-97929340D02*
X174266839Y-97666700D01*
X174085012Y-96717156D02*
X173882981Y-96919187D01*
X173882981Y-96919187D02*
X174132152Y-97208764D01*
X174132152Y-97208764D02*
X174125418Y-97161623D01*
X174125418Y-97161623D02*
X174138887Y-97094280D01*
X174138887Y-97094280D02*
X174239902Y-96993265D01*
X174239902Y-96993265D02*
X174307245Y-96979796D01*
X174307245Y-96979796D02*
X174354386Y-96986530D01*
X174354386Y-96986530D02*
X174428464Y-97020202D01*
X174428464Y-97020202D02*
X174563151Y-97154889D01*
X174563151Y-97154889D02*
X174596822Y-97228967D01*
X174596822Y-97228967D02*
X174603557Y-97276107D01*
X174603557Y-97276107D02*
X174590088Y-97343451D01*
X174590088Y-97343451D02*
X174489073Y-97444466D01*
X174489073Y-97444466D02*
X174421729Y-97457935D01*
X174421729Y-97457935D02*
X174374589Y-97451200D01*
X142167976Y-88212371D02*
X142167976Y-88698085D01*
X142167976Y-88698085D02*
X142206071Y-88755228D01*
X142206071Y-88755228D02*
X142244166Y-88783800D01*
X142244166Y-88783800D02*
X142320357Y-88812371D01*
X142320357Y-88812371D02*
X142472738Y-88812371D01*
X142472738Y-88812371D02*
X142548928Y-88783800D01*
X142548928Y-88783800D02*
X142587023Y-88755228D01*
X142587023Y-88755228D02*
X142625119Y-88698085D01*
X142625119Y-88698085D02*
X142625119Y-88212371D01*
X142967975Y-88269514D02*
X143006071Y-88240942D01*
X143006071Y-88240942D02*
X143082261Y-88212371D01*
X143082261Y-88212371D02*
X143272737Y-88212371D01*
X143272737Y-88212371D02*
X143348928Y-88240942D01*
X143348928Y-88240942D02*
X143387023Y-88269514D01*
X143387023Y-88269514D02*
X143425118Y-88326657D01*
X143425118Y-88326657D02*
X143425118Y-88383800D01*
X143425118Y-88383800D02*
X143387023Y-88469514D01*
X143387023Y-88469514D02*
X142929880Y-88812371D01*
X142929880Y-88812371D02*
X143425118Y-88812371D01*
X168177500Y-97028704D02*
X168148928Y-97066800D01*
X168148928Y-97066800D02*
X168063214Y-97104895D01*
X168063214Y-97104895D02*
X168006071Y-97104895D01*
X168006071Y-97104895D02*
X167920357Y-97066800D01*
X167920357Y-97066800D02*
X167863214Y-96990609D01*
X167863214Y-96990609D02*
X167834643Y-96914419D01*
X167834643Y-96914419D02*
X167806071Y-96762038D01*
X167806071Y-96762038D02*
X167806071Y-96647752D01*
X167806071Y-96647752D02*
X167834643Y-96495371D01*
X167834643Y-96495371D02*
X167863214Y-96419180D01*
X167863214Y-96419180D02*
X167920357Y-96342990D01*
X167920357Y-96342990D02*
X168006071Y-96304895D01*
X168006071Y-96304895D02*
X168063214Y-96304895D01*
X168063214Y-96304895D02*
X168148928Y-96342990D01*
X168148928Y-96342990D02*
X168177500Y-96381085D01*
X168406071Y-96381085D02*
X168434643Y-96342990D01*
X168434643Y-96342990D02*
X168491786Y-96304895D01*
X168491786Y-96304895D02*
X168634643Y-96304895D01*
X168634643Y-96304895D02*
X168691786Y-96342990D01*
X168691786Y-96342990D02*
X168720357Y-96381085D01*
X168720357Y-96381085D02*
X168748928Y-96457276D01*
X168748928Y-96457276D02*
X168748928Y-96533466D01*
X168748928Y-96533466D02*
X168720357Y-96647752D01*
X168720357Y-96647752D02*
X168377500Y-97104895D01*
X168377500Y-97104895D02*
X168748928Y-97104895D01*
X167077499Y-99604895D02*
X167077499Y-100176323D01*
X167077499Y-100176323D02*
X167048928Y-100290609D01*
X167048928Y-100290609D02*
X166991785Y-100366800D01*
X166991785Y-100366800D02*
X166906071Y-100404895D01*
X166906071Y-100404895D02*
X166848928Y-100404895D01*
X167363214Y-100404895D02*
X167363214Y-99604895D01*
X167363214Y-99604895D02*
X167591785Y-99604895D01*
X167591785Y-99604895D02*
X167648928Y-99642990D01*
X167648928Y-99642990D02*
X167677499Y-99681085D01*
X167677499Y-99681085D02*
X167706071Y-99757276D01*
X167706071Y-99757276D02*
X167706071Y-99871561D01*
X167706071Y-99871561D02*
X167677499Y-99947752D01*
X167677499Y-99947752D02*
X167648928Y-99985847D01*
X167648928Y-99985847D02*
X167591785Y-100023942D01*
X167591785Y-100023942D02*
X167363214Y-100023942D01*
X167934642Y-99681085D02*
X167963214Y-99642990D01*
X167963214Y-99642990D02*
X168020357Y-99604895D01*
X168020357Y-99604895D02*
X168163214Y-99604895D01*
X168163214Y-99604895D02*
X168220357Y-99642990D01*
X168220357Y-99642990D02*
X168248928Y-99681085D01*
X168248928Y-99681085D02*
X168277499Y-99757276D01*
X168277499Y-99757276D02*
X168277499Y-99833466D01*
X168277499Y-99833466D02*
X168248928Y-99947752D01*
X168248928Y-99947752D02*
X167906071Y-100404895D01*
X167906071Y-100404895D02*
X168277499Y-100404895D01*
X137177500Y-92104895D02*
X136977500Y-91723942D01*
X136834643Y-92104895D02*
X136834643Y-91304895D01*
X136834643Y-91304895D02*
X137063214Y-91304895D01*
X137063214Y-91304895D02*
X137120357Y-91342990D01*
X137120357Y-91342990D02*
X137148928Y-91381085D01*
X137148928Y-91381085D02*
X137177500Y-91457276D01*
X137177500Y-91457276D02*
X137177500Y-91571561D01*
X137177500Y-91571561D02*
X137148928Y-91647752D01*
X137148928Y-91647752D02*
X137120357Y-91685847D01*
X137120357Y-91685847D02*
X137063214Y-91723942D01*
X137063214Y-91723942D02*
X136834643Y-91723942D01*
X137377500Y-91304895D02*
X137748928Y-91304895D01*
X137748928Y-91304895D02*
X137548928Y-91609657D01*
X137548928Y-91609657D02*
X137634643Y-91609657D01*
X137634643Y-91609657D02*
X137691786Y-91647752D01*
X137691786Y-91647752D02*
X137720357Y-91685847D01*
X137720357Y-91685847D02*
X137748928Y-91762038D01*
X137748928Y-91762038D02*
X137748928Y-91952514D01*
X137748928Y-91952514D02*
X137720357Y-92028704D01*
X137720357Y-92028704D02*
X137691786Y-92066800D01*
X137691786Y-92066800D02*
X137634643Y-92104895D01*
X137634643Y-92104895D02*
X137463214Y-92104895D01*
X137463214Y-92104895D02*
X137406071Y-92066800D01*
X137406071Y-92066800D02*
X137377500Y-92028704D01*
X128234643Y-94104895D02*
X128234643Y-93304895D01*
X128234643Y-93304895D02*
X128377500Y-93304895D01*
X128377500Y-93304895D02*
X128463214Y-93342990D01*
X128463214Y-93342990D02*
X128520357Y-93419180D01*
X128520357Y-93419180D02*
X128548928Y-93495371D01*
X128548928Y-93495371D02*
X128577500Y-93647752D01*
X128577500Y-93647752D02*
X128577500Y-93762038D01*
X128577500Y-93762038D02*
X128548928Y-93914419D01*
X128548928Y-93914419D02*
X128520357Y-93990609D01*
X128520357Y-93990609D02*
X128463214Y-94066800D01*
X128463214Y-94066800D02*
X128377500Y-94104895D01*
X128377500Y-94104895D02*
X128234643Y-94104895D01*
X128806071Y-93381085D02*
X128834643Y-93342990D01*
X128834643Y-93342990D02*
X128891786Y-93304895D01*
X128891786Y-93304895D02*
X129034643Y-93304895D01*
X129034643Y-93304895D02*
X129091786Y-93342990D01*
X129091786Y-93342990D02*
X129120357Y-93381085D01*
X129120357Y-93381085D02*
X129148928Y-93457276D01*
X129148928Y-93457276D02*
X129148928Y-93533466D01*
X129148928Y-93533466D02*
X129120357Y-93647752D01*
X129120357Y-93647752D02*
X128777500Y-94104895D01*
X128777500Y-94104895D02*
X129148928Y-94104895D01*
X174434643Y-103504895D02*
X174434643Y-102704895D01*
X174434643Y-102704895D02*
X174577500Y-102704895D01*
X174577500Y-102704895D02*
X174663214Y-102742990D01*
X174663214Y-102742990D02*
X174720357Y-102819180D01*
X174720357Y-102819180D02*
X174748928Y-102895371D01*
X174748928Y-102895371D02*
X174777500Y-103047752D01*
X174777500Y-103047752D02*
X174777500Y-103162038D01*
X174777500Y-103162038D02*
X174748928Y-103314419D01*
X174748928Y-103314419D02*
X174720357Y-103390609D01*
X174720357Y-103390609D02*
X174663214Y-103466800D01*
X174663214Y-103466800D02*
X174577500Y-103504895D01*
X174577500Y-103504895D02*
X174434643Y-103504895D01*
X175063214Y-103504895D02*
X175177500Y-103504895D01*
X175177500Y-103504895D02*
X175234643Y-103466800D01*
X175234643Y-103466800D02*
X175263214Y-103428704D01*
X175263214Y-103428704D02*
X175320357Y-103314419D01*
X175320357Y-103314419D02*
X175348928Y-103162038D01*
X175348928Y-103162038D02*
X175348928Y-102857276D01*
X175348928Y-102857276D02*
X175320357Y-102781085D01*
X175320357Y-102781085D02*
X175291786Y-102742990D01*
X175291786Y-102742990D02*
X175234643Y-102704895D01*
X175234643Y-102704895D02*
X175120357Y-102704895D01*
X175120357Y-102704895D02*
X175063214Y-102742990D01*
X175063214Y-102742990D02*
X175034643Y-102781085D01*
X175034643Y-102781085D02*
X175006071Y-102857276D01*
X175006071Y-102857276D02*
X175006071Y-103047752D01*
X175006071Y-103047752D02*
X175034643Y-103123942D01*
X175034643Y-103123942D02*
X175063214Y-103162038D01*
X175063214Y-103162038D02*
X175120357Y-103200133D01*
X175120357Y-103200133D02*
X175234643Y-103200133D01*
X175234643Y-103200133D02*
X175291786Y-103162038D01*
X175291786Y-103162038D02*
X175320357Y-103123942D01*
X175320357Y-103123942D02*
X175348928Y-103047752D01*
X154577500Y-105028704D02*
X154548928Y-105066800D01*
X154548928Y-105066800D02*
X154463214Y-105104895D01*
X154463214Y-105104895D02*
X154406071Y-105104895D01*
X154406071Y-105104895D02*
X154320357Y-105066800D01*
X154320357Y-105066800D02*
X154263214Y-104990609D01*
X154263214Y-104990609D02*
X154234643Y-104914419D01*
X154234643Y-104914419D02*
X154206071Y-104762038D01*
X154206071Y-104762038D02*
X154206071Y-104647752D01*
X154206071Y-104647752D02*
X154234643Y-104495371D01*
X154234643Y-104495371D02*
X154263214Y-104419180D01*
X154263214Y-104419180D02*
X154320357Y-104342990D01*
X154320357Y-104342990D02*
X154406071Y-104304895D01*
X154406071Y-104304895D02*
X154463214Y-104304895D01*
X154463214Y-104304895D02*
X154548928Y-104342990D01*
X154548928Y-104342990D02*
X154577500Y-104381085D01*
X154777500Y-104304895D02*
X155177500Y-104304895D01*
X155177500Y-104304895D02*
X154920357Y-105104895D01*
X173822372Y-94511166D02*
X173256687Y-93945481D01*
X173256687Y-93945481D02*
X173357702Y-93844466D01*
X173357702Y-93844466D02*
X173445249Y-93810794D01*
X173445249Y-93810794D02*
X173539530Y-93824263D01*
X173539530Y-93824263D02*
X173613607Y-93857935D01*
X173613607Y-93857935D02*
X173741560Y-93945481D01*
X173741560Y-93945481D02*
X173822372Y-94026293D01*
X173822372Y-94026293D02*
X173909919Y-94154246D01*
X173909919Y-94154246D02*
X173943591Y-94228324D01*
X173943591Y-94228324D02*
X173957059Y-94322605D01*
X173957059Y-94322605D02*
X173923388Y-94410151D01*
X173923388Y-94410151D02*
X173822372Y-94511166D01*
X173882981Y-93319186D02*
X173680951Y-93521217D01*
X173680951Y-93521217D02*
X173930122Y-93810794D01*
X173930122Y-93810794D02*
X173923388Y-93763654D01*
X173923388Y-93763654D02*
X173936856Y-93696310D01*
X173936856Y-93696310D02*
X174037872Y-93595295D01*
X174037872Y-93595295D02*
X174105215Y-93581826D01*
X174105215Y-93581826D02*
X174152355Y-93588560D01*
X174152355Y-93588560D02*
X174226433Y-93622232D01*
X174226433Y-93622232D02*
X174361120Y-93756919D01*
X174361120Y-93756919D02*
X174394792Y-93830997D01*
X174394792Y-93830997D02*
X174401526Y-93878138D01*
X174401526Y-93878138D02*
X174388058Y-93945481D01*
X174388058Y-93945481D02*
X174287042Y-94046496D01*
X174287042Y-94046496D02*
X174219699Y-94059965D01*
X174219699Y-94059965D02*
X174172559Y-94053231D01*
X163091785Y-100504895D02*
X162891785Y-100123942D01*
X162748928Y-100504895D02*
X162748928Y-99704895D01*
X162748928Y-99704895D02*
X162977499Y-99704895D01*
X162977499Y-99704895D02*
X163034642Y-99742990D01*
X163034642Y-99742990D02*
X163063213Y-99781085D01*
X163063213Y-99781085D02*
X163091785Y-99857276D01*
X163091785Y-99857276D02*
X163091785Y-99971561D01*
X163091785Y-99971561D02*
X163063213Y-100047752D01*
X163063213Y-100047752D02*
X163034642Y-100085847D01*
X163034642Y-100085847D02*
X162977499Y-100123942D01*
X162977499Y-100123942D02*
X162748928Y-100123942D01*
X163663213Y-100504895D02*
X163320356Y-100504895D01*
X163491785Y-100504895D02*
X163491785Y-99704895D01*
X163491785Y-99704895D02*
X163434642Y-99819180D01*
X163434642Y-99819180D02*
X163377499Y-99895371D01*
X163377499Y-99895371D02*
X163320356Y-99933466D01*
X164177500Y-99704895D02*
X164063214Y-99704895D01*
X164063214Y-99704895D02*
X164006071Y-99742990D01*
X164006071Y-99742990D02*
X163977500Y-99781085D01*
X163977500Y-99781085D02*
X163920357Y-99895371D01*
X163920357Y-99895371D02*
X163891785Y-100047752D01*
X163891785Y-100047752D02*
X163891785Y-100352514D01*
X163891785Y-100352514D02*
X163920357Y-100428704D01*
X163920357Y-100428704D02*
X163948928Y-100466800D01*
X163948928Y-100466800D02*
X164006071Y-100504895D01*
X164006071Y-100504895D02*
X164120357Y-100504895D01*
X164120357Y-100504895D02*
X164177500Y-100466800D01*
X164177500Y-100466800D02*
X164206071Y-100428704D01*
X164206071Y-100428704D02*
X164234642Y-100352514D01*
X164234642Y-100352514D02*
X164234642Y-100162038D01*
X164234642Y-100162038D02*
X164206071Y-100085847D01*
X164206071Y-100085847D02*
X164177500Y-100047752D01*
X164177500Y-100047752D02*
X164120357Y-100009657D01*
X164120357Y-100009657D02*
X164006071Y-100009657D01*
X164006071Y-100009657D02*
X163948928Y-100047752D01*
X163948928Y-100047752D02*
X163920357Y-100085847D01*
X163920357Y-100085847D02*
X163891785Y-100162038D01*
X169791785Y-100504895D02*
X169591785Y-100123942D01*
X169448928Y-100504895D02*
X169448928Y-99704895D01*
X169448928Y-99704895D02*
X169677499Y-99704895D01*
X169677499Y-99704895D02*
X169734642Y-99742990D01*
X169734642Y-99742990D02*
X169763213Y-99781085D01*
X169763213Y-99781085D02*
X169791785Y-99857276D01*
X169791785Y-99857276D02*
X169791785Y-99971561D01*
X169791785Y-99971561D02*
X169763213Y-100047752D01*
X169763213Y-100047752D02*
X169734642Y-100085847D01*
X169734642Y-100085847D02*
X169677499Y-100123942D01*
X169677499Y-100123942D02*
X169448928Y-100123942D01*
X170363213Y-100504895D02*
X170020356Y-100504895D01*
X170191785Y-100504895D02*
X170191785Y-99704895D01*
X170191785Y-99704895D02*
X170134642Y-99819180D01*
X170134642Y-99819180D02*
X170077499Y-99895371D01*
X170077499Y-99895371D02*
X170020356Y-99933466D01*
X170877500Y-99971561D02*
X170877500Y-100504895D01*
X170734642Y-99666800D02*
X170591785Y-100238228D01*
X170591785Y-100238228D02*
X170963214Y-100238228D01*
X130477499Y-111504895D02*
X130477499Y-112076323D01*
X130477499Y-112076323D02*
X130448928Y-112190609D01*
X130448928Y-112190609D02*
X130391785Y-112266800D01*
X130391785Y-112266800D02*
X130306071Y-112304895D01*
X130306071Y-112304895D02*
X130248928Y-112304895D01*
X131077499Y-112304895D02*
X130734642Y-112304895D01*
X130906071Y-112304895D02*
X130906071Y-111504895D01*
X130906071Y-111504895D02*
X130848928Y-111619180D01*
X130848928Y-111619180D02*
X130791785Y-111695371D01*
X130791785Y-111695371D02*
X130734642Y-111733466D01*
X151677500Y-94528704D02*
X151648928Y-94566800D01*
X151648928Y-94566800D02*
X151563214Y-94604895D01*
X151563214Y-94604895D02*
X151506071Y-94604895D01*
X151506071Y-94604895D02*
X151420357Y-94566800D01*
X151420357Y-94566800D02*
X151363214Y-94490609D01*
X151363214Y-94490609D02*
X151334643Y-94414419D01*
X151334643Y-94414419D02*
X151306071Y-94262038D01*
X151306071Y-94262038D02*
X151306071Y-94147752D01*
X151306071Y-94147752D02*
X151334643Y-93995371D01*
X151334643Y-93995371D02*
X151363214Y-93919180D01*
X151363214Y-93919180D02*
X151420357Y-93842990D01*
X151420357Y-93842990D02*
X151506071Y-93804895D01*
X151506071Y-93804895D02*
X151563214Y-93804895D01*
X151563214Y-93804895D02*
X151648928Y-93842990D01*
X151648928Y-93842990D02*
X151677500Y-93881085D01*
X152248928Y-94604895D02*
X151906071Y-94604895D01*
X152077500Y-94604895D02*
X152077500Y-93804895D01*
X152077500Y-93804895D02*
X152020357Y-93919180D01*
X152020357Y-93919180D02*
X151963214Y-93995371D01*
X151963214Y-93995371D02*
X151906071Y-94033466D01*
X125291785Y-101504895D02*
X125091785Y-101123942D01*
X124948928Y-101504895D02*
X124948928Y-100704895D01*
X124948928Y-100704895D02*
X125177499Y-100704895D01*
X125177499Y-100704895D02*
X125234642Y-100742990D01*
X125234642Y-100742990D02*
X125263213Y-100781085D01*
X125263213Y-100781085D02*
X125291785Y-100857276D01*
X125291785Y-100857276D02*
X125291785Y-100971561D01*
X125291785Y-100971561D02*
X125263213Y-101047752D01*
X125263213Y-101047752D02*
X125234642Y-101085847D01*
X125234642Y-101085847D02*
X125177499Y-101123942D01*
X125177499Y-101123942D02*
X124948928Y-101123942D01*
X125863213Y-101504895D02*
X125520356Y-101504895D01*
X125691785Y-101504895D02*
X125691785Y-100704895D01*
X125691785Y-100704895D02*
X125634642Y-100819180D01*
X125634642Y-100819180D02*
X125577499Y-100895371D01*
X125577499Y-100895371D02*
X125520356Y-100933466D01*
X126148928Y-101504895D02*
X126263214Y-101504895D01*
X126263214Y-101504895D02*
X126320357Y-101466800D01*
X126320357Y-101466800D02*
X126348928Y-101428704D01*
X126348928Y-101428704D02*
X126406071Y-101314419D01*
X126406071Y-101314419D02*
X126434642Y-101162038D01*
X126434642Y-101162038D02*
X126434642Y-100857276D01*
X126434642Y-100857276D02*
X126406071Y-100781085D01*
X126406071Y-100781085D02*
X126377500Y-100742990D01*
X126377500Y-100742990D02*
X126320357Y-100704895D01*
X126320357Y-100704895D02*
X126206071Y-100704895D01*
X126206071Y-100704895D02*
X126148928Y-100742990D01*
X126148928Y-100742990D02*
X126120357Y-100781085D01*
X126120357Y-100781085D02*
X126091785Y-100857276D01*
X126091785Y-100857276D02*
X126091785Y-101047752D01*
X126091785Y-101047752D02*
X126120357Y-101123942D01*
X126120357Y-101123942D02*
X126148928Y-101162038D01*
X126148928Y-101162038D02*
X126206071Y-101200133D01*
X126206071Y-101200133D02*
X126320357Y-101200133D01*
X126320357Y-101200133D02*
X126377500Y-101162038D01*
X126377500Y-101162038D02*
X126406071Y-101123942D01*
X126406071Y-101123942D02*
X126434642Y-101047752D01*
X137177500Y-90104895D02*
X136977500Y-89723942D01*
X136834643Y-90104895D02*
X136834643Y-89304895D01*
X136834643Y-89304895D02*
X137063214Y-89304895D01*
X137063214Y-89304895D02*
X137120357Y-89342990D01*
X137120357Y-89342990D02*
X137148928Y-89381085D01*
X137148928Y-89381085D02*
X137177500Y-89457276D01*
X137177500Y-89457276D02*
X137177500Y-89571561D01*
X137177500Y-89571561D02*
X137148928Y-89647752D01*
X137148928Y-89647752D02*
X137120357Y-89685847D01*
X137120357Y-89685847D02*
X137063214Y-89723942D01*
X137063214Y-89723942D02*
X136834643Y-89723942D01*
X137748928Y-90104895D02*
X137406071Y-90104895D01*
X137577500Y-90104895D02*
X137577500Y-89304895D01*
X137577500Y-89304895D02*
X137520357Y-89419180D01*
X137520357Y-89419180D02*
X137463214Y-89495371D01*
X137463214Y-89495371D02*
X137406071Y-89533466D01*
X170822372Y-94511166D02*
X170256687Y-93945481D01*
X170256687Y-93945481D02*
X170357702Y-93844466D01*
X170357702Y-93844466D02*
X170445249Y-93810794D01*
X170445249Y-93810794D02*
X170539530Y-93824263D01*
X170539530Y-93824263D02*
X170613607Y-93857935D01*
X170613607Y-93857935D02*
X170741560Y-93945481D01*
X170741560Y-93945481D02*
X170822372Y-94026293D01*
X170822372Y-94026293D02*
X170909919Y-94154246D01*
X170909919Y-94154246D02*
X170943591Y-94228324D01*
X170943591Y-94228324D02*
X170957059Y-94322605D01*
X170957059Y-94322605D02*
X170923388Y-94410151D01*
X170923388Y-94410151D02*
X170822372Y-94511166D01*
X170640545Y-93561623D02*
X170903185Y-93298983D01*
X170903185Y-93298983D02*
X170977262Y-93655904D01*
X170977262Y-93655904D02*
X171037872Y-93595295D01*
X171037872Y-93595295D02*
X171105215Y-93581826D01*
X171105215Y-93581826D02*
X171152355Y-93588560D01*
X171152355Y-93588560D02*
X171226433Y-93622232D01*
X171226433Y-93622232D02*
X171361120Y-93756919D01*
X171361120Y-93756919D02*
X171394792Y-93830997D01*
X171394792Y-93830997D02*
X171401526Y-93878138D01*
X171401526Y-93878138D02*
X171388058Y-93945481D01*
X171388058Y-93945481D02*
X171266839Y-94066699D01*
X171266839Y-94066699D02*
X171199496Y-94080168D01*
X171199496Y-94080168D02*
X171152355Y-94073434D01*
X143491785Y-99504895D02*
X143291785Y-99123942D01*
X143148928Y-99504895D02*
X143148928Y-98704895D01*
X143148928Y-98704895D02*
X143377499Y-98704895D01*
X143377499Y-98704895D02*
X143434642Y-98742990D01*
X143434642Y-98742990D02*
X143463213Y-98781085D01*
X143463213Y-98781085D02*
X143491785Y-98857276D01*
X143491785Y-98857276D02*
X143491785Y-98971561D01*
X143491785Y-98971561D02*
X143463213Y-99047752D01*
X143463213Y-99047752D02*
X143434642Y-99085847D01*
X143434642Y-99085847D02*
X143377499Y-99123942D01*
X143377499Y-99123942D02*
X143148928Y-99123942D01*
X144063213Y-99504895D02*
X143720356Y-99504895D01*
X143891785Y-99504895D02*
X143891785Y-98704895D01*
X143891785Y-98704895D02*
X143834642Y-98819180D01*
X143834642Y-98819180D02*
X143777499Y-98895371D01*
X143777499Y-98895371D02*
X143720356Y-98933466D01*
X144434642Y-98704895D02*
X144491785Y-98704895D01*
X144491785Y-98704895D02*
X144548928Y-98742990D01*
X144548928Y-98742990D02*
X144577500Y-98781085D01*
X144577500Y-98781085D02*
X144606071Y-98857276D01*
X144606071Y-98857276D02*
X144634642Y-99009657D01*
X144634642Y-99009657D02*
X144634642Y-99200133D01*
X144634642Y-99200133D02*
X144606071Y-99352514D01*
X144606071Y-99352514D02*
X144577500Y-99428704D01*
X144577500Y-99428704D02*
X144548928Y-99466800D01*
X144548928Y-99466800D02*
X144491785Y-99504895D01*
X144491785Y-99504895D02*
X144434642Y-99504895D01*
X144434642Y-99504895D02*
X144377500Y-99466800D01*
X144377500Y-99466800D02*
X144348928Y-99428704D01*
X144348928Y-99428704D02*
X144320357Y-99352514D01*
X144320357Y-99352514D02*
X144291785Y-99200133D01*
X144291785Y-99200133D02*
X144291785Y-99009657D01*
X144291785Y-99009657D02*
X144320357Y-98857276D01*
X144320357Y-98857276D02*
X144348928Y-98781085D01*
X144348928Y-98781085D02*
X144377500Y-98742990D01*
X144377500Y-98742990D02*
X144434642Y-98704895D01*
X167077499Y-104704895D02*
X167077499Y-105276323D01*
X167077499Y-105276323D02*
X167048928Y-105390609D01*
X167048928Y-105390609D02*
X166991785Y-105466800D01*
X166991785Y-105466800D02*
X166906071Y-105504895D01*
X166906071Y-105504895D02*
X166848928Y-105504895D01*
X167363214Y-105504895D02*
X167363214Y-104704895D01*
X167363214Y-104704895D02*
X167591785Y-104704895D01*
X167591785Y-104704895D02*
X167648928Y-104742990D01*
X167648928Y-104742990D02*
X167677499Y-104781085D01*
X167677499Y-104781085D02*
X167706071Y-104857276D01*
X167706071Y-104857276D02*
X167706071Y-104971561D01*
X167706071Y-104971561D02*
X167677499Y-105047752D01*
X167677499Y-105047752D02*
X167648928Y-105085847D01*
X167648928Y-105085847D02*
X167591785Y-105123942D01*
X167591785Y-105123942D02*
X167363214Y-105123942D01*
X168277499Y-105504895D02*
X167934642Y-105504895D01*
X168106071Y-105504895D02*
X168106071Y-104704895D01*
X168106071Y-104704895D02*
X168048928Y-104819180D01*
X168048928Y-104819180D02*
X167991785Y-104895371D01*
X167991785Y-104895371D02*
X167934642Y-104933466D01*
X155220357Y-94104895D02*
X155220357Y-94752514D01*
X155220357Y-94752514D02*
X155248928Y-94828704D01*
X155248928Y-94828704D02*
X155277500Y-94866800D01*
X155277500Y-94866800D02*
X155334642Y-94904895D01*
X155334642Y-94904895D02*
X155448928Y-94904895D01*
X155448928Y-94904895D02*
X155506071Y-94866800D01*
X155506071Y-94866800D02*
X155534642Y-94828704D01*
X155534642Y-94828704D02*
X155563214Y-94752514D01*
X155563214Y-94752514D02*
X155563214Y-94104895D01*
X156163213Y-94904895D02*
X155820356Y-94904895D01*
X155991785Y-94904895D02*
X155991785Y-94104895D01*
X155991785Y-94104895D02*
X155934642Y-94219180D01*
X155934642Y-94219180D02*
X155877499Y-94295371D01*
X155877499Y-94295371D02*
X155820356Y-94333466D01*
X174977500Y-83904895D02*
X174777500Y-83523942D01*
X174634643Y-83904895D02*
X174634643Y-83104895D01*
X174634643Y-83104895D02*
X174863214Y-83104895D01*
X174863214Y-83104895D02*
X174920357Y-83142990D01*
X174920357Y-83142990D02*
X174948928Y-83181085D01*
X174948928Y-83181085D02*
X174977500Y-83257276D01*
X174977500Y-83257276D02*
X174977500Y-83371561D01*
X174977500Y-83371561D02*
X174948928Y-83447752D01*
X174948928Y-83447752D02*
X174920357Y-83485847D01*
X174920357Y-83485847D02*
X174863214Y-83523942D01*
X174863214Y-83523942D02*
X174634643Y-83523942D01*
X175491786Y-83104895D02*
X175377500Y-83104895D01*
X175377500Y-83104895D02*
X175320357Y-83142990D01*
X175320357Y-83142990D02*
X175291786Y-83181085D01*
X175291786Y-83181085D02*
X175234643Y-83295371D01*
X175234643Y-83295371D02*
X175206071Y-83447752D01*
X175206071Y-83447752D02*
X175206071Y-83752514D01*
X175206071Y-83752514D02*
X175234643Y-83828704D01*
X175234643Y-83828704D02*
X175263214Y-83866800D01*
X175263214Y-83866800D02*
X175320357Y-83904895D01*
X175320357Y-83904895D02*
X175434643Y-83904895D01*
X175434643Y-83904895D02*
X175491786Y-83866800D01*
X175491786Y-83866800D02*
X175520357Y-83828704D01*
X175520357Y-83828704D02*
X175548928Y-83752514D01*
X175548928Y-83752514D02*
X175548928Y-83562038D01*
X175548928Y-83562038D02*
X175520357Y-83485847D01*
X175520357Y-83485847D02*
X175491786Y-83447752D01*
X175491786Y-83447752D02*
X175434643Y-83409657D01*
X175434643Y-83409657D02*
X175320357Y-83409657D01*
X175320357Y-83409657D02*
X175263214Y-83447752D01*
X175263214Y-83447752D02*
X175234643Y-83485847D01*
X175234643Y-83485847D02*
X175206071Y-83562038D01*
X164477499Y-75104895D02*
X164477499Y-75676323D01*
X164477499Y-75676323D02*
X164448928Y-75790609D01*
X164448928Y-75790609D02*
X164391785Y-75866800D01*
X164391785Y-75866800D02*
X164306071Y-75904895D01*
X164306071Y-75904895D02*
X164248928Y-75904895D01*
X165048928Y-75104895D02*
X164763214Y-75104895D01*
X164763214Y-75104895D02*
X164734642Y-75485847D01*
X164734642Y-75485847D02*
X164763214Y-75447752D01*
X164763214Y-75447752D02*
X164820357Y-75409657D01*
X164820357Y-75409657D02*
X164963214Y-75409657D01*
X164963214Y-75409657D02*
X165020357Y-75447752D01*
X165020357Y-75447752D02*
X165048928Y-75485847D01*
X165048928Y-75485847D02*
X165077499Y-75562038D01*
X165077499Y-75562038D02*
X165077499Y-75752514D01*
X165077499Y-75752514D02*
X165048928Y-75828704D01*
X165048928Y-75828704D02*
X165020357Y-75866800D01*
X165020357Y-75866800D02*
X164963214Y-75904895D01*
X164963214Y-75904895D02*
X164820357Y-75904895D01*
X164820357Y-75904895D02*
X164763214Y-75866800D01*
X164763214Y-75866800D02*
X164734642Y-75828704D01*
X180477499Y-111704895D02*
X180477499Y-112276323D01*
X180477499Y-112276323D02*
X180448928Y-112390609D01*
X180448928Y-112390609D02*
X180391785Y-112466800D01*
X180391785Y-112466800D02*
X180306071Y-112504895D01*
X180306071Y-112504895D02*
X180248928Y-112504895D01*
X180734642Y-111781085D02*
X180763214Y-111742990D01*
X180763214Y-111742990D02*
X180820357Y-111704895D01*
X180820357Y-111704895D02*
X180963214Y-111704895D01*
X180963214Y-111704895D02*
X181020357Y-111742990D01*
X181020357Y-111742990D02*
X181048928Y-111781085D01*
X181048928Y-111781085D02*
X181077499Y-111857276D01*
X181077499Y-111857276D02*
X181077499Y-111933466D01*
X181077499Y-111933466D02*
X181048928Y-112047752D01*
X181048928Y-112047752D02*
X180706071Y-112504895D01*
X180706071Y-112504895D02*
X181077499Y-112504895D01*
X177491785Y-85904895D02*
X177291785Y-85523942D01*
X177148928Y-85904895D02*
X177148928Y-85104895D01*
X177148928Y-85104895D02*
X177377499Y-85104895D01*
X177377499Y-85104895D02*
X177434642Y-85142990D01*
X177434642Y-85142990D02*
X177463213Y-85181085D01*
X177463213Y-85181085D02*
X177491785Y-85257276D01*
X177491785Y-85257276D02*
X177491785Y-85371561D01*
X177491785Y-85371561D02*
X177463213Y-85447752D01*
X177463213Y-85447752D02*
X177434642Y-85485847D01*
X177434642Y-85485847D02*
X177377499Y-85523942D01*
X177377499Y-85523942D02*
X177148928Y-85523942D01*
X177720356Y-85181085D02*
X177748928Y-85142990D01*
X177748928Y-85142990D02*
X177806071Y-85104895D01*
X177806071Y-85104895D02*
X177948928Y-85104895D01*
X177948928Y-85104895D02*
X178006071Y-85142990D01*
X178006071Y-85142990D02*
X178034642Y-85181085D01*
X178034642Y-85181085D02*
X178063213Y-85257276D01*
X178063213Y-85257276D02*
X178063213Y-85333466D01*
X178063213Y-85333466D02*
X178034642Y-85447752D01*
X178034642Y-85447752D02*
X177691785Y-85904895D01*
X177691785Y-85904895D02*
X178063213Y-85904895D01*
X178263214Y-85104895D02*
X178663214Y-85104895D01*
X178663214Y-85104895D02*
X178406071Y-85904895D01*
X128234643Y-88104895D02*
X128234643Y-87304895D01*
X128234643Y-87304895D02*
X128377500Y-87304895D01*
X128377500Y-87304895D02*
X128463214Y-87342990D01*
X128463214Y-87342990D02*
X128520357Y-87419180D01*
X128520357Y-87419180D02*
X128548928Y-87495371D01*
X128548928Y-87495371D02*
X128577500Y-87647752D01*
X128577500Y-87647752D02*
X128577500Y-87762038D01*
X128577500Y-87762038D02*
X128548928Y-87914419D01*
X128548928Y-87914419D02*
X128520357Y-87990609D01*
X128520357Y-87990609D02*
X128463214Y-88066800D01*
X128463214Y-88066800D02*
X128377500Y-88104895D01*
X128377500Y-88104895D02*
X128234643Y-88104895D01*
X129148928Y-88104895D02*
X128806071Y-88104895D01*
X128977500Y-88104895D02*
X128977500Y-87304895D01*
X128977500Y-87304895D02*
X128920357Y-87419180D01*
X128920357Y-87419180D02*
X128863214Y-87495371D01*
X128863214Y-87495371D02*
X128806071Y-87533466D01*
X137091785Y-94104895D02*
X136891785Y-93723942D01*
X136748928Y-94104895D02*
X136748928Y-93304895D01*
X136748928Y-93304895D02*
X136977499Y-93304895D01*
X136977499Y-93304895D02*
X137034642Y-93342990D01*
X137034642Y-93342990D02*
X137063213Y-93381085D01*
X137063213Y-93381085D02*
X137091785Y-93457276D01*
X137091785Y-93457276D02*
X137091785Y-93571561D01*
X137091785Y-93571561D02*
X137063213Y-93647752D01*
X137063213Y-93647752D02*
X137034642Y-93685847D01*
X137034642Y-93685847D02*
X136977499Y-93723942D01*
X136977499Y-93723942D02*
X136748928Y-93723942D01*
X137663213Y-94104895D02*
X137320356Y-94104895D01*
X137491785Y-94104895D02*
X137491785Y-93304895D01*
X137491785Y-93304895D02*
X137434642Y-93419180D01*
X137434642Y-93419180D02*
X137377499Y-93495371D01*
X137377499Y-93495371D02*
X137320356Y-93533466D01*
X137891785Y-93381085D02*
X137920357Y-93342990D01*
X137920357Y-93342990D02*
X137977500Y-93304895D01*
X137977500Y-93304895D02*
X138120357Y-93304895D01*
X138120357Y-93304895D02*
X138177500Y-93342990D01*
X138177500Y-93342990D02*
X138206071Y-93381085D01*
X138206071Y-93381085D02*
X138234642Y-93457276D01*
X138234642Y-93457276D02*
X138234642Y-93533466D01*
X138234642Y-93533466D02*
X138206071Y-93647752D01*
X138206071Y-93647752D02*
X137863214Y-94104895D01*
X137863214Y-94104895D02*
X138234642Y-94104895D01*
X162177500Y-95428704D02*
X162148928Y-95466800D01*
X162148928Y-95466800D02*
X162063214Y-95504895D01*
X162063214Y-95504895D02*
X162006071Y-95504895D01*
X162006071Y-95504895D02*
X161920357Y-95466800D01*
X161920357Y-95466800D02*
X161863214Y-95390609D01*
X161863214Y-95390609D02*
X161834643Y-95314419D01*
X161834643Y-95314419D02*
X161806071Y-95162038D01*
X161806071Y-95162038D02*
X161806071Y-95047752D01*
X161806071Y-95047752D02*
X161834643Y-94895371D01*
X161834643Y-94895371D02*
X161863214Y-94819180D01*
X161863214Y-94819180D02*
X161920357Y-94742990D01*
X161920357Y-94742990D02*
X162006071Y-94704895D01*
X162006071Y-94704895D02*
X162063214Y-94704895D01*
X162063214Y-94704895D02*
X162148928Y-94742990D01*
X162148928Y-94742990D02*
X162177500Y-94781085D01*
X162691786Y-94971561D02*
X162691786Y-95504895D01*
X162548928Y-94666800D02*
X162406071Y-95238228D01*
X162406071Y-95238228D02*
X162777500Y-95238228D01*
X160862778Y-105470761D02*
X160451983Y-105342808D01*
X160620341Y-105713197D02*
X160054656Y-105147512D01*
X160054656Y-105147512D02*
X160216280Y-104985888D01*
X160216280Y-104985888D02*
X160283624Y-104972419D01*
X160283624Y-104972419D02*
X160330764Y-104979153D01*
X160330764Y-104979153D02*
X160404842Y-105012825D01*
X160404842Y-105012825D02*
X160485654Y-105093637D01*
X160485654Y-105093637D02*
X160519326Y-105167715D01*
X160519326Y-105167715D02*
X160526060Y-105214856D01*
X160526060Y-105214856D02*
X160512592Y-105282199D01*
X160512592Y-105282199D02*
X160350967Y-105443823D01*
X161266839Y-105066700D02*
X161024402Y-105309136D01*
X161145621Y-105187918D02*
X160579935Y-104622233D01*
X160579935Y-104622233D02*
X160620341Y-104743451D01*
X160620341Y-104743451D02*
X160633810Y-104837732D01*
X160633810Y-104837732D02*
X160620341Y-104905075D01*
X161085012Y-104117156D02*
X160882981Y-104319187D01*
X160882981Y-104319187D02*
X161132152Y-104608764D01*
X161132152Y-104608764D02*
X161125418Y-104561623D01*
X161125418Y-104561623D02*
X161138887Y-104494280D01*
X161138887Y-104494280D02*
X161239902Y-104393265D01*
X161239902Y-104393265D02*
X161307245Y-104379796D01*
X161307245Y-104379796D02*
X161354386Y-104386530D01*
X161354386Y-104386530D02*
X161428464Y-104420202D01*
X161428464Y-104420202D02*
X161563151Y-104554889D01*
X161563151Y-104554889D02*
X161596822Y-104628967D01*
X161596822Y-104628967D02*
X161603557Y-104676107D01*
X161603557Y-104676107D02*
X161590088Y-104743451D01*
X161590088Y-104743451D02*
X161489073Y-104844466D01*
X161489073Y-104844466D02*
X161421729Y-104857935D01*
X161421729Y-104857935D02*
X161374589Y-104851200D01*
X170777500Y-88428704D02*
X170748928Y-88466800D01*
X170748928Y-88466800D02*
X170663214Y-88504895D01*
X170663214Y-88504895D02*
X170606071Y-88504895D01*
X170606071Y-88504895D02*
X170520357Y-88466800D01*
X170520357Y-88466800D02*
X170463214Y-88390609D01*
X170463214Y-88390609D02*
X170434643Y-88314419D01*
X170434643Y-88314419D02*
X170406071Y-88162038D01*
X170406071Y-88162038D02*
X170406071Y-88047752D01*
X170406071Y-88047752D02*
X170434643Y-87895371D01*
X170434643Y-87895371D02*
X170463214Y-87819180D01*
X170463214Y-87819180D02*
X170520357Y-87742990D01*
X170520357Y-87742990D02*
X170606071Y-87704895D01*
X170606071Y-87704895D02*
X170663214Y-87704895D01*
X170663214Y-87704895D02*
X170748928Y-87742990D01*
X170748928Y-87742990D02*
X170777500Y-87781085D01*
X171320357Y-87704895D02*
X171034643Y-87704895D01*
X171034643Y-87704895D02*
X171006071Y-88085847D01*
X171006071Y-88085847D02*
X171034643Y-88047752D01*
X171034643Y-88047752D02*
X171091786Y-88009657D01*
X171091786Y-88009657D02*
X171234643Y-88009657D01*
X171234643Y-88009657D02*
X171291786Y-88047752D01*
X171291786Y-88047752D02*
X171320357Y-88085847D01*
X171320357Y-88085847D02*
X171348928Y-88162038D01*
X171348928Y-88162038D02*
X171348928Y-88352514D01*
X171348928Y-88352514D02*
X171320357Y-88428704D01*
X171320357Y-88428704D02*
X171291786Y-88466800D01*
X171291786Y-88466800D02*
X171234643Y-88504895D01*
X171234643Y-88504895D02*
X171091786Y-88504895D01*
X171091786Y-88504895D02*
X171034643Y-88466800D01*
X171034643Y-88466800D02*
X171006071Y-88428704D01*
X175262778Y-98070761D02*
X174851983Y-97942808D01*
X175020341Y-98313197D02*
X174454656Y-97747512D01*
X174454656Y-97747512D02*
X174616280Y-97585888D01*
X174616280Y-97585888D02*
X174683624Y-97572419D01*
X174683624Y-97572419D02*
X174730764Y-97579153D01*
X174730764Y-97579153D02*
X174804842Y-97612825D01*
X174804842Y-97612825D02*
X174885654Y-97693637D01*
X174885654Y-97693637D02*
X174919326Y-97767715D01*
X174919326Y-97767715D02*
X174926060Y-97814856D01*
X174926060Y-97814856D02*
X174912592Y-97882199D01*
X174912592Y-97882199D02*
X174750967Y-98043823D01*
X174912592Y-97397326D02*
X174905857Y-97350185D01*
X174905857Y-97350185D02*
X174919326Y-97282842D01*
X174919326Y-97282842D02*
X175020341Y-97181827D01*
X175020341Y-97181827D02*
X175087685Y-97168358D01*
X175087685Y-97168358D02*
X175134825Y-97175092D01*
X175134825Y-97175092D02*
X175208903Y-97208764D01*
X175208903Y-97208764D02*
X175262778Y-97262639D01*
X175262778Y-97262639D02*
X175323387Y-97363654D01*
X175323387Y-97363654D02*
X175404199Y-97929340D01*
X175404199Y-97929340D02*
X175666839Y-97666700D01*
X175464809Y-96737359D02*
X175383997Y-96818171D01*
X175383997Y-96818171D02*
X175370528Y-96885515D01*
X175370528Y-96885515D02*
X175377262Y-96932655D01*
X175377262Y-96932655D02*
X175417668Y-97053874D01*
X175417668Y-97053874D02*
X175505215Y-97181826D01*
X175505215Y-97181826D02*
X175720714Y-97397326D01*
X175720714Y-97397326D02*
X175794792Y-97430997D01*
X175794792Y-97430997D02*
X175841932Y-97437732D01*
X175841932Y-97437732D02*
X175909276Y-97424263D01*
X175909276Y-97424263D02*
X175990088Y-97343451D01*
X175990088Y-97343451D02*
X176003557Y-97276107D01*
X176003557Y-97276107D02*
X175996822Y-97228967D01*
X175996822Y-97228967D02*
X175963151Y-97154889D01*
X175963151Y-97154889D02*
X175828464Y-97020202D01*
X175828464Y-97020202D02*
X175754386Y-96986530D01*
X175754386Y-96986530D02*
X175707245Y-96979796D01*
X175707245Y-96979796D02*
X175639902Y-96993265D01*
X175639902Y-96993265D02*
X175559090Y-97074077D01*
X175559090Y-97074077D02*
X175545621Y-97141420D01*
X175545621Y-97141420D02*
X175552355Y-97188561D01*
X175552355Y-97188561D02*
X175586027Y-97262639D01*
X172422372Y-94511166D02*
X171856687Y-93945481D01*
X171856687Y-93945481D02*
X171957702Y-93844466D01*
X171957702Y-93844466D02*
X172045249Y-93810794D01*
X172045249Y-93810794D02*
X172139530Y-93824263D01*
X172139530Y-93824263D02*
X172213607Y-93857935D01*
X172213607Y-93857935D02*
X172341560Y-93945481D01*
X172341560Y-93945481D02*
X172422372Y-94026293D01*
X172422372Y-94026293D02*
X172509919Y-94154246D01*
X172509919Y-94154246D02*
X172543591Y-94228324D01*
X172543591Y-94228324D02*
X172557059Y-94322605D01*
X172557059Y-94322605D02*
X172523388Y-94410151D01*
X172523388Y-94410151D02*
X172422372Y-94511166D01*
X172651340Y-93527951D02*
X173028464Y-93905075D01*
X172334826Y-93413467D02*
X172637872Y-93918544D01*
X172637872Y-93918544D02*
X172900511Y-93655904D01*
X129220357Y-92381085D02*
X129163214Y-92342990D01*
X129163214Y-92342990D02*
X129106071Y-92266800D01*
X129106071Y-92266800D02*
X129020357Y-92152514D01*
X129020357Y-92152514D02*
X128963214Y-92114419D01*
X128963214Y-92114419D02*
X128906071Y-92114419D01*
X128934642Y-92304895D02*
X128877500Y-92266800D01*
X128877500Y-92266800D02*
X128820357Y-92190609D01*
X128820357Y-92190609D02*
X128791785Y-92038228D01*
X128791785Y-92038228D02*
X128791785Y-91771561D01*
X128791785Y-91771561D02*
X128820357Y-91619180D01*
X128820357Y-91619180D02*
X128877500Y-91542990D01*
X128877500Y-91542990D02*
X128934642Y-91504895D01*
X128934642Y-91504895D02*
X129048928Y-91504895D01*
X129048928Y-91504895D02*
X129106071Y-91542990D01*
X129106071Y-91542990D02*
X129163214Y-91619180D01*
X129163214Y-91619180D02*
X129191785Y-91771561D01*
X129191785Y-91771561D02*
X129191785Y-92038228D01*
X129191785Y-92038228D02*
X129163214Y-92190609D01*
X129163214Y-92190609D02*
X129106071Y-92266800D01*
X129106071Y-92266800D02*
X129048928Y-92304895D01*
X129048928Y-92304895D02*
X128934642Y-92304895D01*
X129763213Y-92304895D02*
X129420356Y-92304895D01*
X129591785Y-92304895D02*
X129591785Y-91504895D01*
X129591785Y-91504895D02*
X129534642Y-91619180D01*
X129534642Y-91619180D02*
X129477499Y-91695371D01*
X129477499Y-91695371D02*
X129420356Y-91733466D01*
X152777500Y-88528704D02*
X152748928Y-88566800D01*
X152748928Y-88566800D02*
X152663214Y-88604895D01*
X152663214Y-88604895D02*
X152606071Y-88604895D01*
X152606071Y-88604895D02*
X152520357Y-88566800D01*
X152520357Y-88566800D02*
X152463214Y-88490609D01*
X152463214Y-88490609D02*
X152434643Y-88414419D01*
X152434643Y-88414419D02*
X152406071Y-88262038D01*
X152406071Y-88262038D02*
X152406071Y-88147752D01*
X152406071Y-88147752D02*
X152434643Y-87995371D01*
X152434643Y-87995371D02*
X152463214Y-87919180D01*
X152463214Y-87919180D02*
X152520357Y-87842990D01*
X152520357Y-87842990D02*
X152606071Y-87804895D01*
X152606071Y-87804895D02*
X152663214Y-87804895D01*
X152663214Y-87804895D02*
X152748928Y-87842990D01*
X152748928Y-87842990D02*
X152777500Y-87881085D01*
X153291786Y-87804895D02*
X153177500Y-87804895D01*
X153177500Y-87804895D02*
X153120357Y-87842990D01*
X153120357Y-87842990D02*
X153091786Y-87881085D01*
X153091786Y-87881085D02*
X153034643Y-87995371D01*
X153034643Y-87995371D02*
X153006071Y-88147752D01*
X153006071Y-88147752D02*
X153006071Y-88452514D01*
X153006071Y-88452514D02*
X153034643Y-88528704D01*
X153034643Y-88528704D02*
X153063214Y-88566800D01*
X153063214Y-88566800D02*
X153120357Y-88604895D01*
X153120357Y-88604895D02*
X153234643Y-88604895D01*
X153234643Y-88604895D02*
X153291786Y-88566800D01*
X153291786Y-88566800D02*
X153320357Y-88528704D01*
X153320357Y-88528704D02*
X153348928Y-88452514D01*
X153348928Y-88452514D02*
X153348928Y-88262038D01*
X153348928Y-88262038D02*
X153320357Y-88185847D01*
X153320357Y-88185847D02*
X153291786Y-88147752D01*
X153291786Y-88147752D02*
X153234643Y-88109657D01*
X153234643Y-88109657D02*
X153120357Y-88109657D01*
X153120357Y-88109657D02*
X153063214Y-88147752D01*
X153063214Y-88147752D02*
X153034643Y-88185847D01*
X153034643Y-88185847D02*
X153006071Y-88262038D01*
X172462778Y-98070761D02*
X172051983Y-97942808D01*
X172220341Y-98313197D02*
X171654656Y-97747512D01*
X171654656Y-97747512D02*
X171816280Y-97585888D01*
X171816280Y-97585888D02*
X171883624Y-97572419D01*
X171883624Y-97572419D02*
X171930764Y-97579153D01*
X171930764Y-97579153D02*
X172004842Y-97612825D01*
X172004842Y-97612825D02*
X172085654Y-97693637D01*
X172085654Y-97693637D02*
X172119326Y-97767715D01*
X172119326Y-97767715D02*
X172126060Y-97814856D01*
X172126060Y-97814856D02*
X172112592Y-97882199D01*
X172112592Y-97882199D02*
X171950967Y-98043823D01*
X172112592Y-97397326D02*
X172105857Y-97350185D01*
X172105857Y-97350185D02*
X172119326Y-97282842D01*
X172119326Y-97282842D02*
X172220341Y-97181827D01*
X172220341Y-97181827D02*
X172287685Y-97168358D01*
X172287685Y-97168358D02*
X172334825Y-97175092D01*
X172334825Y-97175092D02*
X172408903Y-97208764D01*
X172408903Y-97208764D02*
X172462778Y-97262639D01*
X172462778Y-97262639D02*
X172523387Y-97363654D01*
X172523387Y-97363654D02*
X172604199Y-97929340D01*
X172604199Y-97929340D02*
X172866839Y-97666700D01*
X172853371Y-96925921D02*
X173230494Y-97303045D01*
X172536856Y-96811437D02*
X172839902Y-97316513D01*
X172839902Y-97316513D02*
X173102541Y-97053874D01*
X174427500Y-88404895D02*
X174227500Y-88023942D01*
X174084643Y-88404895D02*
X174084643Y-87604895D01*
X174084643Y-87604895D02*
X174313214Y-87604895D01*
X174313214Y-87604895D02*
X174370357Y-87642990D01*
X174370357Y-87642990D02*
X174398928Y-87681085D01*
X174398928Y-87681085D02*
X174427500Y-87757276D01*
X174427500Y-87757276D02*
X174427500Y-87871561D01*
X174427500Y-87871561D02*
X174398928Y-87947752D01*
X174398928Y-87947752D02*
X174370357Y-87985847D01*
X174370357Y-87985847D02*
X174313214Y-88023942D01*
X174313214Y-88023942D02*
X174084643Y-88023942D01*
X174770357Y-87947752D02*
X174713214Y-87909657D01*
X174713214Y-87909657D02*
X174684643Y-87871561D01*
X174684643Y-87871561D02*
X174656071Y-87795371D01*
X174656071Y-87795371D02*
X174656071Y-87757276D01*
X174656071Y-87757276D02*
X174684643Y-87681085D01*
X174684643Y-87681085D02*
X174713214Y-87642990D01*
X174713214Y-87642990D02*
X174770357Y-87604895D01*
X174770357Y-87604895D02*
X174884643Y-87604895D01*
X174884643Y-87604895D02*
X174941786Y-87642990D01*
X174941786Y-87642990D02*
X174970357Y-87681085D01*
X174970357Y-87681085D02*
X174998928Y-87757276D01*
X174998928Y-87757276D02*
X174998928Y-87795371D01*
X174998928Y-87795371D02*
X174970357Y-87871561D01*
X174970357Y-87871561D02*
X174941786Y-87909657D01*
X174941786Y-87909657D02*
X174884643Y-87947752D01*
X174884643Y-87947752D02*
X174770357Y-87947752D01*
X174770357Y-87947752D02*
X174713214Y-87985847D01*
X174713214Y-87985847D02*
X174684643Y-88023942D01*
X174684643Y-88023942D02*
X174656071Y-88100133D01*
X174656071Y-88100133D02*
X174656071Y-88252514D01*
X174656071Y-88252514D02*
X174684643Y-88328704D01*
X174684643Y-88328704D02*
X174713214Y-88366800D01*
X174713214Y-88366800D02*
X174770357Y-88404895D01*
X174770357Y-88404895D02*
X174884643Y-88404895D01*
X174884643Y-88404895D02*
X174941786Y-88366800D01*
X174941786Y-88366800D02*
X174970357Y-88328704D01*
X174970357Y-88328704D02*
X174998928Y-88252514D01*
X174998928Y-88252514D02*
X174998928Y-88100133D01*
X174998928Y-88100133D02*
X174970357Y-88023942D01*
X174970357Y-88023942D02*
X174941786Y-87985847D01*
X174941786Y-87985847D02*
X174884643Y-87947752D01*
X146062778Y-107870761D02*
X145651983Y-107742808D01*
X145820341Y-108113197D02*
X145254656Y-107547512D01*
X145254656Y-107547512D02*
X145416280Y-107385888D01*
X145416280Y-107385888D02*
X145483624Y-107372419D01*
X145483624Y-107372419D02*
X145530764Y-107379153D01*
X145530764Y-107379153D02*
X145604842Y-107412825D01*
X145604842Y-107412825D02*
X145685654Y-107493637D01*
X145685654Y-107493637D02*
X145719326Y-107567715D01*
X145719326Y-107567715D02*
X145726060Y-107614856D01*
X145726060Y-107614856D02*
X145712592Y-107682199D01*
X145712592Y-107682199D02*
X145550967Y-107843823D01*
X145712592Y-107197326D02*
X145705857Y-107150185D01*
X145705857Y-107150185D02*
X145719326Y-107082842D01*
X145719326Y-107082842D02*
X145820341Y-106981827D01*
X145820341Y-106981827D02*
X145887685Y-106968358D01*
X145887685Y-106968358D02*
X145934825Y-106975092D01*
X145934825Y-106975092D02*
X146008903Y-107008764D01*
X146008903Y-107008764D02*
X146062778Y-107062639D01*
X146062778Y-107062639D02*
X146123387Y-107163654D01*
X146123387Y-107163654D02*
X146204199Y-107729340D01*
X146204199Y-107729340D02*
X146466839Y-107466700D01*
X146870900Y-107062639D02*
X146628464Y-107305075D01*
X146749682Y-107183857D02*
X146183997Y-106618171D01*
X146183997Y-106618171D02*
X146224403Y-106739390D01*
X146224403Y-106739390D02*
X146237871Y-106833671D01*
X146237871Y-106833671D02*
X146224403Y-106901014D01*
X160067976Y-88212371D02*
X160067976Y-88698085D01*
X160067976Y-88698085D02*
X160106071Y-88755228D01*
X160106071Y-88755228D02*
X160144166Y-88783800D01*
X160144166Y-88783800D02*
X160220357Y-88812371D01*
X160220357Y-88812371D02*
X160372738Y-88812371D01*
X160372738Y-88812371D02*
X160448928Y-88783800D01*
X160448928Y-88783800D02*
X160487023Y-88755228D01*
X160487023Y-88755228D02*
X160525119Y-88698085D01*
X160525119Y-88698085D02*
X160525119Y-88212371D01*
X160829880Y-88212371D02*
X161325118Y-88212371D01*
X161325118Y-88212371D02*
X161058452Y-88440942D01*
X161058452Y-88440942D02*
X161172737Y-88440942D01*
X161172737Y-88440942D02*
X161248928Y-88469514D01*
X161248928Y-88469514D02*
X161287023Y-88498085D01*
X161287023Y-88498085D02*
X161325118Y-88555228D01*
X161325118Y-88555228D02*
X161325118Y-88698085D01*
X161325118Y-88698085D02*
X161287023Y-88755228D01*
X161287023Y-88755228D02*
X161248928Y-88783800D01*
X161248928Y-88783800D02*
X161172737Y-88812371D01*
X161172737Y-88812371D02*
X160944166Y-88812371D01*
X160944166Y-88812371D02*
X160867975Y-88783800D01*
X160867975Y-88783800D02*
X160829880Y-88755228D01*
X162891785Y-105554895D02*
X162691785Y-105173942D01*
X162548928Y-105554895D02*
X162548928Y-104754895D01*
X162548928Y-104754895D02*
X162777499Y-104754895D01*
X162777499Y-104754895D02*
X162834642Y-104792990D01*
X162834642Y-104792990D02*
X162863213Y-104831085D01*
X162863213Y-104831085D02*
X162891785Y-104907276D01*
X162891785Y-104907276D02*
X162891785Y-105021561D01*
X162891785Y-105021561D02*
X162863213Y-105097752D01*
X162863213Y-105097752D02*
X162834642Y-105135847D01*
X162834642Y-105135847D02*
X162777499Y-105173942D01*
X162777499Y-105173942D02*
X162548928Y-105173942D01*
X163463213Y-105554895D02*
X163120356Y-105554895D01*
X163291785Y-105554895D02*
X163291785Y-104754895D01*
X163291785Y-104754895D02*
X163234642Y-104869180D01*
X163234642Y-104869180D02*
X163177499Y-104945371D01*
X163177499Y-104945371D02*
X163120356Y-104983466D01*
X163663214Y-104754895D02*
X164063214Y-104754895D01*
X164063214Y-104754895D02*
X163806071Y-105554895D01*
X158262778Y-105470761D02*
X157851983Y-105342808D01*
X158020341Y-105713197D02*
X157454656Y-105147512D01*
X157454656Y-105147512D02*
X157616280Y-104985888D01*
X157616280Y-104985888D02*
X157683624Y-104972419D01*
X157683624Y-104972419D02*
X157730764Y-104979153D01*
X157730764Y-104979153D02*
X157804842Y-105012825D01*
X157804842Y-105012825D02*
X157885654Y-105093637D01*
X157885654Y-105093637D02*
X157919326Y-105167715D01*
X157919326Y-105167715D02*
X157926060Y-105214856D01*
X157926060Y-105214856D02*
X157912592Y-105282199D01*
X157912592Y-105282199D02*
X157750967Y-105443823D01*
X158666839Y-105066700D02*
X158424402Y-105309136D01*
X158545621Y-105187918D02*
X157979935Y-104622233D01*
X157979935Y-104622233D02*
X158020341Y-104743451D01*
X158020341Y-104743451D02*
X158033810Y-104837732D01*
X158033810Y-104837732D02*
X158020341Y-104905075D01*
X158586027Y-104501014D02*
X158518684Y-104514483D01*
X158518684Y-104514483D02*
X158471543Y-104507748D01*
X158471543Y-104507748D02*
X158397465Y-104474077D01*
X158397465Y-104474077D02*
X158370528Y-104447139D01*
X158370528Y-104447139D02*
X158336856Y-104373061D01*
X158336856Y-104373061D02*
X158330122Y-104325921D01*
X158330122Y-104325921D02*
X158343590Y-104258578D01*
X158343590Y-104258578D02*
X158424403Y-104177765D01*
X158424403Y-104177765D02*
X158491746Y-104164297D01*
X158491746Y-104164297D02*
X158538887Y-104171031D01*
X158538887Y-104171031D02*
X158612964Y-104204703D01*
X158612964Y-104204703D02*
X158639902Y-104231640D01*
X158639902Y-104231640D02*
X158673574Y-104305718D01*
X158673574Y-104305718D02*
X158680308Y-104352858D01*
X158680308Y-104352858D02*
X158666839Y-104420202D01*
X158666839Y-104420202D02*
X158586027Y-104501014D01*
X158586027Y-104501014D02*
X158572558Y-104568358D01*
X158572558Y-104568358D02*
X158579293Y-104615498D01*
X158579293Y-104615498D02*
X158612964Y-104689576D01*
X158612964Y-104689576D02*
X158720714Y-104797326D01*
X158720714Y-104797326D02*
X158794792Y-104830997D01*
X158794792Y-104830997D02*
X158841932Y-104837732D01*
X158841932Y-104837732D02*
X158909276Y-104824263D01*
X158909276Y-104824263D02*
X158990088Y-104743451D01*
X158990088Y-104743451D02*
X159003557Y-104676107D01*
X159003557Y-104676107D02*
X158996822Y-104628967D01*
X158996822Y-104628967D02*
X158963151Y-104554889D01*
X158963151Y-104554889D02*
X158855401Y-104447139D01*
X158855401Y-104447139D02*
X158781323Y-104413468D01*
X158781323Y-104413468D02*
X158734183Y-104406733D01*
X158734183Y-104406733D02*
X158666839Y-104420202D01*
X159777500Y-85904895D02*
X159577500Y-85523942D01*
X159434643Y-85904895D02*
X159434643Y-85104895D01*
X159434643Y-85104895D02*
X159663214Y-85104895D01*
X159663214Y-85104895D02*
X159720357Y-85142990D01*
X159720357Y-85142990D02*
X159748928Y-85181085D01*
X159748928Y-85181085D02*
X159777500Y-85257276D01*
X159777500Y-85257276D02*
X159777500Y-85371561D01*
X159777500Y-85371561D02*
X159748928Y-85447752D01*
X159748928Y-85447752D02*
X159720357Y-85485847D01*
X159720357Y-85485847D02*
X159663214Y-85523942D01*
X159663214Y-85523942D02*
X159434643Y-85523942D01*
X159977500Y-85104895D02*
X160377500Y-85104895D01*
X160377500Y-85104895D02*
X160120357Y-85904895D01*
X130477499Y-75104895D02*
X130477499Y-75676323D01*
X130477499Y-75676323D02*
X130448928Y-75790609D01*
X130448928Y-75790609D02*
X130391785Y-75866800D01*
X130391785Y-75866800D02*
X130306071Y-75904895D01*
X130306071Y-75904895D02*
X130248928Y-75904895D01*
X130706071Y-75104895D02*
X131077499Y-75104895D01*
X131077499Y-75104895D02*
X130877499Y-75409657D01*
X130877499Y-75409657D02*
X130963214Y-75409657D01*
X130963214Y-75409657D02*
X131020357Y-75447752D01*
X131020357Y-75447752D02*
X131048928Y-75485847D01*
X131048928Y-75485847D02*
X131077499Y-75562038D01*
X131077499Y-75562038D02*
X131077499Y-75752514D01*
X131077499Y-75752514D02*
X131048928Y-75828704D01*
X131048928Y-75828704D02*
X131020357Y-75866800D01*
X131020357Y-75866800D02*
X130963214Y-75904895D01*
X130963214Y-75904895D02*
X130791785Y-75904895D01*
X130791785Y-75904895D02*
X130734642Y-75866800D01*
X130734642Y-75866800D02*
X130706071Y-75828704D01*
X129220357Y-98381085D02*
X129163214Y-98342990D01*
X129163214Y-98342990D02*
X129106071Y-98266800D01*
X129106071Y-98266800D02*
X129020357Y-98152514D01*
X129020357Y-98152514D02*
X128963214Y-98114419D01*
X128963214Y-98114419D02*
X128906071Y-98114419D01*
X128934642Y-98304895D02*
X128877500Y-98266800D01*
X128877500Y-98266800D02*
X128820357Y-98190609D01*
X128820357Y-98190609D02*
X128791785Y-98038228D01*
X128791785Y-98038228D02*
X128791785Y-97771561D01*
X128791785Y-97771561D02*
X128820357Y-97619180D01*
X128820357Y-97619180D02*
X128877500Y-97542990D01*
X128877500Y-97542990D02*
X128934642Y-97504895D01*
X128934642Y-97504895D02*
X129048928Y-97504895D01*
X129048928Y-97504895D02*
X129106071Y-97542990D01*
X129106071Y-97542990D02*
X129163214Y-97619180D01*
X129163214Y-97619180D02*
X129191785Y-97771561D01*
X129191785Y-97771561D02*
X129191785Y-98038228D01*
X129191785Y-98038228D02*
X129163214Y-98190609D01*
X129163214Y-98190609D02*
X129106071Y-98266800D01*
X129106071Y-98266800D02*
X129048928Y-98304895D01*
X129048928Y-98304895D02*
X128934642Y-98304895D01*
X129420356Y-97581085D02*
X129448928Y-97542990D01*
X129448928Y-97542990D02*
X129506071Y-97504895D01*
X129506071Y-97504895D02*
X129648928Y-97504895D01*
X129648928Y-97504895D02*
X129706071Y-97542990D01*
X129706071Y-97542990D02*
X129734642Y-97581085D01*
X129734642Y-97581085D02*
X129763213Y-97657276D01*
X129763213Y-97657276D02*
X129763213Y-97733466D01*
X129763213Y-97733466D02*
X129734642Y-97847752D01*
X129734642Y-97847752D02*
X129391785Y-98304895D01*
X129391785Y-98304895D02*
X129763213Y-98304895D01*
X171062778Y-98070761D02*
X170651983Y-97942808D01*
X170820341Y-98313197D02*
X170254656Y-97747512D01*
X170254656Y-97747512D02*
X170416280Y-97585888D01*
X170416280Y-97585888D02*
X170483624Y-97572419D01*
X170483624Y-97572419D02*
X170530764Y-97579153D01*
X170530764Y-97579153D02*
X170604842Y-97612825D01*
X170604842Y-97612825D02*
X170685654Y-97693637D01*
X170685654Y-97693637D02*
X170719326Y-97767715D01*
X170719326Y-97767715D02*
X170726060Y-97814856D01*
X170726060Y-97814856D02*
X170712592Y-97882199D01*
X170712592Y-97882199D02*
X170550967Y-98043823D01*
X170712592Y-97397326D02*
X170705857Y-97350185D01*
X170705857Y-97350185D02*
X170719326Y-97282842D01*
X170719326Y-97282842D02*
X170820341Y-97181827D01*
X170820341Y-97181827D02*
X170887685Y-97168358D01*
X170887685Y-97168358D02*
X170934825Y-97175092D01*
X170934825Y-97175092D02*
X171008903Y-97208764D01*
X171008903Y-97208764D02*
X171062778Y-97262639D01*
X171062778Y-97262639D02*
X171123387Y-97363654D01*
X171123387Y-97363654D02*
X171204199Y-97929340D01*
X171204199Y-97929340D02*
X171466839Y-97666700D01*
X171042575Y-96959593D02*
X171305215Y-96696953D01*
X171305215Y-96696953D02*
X171379293Y-97053874D01*
X171379293Y-97053874D02*
X171439902Y-96993265D01*
X171439902Y-96993265D02*
X171507245Y-96979796D01*
X171507245Y-96979796D02*
X171554386Y-96986530D01*
X171554386Y-96986530D02*
X171628464Y-97020202D01*
X171628464Y-97020202D02*
X171763151Y-97154889D01*
X171763151Y-97154889D02*
X171796822Y-97228967D01*
X171796822Y-97228967D02*
X171803557Y-97276107D01*
X171803557Y-97276107D02*
X171790088Y-97343451D01*
X171790088Y-97343451D02*
X171668870Y-97464669D01*
X171668870Y-97464669D02*
X171601526Y-97478138D01*
X171601526Y-97478138D02*
X171554386Y-97471403D01*
X129234643Y-99304895D02*
X129234643Y-98504895D01*
X129234643Y-98504895D02*
X129377500Y-98504895D01*
X129377500Y-98504895D02*
X129463214Y-98542990D01*
X129463214Y-98542990D02*
X129520357Y-98619180D01*
X129520357Y-98619180D02*
X129548928Y-98695371D01*
X129548928Y-98695371D02*
X129577500Y-98847752D01*
X129577500Y-98847752D02*
X129577500Y-98962038D01*
X129577500Y-98962038D02*
X129548928Y-99114419D01*
X129548928Y-99114419D02*
X129520357Y-99190609D01*
X129520357Y-99190609D02*
X129463214Y-99266800D01*
X129463214Y-99266800D02*
X129377500Y-99304895D01*
X129377500Y-99304895D02*
X129234643Y-99304895D01*
X129920357Y-98847752D02*
X129863214Y-98809657D01*
X129863214Y-98809657D02*
X129834643Y-98771561D01*
X129834643Y-98771561D02*
X129806071Y-98695371D01*
X129806071Y-98695371D02*
X129806071Y-98657276D01*
X129806071Y-98657276D02*
X129834643Y-98581085D01*
X129834643Y-98581085D02*
X129863214Y-98542990D01*
X129863214Y-98542990D02*
X129920357Y-98504895D01*
X129920357Y-98504895D02*
X130034643Y-98504895D01*
X130034643Y-98504895D02*
X130091786Y-98542990D01*
X130091786Y-98542990D02*
X130120357Y-98581085D01*
X130120357Y-98581085D02*
X130148928Y-98657276D01*
X130148928Y-98657276D02*
X130148928Y-98695371D01*
X130148928Y-98695371D02*
X130120357Y-98771561D01*
X130120357Y-98771561D02*
X130091786Y-98809657D01*
X130091786Y-98809657D02*
X130034643Y-98847752D01*
X130034643Y-98847752D02*
X129920357Y-98847752D01*
X129920357Y-98847752D02*
X129863214Y-98885847D01*
X129863214Y-98885847D02*
X129834643Y-98923942D01*
X129834643Y-98923942D02*
X129806071Y-99000133D01*
X129806071Y-99000133D02*
X129806071Y-99152514D01*
X129806071Y-99152514D02*
X129834643Y-99228704D01*
X129834643Y-99228704D02*
X129863214Y-99266800D01*
X129863214Y-99266800D02*
X129920357Y-99304895D01*
X129920357Y-99304895D02*
X130034643Y-99304895D01*
X130034643Y-99304895D02*
X130091786Y-99266800D01*
X130091786Y-99266800D02*
X130120357Y-99228704D01*
X130120357Y-99228704D02*
X130148928Y-99152514D01*
X130148928Y-99152514D02*
X130148928Y-99000133D01*
X130148928Y-99000133D02*
X130120357Y-98923942D01*
X130120357Y-98923942D02*
X130091786Y-98885847D01*
X130091786Y-98885847D02*
X130034643Y-98847752D01*
X143977500Y-95428704D02*
X143948928Y-95466800D01*
X143948928Y-95466800D02*
X143863214Y-95504895D01*
X143863214Y-95504895D02*
X143806071Y-95504895D01*
X143806071Y-95504895D02*
X143720357Y-95466800D01*
X143720357Y-95466800D02*
X143663214Y-95390609D01*
X143663214Y-95390609D02*
X143634643Y-95314419D01*
X143634643Y-95314419D02*
X143606071Y-95162038D01*
X143606071Y-95162038D02*
X143606071Y-95047752D01*
X143606071Y-95047752D02*
X143634643Y-94895371D01*
X143634643Y-94895371D02*
X143663214Y-94819180D01*
X143663214Y-94819180D02*
X143720357Y-94742990D01*
X143720357Y-94742990D02*
X143806071Y-94704895D01*
X143806071Y-94704895D02*
X143863214Y-94704895D01*
X143863214Y-94704895D02*
X143948928Y-94742990D01*
X143948928Y-94742990D02*
X143977500Y-94781085D01*
X144177500Y-94704895D02*
X144548928Y-94704895D01*
X144548928Y-94704895D02*
X144348928Y-95009657D01*
X144348928Y-95009657D02*
X144434643Y-95009657D01*
X144434643Y-95009657D02*
X144491786Y-95047752D01*
X144491786Y-95047752D02*
X144520357Y-95085847D01*
X144520357Y-95085847D02*
X144548928Y-95162038D01*
X144548928Y-95162038D02*
X144548928Y-95352514D01*
X144548928Y-95352514D02*
X144520357Y-95428704D01*
X144520357Y-95428704D02*
X144491786Y-95466800D01*
X144491786Y-95466800D02*
X144434643Y-95504895D01*
X144434643Y-95504895D02*
X144263214Y-95504895D01*
X144263214Y-95504895D02*
X144206071Y-95466800D01*
X144206071Y-95466800D02*
X144177500Y-95428704D01*
X180477499Y-75104895D02*
X180477499Y-75676323D01*
X180477499Y-75676323D02*
X180448928Y-75790609D01*
X180448928Y-75790609D02*
X180391785Y-75866800D01*
X180391785Y-75866800D02*
X180306071Y-75904895D01*
X180306071Y-75904895D02*
X180248928Y-75904895D01*
X181020357Y-75104895D02*
X180906071Y-75104895D01*
X180906071Y-75104895D02*
X180848928Y-75142990D01*
X180848928Y-75142990D02*
X180820357Y-75181085D01*
X180820357Y-75181085D02*
X180763214Y-75295371D01*
X180763214Y-75295371D02*
X180734642Y-75447752D01*
X180734642Y-75447752D02*
X180734642Y-75752514D01*
X180734642Y-75752514D02*
X180763214Y-75828704D01*
X180763214Y-75828704D02*
X180791785Y-75866800D01*
X180791785Y-75866800D02*
X180848928Y-75904895D01*
X180848928Y-75904895D02*
X180963214Y-75904895D01*
X180963214Y-75904895D02*
X181020357Y-75866800D01*
X181020357Y-75866800D02*
X181048928Y-75828704D01*
X181048928Y-75828704D02*
X181077499Y-75752514D01*
X181077499Y-75752514D02*
X181077499Y-75562038D01*
X181077499Y-75562038D02*
X181048928Y-75485847D01*
X181048928Y-75485847D02*
X181020357Y-75447752D01*
X181020357Y-75447752D02*
X180963214Y-75409657D01*
X180963214Y-75409657D02*
X180848928Y-75409657D01*
X180848928Y-75409657D02*
X180791785Y-75447752D01*
X180791785Y-75447752D02*
X180763214Y-75485847D01*
X180763214Y-75485847D02*
X180734642Y-75562038D01*
X181091785Y-101904895D02*
X180891785Y-101523942D01*
X180748928Y-101904895D02*
X180748928Y-101104895D01*
X180748928Y-101104895D02*
X180977499Y-101104895D01*
X180977499Y-101104895D02*
X181034642Y-101142990D01*
X181034642Y-101142990D02*
X181063213Y-101181085D01*
X181063213Y-101181085D02*
X181091785Y-101257276D01*
X181091785Y-101257276D02*
X181091785Y-101371561D01*
X181091785Y-101371561D02*
X181063213Y-101447752D01*
X181063213Y-101447752D02*
X181034642Y-101485847D01*
X181034642Y-101485847D02*
X180977499Y-101523942D01*
X180977499Y-101523942D02*
X180748928Y-101523942D01*
X181320356Y-101181085D02*
X181348928Y-101142990D01*
X181348928Y-101142990D02*
X181406071Y-101104895D01*
X181406071Y-101104895D02*
X181548928Y-101104895D01*
X181548928Y-101104895D02*
X181606071Y-101142990D01*
X181606071Y-101142990D02*
X181634642Y-101181085D01*
X181634642Y-101181085D02*
X181663213Y-101257276D01*
X181663213Y-101257276D02*
X181663213Y-101333466D01*
X181663213Y-101333466D02*
X181634642Y-101447752D01*
X181634642Y-101447752D02*
X181291785Y-101904895D01*
X181291785Y-101904895D02*
X181663213Y-101904895D01*
X182034642Y-101104895D02*
X182091785Y-101104895D01*
X182091785Y-101104895D02*
X182148928Y-101142990D01*
X182148928Y-101142990D02*
X182177500Y-101181085D01*
X182177500Y-101181085D02*
X182206071Y-101257276D01*
X182206071Y-101257276D02*
X182234642Y-101409657D01*
X182234642Y-101409657D02*
X182234642Y-101600133D01*
X182234642Y-101600133D02*
X182206071Y-101752514D01*
X182206071Y-101752514D02*
X182177500Y-101828704D01*
X182177500Y-101828704D02*
X182148928Y-101866800D01*
X182148928Y-101866800D02*
X182091785Y-101904895D01*
X182091785Y-101904895D02*
X182034642Y-101904895D01*
X182034642Y-101904895D02*
X181977500Y-101866800D01*
X181977500Y-101866800D02*
X181948928Y-101828704D01*
X181948928Y-101828704D02*
X181920357Y-101752514D01*
X181920357Y-101752514D02*
X181891785Y-101600133D01*
X181891785Y-101600133D02*
X181891785Y-101409657D01*
X181891785Y-101409657D02*
X181920357Y-101257276D01*
X181920357Y-101257276D02*
X181948928Y-101181085D01*
X181948928Y-101181085D02*
X181977500Y-101142990D01*
X181977500Y-101142990D02*
X182034642Y-101104895D01*
X137177500Y-98104895D02*
X136977500Y-97723942D01*
X136834643Y-98104895D02*
X136834643Y-97304895D01*
X136834643Y-97304895D02*
X137063214Y-97304895D01*
X137063214Y-97304895D02*
X137120357Y-97342990D01*
X137120357Y-97342990D02*
X137148928Y-97381085D01*
X137148928Y-97381085D02*
X137177500Y-97457276D01*
X137177500Y-97457276D02*
X137177500Y-97571561D01*
X137177500Y-97571561D02*
X137148928Y-97647752D01*
X137148928Y-97647752D02*
X137120357Y-97685847D01*
X137120357Y-97685847D02*
X137063214Y-97723942D01*
X137063214Y-97723942D02*
X136834643Y-97723942D01*
X137691786Y-97571561D02*
X137691786Y-98104895D01*
X137548928Y-97266800D02*
X137406071Y-97838228D01*
X137406071Y-97838228D02*
X137777500Y-97838228D01*
X175222372Y-94511166D02*
X174656687Y-93945481D01*
X174656687Y-93945481D02*
X174757702Y-93844466D01*
X174757702Y-93844466D02*
X174845249Y-93810794D01*
X174845249Y-93810794D02*
X174939530Y-93824263D01*
X174939530Y-93824263D02*
X175013607Y-93857935D01*
X175013607Y-93857935D02*
X175141560Y-93945481D01*
X175141560Y-93945481D02*
X175222372Y-94026293D01*
X175222372Y-94026293D02*
X175309919Y-94154246D01*
X175309919Y-94154246D02*
X175343591Y-94228324D01*
X175343591Y-94228324D02*
X175357059Y-94322605D01*
X175357059Y-94322605D02*
X175323388Y-94410151D01*
X175323388Y-94410151D02*
X175222372Y-94511166D01*
X175262778Y-93339390D02*
X175181966Y-93420202D01*
X175181966Y-93420202D02*
X175168498Y-93487545D01*
X175168498Y-93487545D02*
X175175232Y-93534686D01*
X175175232Y-93534686D02*
X175215638Y-93655904D01*
X175215638Y-93655904D02*
X175303185Y-93783857D01*
X175303185Y-93783857D02*
X175518684Y-93999356D01*
X175518684Y-93999356D02*
X175592762Y-94033028D01*
X175592762Y-94033028D02*
X175639902Y-94039762D01*
X175639902Y-94039762D02*
X175707246Y-94026293D01*
X175707246Y-94026293D02*
X175788058Y-93945481D01*
X175788058Y-93945481D02*
X175801526Y-93878138D01*
X175801526Y-93878138D02*
X175794792Y-93830997D01*
X175794792Y-93830997D02*
X175761120Y-93756919D01*
X175761120Y-93756919D02*
X175626433Y-93622232D01*
X175626433Y-93622232D02*
X175552355Y-93588560D01*
X175552355Y-93588560D02*
X175505215Y-93581826D01*
X175505215Y-93581826D02*
X175437872Y-93595295D01*
X175437872Y-93595295D02*
X175357059Y-93676107D01*
X175357059Y-93676107D02*
X175343591Y-93743451D01*
X175343591Y-93743451D02*
X175350325Y-93790591D01*
X175350325Y-93790591D02*
X175383997Y-93864669D01*
X170491785Y-105504895D02*
X170291785Y-105123942D01*
X170148928Y-105504895D02*
X170148928Y-104704895D01*
X170148928Y-104704895D02*
X170377499Y-104704895D01*
X170377499Y-104704895D02*
X170434642Y-104742990D01*
X170434642Y-104742990D02*
X170463213Y-104781085D01*
X170463213Y-104781085D02*
X170491785Y-104857276D01*
X170491785Y-104857276D02*
X170491785Y-104971561D01*
X170491785Y-104971561D02*
X170463213Y-105047752D01*
X170463213Y-105047752D02*
X170434642Y-105085847D01*
X170434642Y-105085847D02*
X170377499Y-105123942D01*
X170377499Y-105123942D02*
X170148928Y-105123942D01*
X171063213Y-105504895D02*
X170720356Y-105504895D01*
X170891785Y-105504895D02*
X170891785Y-104704895D01*
X170891785Y-104704895D02*
X170834642Y-104819180D01*
X170834642Y-104819180D02*
X170777499Y-104895371D01*
X170777499Y-104895371D02*
X170720356Y-104933466D01*
X171263214Y-104704895D02*
X171634642Y-104704895D01*
X171634642Y-104704895D02*
X171434642Y-105009657D01*
X171434642Y-105009657D02*
X171520357Y-105009657D01*
X171520357Y-105009657D02*
X171577500Y-105047752D01*
X171577500Y-105047752D02*
X171606071Y-105085847D01*
X171606071Y-105085847D02*
X171634642Y-105162038D01*
X171634642Y-105162038D02*
X171634642Y-105352514D01*
X171634642Y-105352514D02*
X171606071Y-105428704D01*
X171606071Y-105428704D02*
X171577500Y-105466800D01*
X171577500Y-105466800D02*
X171520357Y-105504895D01*
X171520357Y-105504895D02*
X171348928Y-105504895D01*
X171348928Y-105504895D02*
X171291785Y-105466800D01*
X171291785Y-105466800D02*
X171263214Y-105428704D01*
X137091785Y-88104895D02*
X136891785Y-87723942D01*
X136748928Y-88104895D02*
X136748928Y-87304895D01*
X136748928Y-87304895D02*
X136977499Y-87304895D01*
X136977499Y-87304895D02*
X137034642Y-87342990D01*
X137034642Y-87342990D02*
X137063213Y-87381085D01*
X137063213Y-87381085D02*
X137091785Y-87457276D01*
X137091785Y-87457276D02*
X137091785Y-87571561D01*
X137091785Y-87571561D02*
X137063213Y-87647752D01*
X137063213Y-87647752D02*
X137034642Y-87685847D01*
X137034642Y-87685847D02*
X136977499Y-87723942D01*
X136977499Y-87723942D02*
X136748928Y-87723942D01*
X137663213Y-88104895D02*
X137320356Y-88104895D01*
X137491785Y-88104895D02*
X137491785Y-87304895D01*
X137491785Y-87304895D02*
X137434642Y-87419180D01*
X137434642Y-87419180D02*
X137377499Y-87495371D01*
X137377499Y-87495371D02*
X137320356Y-87533466D01*
X138234642Y-88104895D02*
X137891785Y-88104895D01*
X138063214Y-88104895D02*
X138063214Y-87304895D01*
X138063214Y-87304895D02*
X138006071Y-87419180D01*
X138006071Y-87419180D02*
X137948928Y-87495371D01*
X137948928Y-87495371D02*
X137891785Y-87533466D01*
X182834643Y-85904895D02*
X182834643Y-85104895D01*
X182834643Y-85104895D02*
X182977500Y-85104895D01*
X182977500Y-85104895D02*
X183063214Y-85142990D01*
X183063214Y-85142990D02*
X183120357Y-85219180D01*
X183120357Y-85219180D02*
X183148928Y-85295371D01*
X183148928Y-85295371D02*
X183177500Y-85447752D01*
X183177500Y-85447752D02*
X183177500Y-85562038D01*
X183177500Y-85562038D02*
X183148928Y-85714419D01*
X183148928Y-85714419D02*
X183120357Y-85790609D01*
X183120357Y-85790609D02*
X183063214Y-85866800D01*
X183063214Y-85866800D02*
X182977500Y-85904895D01*
X182977500Y-85904895D02*
X182834643Y-85904895D01*
X183377500Y-85104895D02*
X183777500Y-85104895D01*
X183777500Y-85104895D02*
X183520357Y-85904895D01*
X143977500Y-97504895D02*
X143777500Y-97123942D01*
X143634643Y-97504895D02*
X143634643Y-96704895D01*
X143634643Y-96704895D02*
X143863214Y-96704895D01*
X143863214Y-96704895D02*
X143920357Y-96742990D01*
X143920357Y-96742990D02*
X143948928Y-96781085D01*
X143948928Y-96781085D02*
X143977500Y-96857276D01*
X143977500Y-96857276D02*
X143977500Y-96971561D01*
X143977500Y-96971561D02*
X143948928Y-97047752D01*
X143948928Y-97047752D02*
X143920357Y-97085847D01*
X143920357Y-97085847D02*
X143863214Y-97123942D01*
X143863214Y-97123942D02*
X143634643Y-97123942D01*
X144263214Y-97504895D02*
X144377500Y-97504895D01*
X144377500Y-97504895D02*
X144434643Y-97466800D01*
X144434643Y-97466800D02*
X144463214Y-97428704D01*
X144463214Y-97428704D02*
X144520357Y-97314419D01*
X144520357Y-97314419D02*
X144548928Y-97162038D01*
X144548928Y-97162038D02*
X144548928Y-96857276D01*
X144548928Y-96857276D02*
X144520357Y-96781085D01*
X144520357Y-96781085D02*
X144491786Y-96742990D01*
X144491786Y-96742990D02*
X144434643Y-96704895D01*
X144434643Y-96704895D02*
X144320357Y-96704895D01*
X144320357Y-96704895D02*
X144263214Y-96742990D01*
X144263214Y-96742990D02*
X144234643Y-96781085D01*
X144234643Y-96781085D02*
X144206071Y-96857276D01*
X144206071Y-96857276D02*
X144206071Y-97047752D01*
X144206071Y-97047752D02*
X144234643Y-97123942D01*
X144234643Y-97123942D02*
X144263214Y-97162038D01*
X144263214Y-97162038D02*
X144320357Y-97200133D01*
X144320357Y-97200133D02*
X144434643Y-97200133D01*
X144434643Y-97200133D02*
X144491786Y-97162038D01*
X144491786Y-97162038D02*
X144520357Y-97123942D01*
X144520357Y-97123942D02*
X144548928Y-97047752D01*
X137177500Y-96104895D02*
X136977500Y-95723942D01*
X136834643Y-96104895D02*
X136834643Y-95304895D01*
X136834643Y-95304895D02*
X137063214Y-95304895D01*
X137063214Y-95304895D02*
X137120357Y-95342990D01*
X137120357Y-95342990D02*
X137148928Y-95381085D01*
X137148928Y-95381085D02*
X137177500Y-95457276D01*
X137177500Y-95457276D02*
X137177500Y-95571561D01*
X137177500Y-95571561D02*
X137148928Y-95647752D01*
X137148928Y-95647752D02*
X137120357Y-95685847D01*
X137120357Y-95685847D02*
X137063214Y-95723942D01*
X137063214Y-95723942D02*
X136834643Y-95723942D01*
X137406071Y-95381085D02*
X137434643Y-95342990D01*
X137434643Y-95342990D02*
X137491786Y-95304895D01*
X137491786Y-95304895D02*
X137634643Y-95304895D01*
X137634643Y-95304895D02*
X137691786Y-95342990D01*
X137691786Y-95342990D02*
X137720357Y-95381085D01*
X137720357Y-95381085D02*
X137748928Y-95457276D01*
X137748928Y-95457276D02*
X137748928Y-95533466D01*
X137748928Y-95533466D02*
X137720357Y-95647752D01*
X137720357Y-95647752D02*
X137377500Y-96104895D01*
X137377500Y-96104895D02*
X137748928Y-96104895D01*
X149062778Y-107870761D02*
X148651983Y-107742808D01*
X148820341Y-108113197D02*
X148254656Y-107547512D01*
X148254656Y-107547512D02*
X148416280Y-107385888D01*
X148416280Y-107385888D02*
X148483624Y-107372419D01*
X148483624Y-107372419D02*
X148530764Y-107379153D01*
X148530764Y-107379153D02*
X148604842Y-107412825D01*
X148604842Y-107412825D02*
X148685654Y-107493637D01*
X148685654Y-107493637D02*
X148719326Y-107567715D01*
X148719326Y-107567715D02*
X148726060Y-107614856D01*
X148726060Y-107614856D02*
X148712592Y-107682199D01*
X148712592Y-107682199D02*
X148550967Y-107843823D01*
X148712592Y-107197326D02*
X148705857Y-107150185D01*
X148705857Y-107150185D02*
X148719326Y-107082842D01*
X148719326Y-107082842D02*
X148820341Y-106981827D01*
X148820341Y-106981827D02*
X148887685Y-106968358D01*
X148887685Y-106968358D02*
X148934825Y-106975092D01*
X148934825Y-106975092D02*
X149008903Y-107008764D01*
X149008903Y-107008764D02*
X149062778Y-107062639D01*
X149062778Y-107062639D02*
X149123387Y-107163654D01*
X149123387Y-107163654D02*
X149204199Y-107729340D01*
X149204199Y-107729340D02*
X149466839Y-107466700D01*
X149116653Y-106793265D02*
X149109919Y-106746124D01*
X149109919Y-106746124D02*
X149123387Y-106678781D01*
X149123387Y-106678781D02*
X149224403Y-106577765D01*
X149224403Y-106577765D02*
X149291746Y-106564297D01*
X149291746Y-106564297D02*
X149338887Y-106571031D01*
X149338887Y-106571031D02*
X149412964Y-106604703D01*
X149412964Y-106604703D02*
X149466839Y-106658578D01*
X149466839Y-106658578D02*
X149527448Y-106759593D01*
X149527448Y-106759593D02*
X149608261Y-107325278D01*
X149608261Y-107325278D02*
X149870900Y-107062639D01*
X154427500Y-84404895D02*
X154227500Y-84023942D01*
X154084643Y-84404895D02*
X154084643Y-83604895D01*
X154084643Y-83604895D02*
X154313214Y-83604895D01*
X154313214Y-83604895D02*
X154370357Y-83642990D01*
X154370357Y-83642990D02*
X154398928Y-83681085D01*
X154398928Y-83681085D02*
X154427500Y-83757276D01*
X154427500Y-83757276D02*
X154427500Y-83871561D01*
X154427500Y-83871561D02*
X154398928Y-83947752D01*
X154398928Y-83947752D02*
X154370357Y-83985847D01*
X154370357Y-83985847D02*
X154313214Y-84023942D01*
X154313214Y-84023942D02*
X154084643Y-84023942D01*
X154970357Y-83604895D02*
X154684643Y-83604895D01*
X154684643Y-83604895D02*
X154656071Y-83985847D01*
X154656071Y-83985847D02*
X154684643Y-83947752D01*
X154684643Y-83947752D02*
X154741786Y-83909657D01*
X154741786Y-83909657D02*
X154884643Y-83909657D01*
X154884643Y-83909657D02*
X154941786Y-83947752D01*
X154941786Y-83947752D02*
X154970357Y-83985847D01*
X154970357Y-83985847D02*
X154998928Y-84062038D01*
X154998928Y-84062038D02*
X154998928Y-84252514D01*
X154998928Y-84252514D02*
X154970357Y-84328704D01*
X154970357Y-84328704D02*
X154941786Y-84366800D01*
X154941786Y-84366800D02*
X154884643Y-84404895D01*
X154884643Y-84404895D02*
X154741786Y-84404895D01*
X154741786Y-84404895D02*
X154684643Y-84366800D01*
X154684643Y-84366800D02*
X154656071Y-84328704D01*
X146477499Y-75104895D02*
X146477499Y-75676323D01*
X146477499Y-75676323D02*
X146448928Y-75790609D01*
X146448928Y-75790609D02*
X146391785Y-75866800D01*
X146391785Y-75866800D02*
X146306071Y-75904895D01*
X146306071Y-75904895D02*
X146248928Y-75904895D01*
X147020357Y-75371561D02*
X147020357Y-75904895D01*
X146877499Y-75066800D02*
X146734642Y-75638228D01*
X146734642Y-75638228D02*
X147106071Y-75638228D01*
D13*
%TO.C,R25*%
X181542500Y-97312936D02*
X181542500Y-97767064D01*
X183012500Y-97312936D02*
X183012500Y-97767064D01*
%TO.C,U2*%
X143942500Y-88540000D02*
X143942500Y-86340000D01*
X143942500Y-88540000D02*
X143942500Y-90740000D01*
X149412500Y-88540000D02*
X149412500Y-86340000D01*
X149412500Y-88540000D02*
X149412500Y-90740000D01*
X148952500Y-84630000D02*
X148712500Y-84300000D01*
X149192500Y-84300000D01*
X148952500Y-84630000D01*
G36*
X148952500Y-84630000D02*
G01*
X148712500Y-84300000D01*
X149192500Y-84300000D01*
X148952500Y-84630000D01*
G37*
%TO.C,C2*%
X167442500Y-94501252D02*
X167442500Y-93978748D01*
X168912500Y-94501252D02*
X168912500Y-93978748D01*
D10*
%TO.C,JP2*%
X166477500Y-102240000D02*
X166477500Y-100840000D01*
X166677500Y-100640000D02*
X168477500Y-100640000D01*
X168477500Y-102440000D02*
X166677500Y-102440000D01*
X168677500Y-100840000D02*
X168677500Y-102240000D01*
X166477500Y-100840000D02*
G75*
G02*
X166677500Y-100640000I200001J-1D01*
G01*
X166677500Y-102440000D02*
G75*
G02*
X166477500Y-102240000I1J200001D01*
G01*
X168477500Y-100640000D02*
G75*
G02*
X168677500Y-100840000I0J-200000D01*
G01*
X168677500Y-102240000D02*
G75*
G02*
X168477500Y-102440000I-200000J0D01*
G01*
D13*
%TO.C,R3*%
X134904564Y-91005000D02*
X134450436Y-91005000D01*
X134904564Y-92475000D02*
X134450436Y-92475000D01*
%TO.C,D2*%
X130077500Y-94640000D02*
X132762500Y-94640000D01*
X132762500Y-92840000D02*
X130077500Y-92840000D01*
X132762500Y-94640000D02*
X132762500Y-92840000D01*
%TO.C,D9*%
X173877500Y-102440000D02*
X176562500Y-102440000D01*
X176562500Y-100640000D02*
X173877500Y-100640000D01*
X176562500Y-102440000D02*
X176562500Y-100640000D01*
%TO.C,C7*%
X154416248Y-102405000D02*
X154938752Y-102405000D01*
X154416248Y-103875000D02*
X154938752Y-103875000D01*
%TO.C,D5*%
X181377500Y-92940000D02*
X181377500Y-95625000D01*
X181377500Y-95625000D02*
X183177500Y-95625000D01*
X183177500Y-95625000D02*
X183177500Y-92940000D01*
%TO.C,R16*%
X163950436Y-100805000D02*
X164404564Y-100805000D01*
X163950436Y-102275000D02*
X164404564Y-102275000D01*
%TO.C,R14*%
X170650436Y-100805000D02*
X171104564Y-100805000D01*
X170650436Y-102275000D02*
X171104564Y-102275000D01*
%TO.C,J1*%
X124617500Y-105230000D02*
X125637500Y-105230000D01*
X124617500Y-109480000D02*
X124617500Y-105230000D01*
X125637500Y-105230000D02*
X125637500Y-106830000D01*
X125637500Y-106830000D02*
X126917500Y-106830000D01*
X126337500Y-113050000D02*
X135017500Y-113050000D01*
X126917500Y-106830000D02*
X126917500Y-103940000D01*
X135717500Y-105230000D02*
X135717500Y-106830000D01*
X135717500Y-106830000D02*
X134437500Y-106830000D01*
X136737500Y-105230000D02*
X135717500Y-105230000D01*
X136737500Y-109480000D02*
X136737500Y-105230000D01*
%TO.C,C1*%
X149442500Y-94501252D02*
X149442500Y-93978748D01*
X150912500Y-94501252D02*
X150912500Y-93978748D01*
%TO.C,R19*%
X126942500Y-101367064D02*
X126942500Y-100912936D01*
X128412500Y-101367064D02*
X128412500Y-100912936D01*
%TO.C,R1*%
X134904564Y-89005000D02*
X134450436Y-89005000D01*
X134904564Y-90475000D02*
X134450436Y-90475000D01*
%TO.C,D3*%
X176177500Y-92940000D02*
X176177500Y-95625000D01*
X176177500Y-95625000D02*
X177977500Y-95625000D01*
X177977500Y-95625000D02*
X177977500Y-92940000D01*
%TO.C,R10*%
X146450436Y-98405000D02*
X146904564Y-98405000D01*
X146450436Y-99875000D02*
X146904564Y-99875000D01*
D10*
%TO.C,JP1*%
X166477500Y-104240000D02*
X166477500Y-102840000D01*
X166677500Y-102640000D02*
X168477500Y-102640000D01*
X168477500Y-104440000D02*
X166677500Y-104440000D01*
X168677500Y-102840000D02*
X168677500Y-104240000D01*
X166477500Y-102840000D02*
G75*
G02*
X166677500Y-102640000I200001J-1D01*
G01*
X166677500Y-104440000D02*
G75*
G02*
X166477500Y-104240000I1J200001D01*
G01*
X168477500Y-102640000D02*
G75*
G02*
X168677500Y-102840000I0J-200000D01*
G01*
X168677500Y-104240000D02*
G75*
G02*
X168477500Y-104440000I-200000J0D01*
G01*
D13*
%TO.C,U1*%
X155677500Y-95155000D02*
X153477500Y-95155000D01*
X155677500Y-95155000D02*
X157877500Y-95155000D01*
X155677500Y-101925000D02*
X153477500Y-101925000D01*
X155677500Y-101925000D02*
X157877500Y-101925000D01*
X151817500Y-95615000D02*
X151487500Y-95855000D01*
X151487500Y-95375000D01*
X151817500Y-95615000D01*
G36*
X151817500Y-95615000D02*
G01*
X151487500Y-95855000D01*
X151487500Y-95375000D01*
X151817500Y-95615000D01*
G37*
%TO.C,R6*%
X175404564Y-84305000D02*
X174950436Y-84305000D01*
X175404564Y-85775000D02*
X174950436Y-85775000D01*
%TO.C,J5*%
X156617500Y-77600000D02*
X156617500Y-81850000D01*
X156617500Y-81850000D02*
X157637500Y-81850000D01*
X157637500Y-80250000D02*
X158917500Y-80250000D01*
X157637500Y-81850000D02*
X157637500Y-80250000D01*
X170437500Y-80250000D02*
X170437500Y-83140000D01*
X171017500Y-74030000D02*
X158337500Y-74030000D01*
X171717500Y-80250000D02*
X170437500Y-80250000D01*
X171717500Y-81850000D02*
X171717500Y-80250000D01*
X172737500Y-77600000D02*
X172737500Y-81850000D01*
X172737500Y-81850000D02*
X171717500Y-81850000D01*
%TO.C,J2*%
X174617500Y-105230000D02*
X175637500Y-105230000D01*
X174617500Y-109480000D02*
X174617500Y-105230000D01*
X175637500Y-105230000D02*
X175637500Y-106830000D01*
X175637500Y-106830000D02*
X176917500Y-106830000D01*
X176337500Y-113050000D02*
X185017500Y-113050000D01*
X176917500Y-106830000D02*
X176917500Y-103940000D01*
X185717500Y-105230000D02*
X185717500Y-106830000D01*
X185717500Y-106830000D02*
X184437500Y-106830000D01*
X186737500Y-105230000D02*
X185717500Y-105230000D01*
X186737500Y-109480000D02*
X186737500Y-105230000D01*
%TO.C,R27*%
X178942500Y-85312936D02*
X178942500Y-85767064D01*
X180412500Y-85312936D02*
X180412500Y-85767064D01*
%TO.C,D1*%
X130077500Y-88640000D02*
X132762500Y-88640000D01*
X132762500Y-86840000D02*
X130077500Y-86840000D01*
X132762500Y-88640000D02*
X132762500Y-86840000D01*
%TO.C,R12*%
X134904564Y-93005000D02*
X134450436Y-93005000D01*
X134904564Y-94475000D02*
X134450436Y-94475000D01*
%TO.C,C4*%
X164938752Y-94305000D02*
X164416248Y-94305000D01*
X164938752Y-95775000D02*
X164416248Y-95775000D01*
%TO.C,R15*%
X160022500Y-107202936D02*
X160022500Y-107657064D01*
X161492500Y-107202936D02*
X161492500Y-107657064D01*
%TO.C,C5*%
X168267500Y-88251252D02*
X168267500Y-86828748D01*
X170087500Y-88251252D02*
X170087500Y-86828748D01*
%TO.C,R26*%
X183542500Y-97312936D02*
X183542500Y-97767064D01*
X185012500Y-97312936D02*
X185012500Y-97767064D01*
%TO.C,D4*%
X178177500Y-92940000D02*
X178177500Y-95625000D01*
X178177500Y-95625000D02*
X179977500Y-95625000D01*
X179977500Y-95625000D02*
X179977500Y-92940000D01*
%TO.C,Q1*%
X130677500Y-89180000D02*
X130027500Y-89180000D01*
X130677500Y-89180000D02*
X131327500Y-89180000D01*
X130677500Y-92300000D02*
X130027500Y-92300000D01*
X130677500Y-92300000D02*
X131327500Y-92300000D01*
X132080000Y-92580000D02*
X131600000Y-92580000D01*
X131840000Y-92250000D01*
X132080000Y-92580000D01*
G36*
X132080000Y-92580000D02*
G01*
X131600000Y-92580000D01*
X131840000Y-92250000D01*
X132080000Y-92580000D01*
G37*
%TO.C,C6*%
X150267500Y-88251252D02*
X150267500Y-86828748D01*
X152087500Y-88251252D02*
X152087500Y-86828748D01*
%TO.C,R24*%
X178342500Y-97312936D02*
X178342500Y-97767064D01*
X179812500Y-97312936D02*
X179812500Y-97767064D01*
%TO.C,R8*%
X175442500Y-88267064D02*
X175442500Y-87812936D01*
X176912500Y-88267064D02*
X176912500Y-87812936D01*
%TO.C,R21*%
X145442500Y-105017064D02*
X145442500Y-104562936D01*
X146912500Y-105017064D02*
X146912500Y-104562936D01*
%TO.C,U3*%
X161942500Y-88540000D02*
X161942500Y-86340000D01*
X161942500Y-88540000D02*
X161942500Y-90740000D01*
X167412500Y-88540000D02*
X167412500Y-86340000D01*
X167412500Y-88540000D02*
X167412500Y-90740000D01*
X166952500Y-84630000D02*
X166712500Y-84300000D01*
X167192500Y-84300000D01*
X166952500Y-84630000D01*
G36*
X166952500Y-84630000D02*
G01*
X166712500Y-84300000D01*
X167192500Y-84300000D01*
X166952500Y-84630000D01*
G37*
%TO.C,R17*%
X164404564Y-102805000D02*
X163950436Y-102805000D01*
X164404564Y-104275000D02*
X163950436Y-104275000D01*
%TO.C,R18*%
X157482500Y-107657064D02*
X157482500Y-107202936D01*
X158952500Y-107657064D02*
X158952500Y-107202936D01*
%TO.C,R7*%
X157442500Y-85767064D02*
X157442500Y-85312936D01*
X158912500Y-85767064D02*
X158912500Y-85312936D01*
%TO.C,J3*%
X124617500Y-77600000D02*
X124617500Y-81850000D01*
X124617500Y-81850000D02*
X125637500Y-81850000D01*
X125637500Y-80250000D02*
X126917500Y-80250000D01*
X125637500Y-81850000D02*
X125637500Y-80250000D01*
X134437500Y-80250000D02*
X134437500Y-83140000D01*
X135017500Y-74030000D02*
X126337500Y-74030000D01*
X135717500Y-80250000D02*
X134437500Y-80250000D01*
X135717500Y-81850000D02*
X135717500Y-80250000D01*
X136737500Y-77600000D02*
X136737500Y-81850000D01*
X136737500Y-81850000D02*
X135717500Y-81850000D01*
%TO.C,Q2*%
X130677500Y-95180000D02*
X130027500Y-95180000D01*
X130677500Y-95180000D02*
X131327500Y-95180000D01*
X130677500Y-98300000D02*
X130027500Y-98300000D01*
X130677500Y-98300000D02*
X131327500Y-98300000D01*
X132080000Y-98580000D02*
X131600000Y-98580000D01*
X131840000Y-98250000D01*
X132080000Y-98580000D01*
G36*
X132080000Y-98580000D02*
G01*
X131600000Y-98580000D01*
X131840000Y-98250000D01*
X132080000Y-98580000D01*
G37*
%TO.C,R23*%
X176342500Y-97312936D02*
X176342500Y-97767064D01*
X177812500Y-97312936D02*
X177812500Y-97767064D01*
%TO.C,D8*%
X128777500Y-99455000D02*
X128777500Y-102140000D01*
X130577500Y-99455000D02*
X128777500Y-99455000D01*
X130577500Y-102140000D02*
X130577500Y-99455000D01*
%TO.C,C3*%
X146938752Y-94305000D02*
X146416248Y-94305000D01*
X146938752Y-95775000D02*
X146416248Y-95775000D01*
%TO.C,J6*%
X174617500Y-77600000D02*
X174617500Y-81850000D01*
X174617500Y-81850000D02*
X175637500Y-81850000D01*
X175637500Y-80250000D02*
X176917500Y-80250000D01*
X175637500Y-81850000D02*
X175637500Y-80250000D01*
X184437500Y-80250000D02*
X184437500Y-83140000D01*
X185017500Y-74030000D02*
X176337500Y-74030000D01*
X185717500Y-80250000D02*
X184437500Y-80250000D01*
X185717500Y-81850000D02*
X185717500Y-80250000D01*
X186737500Y-77600000D02*
X186737500Y-81850000D01*
X186737500Y-81850000D02*
X185717500Y-81850000D01*
%TO.C,R20*%
X179104564Y-100805000D02*
X178650436Y-100805000D01*
X179104564Y-102275000D02*
X178650436Y-102275000D01*
%TO.C,R4*%
X134904564Y-97005000D02*
X134450436Y-97005000D01*
X134904564Y-98475000D02*
X134450436Y-98475000D01*
%TO.C,D6*%
X183377500Y-92940000D02*
X183377500Y-95625000D01*
X183377500Y-95625000D02*
X185177500Y-95625000D01*
X185177500Y-95625000D02*
X185177500Y-92940000D01*
%TO.C,R13*%
X170650436Y-102805000D02*
X171104564Y-102805000D01*
X170650436Y-104275000D02*
X171104564Y-104275000D01*
%TO.C,R11*%
X134904564Y-87005000D02*
X134450436Y-87005000D01*
X134904564Y-88475000D02*
X134450436Y-88475000D01*
%TO.C,D7*%
X180777500Y-84540000D02*
X180777500Y-87225000D01*
X180777500Y-87225000D02*
X182577500Y-87225000D01*
X182577500Y-87225000D02*
X182577500Y-84540000D01*
%TO.C,R9*%
X146450436Y-96405000D02*
X146904564Y-96405000D01*
X146450436Y-97875000D02*
X146904564Y-97875000D01*
%TO.C,R2*%
X134904564Y-95005000D02*
X134450436Y-95005000D01*
X134904564Y-96475000D02*
X134450436Y-96475000D01*
%TO.C,R22*%
X148442500Y-105017064D02*
X148442500Y-104562936D01*
X149912500Y-105017064D02*
X149912500Y-104562936D01*
%TO.C,R5*%
X155442500Y-84267064D02*
X155442500Y-83812936D01*
X156912500Y-84267064D02*
X156912500Y-83812936D01*
%TO.C,J4*%
X138617500Y-77600000D02*
X138617500Y-81850000D01*
X138617500Y-81850000D02*
X139637500Y-81850000D01*
X139637500Y-80250000D02*
X140917500Y-80250000D01*
X139637500Y-81850000D02*
X139637500Y-80250000D01*
X152437500Y-80250000D02*
X152437500Y-83140000D01*
X153017500Y-74030000D02*
X140337500Y-74030000D01*
X153717500Y-80250000D02*
X152437500Y-80250000D01*
X153717500Y-81850000D02*
X153717500Y-80250000D01*
X154737500Y-77600000D02*
X154737500Y-81850000D01*
X154737500Y-81850000D02*
X153717500Y-81850000D01*
%TD*%
M02*
