M48
; DRILL file {KiCad 8.0.3} date 2024-07-02T20:09:34+0100
; FORMAT={-:-/ absolute / inch / decimal}
; #@! TF.CreationDate,2024-07-02T20:09:34+01:00
; #@! TF.GenerationSoftware,Kicad,Pcbnew,8.0.3
; #@! TF.FileFunction,Plated,1,2,PTH
FMAT,2
INCH
; #@! TA.AperFunction,Plated,PTH,ViaDrill
T1C0.0118
; #@! TA.AperFunction,Plated,PTH,ViaDrill
T2C0.0157
; #@! TA.AperFunction,Plated,PTH,ViaDrill
T3C0.0197
; #@! TA.AperFunction,Plated,PTH,ViaDrill
T4C0.0236
%
G90
G05
T1
X5.0975Y-3.5173
X5.1054Y-3.3185
X5.1054Y-3.7535
X5.1842Y-3.3185
X5.3889Y-3.4543
X5.3889Y-3.6906
X5.4597Y-4.1
X5.5188Y-3.3874
X5.5188Y-3.4465
X5.6802Y-3.8638
X5.729Y-3.3095
X5.755Y-4.037
X5.7747Y-3.4858
X5.799Y-3.3095
X5.8141Y-4.2732
X5.8141Y-4.352
X5.8731Y-4.037
X6.0188Y-3.4386
X6.0611Y-3.5596
X6.0936Y-3.5606
X6.1487Y-3.1984
X6.1487Y-3.5803
X6.1487Y-3.8559
X6.1861Y-3.8574
X6.1881Y-3.5803
X6.1881Y-4.0961
X6.2275Y-3.4661
X6.2944Y-4.1157
X6.3101Y-3.8895
X6.3731Y-3.8904
X6.3731Y-3.9455
X6.439Y-3.3095
X6.4834Y-3.4858
X6.499Y-3.3095
X6.559Y-3.1595
X6.589Y-3.7995
X6.699Y-3.6895
X6.759Y-3.6906
X6.759Y-3.6197
X6.7983Y-3.9976
X6.8771Y-3.8795
X6.9952Y-3.4661
X7.0424Y-3.4701
X7.1133Y-3.6354
X7.1763Y-3.6118
X7.255Y-3.6118
T2
X5.0267Y-4.2929
X5.1645Y-4.2929
X5.929Y-4.2339
X6.0031Y-4.1748
X6.129Y-4.1748
X6.4125Y-4.2339
X6.7393Y-4.1748
X6.8771Y-3.5961
X7.0739Y-4.2929
T3
X5.679Y-3.7395
X5.8907Y-3.4495
X5.9519Y-3.6095
X6.3879Y-3.7407
X6.589Y-3.4595
X6.6605Y-3.5449
T4
X5.1054Y-3.0921
X5.2629Y-3.0921
X5.7353Y-3.0921
X5.7432Y-3.4543
X5.7432Y-3.5173
X6.444Y-3.0921
X6.4519Y-3.4543
X6.4519Y-3.5173
X6.9952Y-3.0921
X7.0739Y-3.0921
X7.1527Y-3.0921
X7.2314Y-3.0921
M30
