%TF.GenerationSoftware,KiCad,Pcbnew,8.0.3*%
%TF.CreationDate,2024-07-02T20:09:31+01:00*%
%TF.ProjectId,Tims_I2C_Dual_Motor_Driver,54696d73-5f49-4324-935f-4475616c5f4d,rev?*%
%TF.SameCoordinates,Original*%
%TF.FileFunction,Paste,Top*%
%TF.FilePolarity,Positive*%
%FSLAX46Y46*%
G04 Gerber Fmt 4.6, Leading zero omitted, Abs format (unit mm)*
G04 Created by KiCad (PCBNEW 8.0.3) date 2024-07-02 20:09:31*
%MOMM*%
%LPD*%
G01*
G04 APERTURE LIST*
G04 Aperture macros list*
%AMRoundRect*
0 Rectangle with rounded corners*
0 $1 Rounding radius*
0 $2 $3 $4 $5 $6 $7 $8 $9 X,Y pos of 4 corners*
0 Add a 4 corners polygon primitive as box body*
4,1,4,$2,$3,$4,$5,$6,$7,$8,$9,$2,$3,0*
0 Add four circle primitives for the rounded corners*
1,1,$1+$1,$2,$3*
1,1,$1+$1,$4,$5*
1,1,$1+$1,$6,$7*
1,1,$1+$1,$8,$9*
0 Add four rect primitives between the rounded corners*
20,1,$1+$1,$2,$3,$4,$5,0*
20,1,$1+$1,$4,$5,$6,$7,0*
20,1,$1+$1,$6,$7,$8,$9,0*
20,1,$1+$1,$8,$9,$2,$3,0*%
G04 Aperture macros list end*
%ADD10RoundRect,0.250000X-0.450000X0.262500X-0.450000X-0.262500X0.450000X-0.262500X0.450000X0.262500X0*%
%ADD11RoundRect,0.250001X-0.354999X0.354999X-0.354999X-0.354999X0.354999X-0.354999X0.354999X0.354999X0*%
%ADD12RoundRect,0.100000X-0.100000X0.675000X-0.100000X-0.675000X0.100000X-0.675000X0.100000X0.675000X0*%
%ADD13RoundRect,0.250000X0.475000X-0.250000X0.475000X0.250000X-0.475000X0.250000X-0.475000X-0.250000X0*%
%ADD14C,1.200000*%
%ADD15RoundRect,0.250000X0.262500X0.450000X-0.262500X0.450000X-0.262500X-0.450000X0.262500X-0.450000X0*%
%ADD16RoundRect,0.243750X0.243750X0.456250X-0.243750X0.456250X-0.243750X-0.456250X0.243750X-0.456250X0*%
%ADD17RoundRect,0.250000X-0.250000X-0.475000X0.250000X-0.475000X0.250000X0.475000X-0.250000X0.475000X0*%
%ADD18RoundRect,0.243750X0.456250X-0.243750X0.456250X0.243750X-0.456250X0.243750X-0.456250X-0.243750X0*%
%ADD19RoundRect,0.250000X-0.262500X-0.450000X0.262500X-0.450000X0.262500X0.450000X-0.262500X0.450000X0*%
%ADD20RoundRect,0.250000X-0.250000X-1.500000X0.250000X-1.500000X0.250000X1.500000X-0.250000X1.500000X0*%
%ADD21RoundRect,0.250001X-0.499999X-1.449999X0.499999X-1.449999X0.499999X1.449999X-0.499999X1.449999X0*%
%ADD22RoundRect,0.250000X0.450000X-0.262500X0.450000X0.262500X-0.450000X0.262500X-0.450000X-0.262500X0*%
%ADD23RoundRect,0.100000X-0.637500X-0.100000X0.637500X-0.100000X0.637500X0.100000X-0.637500X0.100000X0*%
%ADD24RoundRect,0.250000X0.250000X1.500000X-0.250000X1.500000X-0.250000X-1.500000X0.250000X-1.500000X0*%
%ADD25RoundRect,0.250001X0.499999X1.449999X-0.499999X1.449999X-0.499999X-1.449999X0.499999X-1.449999X0*%
%ADD26RoundRect,0.250000X0.250000X0.475000X-0.250000X0.475000X-0.250000X-0.475000X0.250000X-0.475000X0*%
%ADD27RoundRect,0.250000X0.650000X-0.325000X0.650000X0.325000X-0.650000X0.325000X-0.650000X-0.325000X0*%
%ADD28RoundRect,0.150000X0.587500X0.150000X-0.587500X0.150000X-0.587500X-0.150000X0.587500X-0.150000X0*%
%ADD29RoundRect,0.243750X-0.456250X0.243750X-0.456250X-0.243750X0.456250X-0.243750X0.456250X0.243750X0*%
G04 APERTURE END LIST*
D10*
%TO.C,R25*%
X182277500Y-96627500D03*
X182277500Y-98452500D03*
%TD*%
D11*
%TO.C,U2*%
X147427500Y-87790000D03*
X145927500Y-87790000D03*
X147427500Y-89290000D03*
X145927500Y-89290000D03*
D12*
X148952500Y-85665000D03*
X148302500Y-85665000D03*
X147652500Y-85665000D03*
X147002500Y-85665000D03*
X146352500Y-85665000D03*
X145702500Y-85665000D03*
X145052500Y-85665000D03*
X144402500Y-85665000D03*
X144402500Y-91415000D03*
X145052500Y-91415000D03*
X145702500Y-91415000D03*
X146352500Y-91415000D03*
X147002500Y-91415000D03*
X147652500Y-91415000D03*
X148302500Y-91415000D03*
X148952500Y-91415000D03*
%TD*%
D13*
%TO.C,C2*%
X168177500Y-95190000D03*
X168177500Y-93290000D03*
%TD*%
D14*
%TO.C,Pad5*%
X160757500Y-109970000D03*
%TD*%
D15*
%TO.C,R3*%
X135590000Y-91740000D03*
X133765000Y-91740000D03*
%TD*%
D14*
%TO.C,Pad3*%
X155677500Y-109970000D03*
%TD*%
D16*
%TO.C,D2*%
X132015000Y-93740000D03*
X130140000Y-93740000D03*
%TD*%
%TO.C,D9*%
X175815000Y-101540000D03*
X173940000Y-101540000D03*
%TD*%
D17*
%TO.C,C7*%
X153727500Y-103140000D03*
X155627500Y-103140000D03*
%TD*%
D18*
%TO.C,D5*%
X182277500Y-94877500D03*
X182277500Y-93002500D03*
%TD*%
D19*
%TO.C,R16*%
X163265000Y-101540000D03*
X165090000Y-101540000D03*
%TD*%
%TO.C,R14*%
X169965000Y-101540000D03*
X171790000Y-101540000D03*
%TD*%
D20*
%TO.C,J1*%
X127677500Y-105690000D03*
X129677500Y-105690000D03*
X131677500Y-105690000D03*
X133677500Y-105690000D03*
D21*
X125327500Y-111440000D03*
X136027500Y-111440000D03*
%TD*%
D14*
%TO.C,Pad2*%
X153137500Y-109970000D03*
%TD*%
D13*
%TO.C,C1*%
X150177500Y-95190000D03*
X150177500Y-93290000D03*
%TD*%
D22*
%TO.C,R19*%
X127677500Y-102052500D03*
X127677500Y-100227500D03*
%TD*%
D15*
%TO.C,R1*%
X135590000Y-89740000D03*
X133765000Y-89740000D03*
%TD*%
D18*
%TO.C,D3*%
X177077500Y-94877500D03*
X177077500Y-93002500D03*
%TD*%
D19*
%TO.C,R10*%
X145765000Y-99140000D03*
X147590000Y-99140000D03*
%TD*%
D23*
%TO.C,U1*%
X152815000Y-95615000D03*
X152815000Y-96265000D03*
X152815000Y-96915000D03*
X152815000Y-97565000D03*
X152815000Y-98215000D03*
X152815000Y-98865000D03*
X152815000Y-99515000D03*
X152815000Y-100165000D03*
X152815000Y-100815000D03*
X152815000Y-101465000D03*
X158540000Y-101465000D03*
X158540000Y-100815000D03*
X158540000Y-100165000D03*
X158540000Y-99515000D03*
X158540000Y-98865000D03*
X158540000Y-98215000D03*
X158540000Y-97565000D03*
X158540000Y-96915000D03*
X158540000Y-96265000D03*
X158540000Y-95615000D03*
%TD*%
D15*
%TO.C,R6*%
X176090000Y-85040000D03*
X174265000Y-85040000D03*
%TD*%
D24*
%TO.C,J5*%
X169677500Y-81390000D03*
X167677500Y-81390000D03*
X165677500Y-81390000D03*
X163677500Y-81390000D03*
X161677500Y-81390000D03*
X159677500Y-81390000D03*
D25*
X172027500Y-75640000D03*
X157327500Y-75640000D03*
%TD*%
D20*
%TO.C,J2*%
X177677500Y-105690000D03*
X179677500Y-105690000D03*
X181677500Y-105690000D03*
X183677500Y-105690000D03*
D21*
X175327500Y-111440000D03*
X186027500Y-111440000D03*
%TD*%
D10*
%TO.C,R27*%
X179677500Y-84627500D03*
X179677500Y-86452500D03*
%TD*%
D16*
%TO.C,D1*%
X132015000Y-87740000D03*
X130140000Y-87740000D03*
%TD*%
D15*
%TO.C,R12*%
X135590000Y-93740000D03*
X133765000Y-93740000D03*
%TD*%
D26*
%TO.C,C4*%
X165627500Y-95040000D03*
X163727500Y-95040000D03*
%TD*%
D10*
%TO.C,R15*%
X160757500Y-106517500D03*
X160757500Y-108342500D03*
%TD*%
D27*
%TO.C,C5*%
X169177500Y-89015000D03*
X169177500Y-86065000D03*
%TD*%
D10*
%TO.C,R26*%
X184277500Y-96627500D03*
X184277500Y-98452500D03*
%TD*%
D18*
%TO.C,D4*%
X179077500Y-94877500D03*
X179077500Y-93002500D03*
%TD*%
D28*
%TO.C,Q1*%
X131615000Y-91690000D03*
X131615000Y-89790000D03*
X129740000Y-90740000D03*
%TD*%
D27*
%TO.C,C6*%
X151177500Y-89015000D03*
X151177500Y-86065000D03*
%TD*%
D14*
%TO.C,Pad4*%
X158217500Y-109970000D03*
%TD*%
D10*
%TO.C,R24*%
X179077500Y-96627500D03*
X179077500Y-98452500D03*
%TD*%
D22*
%TO.C,R8*%
X176177500Y-88952500D03*
X176177500Y-87127500D03*
%TD*%
%TO.C,R21*%
X146177500Y-105702500D03*
X146177500Y-103877500D03*
%TD*%
D11*
%TO.C,U3*%
X165427500Y-87790000D03*
X163927500Y-87790000D03*
X165427500Y-89290000D03*
X163927500Y-89290000D03*
D12*
X166952500Y-85665000D03*
X166302500Y-85665000D03*
X165652500Y-85665000D03*
X165002500Y-85665000D03*
X164352500Y-85665000D03*
X163702500Y-85665000D03*
X163052500Y-85665000D03*
X162402500Y-85665000D03*
X162402500Y-91415000D03*
X163052500Y-91415000D03*
X163702500Y-91415000D03*
X164352500Y-91415000D03*
X165002500Y-91415000D03*
X165652500Y-91415000D03*
X166302500Y-91415000D03*
X166952500Y-91415000D03*
%TD*%
D15*
%TO.C,R17*%
X165090000Y-103540000D03*
X163265000Y-103540000D03*
%TD*%
D22*
%TO.C,R18*%
X158217500Y-108342500D03*
X158217500Y-106517500D03*
%TD*%
%TO.C,R7*%
X158177500Y-86452500D03*
X158177500Y-84627500D03*
%TD*%
D24*
%TO.C,J3*%
X133677500Y-81390000D03*
X131677500Y-81390000D03*
X129677500Y-81390000D03*
X127677500Y-81390000D03*
D25*
X136027500Y-75640000D03*
X125327500Y-75640000D03*
%TD*%
D28*
%TO.C,Q2*%
X131615000Y-97690000D03*
X131615000Y-95790000D03*
X129740000Y-96740000D03*
%TD*%
D10*
%TO.C,R23*%
X177077500Y-96627500D03*
X177077500Y-98452500D03*
%TD*%
D29*
%TO.C,D8*%
X129677500Y-100202500D03*
X129677500Y-102077500D03*
%TD*%
D14*
%TO.C,Pad1*%
X150597500Y-109970000D03*
%TD*%
D26*
%TO.C,C3*%
X147627500Y-95040000D03*
X145727500Y-95040000D03*
%TD*%
D24*
%TO.C,J6*%
X183677500Y-81390000D03*
X181677500Y-81390000D03*
X179677500Y-81390000D03*
X177677500Y-81390000D03*
D25*
X186027500Y-75640000D03*
X175327500Y-75640000D03*
%TD*%
D15*
%TO.C,R20*%
X179790000Y-101540000D03*
X177965000Y-101540000D03*
%TD*%
%TO.C,R4*%
X135590000Y-97740000D03*
X133765000Y-97740000D03*
%TD*%
D18*
%TO.C,D6*%
X184277500Y-94877500D03*
X184277500Y-93002500D03*
%TD*%
D19*
%TO.C,R13*%
X169965000Y-103540000D03*
X171790000Y-103540000D03*
%TD*%
D15*
%TO.C,R11*%
X135590000Y-87740000D03*
X133765000Y-87740000D03*
%TD*%
D18*
%TO.C,D7*%
X181677500Y-86477500D03*
X181677500Y-84602500D03*
%TD*%
D19*
%TO.C,R9*%
X145765000Y-97140000D03*
X147590000Y-97140000D03*
%TD*%
D15*
%TO.C,R2*%
X135590000Y-95740000D03*
X133765000Y-95740000D03*
%TD*%
D22*
%TO.C,R22*%
X149177500Y-105702500D03*
X149177500Y-103877500D03*
%TD*%
%TO.C,R5*%
X156177500Y-84952500D03*
X156177500Y-83127500D03*
%TD*%
D24*
%TO.C,J4*%
X151677500Y-81390000D03*
X149677500Y-81390000D03*
X147677500Y-81390000D03*
X145677500Y-81390000D03*
X143677500Y-81390000D03*
X141677500Y-81390000D03*
D25*
X154027500Y-75640000D03*
X139327500Y-75640000D03*
%TD*%
M02*
