999
dxfrw 0.6.3
  0
SECTION
  2
HEADER
  9
$ACADVER
  1
AC1021
  9
$DWGCODEPAGE
  3
ANSI_1252
  9
$INSBASE
 10
0
 20
0
 30
0
  9
$EXTMIN
 10
0
 20
0
 30
0
  9
$EXTMAX
 10
84
 20
60
 30
0
  9
$LIMMIN
 10
0
 20
0
  9
$LIMMAX
 10
420
 20
297
  9
$ORTHOMODE
 70
    0
  9
$REGENMODE
 70
    1
  9
$FILLMODE
 70
    1
  9
$QTEXTMODE
 70
    0
  9
$MIRRTEXT
 70
    0
  9
$LTSCALE
 40
1
  9
$ATTMODE
 70
    0
  9
$TEXTSIZE
 40
2.5
  9
$TRACEWID
 40
15.68
  9
$TEXTSTYLE
  7
STANDARD
  9
$CLAYER
  8
My_Laser
  9
$CELTYPE
  6
BYLAYER
  9
$CECOLOR
 62
  256
  9
$CELTSCALE
 40
1
  9
$DISPSILH
 70
    0
  9
$DIMSCALE
 40
2.5
  9
$DIMASZ
 40
2.5
  9
$DIMEXO
 40
0.625
  9
$DIMDLI
 40
3.75
  9
$DIMRND
 40
0
  9
$DIMDLE
 40
0
  9
$DIMEXE
 40
1.25
  9
$DIMTP
 40
0
  9
$DIMTM
 40
0
  9
$DIMTXT
 40
2.5
  9
$DIMCEN
 40
2.5
  9
$DIMTSZ
 40
0
  9
$DIMTOL
 70
    0
  9
$DIMLIM
 70
    0
  9
$DIMTIH
 70
    0
  9
$DIMTOH
 70
    0
  9
$DIMSE1
 70
    0
  9
$DIMSE2
 70
    0
  9
$DIMTAD
 70
    1
  9
$DIMZIN
 70
    8
  9
$DIMBLK
  1

  9
$DIMASO
 70
    1
  9
$DIMSHO
 70
    1
  9
$DIMPOST
  1

  9
$DIMAPOST
  1

  9
$DIMALT
 70
    0
  9
$DIMALTD
 70
    3
  9
$DIMALTF
 40
0.03937
  9
$DIMLFAC
 40
1
  9
$DIMTOFL
 70
    1
  9
$DIMTVP
 40
0
  9
$DIMTIX
 70
    0
  9
$DIMSOXD
 70
    0
  9
$DIMSAH
 70
    0
  9
$DIMBLK1
  1

  9
$DIMBLK2
  1

  9
$DIMSTYLE
  2
Standard
  9
$DIMCLRD
 70
    0
  9
$DIMCLRE
 70
    0
  9
$DIMCLRT
 70
    0
  9
$DIMTFAC
 40
1
  9
$DIMGAP
 40
0.625
  9
$DIMJUST
 70
    0
  9
$DIMSD1
 70
    0
  9
$DIMSD2
 70
    0
  9
$DIMTOLJ
 70
    0
  9
$DIMTZIN
 70
    8
  9
$DIMALTZ
 70
    0
  9
$DIMALTTZ
 70
    0
  9
$DIMUPT
 70
    0
  9
$DIMDEC
 70
    2
  9
$DIMTDEC
 70
    2
  9
$DIMALTU
 70
    2
  9
$DIMALTTD
 70
    3
  9
$DIMTXSTY
  7
STANDARD
  9
$DIMAUNIT
 70
    0
  9
$DIMADEC
 70
    0
  9
$DIMALTRND
 40
0
  9
$DIMAZIN
 70
    0
  9
$DIMDSEP
 70
   44
  9
$DIMATFIT
 70
    3
  9
$DIMFRAC
 70
    0
  9
$DIMLDRBLK
  1
STANDARD
  9
$DIMLUNIT
 70
    2
  9
$DIMLWD
 70
   -2
  9
$DIMLWE
 70
   -2
  9
$DIMTMOVE
 70
    0
  9
$DIMFXL
 40
1
  9
$DIMFXLON
 70
    0
  9
$DIMJOGANG
 40
0.7854
  9
$DIMTFILL
 70
    0
  9
$DIMTFILLCLR
 70
    0
  9
$DIMARCSYM
 70
    0
  9
$DIMLTYPE
  6

  9
$DIMLTEX1
  6

  9
$DIMLTEX2
  6

  9
$LUNITS
 70
    2
  9
$LUPREC
 70
    4
  9
$SKETCHINC
 40
1
  9
$FILLETRAD
 40
0
  9
$AUNITS
 70
    0
  9
$AUPREC
 70
    2
  9
$MENU
  1
.
  9
$ELEVATION
 40
0
  9
$PELEVATION
 40
0
  9
$THICKNESS
 40
0
  9
$LIMCHECK
 70
    0
  9
$CHAMFERA
 40
0
  9
$CHAMFERB
 40
0
  9
$CHAMFERC
 40
0
  9
$CHAMFERD
 40
0
  9
$SKPOLY
 70
    0
  9
$USRTIMER
 70
    1
  9
$ANGBASE
 50
0
  9
$ANGDIR
 70
    1
  9
$PDMODE
 70
   34
  9
$PDSIZE
 40
0
  9
$PLINEWID
 40
0
  9
$SPLFRAME
 70
    0
  9
$SPLINETYPE
 70
    2
  9
$SPLINESEGS
 70
    8
  9
$HANDSEED
  5
20000
  9
$SURFTAB1
 70
    6
  9
$SURFTAB2
 70
    6
  9
$SURFTYPE
 70
    6
  9
$SURFU
 70
    6
  9
$SURFV
 70
    6
  9
$UCSBASE
  2

  9
$UCSNAME
  2

  9
$UCSORG
 10
0
 20
0
 30
0
  9
$UCSXDIR
 10
1
 20
0
 30
0
  9
$UCSYDIR
 10
0
 20
1
 30
0
  9
$UCSORTHOREF
  2

  9
$UCSORTHOVIEW
 70
    0
  9
$UCSORGTOP
 10
0
 20
0
 30
0
  9
$UCSORGBOTTOM
 10
0
 20
0
 30
0
  9
$UCSORGLEFT
 10
0
 20
0
 30
0
  9
$UCSORGRIGHT
 10
0
 20
0
 30
0
  9
$UCSORGFRONT
 10
0
 20
0
 30
0
  9
$UCSORGBACK
 10
0
 20
0
 30
0
  9
$PUCSBASE
  2

  9
$PUCSNAME
  2

  9
$PUCSORG
 10
0
 20
0
 30
0
  9
$PUCSXDIR
 10
1
 20
0
 30
0
  9
$PUCSYDIR
 10
0
 20
1
 30
0
  9
$PUCSORTHOREF
  2

  9
$PUCSORTHOVIEW
 70
    0
  9
$PUCSORGTOP
 10
0
 20
0
 30
0
  9
$PUCSORGBOTTOM
 10
0
 20
0
 30
0
  9
$PUCSORGLEFT
 10
0
 20
0
 30
0
  9
$PUCSORGRIGHT
 10
0
 20
0
 30
0
  9
$PUCSORGFRONT
 10
0
 20
0
 30
0
  9
$PUCSORGBACK
 10
0
 20
0
 30
0
  9
$USERI1
 70
    0
  9
$USERI2
 70
    0
  9
$USERI3
 70
    0
  9
$USERI4
 70
    0
  9
$USERI5
 70
    0
  9
$USERR1
 40
0
  9
$USERR2
 40
0
  9
$USERR3
 40
0
  9
$USERR4
 40
0
  9
$USERR5
 40
0
  9
$WORLDVIEW
 70
    1
  9
$SHADEDGE
 70
    3
  9
$SHADEDIF
 70
   70
  9
$TILEMODE
 70
    1
  9
$MAXACTVP
 70
   64
  9
$PINSBASE
 10
0
 20
0
 30
0
  9
$PLIMCHECK
 70
    0
  9
$PEXTMIN
 10
0
 20
0
 30
0
  9
$PEXTMAX
 10
0
 20
0
 30
0
  9
$GRIDMODE
 70
    1
  9
$SNAPSTYLE
 70
    0
  9
$PLIMMIN
 10
0
 20
0
  9
$PLIMMAX
 10
21
 20
29.7
  9
$UNITMODE
 70
    0
  9
$VISRETAIN
 70
    1
  9
$PLINEGEN
 70
    0
  9
$PSLTSCALE
 70
    1
  9
$TREEDEPTH
 70
 3020
  9
$CMLSTYLE
  2
Standard
  9
$CMLJUST
 70
    0
  9
$CMLSCALE
 40
20
  9
$PROXYGRAPHICS
 70
    1
  9
$MEASUREMENT
 70
    1
  9
$CELWEIGHT
370
   -1
  9
$ENDCAPS
280
    0
  9
$JOINSTYLE
280
    0
  9
$LWDISPLAY
290
    0
  9
$INSUNITS
 70
    4
  9
$HYPERLINKBASE
  1

  9
$STYLESHEET
  1

  9
$XEDIT
290
    1
  9
$CEPSNTYPE
380
    0
  9
$PSTYLEMODE
290
    1
  9
$EXTNAMES
290
    1
  9
$PSVPSCALE
 40
1
  9
$OLESTARTUP
290
    0
  9
$SORTENTS
280
  127
  9
$INDEXCTL
280
    0
  9
$HIDETEXT
280
    1
  9
$XCLIPFRAME
290
    0
  9
$HALOGAP
280
    0
  9
$OBSCOLOR
 70
  257
  9
$OBSLTYPE
280
    0
  9
$INTERSECTIONDISPLAY
280
    0
  9
$INTERSECTIONCOLOR
 70
  257
  9
$DIMASSOC
280
    1
  9
$PROJECTNAME
  1

  9
$CAMERADISPLAY
290
    0
  9
$LENSLENGTH
 40
50
  9
$CAMERAHEIGHT
 40
0
  9
$STEPSPERSEC
 40
2
  9
$STEPSIZE
 40
50
  9
$3DDWFPREC
 40
2
  9
$PSOLWIDTH
 40
5
  9
$PSOLHEIGHT
 40
80
  9
$LOFTANG1
 40
1.570796326794897
  9
$LOFTANG2
 40
1.570796326794897
  9
$LOFTMAG1
 40
0
  9
$LOFTMAG2
 40
0
  9
$LOFTPARAM
 70
    7
  9
$LOFTNORMALS
280
    1
  9
$LATITUDE
 40
1
  9
$LONGITUDE
 40
1
  9
$NORTHDIRECTION
 40
0
  9
$TIMEZONE
 70
-8000
  9
$LIGHTGLYPHDISPLAY
280
    1
  9
$TILEMODELIGHTSYNCH
280
    1
  9
$SOLIDHIST
280
    1
  9
$SHOWHIST
280
    1
  9
$DWFFRAME
280
    2
  9
$DGNFRAME
280
    0
  9
$REALWORLDSCALE
290
    1
  9
$INTERFERECOLOR
 62
    1
  9
$CSHADOW
280
    0
  9
$SHADOWPLANELOCATION
 40
0
  0
ENDSEC
  0
SECTION
  2
CLASSES
  0
ENDSEC
  0
SECTION
  2
TABLES
  0
TABLE
  2
VPORT
  5
8
330
0
100
AcDbSymbolTable
 70
    1
  0
VPORT
  5
31
330
2
100
AcDbSymbolTableRecord
100
AcDbViewportTableRecord
  2
*ACTIVE
 70
    0
 10
0
 20
0
 11
1
 21
1
 12
62.30360201726382
 22
43.67983622818976
 13
0
 23
0
 14
10
 24
10
 15
10
 25
10
 16
0
 26
0
 36
1
 17
0
 27
0
 37
0
 40
106.806174886738
 41
1.565826330532213
 42
50
 43
0
 44
0
 50
0
 51
0
 71
    0
 72
  100
 73
    1
 74
    3
 75
    0
 76
    1
 77
    0
 78
    0
281
    0
 65
    1
110
0
120
0
130
0
111
1
121
0
131
0
112
0
122
1
132
0
 79
    0
146
0
348
10020
 60
    7
 61
    5
292
1
282
    1
141
0
142
0
 63
  250
421
3358443
  0
ENDTAB
  0
TABLE
  2
LTYPE
  5
5
330
0
100
AcDbSymbolTable
 70
    4
  0
LTYPE
  5
14
330
5
100
AcDbSymbolTableRecord
100
AcDbLinetypeTableRecord
  2
ByBlock
 70
    0
  3

 72
   65
 73
    0
 40
0
  0
LTYPE
  5
15
330
5
100
AcDbSymbolTableRecord
100
AcDbLinetypeTableRecord
  2
ByLayer
 70
    0
  3

 72
   65
 73
    0
 40
0
  0
LTYPE
  5
16
330
5
100
AcDbSymbolTableRecord
100
AcDbLinetypeTableRecord
  2
Continuous
 70
    0
  3
Solid line
 72
   65
 73
    0
 40
0
  0
LTYPE
  5
32
330
5
100
AcDbSymbolTableRecord
100
AcDbLinetypeTableRecord
  2
DOT
 70
    0
  3
Dot . . . . . . . . . . . . . . . . . . . . . .
 72
   65
 73
    2
 40
6.35
 49
0
 74
    0
 49
-6.35
 74
    0
  0
LTYPE
  5
33
330
5
100
AcDbSymbolTableRecord
100
AcDbLinetypeTableRecord
  2
DOTTINY
 70
    0
  3
Dot (.15x) .....................................
 72
   65
 73
    2
 40
0.9525
 49
0
 74
    0
 49
-0.9525
 74
    0
  0
LTYPE
  5
34
330
5
100
AcDbSymbolTableRecord
100
AcDbLinetypeTableRecord
  2
DOT2
 70
    0
  3
Dot (.5x) .....................................
 72
   65
 73
    2
 40
3.175
 49
0
 74
    0
 49
-3.175
 74
    0
  0
LTYPE
  5
35
330
5
100
AcDbSymbolTableRecord
100
AcDbLinetypeTableRecord
  2
DOTX2
 70
    0
  3
Dot (2x) .  .  .  .  .  .  .  .  .  .  .  .  .
 72
   65
 73
    2
 40
12.7
 49
0
 74
    0
 49
-12.7
 74
    0
  0
LTYPE
  5
36
330
5
100
AcDbSymbolTableRecord
100
AcDbLinetypeTableRecord
  2
DASHED
 70
    0
  3
Dashed _ _ _ _ _ _ _ _ _ _ _ _ _ _ _ _ _
 72
   65
 73
    2
 40
19.05
 49
12.7
 74
    0
 49
-6.35
 74
    0
  0
LTYPE
  5
37
330
5
100
AcDbSymbolTableRecord
100
AcDbLinetypeTableRecord
  2
DASHEDTINY
 70
    0
  3
Dashed (.15x) _ _ _ _ _ _ _ _ _ _ _ _ _ _ _ _ _
 72
   65
 73
    2
 40
2.8575
 49
1.905
 74
    0
 49
-0.9525
 74
    0
  0
LTYPE
  5
38
330
5
100
AcDbSymbolTableRecord
100
AcDbLinetypeTableRecord
  2
DASHED2
 70
    0
  3
Dashed (.5x) _ _ _ _ _ _ _ _ _ _ _ _ _ _ _ _ _
 72
   65
 73
    2
 40
9.524999999999999
 49
6.35
 74
    0
 49
-3.175
 74
    0
  0
LTYPE
  5
39
330
5
100
AcDbSymbolTableRecord
100
AcDbLinetypeTableRecord
  2
DASHEDX2
 70
    0
  3
Dashed (2x) ____  ____  ____  ____  ____  ___
 72
   65
 73
    2
 40
38.09999999999999
 49
25.4
 74
    0
 49
-12.7
 74
    0
  0
LTYPE
  5
3A
330
5
100
AcDbSymbolTableRecord
100
AcDbLinetypeTableRecord
  2
DASHDOT
 70
    0
  3
Dash dot __ . __ . __ . __ . __ . __ . __ . __
 72
   65
 73
    4
 40
25.4
 49
12.7
 74
    0
 49
-6.35
 74
    0
 49
0
 74
    0
 49
-6.35
 74
    0
  0
LTYPE
  5
3B
330
5
100
AcDbSymbolTableRecord
100
AcDbLinetypeTableRecord
  2
DASHDOTTINY
 70
    0
  3
Dash dot (.15x) _._._._._._._._._._._._._._._.
 72
   65
 73
    4
 40
3.81
 49
1.905
 74
    0
 49
-0.9525
 74
    0
 49
0
 74
    0
 49
-0.9525
 74
    0
  0
LTYPE
  5
3C
330
5
100
AcDbSymbolTableRecord
100
AcDbLinetypeTableRecord
  2
DASHDOT2
 70
    0
  3
Dash dot (.5x) _._._._._._._._._._._._._._._.
 72
   65
 73
    4
 40
12.7
 49
6.35
 74
    0
 49
-3.175
 74
    0
 49
0
 74
    0
 49
-3.175
 74
    0
  0
LTYPE
  5
3D
330
5
100
AcDbSymbolTableRecord
100
AcDbLinetypeTableRecord
  2
DASHDOTX2
 70
    0
  3
Dash dot (2x) ____  .  ____  .  ____  .  ___
 72
   65
 73
    4
 40
50.8
 49
25.4
 74
    0
 49
-12.7
 74
    0
 49
0
 74
    0
 49
-12.7
 74
    0
  0
LTYPE
  5
3E
330
5
100
AcDbSymbolTableRecord
100
AcDbLinetypeTableRecord
  2
DIVIDE
 70
    0
  3
Divide ____ . . ____ . . ____ . . ____ . . ____
 72
   65
 73
    6
 40
31.75
 49
12.7
 74
    0
 49
-6.35
 74
    0
 49
0
 74
    0
 49
-6.35
 74
    0
 49
0
 74
    0
 49
-6.35
 74
    0
  0
LTYPE
  5
3F
330
5
100
AcDbSymbolTableRecord
100
AcDbLinetypeTableRecord
  2
DIVIDETINY
 70
    0
  3
Divide (.15x) __..__..__..__..__..__..__..__.._
 72
   65
 73
    6
 40
4.7625
 49
1.905
 74
    0
 49
-0.9525
 74
    0
 49
0
 74
    0
 49
-0.9525
 74
    0
 49
0
 74
    0
 49
-0.9525
 74
    0
  0
LTYPE
  5
40
330
5
100
AcDbSymbolTableRecord
100
AcDbLinetypeTableRecord
  2
DIVIDE2
 70
    0
  3
Divide (.5x) __..__..__..__..__..__..__..__.._
 72
   65
 73
    6
 40
15.875
 49
6.35
 74
    0
 49
-3.175
 74
    0
 49
0
 74
    0
 49
-3.175
 74
    0
 49
0
 74
    0
 49
-3.175
 74
    0
  0
LTYPE
  5
41
330
5
100
AcDbSymbolTableRecord
100
AcDbLinetypeTableRecord
  2
DIVIDEX2
 70
    0
  3
Divide (2x) ________  .  .  ________  .  .  _
 72
   65
 73
    6
 40
63.5
 49
25.4
 74
    0
 49
-12.7
 74
    0
 49
0
 74
    0
 49
-12.7
 74
    0
 49
0
 74
    0
 49
-12.7
 74
    0
  0
LTYPE
  5
42
330
5
100
AcDbSymbolTableRecord
100
AcDbLinetypeTableRecord
  2
BORDER
 70
    0
  3
Border __ __ . __ __ . __ __ . __ __ . __ __ .
 72
   65
 73
    6
 40
44.45
 49
12.7
 74
    0
 49
-6.35
 74
    0
 49
12.7
 74
    0
 49
-6.35
 74
    0
 49
0
 74
    0
 49
-6.35
 74
    0
  0
LTYPE
  5
43
330
5
100
AcDbSymbolTableRecord
100
AcDbLinetypeTableRecord
  2
BORDERTINY
 70
    0
  3
Border (.15x) __.__.__.__.__.__.__.__.__.__.__.
 72
   65
 73
    6
 40
6.6675
 49
1.905
 74
    0
 49
-0.9525
 74
    0
 49
1.905
 74
    0
 49
-0.9525
 74
    0
 49
0
 74
    0
 49
-0.9525
 74
    0
  0
LTYPE
  5
44
330
5
100
AcDbSymbolTableRecord
100
AcDbLinetypeTableRecord
  2
BORDER2
 70
    0
  3
Border (.5x) __.__.__.__.__.__.__.__.__.__.__.
 72
   65
 73
    6
 40
22.225
 49
6.35
 74
    0
 49
-3.175
 74
    0
 49
6.35
 74
    0
 49
-3.175
 74
    0
 49
0
 74
    0
 49
-3.175
 74
    0
  0
LTYPE
  5
45
330
5
100
AcDbSymbolTableRecord
100
AcDbLinetypeTableRecord
  2
BORDERX2
 70
    0
  3
Border (2x) ____  ____  .  ____  ____  .  ___
 72
   65
 73
    6
 40
88.89999999999999
 49
25.4
 74
    0
 49
-12.7
 74
    0
 49
25.4
 74
    0
 49
-12.7
 74
    0
 49
0
 74
    0
 49
-12.7
 74
    0
  0
LTYPE
  5
46
330
5
100
AcDbSymbolTableRecord
100
AcDbLinetypeTableRecord
  2
CENTER
 70
    0
  3
Center ____ _ ____ _ ____ _ ____ _ ____ _ ____
 72
   65
 73
    4
 40
50.8
 49
31.75
 74
    0
 49
-6.35
 74
    0
 49
6.35
 74
    0
 49
-6.35
 74
    0
  0
LTYPE
  5
47
330
5
100
AcDbSymbolTableRecord
100
AcDbLinetypeTableRecord
  2
CENTERTINY
 70
    0
  3
Center (.15x) ___ _ ___ _ ___ _ ___ _ ___ _ ___
 72
   65
 73
    4
 40
7.62
 49
4.7625
 74
    0
 49
-0.9525
 74
    0
 49
0.9525
 74
    0
 49
-0.9525
 74
    0
  0
LTYPE
  5
48
330
5
100
AcDbSymbolTableRecord
100
AcDbLinetypeTableRecord
  2
CENTER2
 70
    0
  3
Center (.5x) ___ _ ___ _ ___ _ ___ _ ___ _ ___
 72
   65
 73
    4
 40
28.575
 49
19.05
 74
    0
 49
-3.175
 74
    0
 49
3.175
 74
    0
 49
-3.175
 74
    0
  0
LTYPE
  5
49
330
5
100
AcDbSymbolTableRecord
100
AcDbLinetypeTableRecord
  2
CENTERX2
 70
    0
  3
Center (2x) ________  __  ________  __  _____
 72
   65
 73
    4
 40
101.6
 49
63.5
 74
    0
 49
-12.7
 74
    0
 49
12.7
 74
    0
 49
-12.7
 74
    0
  0
ENDTAB
  0
TABLE
  2
LAYER
  5
2
330
0
100
AcDbSymbolTable
 70
    1
  0
LAYER
  5
10
330
2
100
AcDbSymbolTableRecord
100
AcDbLayerTableRecord
  2
0
 70
    0
 62
    7
  6
CONTINUOUS
370
    0
390
F
  0
LAYER
  5
4A
330
2
100
AcDbSymbolTableRecord
100
AcDbLayerTableRecord
  2
BLACK
 70
    0
 62
    7
  6
CONTINUOUS
370
   -3
390
F
  0
LAYER
  5
4B
330
2
100
AcDbSymbolTableRecord
100
AcDbLayerTableRecord
  2
My_Laser
 70
    0
 62
    2
  6
CONTINUOUS
370
   30
390
F
  0
ENDTAB
  0
TABLE
  2
STYLE
  5
3
330
0
100
AcDbSymbolTable
 70
    3
  0
STYLE
  5
4C
330
2
100
AcDbSymbolTableRecord
100
AcDbTextStyleTableRecord
  2
Standard
 70
    0
 40
0
 41
1
 50
0
 71
    0
 42
1
  3
txt
  4

  0
ENDTAB
  0
TABLE
  2
VIEW
  5
6
330
0
100
AcDbSymbolTable
 70
    0
  0
ENDTAB
  0
TABLE
  2
UCS
  5
7
330
0
100
AcDbSymbolTable
 70
    0
  0
ENDTAB
  0
TABLE
  2
APPID
  5
9
330
0
100
AcDbSymbolTable
 70
    1
  0
APPID
  5
12
330
9
100
AcDbSymbolTableRecord
100
AcDbRegAppTableRecord
  2
ACAD
 70
    0
  0
APPID
  5
4D
330
9
100
AcDbSymbolTableRecord
100
AcDbRegAppTableRecord
  2
LibreCad
 70
    0
  0
ENDTAB
  0
TABLE
  2
DIMSTYLE
  5
A
330
0
100
AcDbSymbolTable
 70
    1
100
AcDbDimStyleTable
 71
    1
  0
DIMSTYLE
105
4E
330
A
100
AcDbSymbolTableRecord
100
AcDbDimStyleTableRecord
  2
Standard
 70
    0
 40
2.5
 41
2.5
 42
0.625
 43
0.38
 44
1.25
 45
0
 46
0
 47
0
 48
0
 49
1
140
2.5
141
0.09
142
0
143
25.4
144
1
145
0
146
1
147
0.625
148
0
 71
    0
 72
    0
 73
    0
 74
    1
 75
    0
 76
    0
 77
    0
 78
    8
 79
    0
170
    0
171
    2
172
    0
173
    0
174
    0
175
    0
176
    0
177
    0
178
    0
179
    0
271
    2
272
    4
273
    2
274
    2
275
    0
276
    0
277
    2
278
   44
279
    0
280
    0
281
    0
282
    0
283
    1
284
    0
285
    0
286
    0
288
    0
289
    3
340
STANDARD
341

371
   -2
372
   -2
  0
ENDTAB
  0
TABLE
  2
BLOCK_RECORD
  5
1
330
0
100
AcDbSymbolTable
 70
    2
  0
BLOCK_RECORD
  5
1F
330
1
100
AcDbSymbolTableRecord
100
AcDbBlockTableRecord
  2
*Model_Space
 70
    0
280
    1
281
    0
  0
BLOCK_RECORD
  5
1E
330
1
100
AcDbSymbolTableRecord
100
AcDbBlockTableRecord
  2
*Paper_Space
 70
    0
280
    1
281
    0
  0
ENDTAB
  0
ENDSEC
  0
SECTION
  2
BLOCKS
  0
BLOCK
  5
20
330
1F
100
AcDbEntity
  8
0
100
AcDbBlockBegin
  2
*Model_Space
 70
    0
 10
0
 20
0
 30
0
  3
*Model_Space
  1

  0
ENDBLK
  5
21
330
1F
100
AcDbEntity
  8
0
100
AcDbBlockEnd
  0
BLOCK
  5
1C
330
1B
100
AcDbEntity
  8
0
100
AcDbBlockBegin
  2
*Paper_Space
 70
    0
 10
0
 20
0
 30
0
  3
*Paper_Space
  1

  0
ENDBLK
  5
1D
330
1F
100
AcDbEntity
  8
0
100
AcDbBlockEnd
  0
ENDSEC
  0
SECTION
  2
ENTITIES
  0
CIRCLE
  5
4F
100
AcDbEntity
  8
My_Laser
  6
ByLayer
 62
  256
370
   -1
100
AcDbCircle
 10
26.9893266184405
 20
11.9999433054489
 40
0.9265007776803433
  0
CIRCLE
  5
50
100
AcDbEntity
  8
My_Laser
  6
ByLayer
 62
  256
370
   -1
100
AcDbCircle
 10
57
 20
12
 40
0.9265007776803433
  0
CIRCLE
  5
51
100
AcDbEntity
  8
My_Laser
  6
ByLayer
 62
  256
370
   -1
100
AcDbCircle
 10
72
 20
37
 40
0.9265007776803433
  0
CIRCLE
  5
52
100
AcDbEntity
  8
My_Laser
  6
ByLayer
 62
  256
370
   -1
100
AcDbCircle
 10
12
 20
37
 40
0.9265007776803433
  0
CIRCLE
  5
53
100
AcDbEntity
  8
My_Laser
  6
ByLayer
 62
  256
370
   -1
100
AcDbCircle
 10
47.07268365189226
 20
13.57143820111377
 40
0.5999997988863383
  0
CIRCLE
  5
54
100
AcDbEntity
  8
My_Laser
  6
ByLayer
 62
  256
370
   -1
100
AcDbCircle
 10
44.532684
 20
13.57462546435819
 40
0.5968125356418129
  0
CIRCLE
  5
55
100
AcDbEntity
  8
My_Laser
  6
ByLayer
 62
  256
370
   -1
100
AcDbCircle
 10
41.992684
 20
13.571438139875
 40
0.5999998601250024
  0
CIRCLE
  5
56
100
AcDbEntity
  8
My_Laser
  6
ByLayer
 62
  256
370
   -1
100
AcDbCircle
 10
39.45566876547734
 20
13.57316139422334
 40
0.5982840511367526
  0
CIRCLE
  5
57
100
AcDbEntity
  8
My_Laser
  6
ByLayer
 62
  256
370
   -1
100
AcDbCircle
 10
36.90969923452266
 20
13.57316139422334
 40
0.5982840511367526
  0
LWPOLYLINE
  5
58
100
AcDbEntity
  8
My_Laser
  6
ByLayer
 62
  256
370
   -1
100
AcDbPolyline
 90
    9
 70
    0
 43
0
 10
21.84268525000109
 20
10.40143908620824
 42
-0.4142137542694408
 10
21.59268500000035
 20
10.65143900000113
 10
21.59268399999966
 20
13.55143799999889
 42
-0.4142133704767735
 10
21.8426837499989
 20
13.80143808620575
 10
22.84268274999818
 20
13.80143908620774
 42
-0.4142137542694467
 10
23.09268299999892
 20
13.55143917241485
 10
23.09268399999961
 20
10.65144017241711
 42
-0.414213370476773
 10
22.84268425000037
 20
10.40144008621025
 10
21.84268525000109
 20
10.40143908620824
  0
LWPOLYLINE
  5
59
100
AcDbEntity
  8
My_Laser
  6
ByLayer
 62
  256
370
   -1
100
AcDbPolyline
 90
    9
 70
    0
 43
0
 10
11.14268525000109
 20
10.40143908620824
 42
-0.4142137542694416
 10
10.89268500000035
 20
10.65143900000113
 10
10.89268399999966
 20
13.55143799999889
 42
-0.4142133704767735
 10
11.14268374999889
 20
13.80143808620575
 10
12.14268274999817
 20
13.80143908620774
 42
-0.4142137542694457
 10
12.39268299999892
 20
13.55143917241485
 10
12.3926839999996
 20
10.65144017241711
 42
-0.4142133704767725
 10
12.14268425000037
 20
10.40144008621025
 10
11.14268525000109
 20
10.40143908620824
  0
LWPOLYLINE
  5
5A
100
AcDbEntity
  8
My_Laser
  6
ByLayer
 62
  256
370
   -1
100
AcDbPolyline
 90
    9
 70
    0
 43
0
 10
14.492684
 20
16.35143799999999
 42
-0.414213562373095
 10
14.242684
 20
16.10143799999999
 10
13.742684
 20
16.10143799999999
 42
-0.414213562373095
 10
13.492684
 20
16.35143799999999
 10
13.492684
 20
19.351438
 42
-0.414213562373095
 10
13.742684
 20
19.601438
 10
14.242684
 20
19.601438
 42
-0.414213562373095
 10
14.492684
 20
19.351438
 10
14.492684
 20
16.35143799999999
  0
LWPOLYLINE
  5
5B
100
AcDbEntity
  8
My_Laser
  6
ByLayer
 62
  256
370
   -1
100
AcDbPolyline
 90
    9
 70
    0
 43
0
 10
16.49268399999999
 20
16.35143799999999
 42
-0.414213562373095
 10
16.24268399999999
 20
16.10143799999999
 10
15.74268399999999
 20
16.10143799999999
 42
-0.414213562373095
 10
15.49268399999999
 20
16.35143799999999
 10
15.49268399999999
 20
19.351438
 42
-0.414213562373095
 10
15.74268399999999
 20
19.601438
 10
16.24268399999999
 20
19.601438
 42
-0.414213562373095
 10
16.49268399999999
 20
19.351438
 10
16.49268399999999
 20
16.35143799999999
  0
LWPOLYLINE
  5
5C
100
AcDbEntity
  8
My_Laser
  6
ByLayer
 62
  256
370
   -1
100
AcDbPolyline
 90
    9
 70
    0
 43
0
 10
18.49268399999999
 20
16.35143799999999
 42
-0.414213562373095
 10
18.24268399999999
 20
16.10143799999999
 10
17.74268399999999
 20
16.10143799999999
 42
-0.414213562373095
 10
17.49268399999999
 20
16.35143799999999
 10
17.49268399999999
 20
19.351438
 42
-0.414213562373095
 10
17.74268399999999
 20
19.601438
 10
18.24268399999999
 20
19.601438
 42
-0.414213562373095
 10
18.49268399999999
 20
19.351438
 10
18.49268399999999
 20
16.35143799999999
  0
LWPOLYLINE
  5
5D
100
AcDbEntity
  8
My_Laser
  6
ByLayer
 62
  256
370
   -1
100
AcDbPolyline
 90
    9
 70
    0
 43
0
 10
20.49268399999999
 20
16.35143799999999
 42
-0.414213562373095
 10
20.24268399999999
 20
16.10143799999999
 10
19.74268399999999
 20
16.10143799999999
 42
-0.414213562373095
 10
19.49268399999999
 20
16.35143799999999
 10
19.49268399999999
 20
19.351438
 42
-0.414213562373095
 10
19.74268399999999
 20
19.601438
 10
20.24268399999999
 20
19.601438
 42
-0.414213562373095
 10
20.49268399999999
 20
19.351438
 10
20.49268399999999
 20
16.35143799999999
  0
LWPOLYLINE
  5
5E
100
AcDbEntity
  8
My_Laser
  6
ByLayer
 62
  256
370
   -1
100
AcDbPolyline
 90
    9
 70
    0
 43
0
 10
14.44268400000001
 20
22.801438
 42
0.414213562373095
 10
14.69268400000001
 20
23.051438
 10
14.69268400000001
 20
23.57643800000001
 42
0.414213562373095
 10
14.44268400000001
 20
23.82643800000001
 10
13.542684
 20
23.82643800000001
 42
0.414213562373095
 10
13.292684
 20
23.57643800000001
 10
13.292684
 20
23.051438
 42
0.414213562373095
 10
13.542684
 20
22.801438
 10
14.44268400000001
 20
22.801438
  0
LWPOLYLINE
  5
5F
100
AcDbEntity
  8
My_Laser
  6
ByLayer
 62
  256
370
   -1
100
AcDbPolyline
 90
    9
 70
    0
 43
0
 10
14.44268400000001
 20
20.976438
 42
0.414213562373095
 10
14.69268400000001
 20
21.226438
 10
14.69268400000001
 20
21.751438
 42
0.414213562373095
 10
14.44268400000001
 20
22.001438
 10
13.542684
 20
22.001438
 42
0.414213562373095
 10
13.292684
 20
21.751438
 10
13.292684
 20
21.226438
 42
0.414213562373095
 10
13.542684
 20
20.976438
 10
14.44268400000001
 20
20.976438
  0
LWPOLYLINE
  5
60
100
AcDbEntity
  8
My_Laser
  6
ByLayer
 62
  256
370
   -1
100
AcDbPolyline
 90
    9
 70
    0
 43
0
 10
16.69268400000001
 20
23.57643800000001
 42
0.414213562373095
 10
16.44268400000001
 20
23.82643800000001
 10
15.542684
 20
23.82643800000001
 42
0.414213562373095
 10
15.292684
 20
23.57643800000001
 10
15.292684
 20
23.101438
 42
0.414213562373095
 10
15.542684
 20
22.851438
 10
16.44268400000001
 20
22.851438
 42
0.414213562373095
 10
16.69268400000001
 20
23.101438
 10
16.69268400000001
 20
23.57643800000001
  0
LWPOLYLINE
  5
61
100
AcDbEntity
  8
My_Laser
  6
ByLayer
 62
  256
370
   -1
100
AcDbPolyline
 90
    9
 70
    0
 43
0
 10
16.69268400000001
 20
21.70143800000001
 42
0.414213562373095
 10
16.44268400000001
 20
21.95143800000001
 10
15.542684
 20
21.95143800000001
 42
0.414213562373095
 10
15.292684
 20
21.70143800000001
 10
15.292684
 20
21.226438
 42
0.414213562373095
 10
15.542684
 20
20.976438
 10
16.44268400000001
 20
20.976438
 42
0.414213562373095
 10
16.69268400000001
 20
21.226438
 10
16.69268400000001
 20
21.70143800000001
  0
LWPOLYLINE
  5
62
100
AcDbEntity
  8
My_Laser
  6
ByLayer
 62
  256
370
   -1
100
AcDbPolyline
 90
    9
 70
    0
 43
0
 10
16.642684
 20
33.10143799999999
 42
-0.4142135623730985
 10
16.792684
 20
32.951438
 10
16.792684
 20
32.651438
 42
-0.414213562373102
 10
16.642684
 20
32.501438
 10
15.46768400000001
 20
32.501438
 42
-0.4142135623730984
 10
15.31768400000001
 20
32.651438
 10
15.31768400000001
 20
32.951438
 42
-0.414213562373095
 10
15.46768400000001
 20
33.101438
 10
16.642684
 20
33.101438
  0
LWPOLYLINE
  5
63
100
AcDbEntity
  8
My_Laser
  6
ByLayer
 62
  256
370
   -1
100
AcDbPolyline
 90
    9
 70
    0
 43
0
 10
18.517684
 20
32.151438
 42
-0.4142135623730985
 10
18.667684
 20
32.001438
 10
18.667684
 20
31.701438
 42
-0.4142135623730987
 10
18.517684
 20
31.551438
 10
17.34268400000001
 20
31.551438
 42
-0.4142135623730984
 10
17.19268400000001
 20
31.701438
 10
17.19268400000001
 20
32.001438
 42
-0.4142135623730985
 10
17.34268400000001
 20
32.151438
 10
18.517684
 20
32.151438
  0
LWPOLYLINE
  5
64
100
AcDbEntity
  8
My_Laser
  6
ByLayer
 62
  256
370
   -1
100
AcDbPolyline
 90
    9
 70
    0
 43
0
 10
18.517684
 20
34.051438
 42
-0.414213562373102
 10
18.667684
 20
33.901438
 10
18.667684
 20
33.60143800000001
 42
-0.4142135623730987
 10
18.517684
 20
33.45143800000001
 10
17.34268400000001
 20
33.45143800000001
 42
-0.4142135623730984
 10
17.19268400000001
 20
33.60143800000001
 10
17.19268400000001
 20
33.901438
 42
-0.4142135623731019
 10
17.34268400000001
 20
34.051438
 10
18.517684
 20
34.051438
  0
LWPOLYLINE
  5
65
100
AcDbEntity
  8
My_Laser
  6
ByLayer
 62
  256
370
   -1
100
AcDbPolyline
 90
    9
 70
    0
 43
0
 10
16.642684
 20
27.101438
 42
-0.4142135623730985
 10
16.792684
 20
26.951438
 10
16.792684
 20
26.651438
 42
-0.414213562373102
 10
16.642684
 20
26.501438
 10
15.46768400000001
 20
26.501438
 42
-0.4142135623730984
 10
15.31768400000001
 20
26.651438
 10
15.31768400000001
 20
26.951438
 42
-0.414213562373095
 10
15.46768400000001
 20
27.101438
 10
16.642684
 20
27.101438
  0
LWPOLYLINE
  5
66
100
AcDbEntity
  8
My_Laser
  6
ByLayer
 62
  256
370
   -1
100
AcDbPolyline
 90
    9
 70
    0
 43
0
 10
18.517684
 20
28.051438
 42
-0.414213562373102
 10
18.667684
 20
27.901438
 10
18.667684
 20
27.60143800000001
 42
-0.4142135623730987
 10
18.517684
 20
27.45143800000001
 10
17.34268400000001
 20
27.45143800000001
 42
-0.4142135623730984
 10
17.19268400000001
 20
27.60143800000001
 10
17.19268400000001
 20
27.901438
 42
-0.4142135623731019
 10
17.34268400000001
 20
28.051438
 10
18.517684
 20
28.051438
  0
LWPOLYLINE
  5
67
100
AcDbEntity
  8
My_Laser
  6
ByLayer
 62
  256
370
   -1
100
AcDbPolyline
 90
    9
 70
    0
 43
0
 10
18.517684
 20
26.151438
 42
-0.4142135623730985
 10
18.667684
 20
26.001438
 10
18.667684
 20
25.701438
 42
-0.414213562373095
 10
18.517684
 20
25.551438
 10
17.34268400000001
 20
25.551438
 42
-0.4142135623730984
 10
17.19268400000001
 20
25.701438
 10
17.19268400000001
 20
26.001438
 42
-0.4142135623730985
 10
17.34268400000001
 20
26.151438
 10
18.517684
 20
26.151438
  0
LWPOLYLINE
  5
68
100
AcDbEntity
  8
My_Laser
  6
ByLayer
 62
  256
370
   -1
100
AcDbPolyline
 90
    9
 70
    0
 43
0
 10
16.69268400000001
 20
36.501438
 42
-0.414213562373095
 10
16.94268400000001
 20
36.251438
 10
16.94268400000001
 20
35.351438
 42
-0.414213562373095
 10
16.69268400000001
 20
35.101438
 10
16.21768400000001
 20
35.101438
 42
-0.414213562373095
 10
15.96768400000001
 20
35.351438
 10
15.96768400000001
 20
36.251438
 42
-0.414213562373095
 10
16.21768400000001
 20
36.501438
 10
16.69268400000001
 20
36.501438
  0
LWPOLYLINE
  5
69
100
AcDbEntity
  8
My_Laser
  6
ByLayer
 62
  256
370
   -1
100
AcDbPolyline
 90
    9
 70
    0
 43
0
 10
18.56768400000001
 20
36.501438
 42
-0.414213562373095
 10
18.81768400000001
 20
36.251438
 10
18.81768400000001
 20
35.351438
 42
-0.414213562373095
 10
18.56768400000001
 20
35.101438
 10
18.09268400000001
 20
35.101438
 42
-0.414213562373095
 10
17.84268400000001
 20
35.351438
 10
17.84268400000001
 20
36.251438
 42
-0.414213562373095
 10
18.09268400000001
 20
36.501438
 10
18.56768400000001
 20
36.501438
  0
LWPOLYLINE
  5
6A
100
AcDbEntity
  8
My_Laser
  6
ByLayer
 62
  256
370
   -1
100
AcDbPolyline
 90
    9
 70
    0
 43
0
 10
16.69268400000001
 20
30.501438
 42
-0.414213562373095
 10
16.94268400000001
 20
30.251438
 10
16.94268400000001
 20
29.351438
 42
-0.414213562373095
 10
16.69268400000001
 20
29.101438
 10
16.21768400000001
 20
29.101438
 42
-0.414213562373095
 10
15.96768400000001
 20
29.351438
 10
15.96768400000001
 20
30.251438
 42
-0.414213562373095
 10
16.21768400000001
 20
30.501438
 10
16.69268400000001
 20
30.501438
  0
LWPOLYLINE
  5
6B
100
AcDbEntity
  8
My_Laser
  6
ByLayer
 62
  256
370
   -1
100
AcDbPolyline
 90
    9
 70
    0
 43
0
 10
18.56768400000001
 20
30.501438
 42
-0.414213562373095
 10
18.81768400000001
 20
30.251438
 10
18.81768400000001
 20
29.351438
 42
-0.414213562373095
 10
18.56768400000001
 20
29.101438
 10
18.09268400000001
 20
29.101438
 42
-0.414213562373095
 10
17.84268400000001
 20
29.351438
 10
17.84268400000001
 20
30.251438
 42
-0.414213562373095
 10
18.09268400000001
 20
30.501438
 10
18.56768400000001
 20
30.501438
  0
LWPOLYLINE
  5
6C
100
AcDbEntity
  8
My_Laser
  6
ByLayer
 62
  256
370
   -1
100
AcDbPolyline
 90
    9
 70
    0
 43
0
 10
20.59268400000001
 20
35.351438
 42
-0.414213562373095
 10
20.34268400000001
 20
35.101438
 10
19.81768400000001
 20
35.101438
 42
-0.414213562373095
 10
19.56768400000001
 20
35.351438
 10
19.56768400000001
 20
36.251438
 42
-0.414213562373095
 10
19.81768400000001
 20
36.501438
 10
20.34268400000001
 20
36.501438
 42
-0.414213562373095
 10
20.59268400000001
 20
36.251438
 10
20.59268400000001
 20
35.351438
  0
LWPOLYLINE
  5
6D
100
AcDbEntity
  8
My_Laser
  6
ByLayer
 62
  256
370
   -1
100
AcDbPolyline
 90
    9
 70
    0
 43
0
 10
22.417684
 20
35.351438
 42
-0.414213562373095
 10
22.167684
 20
35.101438
 10
21.642684
 20
35.101438
 42
-0.414213562373095
 10
21.392684
 20
35.351438
 10
21.392684
 20
36.251438
 42
-0.414213562373095
 10
21.642684
 20
36.501438
 10
22.167684
 20
36.501438
 42
-0.414213562373095
 10
22.417684
 20
36.251438
 10
22.417684
 20
35.351438
  0
LWPOLYLINE
  5
6E
100
AcDbEntity
  8
My_Laser
  6
ByLayer
 62
  256
370
   -1
100
AcDbPolyline
 90
    9
 70
    0
 43
0
 10
20.59268400000001
 20
33.351438
 42
-0.414213562373095
 10
20.34268400000001
 20
33.101438
 10
19.81768400000001
 20
33.101438
 42
-0.414213562373095
 10
19.56768400000001
 20
33.351438
 10
19.56768400000001
 20
34.251438
 42
-0.414213562373095
 10
19.81768400000001
 20
34.501438
 10
20.34268400000001
 20
34.501438
 42
-0.414213562373095
 10
20.59268400000001
 20
34.251438
 10
20.59268400000001
 20
33.351438
  0
LWPOLYLINE
  5
6F
100
AcDbEntity
  8
My_Laser
  6
ByLayer
 62
  256
370
   -1
100
AcDbPolyline
 90
    9
 70
    0
 43
0
 10
22.417684
 20
33.351438
 42
-0.414213562373095
 10
22.167684
 20
33.101438
 10
21.642684
 20
33.101438
 42
-0.414213562373095
 10
21.392684
 20
33.351438
 10
21.392684
 20
34.251438
 42
-0.414213562373095
 10
21.642684
 20
34.501438
 10
22.167684
 20
34.501438
 42
-0.414213562373095
 10
22.417684
 20
34.251438
 10
22.417684
 20
33.351438
  0
LWPOLYLINE
  5
70
100
AcDbEntity
  8
My_Laser
  6
ByLayer
 62
  256
370
   -1
100
AcDbPolyline
 90
    9
 70
    0
 43
0
 10
20.59268400000001
 20
31.351438
 42
-0.414213562373095
 10
20.34268400000001
 20
31.101438
 10
19.81768400000001
 20
31.101438
 42
-0.414213562373095
 10
19.56768400000001
 20
31.351438
 10
19.56768400000001
 20
32.251438
 42
-0.414213562373095
 10
19.81768400000001
 20
32.501438
 10
20.34268400000001
 20
32.501438
 42
-0.414213562373095
 10
20.59268400000001
 20
32.251438
 10
20.59268400000001
 20
31.351438
  0
LWPOLYLINE
  5
71
100
AcDbEntity
  8
My_Laser
  6
ByLayer
 62
  256
370
   -1
100
AcDbPolyline
 90
    9
 70
    0
 43
0
 10
22.417684
 20
31.351438
 42
-0.414213562373095
 10
22.167684
 20
31.101438
 10
21.642684
 20
31.101438
 42
-0.414213562373095
 10
21.392684
 20
31.351438
 10
21.392684
 20
32.251438
 42
-0.414213562373095
 10
21.642684
 20
32.501438
 10
22.167684
 20
32.501438
 42
-0.414213562373095
 10
22.417684
 20
32.251438
 10
22.417684
 20
31.351438
  0
LWPOLYLINE
  5
72
100
AcDbEntity
  8
My_Laser
  6
ByLayer
 62
  256
370
   -1
100
AcDbPolyline
 90
    9
 70
    0
 43
0
 10
20.59268400000001
 20
29.351438
 42
-0.414213562373095
 10
20.34268400000001
 20
29.101438
 10
19.81768400000001
 20
29.101438
 42
-0.414213562373095
 10
19.56768400000001
 20
29.351438
 10
19.56768400000001
 20
30.251438
 42
-0.414213562373095
 10
19.81768400000001
 20
30.501438
 10
20.34268400000001
 20
30.501438
 42
-0.414213562373095
 10
20.59268400000001
 20
30.251438
 10
20.59268400000001
 20
29.351438
  0
LWPOLYLINE
  5
73
100
AcDbEntity
  8
My_Laser
  6
ByLayer
 62
  256
370
   -1
100
AcDbPolyline
 90
    9
 70
    0
 43
0
 10
22.417684
 20
29.351438
 42
-0.414213562373095
 10
22.167684
 20
29.101438
 10
21.642684
 20
29.101438
 42
-0.414213562373095
 10
21.392684
 20
29.351438
 10
21.392684
 20
30.251438
 42
-0.414213562373095
 10
21.642684
 20
30.501438
 10
22.167684
 20
30.501438
 42
-0.414213562373095
 10
22.417684
 20
30.251438
 10
22.417684
 20
29.351438
  0
LWPOLYLINE
  5
74
100
AcDbEntity
  8
My_Laser
  6
ByLayer
 62
  256
370
   -1
100
AcDbPolyline
 90
    9
 70
    0
 43
0
 10
20.59268400000001
 20
27.351438
 42
-0.414213562373095
 10
20.34268400000001
 20
27.101438
 10
19.81768400000001
 20
27.101438
 42
-0.414213562373095
 10
19.56768400000001
 20
27.351438
 10
19.56768400000001
 20
28.251438
 42
-0.414213562373095
 10
19.81768400000001
 20
28.501438
 10
20.34268400000001
 20
28.501438
 42
-0.414213562373095
 10
20.59268400000001
 20
28.251438
 10
20.59268400000001
 20
27.351438
  0
LWPOLYLINE
  5
75
100
AcDbEntity
  8
My_Laser
  6
ByLayer
 62
  256
370
   -1
100
AcDbPolyline
 90
    9
 70
    0
 43
0
 10
22.417684
 20
27.351438
 42
-0.414213562373095
 10
22.167684
 20
27.101438
 10
21.642684
 20
27.101438
 42
-0.414213562373095
 10
21.392684
 20
27.351438
 10
21.392684
 20
28.251438
 42
-0.414213562373095
 10
21.642684
 20
28.501438
 10
22.167684
 20
28.501438
 42
-0.414213562373095
 10
22.417684
 20
28.251438
 10
22.417684
 20
27.351438
  0
LWPOLYLINE
  5
76
100
AcDbEntity
  8
My_Laser
  6
ByLayer
 62
  256
370
   -1
100
AcDbPolyline
 90
    9
 70
    0
 43
0
 10
20.59268400000001
 20
25.351438
 42
-0.414213562373095
 10
20.34268400000001
 20
25.101438
 10
19.81768400000001
 20
25.101438
 42
-0.414213562373095
 10
19.56768400000001
 20
25.351438
 10
19.56768400000001
 20
26.251438
 42
-0.414213562373095
 10
19.81768400000001
 20
26.501438
 10
20.34268400000001
 20
26.501438
 42
-0.414213562373095
 10
20.59268400000001
 20
26.251438
 10
20.59268400000001
 20
25.351438
  0
LWPOLYLINE
  5
77
100
AcDbEntity
  8
My_Laser
  6
ByLayer
 62
  256
370
   -1
100
AcDbPolyline
 90
    9
 70
    0
 43
0
 10
22.417684
 20
25.351438
 42
-0.414213562373095
 10
22.167684
 20
25.101438
 10
21.642684
 20
25.101438
 42
-0.414213562373095
 10
21.392684
 20
25.351438
 10
21.392684
 20
26.251438
 42
-0.414213562373095
 10
21.642684
 20
26.501438
 10
22.167684
 20
26.501438
 42
-0.414213562373095
 10
22.417684
 20
26.251438
 10
22.417684
 20
25.351438
  0
LWPOLYLINE
  5
78
100
AcDbEntity
  8
My_Laser
  6
ByLayer
 62
  256
370
   -1
100
AcDbPolyline
 90
    9
 70
    0
 43
0
 10
20.49268399999999
 20
40.651438
 42
-0.414213562373095
 10
20.24268399999999
 20
40.401438
 10
19.74268399999999
 20
40.401438
 42
-0.414213562373095
 10
19.49268399999999
 20
40.651438
 10
19.49268399999999
 20
43.651438
 42
-0.414213562373095
 10
19.74268399999999
 20
43.901438
 10
20.24268399999999
 20
43.901438
 42
-0.414213562373095
 10
20.49268399999999
 20
43.651438
 10
20.49268399999999
 20
40.651438
  0
LWPOLYLINE
  5
79
100
AcDbEntity
  8
My_Laser
  6
ByLayer
 62
  256
370
   -1
100
AcDbPolyline
 90
    9
 70
    0
 43
0
 10
18.49268399999999
 20
40.651438
 42
-0.414213562373095
 10
18.24268399999999
 20
40.401438
 10
17.74268399999999
 20
40.401438
 42
-0.414213562373095
 10
17.49268399999999
 20
40.651438
 10
17.49268399999999
 20
43.651438
 42
-0.414213562373095
 10
17.74268399999999
 20
43.901438
 10
18.24268399999999
 20
43.901438
 42
-0.414213562373095
 10
18.49268399999999
 20
43.651438
 10
18.49268399999999
 20
40.651438
  0
LWPOLYLINE
  5
7A
100
AcDbEntity
  8
My_Laser
  6
ByLayer
 62
  256
370
   -1
100
AcDbPolyline
 90
    9
 70
    0
 43
0
 10
16.49268399999999
 20
40.651438
 42
-0.414213562373095
 10
16.24268399999999
 20
40.401438
 10
15.74268399999999
 20
40.401438
 42
-0.414213562373095
 10
15.49268399999999
 20
40.651438
 10
15.49268399999999
 20
43.651438
 42
-0.414213562373095
 10
15.74268399999999
 20
43.901438
 10
16.24268399999999
 20
43.901438
 42
-0.414213562373095
 10
16.49268399999999
 20
43.651438
 10
16.49268399999999
 20
40.651438
  0
LWPOLYLINE
  5
7B
100
AcDbEntity
  8
My_Laser
  6
ByLayer
 62
  256
370
   -1
100
AcDbPolyline
 90
    9
 70
    0
 43
0
 10
14.492684
 20
40.651438
 42
-0.414213562373095
 10
14.242684
 20
40.401438
 10
13.742684
 20
40.401438
 42
-0.414213562373095
 10
13.492684
 20
40.651438
 10
13.492684
 20
43.651438
 42
-0.414213562373095
 10
13.742684
 20
43.901438
 10
14.242684
 20
43.901438
 42
-0.414213562373095
 10
14.492684
 20
43.651438
 10
14.492684
 20
40.651438
  0
LWPOLYLINE
  5
7C
100
AcDbEntity
  8
My_Laser
  6
ByLayer
 62
  256
370
   -1
100
AcDbPolyline
 90
    8
 70
    1
 43
0
 10
11.14268525000109
 20
46.20143908620825
 42
-0.4142137542694186
 10
10.89268500000035
 20
46.45143900000112
 10
10.89268399999966
 20
49.35143799999888
 42
-0.4142133704767725
 10
11.14268374999889
 20
49.60143808620575
 10
12.14268274999817
 20
49.60143908620774
 42
-0.4142137542694509
 10
12.39268299999892
 20
49.35143917241486
 10
12.3926839999996
 20
46.45144017241712
 42
-0.4142133704767756
 10
12.14268425000037
 20
46.20144008621025
  0
LWPOLYLINE
  5
7D
100
AcDbEntity
  8
My_Laser
  6
ByLayer
 62
  256
370
   -1
100
AcDbPolyline
 90
    8
 70
    1
 43
0
 10
21.84268525000109
 20
46.20143908620825
 42
-0.4142137542694186
 10
21.59268500000035
 20
46.45143900000112
 10
21.59268399999966
 20
49.35143799999888
 42
-0.4142133704767683
 10
21.8426837499989
 20
49.60143808620575
 10
22.84268274999818
 20
49.60143908620775
 42
-0.4142137542694561
 10
23.09268299999892
 20
49.35143917241486
 10
23.09268399999961
 20
46.45144017241712
 42
-0.4142133704767725
 10
22.84268425000037
 20
46.20144008621025
  0
LWPOLYLINE
  5
7E
100
AcDbEntity
  8
My_Laser
  6
ByLayer
 62
  256
370
   -1
100
AcDbPolyline
 90
    9
 70
    0
 43
0
 10
25.14268525000107
 20
46.20143908620825
 42
-0.4142137542694186
 10
24.89268500000033
 20
46.45143900000112
 10
24.89268399999965
 20
49.35143799999888
 42
-0.4142133704767725
 10
25.14268374999888
 20
49.60143808620575
 10
26.14268274999816
 20
49.60143908620775
 42
-0.414213754269452
 10
26.3926829999989
 20
49.35143917241486
 10
26.39268399999959
 20
46.45144017241712
 42
-0.4142133704767725
 10
26.14268425000036
 20
46.20144008621025
 10
25.14268525000107
 20
46.20143908620824
  0
LWPOLYLINE
  5
7F
100
AcDbEntity
  8
My_Laser
  6
ByLayer
 62
  256
370
   -1
100
AcDbPolyline
 90
    9
 70
    0
 43
0
 10
39.84268525000109
 20
46.20143908620824
 42
-0.4142137542694311
 10
39.59268500000035
 20
46.45143900000112
 10
39.59268399999966
 20
49.35143799999888
 42
-0.4142133704767766
 10
39.8426837499989
 20
49.60143808620575
 10
40.84268274999818
 20
49.60143908620775
 42
-0.4142137542694561
 10
41.09268299999892
 20
49.35143917241486
 10
41.09268399999961
 20
46.45144017241712
 42
-0.414213370476785
 10
40.84268425000037
 20
46.20144008621024
 10
39.84268525000109
 20
46.20143908620824
  0
LWPOLYLINE
  5
80
100
AcDbEntity
  8
My_Laser
  6
ByLayer
 62
  256
370
   -1
100
AcDbPolyline
 90
    9
 70
    0
 43
0
 10
43.14268525000107
 20
46.20143908620825
 42
-0.4142137542694311
 10
42.89268500000032
 20
46.45143900000112
 10
42.89268399999965
 20
49.35143799999888
 42
-0.4142133704767766
 10
43.14268374999888
 20
49.60143808620575
 10
44.14268274999816
 20
49.60143908620775
 42
-0.4142137542694561
 10
44.3926829999989
 20
49.35143917241486
 10
44.39268399999959
 20
46.45144017241712
 42
-0.4142133704767766
 10
44.14268425000036
 20
46.20144008621025
 10
43.14268525000107
 20
46.20143908620824
  0
LWPOLYLINE
  5
81
100
AcDbEntity
  8
My_Laser
  6
ByLayer
 62
  256
370
   -1
100
AcDbPolyline
 90
    9
 70
    0
 43
0
 10
57.84268525000109
 20
46.20143908620824
 42
-0.4142137542694311
 10
57.59268500000035
 20
46.45143900000112
 10
57.59268399999966
 20
49.35143799999888
 42
-0.4142133704767766
 10
57.8426837499989
 20
49.60143808620575
 10
58.84268274999818
 20
49.60143908620775
 42
-0.4142137542694561
 10
59.09268299999892
 20
49.35143917241486
 10
59.09268399999961
 20
46.45144017241712
 42
-0.414213370476785
 10
58.84268425000037
 20
46.20144008621024
 10
57.84268525000109
 20
46.20143908620824
  0
LWPOLYLINE
  5
82
100
AcDbEntity
  8
My_Laser
  6
ByLayer
 62
  256
370
   -1
100
AcDbPolyline
 90
    9
 70
    0
 43
0
 10
61.14268525000107
 20
46.20143908620825
 42
-0.4142137542694311
 10
60.89268500000032
 20
46.45143900000112
 10
60.89268399999965
 20
49.35143799999888
 42
-0.4142133704767766
 10
61.14268374999888
 20
49.60143808620575
 10
62.14268274999816
 20
49.60143908620775
 42
-0.4142137542694561
 10
62.3926829999989
 20
49.35143917241486
 10
62.39268399999959
 20
46.45144017241712
 42
-0.4142133704767766
 10
62.14268425000036
 20
46.20144008621025
 10
61.14268525000107
 20
46.20143908620824
  0
LWPOLYLINE
  5
83
100
AcDbEntity
  8
My_Laser
  6
ByLayer
 62
  256
370
   -1
100
AcDbPolyline
 90
    9
 70
    0
 43
0
 10
71.8426852500011
 20
46.20143908620824
 42
-0.4142137542694311
 10
71.59268500000036
 20
46.45143900000112
 10
71.59268399999966
 20
49.35143799999888
 42
-0.4142133704767683
 10
71.84268374999891
 20
49.60143808620575
 10
72.84268274999819
 20
49.60143908620775
 42
-0.4142137542694478
 10
73.09268299999893
 20
49.35143917241486
 10
73.09268399999962
 20
46.45144017241712
 42
-0.4142133704767933
 10
72.84268425000039
 20
46.20144008621024
 10
71.8426852500011
 20
46.20143908620824
  0
LWPOLYLINE
  5
84
100
AcDbEntity
  8
My_Laser
  6
ByLayer
 62
  256
370
   -1
100
AcDbPolyline
 90
    8
 70
    1
 43
0
 10
70.492684
 20
40.651438
 42
-0.414213562373095
 10
70.242684
 20
40.401438
 10
69.742684
 20
40.401438
 42
-0.414213562373095
 10
69.492684
 20
40.651438
 10
69.492684
 20
43.651438
 42
-0.414213562373095
 10
69.742684
 20
43.901438
 10
70.242684
 20
43.901438
 42
-0.414213562373095
 10
70.492684
 20
43.651438
  0
LWPOLYLINE
  5
85
100
AcDbEntity
  8
My_Laser
  6
ByLayer
 62
  256
370
   -1
100
AcDbPolyline
 90
    8
 70
    1
 43
0
 10
68.492684
 20
40.651438
 42
-0.414213562373095
 10
68.242684
 20
40.401438
 10
67.742684
 20
40.401438
 42
-0.414213562373095
 10
67.492684
 20
40.651438
 10
67.492684
 20
43.651438
 42
-0.414213562373095
 10
67.742684
 20
43.901438
 10
68.242684
 20
43.901438
 42
-0.414213562373095
 10
68.492684
 20
43.651438
  0
LWPOLYLINE
  5
86
100
AcDbEntity
  8
My_Laser
  6
ByLayer
 62
  256
370
   -1
100
AcDbPolyline
 90
    8
 70
    1
 43
0
 10
66.492684
 20
40.651438
 42
-0.414213562373095
 10
66.242684
 20
40.401438
 10
65.742684
 20
40.401438
 42
-0.414213562373095
 10
65.492684
 20
40.651438
 10
65.492684
 20
43.651438
 42
-0.414213562373095
 10
65.742684
 20
43.901438
 10
66.242684
 20
43.901438
 42
-0.414213562373095
 10
66.492684
 20
43.651438
  0
LWPOLYLINE
  5
87
100
AcDbEntity
  8
My_Laser
  6
ByLayer
 62
  256
370
   -1
100
AcDbPolyline
 90
    8
 70
    1
 43
0
 10
64.492684
 20
40.651438
 42
-0.414213562373095
 10
64.242684
 20
40.401438
 10
63.74268399999999
 20
40.401438
 42
-0.414213562373095
 10
63.49268399999999
 20
40.651438
 10
63.49268399999999
 20
43.651438
 42
-0.414213562373095
 10
63.74268399999999
 20
43.901438
 10
64.242684
 20
43.901438
 42
-0.414213562373095
 10
64.492684
 20
43.651438
  0
LWPOLYLINE
  5
88
100
AcDbEntity
  8
My_Laser
  6
ByLayer
 62
  256
370
   -1
100
AcDbPolyline
 90
    8
 70
    1
 43
0
 10
56.49268399999999
 20
40.651438
 42
-0.414213562373095
 10
56.24268399999999
 20
40.401438
 10
55.74268399999999
 20
40.401438
 42
-0.414213562373095
 10
55.49268399999999
 20
40.651438
 10
55.49268399999999
 20
43.651438
 42
-0.414213562373095
 10
55.74268399999999
 20
43.901438
 10
56.24268399999999
 20
43.901438
 42
-0.414213562373095
 10
56.49268399999999
 20
43.651438
  0
LWPOLYLINE
  5
89
100
AcDbEntity
  8
My_Laser
  6
ByLayer
 62
  256
370
   -1
100
AcDbPolyline
 90
    8
 70
    1
 43
0
 10
54.49268399999999
 20
40.651438
 42
-0.414213562373095
 10
54.24268399999999
 20
40.401438
 10
53.74268399999999
 20
40.401438
 42
-0.414213562373095
 10
53.49268399999999
 20
40.651438
 10
53.49268399999999
 20
43.651438
 42
-0.414213562373095
 10
53.74268399999999
 20
43.901438
 10
54.24268399999999
 20
43.901438
 42
-0.414213562373095
 10
54.49268399999999
 20
43.651438
  0
LWPOLYLINE
  5
8A
100
AcDbEntity
  8
My_Laser
  6
ByLayer
 62
  256
370
   -1
100
AcDbPolyline
 90
    8
 70
    1
 43
0
 10
52.49268399999999
 20
40.651438
 42
-0.414213562373095
 10
52.24268399999999
 20
40.401438
 10
51.74268399999999
 20
40.401438
 42
-0.414213562373095
 10
51.49268399999999
 20
40.651438
 10
51.49268399999999
 20
43.651438
 42
-0.414213562373095
 10
51.74268399999999
 20
43.901438
 10
52.24268399999999
 20
43.901438
 42
-0.414213562373095
 10
52.49268399999999
 20
43.651438
  0
LWPOLYLINE
  5
8B
100
AcDbEntity
  8
My_Laser
  6
ByLayer
 62
  256
370
   -1
100
AcDbPolyline
 90
    8
 70
    1
 43
0
 10
50.49268399999999
 20
40.651438
 42
-0.414213562373095
 10
50.24268399999999
 20
40.401438
 10
49.74268399999999
 20
40.401438
 42
-0.414213562373095
 10
49.49268399999999
 20
40.651438
 10
49.49268399999999
 20
43.651438
 42
-0.414213562373095
 10
49.74268399999999
 20
43.901438
 10
50.24268399999999
 20
43.901438
 42
-0.414213562373095
 10
50.49268399999999
 20
43.651438
  0
LWPOLYLINE
  5
8C
100
AcDbEntity
  8
My_Laser
  6
ByLayer
 62
  256
370
   -1
100
AcDbPolyline
 90
    8
 70
    1
 43
0
 10
48.49268399999999
 20
40.651438
 42
-0.414213562373095
 10
48.24268399999999
 20
40.401438
 10
47.74268399999999
 20
40.401438
 42
-0.414213562373095
 10
47.49268399999999
 20
40.651438
 10
47.49268399999999
 20
43.651438
 42
-0.414213562373095
 10
47.74268399999999
 20
43.901438
 10
48.24268399999999
 20
43.901438
 42
-0.414213562373095
 10
48.49268399999999
 20
43.651438
  0
LWPOLYLINE
  5
8D
100
AcDbEntity
  8
My_Laser
  6
ByLayer
 62
  256
370
   -1
100
AcDbPolyline
 90
    8
 70
    1
 43
0
 10
46.49268399999999
 20
40.651438
 42
-0.414213562373095
 10
46.24268399999999
 20
40.401438
 10
45.74268399999999
 20
40.401438
 42
-0.414213562373095
 10
45.49268399999999
 20
40.651438
 10
45.49268399999999
 20
43.651438
 42
-0.414213562373095
 10
45.74268399999999
 20
43.901438
 10
46.24268399999999
 20
43.901438
 42
-0.414213562373095
 10
46.49268399999999
 20
43.651438
  0
LWPOLYLINE
  5
8E
100
AcDbEntity
  8
My_Laser
  6
ByLayer
 62
  256
370
   -1
100
AcDbPolyline
 90
    8
 70
    1
 43
0
 10
38.49268399999999
 20
40.651438
 42
-0.414213562373095
 10
38.24268399999999
 20
40.401438
 10
37.74268399999999
 20
40.401438
 42
-0.414213562373095
 10
37.49268399999999
 20
40.651438
 10
37.49268399999999
 20
43.651438
 42
-0.414213562373095
 10
37.74268399999999
 20
43.901438
 10
38.24268399999999
 20
43.901438
 42
-0.414213562373095
 10
38.49268399999999
 20
43.651438
  0
LWPOLYLINE
  5
8F
100
AcDbEntity
  8
My_Laser
  6
ByLayer
 62
  256
370
   -1
100
AcDbPolyline
 90
    8
 70
    1
 43
0
 10
36.49268399999999
 20
40.651438
 42
-0.414213562373095
 10
36.24268399999999
 20
40.401438
 10
35.74268399999999
 20
40.401438
 42
-0.414213562373095
 10
35.49268399999999
 20
40.651438
 10
35.49268399999999
 20
43.651438
 42
-0.414213562373095
 10
35.74268399999999
 20
43.901438
 10
36.24268399999999
 20
43.901438
 42
-0.414213562373095
 10
36.49268399999999
 20
43.651438
  0
LWPOLYLINE
  5
90
100
AcDbEntity
  8
My_Laser
  6
ByLayer
 62
  256
370
   -1
100
AcDbPolyline
 90
    8
 70
    1
 43
0
 10
34.49268399999999
 20
40.651438
 42
-0.414213562373095
 10
34.24268399999999
 20
40.401438
 10
33.74268399999999
 20
40.401438
 42
-0.414213562373095
 10
33.49268399999999
 20
40.651438
 10
33.49268399999999
 20
43.651438
 42
-0.414213562373095
 10
33.74268399999999
 20
43.901438
 10
34.24268399999999
 20
43.901438
 42
-0.414213562373095
 10
34.49268399999999
 20
43.651438
  0
LWPOLYLINE
  5
91
100
AcDbEntity
  8
My_Laser
  6
ByLayer
 62
  256
370
   -1
100
AcDbPolyline
 90
    8
 70
    1
 43
0
 10
32.49268399999999
 20
40.651438
 42
-0.414213562373095
 10
32.24268399999999
 20
40.401438
 10
31.74268399999999
 20
40.401438
 42
-0.414213562373095
 10
31.49268399999999
 20
40.651438
 10
31.49268399999999
 20
43.651438
 42
-0.414213562373095
 10
31.74268399999999
 20
43.901438
 10
32.24268399999999
 20
43.901438
 42
-0.414213562373095
 10
32.49268399999999
 20
43.651438
  0
LWPOLYLINE
  5
92
100
AcDbEntity
  8
My_Laser
  6
ByLayer
 62
  256
370
   -1
100
AcDbPolyline
 90
    8
 70
    1
 43
0
 10
30.49268399999999
 20
40.651438
 42
-0.414213562373095
 10
30.24268399999999
 20
40.401438
 10
29.74268399999999
 20
40.401438
 42
-0.414213562373095
 10
29.49268399999999
 20
40.651438
 10
29.49268399999999
 20
43.651438
 42
-0.414213562373095
 10
29.74268399999999
 20
43.901438
 10
30.24268399999999
 20
43.901438
 42
-0.414213562373095
 10
30.49268399999999
 20
43.651438
  0
LWPOLYLINE
  5
93
100
AcDbEntity
  8
My_Laser
  6
ByLayer
 62
  256
370
   -1
100
AcDbPolyline
 90
    8
 70
    1
 43
0
 10
28.49268399999999
 20
40.651438
 42
-0.414213562373095
 10
28.24268399999999
 20
40.401438
 10
27.74268399999999
 20
40.401438
 42
-0.414213562373095
 10
27.49268399999999
 20
40.651438
 10
27.49268399999999
 20
43.651438
 42
-0.414213562373095
 10
27.74268399999999
 20
43.901438
 10
28.24268399999999
 20
43.901438
 42
-0.414213562373095
 10
28.49268399999999
 20
43.651438
  0
LWPOLYLINE
  5
94
100
AcDbEntity
  8
My_Laser
  6
ByLayer
 62
  256
370
   -1
100
AcDbPolyline
 90
    8
 70
    1
 43
0
 10
44.94268400000001
 20
38.401438
 42
0.414213562373095
 10
45.19268400000001
 20
38.651438
 10
45.19268400000001
 20
39.176438
 42
0.414213562373095
 10
44.94268400000001
 20
39.426438
 10
44.042684
 20
39.426438
 42
0.414213562373095
 10
43.792684
 20
39.176438
 10
43.792684
 20
38.651438
 42
0.414213562373095
 10
44.042684
 20
38.401438
  0
LWPOLYLINE
  5
95
100
AcDbEntity
  8
My_Laser
  6
ByLayer
 62
  256
370
   -1
100
AcDbPolyline
 90
    8
 70
    1
 43
0
 10
44.94268400000001
 20
36.57643800000001
 42
0.414213562373095
 10
45.19268400000001
 20
36.82643800000001
 10
45.19268400000001
 20
37.35143800000001
 42
0.414213562373095
 10
44.94268400000001
 20
37.60143800000001
 10
44.042684
 20
37.60143800000001
 42
0.414213562373095
 10
43.792684
 20
37.35143800000001
 10
43.792684
 20
36.82643800000001
 42
0.414213562373095
 10
44.042684
 20
36.57643800000001
  0
LWPOLYLINE
  5
96
100
AcDbEntity
  8
My_Laser
  6
ByLayer
 62
  256
370
   -1
100
AcDbPolyline
 90
    8
 70
    1
 43
0
 10
42.94268400000001
 20
38.07643800000001
 42
0.414213562373095
 10
43.19268400000001
 20
38.32643800000001
 10
43.19268400000001
 20
38.85143800000001
 42
0.414213562373095
 10
42.94268400000001
 20
39.10143800000001
 10
42.042684
 20
39.10143800000001
 42
0.414213562373095
 10
41.792684
 20
38.85143800000001
 10
41.792684
 20
38.32643800000001
 42
0.414213562373095
 10
42.042684
 20
38.07643800000001
  0
LWPOLYLINE
  5
97
100
AcDbEntity
  8
My_Laser
  6
ByLayer
 62
  256
370
   -1
100
AcDbPolyline
 90
    8
 70
    1
 43
0
 10
42.94268400000001
 20
39.901438
 42
0.414213562373095
 10
43.19268400000001
 20
40.151438
 10
43.19268400000001
 20
40.676438
 42
0.414213562373095
 10
42.94268400000001
 20
40.926438
 10
42.042684
 20
40.926438
 42
0.414213562373095
 10
41.792684
 20
40.676438
 10
41.792684
 20
40.151438
 42
0.414213562373095
 10
42.042684
 20
39.901438
  0
LWPOLYLINE
  5
98
100
AcDbEntity
  8
My_Laser
  6
ByLayer
 62
  256
370
   -1
100
AcDbPolyline
 90
    4
 70
    1
 43
0
 10
30.517684
 20
31.601438
 10
30.517684
 20
32.601438
 10
30.917684
 20
32.601438
 10
30.917684
 20
31.601438
  0
LWPOLYLINE
  5
99
100
AcDbEntity
  8
My_Laser
  6
ByLayer
 62
  256
370
   -1
100
AcDbPolyline
 90
    4
 70
    1
 43
0
 10
31.167684
 20
31.601438
 10
31.167684
 20
32.601438
 10
31.56768400000001
 20
32.601438
 10
31.56768400000001
 20
31.601438
  0
LWPOLYLINE
  5
9A
100
AcDbEntity
  8
My_Laser
  6
ByLayer
 62
  256
370
   -1
100
AcDbPolyline
 90
    4
 70
    1
 43
0
 10
31.81768400000001
 20
31.601438
 10
31.81768400000001
 20
32.601438
 10
32.21768400000001
 20
32.601438
 10
32.21768400000001
 20
31.601438
  0
LWPOLYLINE
  5
9B
100
AcDbEntity
  8
My_Laser
  6
ByLayer
 62
  256
370
   -1
100
AcDbPolyline
 90
    4
 70
    1
 43
0
 10
32.46768400000001
 20
31.601438
 10
32.46768400000001
 20
32.601438
 10
32.86768399999999
 20
32.601438
 10
32.86768399999999
 20
31.601438
  0
LWPOLYLINE
  5
9C
100
AcDbEntity
  8
My_Laser
  6
ByLayer
 62
  256
370
   -1
100
AcDbPolyline
 90
    4
 70
    1
 43
0
 10
33.11768399999999
 20
31.601438
 10
33.11768399999999
 20
32.601438
 10
33.517684
 20
32.601438
 10
33.517684
 20
31.601438
  0
LWPOLYLINE
  5
9D
100
AcDbEntity
  8
My_Laser
  6
ByLayer
 62
  256
370
   -1
100
AcDbPolyline
 90
    4
 70
    1
 43
0
 10
33.767684
 20
31.601438
 10
33.767684
 20
32.601438
 10
34.167684
 20
32.601438
 10
34.167684
 20
31.601438
  0
LWPOLYLINE
  5
9E
100
AcDbEntity
  8
My_Laser
  6
ByLayer
 62
  256
370
   -1
100
AcDbPolyline
 90
    4
 70
    1
 43
0
 10
34.417684
 20
31.601438
 10
34.417684
 20
32.601438
 10
34.81768400000001
 20
32.601438
 10
34.81768400000001
 20
31.601438
  0
LWPOLYLINE
  5
9F
100
AcDbEntity
  8
My_Laser
  6
ByLayer
 62
  256
370
   -1
100
AcDbPolyline
 90
    4
 70
    1
 43
0
 10
35.06768400000001
 20
31.601438
 10
35.06768400000001
 20
32.601438
 10
35.46768400000001
 20
32.601438
 10
35.46768400000001
 20
31.601438
  0
LWPOLYLINE
  5
A0
100
AcDbEntity
  8
My_Laser
  6
ByLayer
 62
  256
370
   -1
100
AcDbPolyline
 90
    4
 70
    1
 43
0
 10
30.517684
 20
37.401438
 10
30.517684
 20
38.401438
 10
30.917684
 20
38.401438
 10
30.917684
 20
37.401438
  0
LWPOLYLINE
  5
A1
100
AcDbEntity
  8
My_Laser
  6
ByLayer
 62
  256
370
   -1
100
AcDbPolyline
 90
    4
 70
    1
 43
0
 10
31.167684
 20
37.401438
 10
31.167684
 20
38.401438
 10
31.56768400000001
 20
38.401438
 10
31.56768400000001
 20
37.401438
  0
LWPOLYLINE
  5
A2
100
AcDbEntity
  8
My_Laser
  6
ByLayer
 62
  256
370
   -1
100
AcDbPolyline
 90
    4
 70
    1
 43
0
 10
31.81768400000001
 20
37.401438
 10
31.81768400000001
 20
38.401438
 10
32.21768400000001
 20
38.401438
 10
32.21768400000001
 20
37.401438
  0
LWPOLYLINE
  5
A3
100
AcDbEntity
  8
My_Laser
  6
ByLayer
 62
  256
370
   -1
100
AcDbPolyline
 90
    4
 70
    1
 43
0
 10
32.46768400000001
 20
37.401438
 10
32.46768400000001
 20
38.401438
 10
32.86768399999999
 20
38.401438
 10
32.86768399999999
 20
37.401438
  0
LWPOLYLINE
  5
A4
100
AcDbEntity
  8
My_Laser
  6
ByLayer
 62
  256
370
   -1
100
AcDbPolyline
 90
    4
 70
    1
 43
0
 10
33.11768399999999
 20
37.401438
 10
33.11768399999999
 20
38.401438
 10
33.517684
 20
38.401438
 10
33.517684
 20
37.401438
  0
LWPOLYLINE
  5
A5
100
AcDbEntity
  8
My_Laser
  6
ByLayer
 62
  256
370
   -1
100
AcDbPolyline
 90
    4
 70
    1
 43
0
 10
33.767684
 20
37.401438
 10
33.767684
 20
38.401438
 10
34.167684
 20
38.401438
 10
34.167684
 20
37.401438
  0
LWPOLYLINE
  5
A6
100
AcDbEntity
  8
My_Laser
  6
ByLayer
 62
  256
370
   -1
100
AcDbPolyline
 90
    4
 70
    1
 43
0
 10
34.417684
 20
37.401438
 10
34.417684
 20
38.401438
 10
34.81768400000001
 20
38.401438
 10
34.81768400000001
 20
37.401438
  0
LWPOLYLINE
  5
A7
100
AcDbEntity
  8
My_Laser
  6
ByLayer
 62
  256
370
   -1
100
AcDbPolyline
 90
    4
 70
    1
 43
0
 10
35.06768400000001
 20
37.401438
 10
35.06768400000001
 20
38.401438
 10
35.46768400000001
 20
38.401438
 10
35.46768400000001
 20
37.401438
  0
LWPOLYLINE
  5
A8
100
AcDbEntity
  8
My_Laser
  6
ByLayer
 62
  256
370
   -1
100
AcDbPolyline
 90
    8
 70
    1
 43
0
 10
38.142684
 20
36.901438
 42
0.414213562373095
 10
38.392684
 20
37.151438
 10
38.392684
 20
37.801438
 42
0.414213562373095
 10
38.142684
 20
38.051438
 10
36.84268400000001
 20
38.051438
 42
0.414213562373095
 10
36.59268400000001
 20
37.801438
 10
36.59268400000001
 20
37.151438
 42
0.414213562373095
 10
36.84268400000001
 20
36.901438
  0
LWPOLYLINE
  5
A9
100
AcDbEntity
  8
My_Laser
  6
ByLayer
 62
  256
370
   -1
100
AcDbPolyline
 90
    8
 70
    1
 43
0
 10
38.142684
 20
33.95143800000001
 42
0.414213562373095
 10
38.392684
 20
34.20143800000001
 10
38.392684
 20
34.85143800000001
 42
0.414213562373095
 10
38.142684
 20
35.10143800000001
 10
36.84268400000001
 20
35.10143800000001
 42
0.414213562373095
 10
36.59268400000001
 20
34.85143800000001
 10
36.59268400000001
 20
34.20143800000001
 42
0.414213562373095
 10
36.84268400000001
 20
33.95143800000001
  0
LWPOLYLINE
  5
AA
100
AcDbEntity
  8
My_Laser
  6
ByLayer
 62
  256
370
   -1
100
AcDbPolyline
 90
    4
 70
    1
 43
0
 10
48.517684
 20
31.601438
 10
48.517684
 20
32.601438
 10
48.917684
 20
32.601438
 10
48.917684
 20
31.601438
  0
LWPOLYLINE
  5
AB
100
AcDbEntity
  8
My_Laser
  6
ByLayer
 62
  256
370
   -1
100
AcDbPolyline
 90
    4
 70
    1
 43
0
 10
49.167684
 20
31.601438
 10
49.167684
 20
32.601438
 10
49.56768400000001
 20
32.601438
 10
49.56768400000001
 20
31.601438
  0
LWPOLYLINE
  5
AC
100
AcDbEntity
  8
My_Laser
  6
ByLayer
 62
  256
370
   -1
100
AcDbPolyline
 90
    4
 70
    1
 43
0
 10
49.81768400000001
 20
31.601438
 10
49.81768400000001
 20
32.601438
 10
50.21768400000001
 20
32.601438
 10
50.21768400000001
 20
31.601438
  0
LWPOLYLINE
  5
AD
100
AcDbEntity
  8
My_Laser
  6
ByLayer
 62
  256
370
   -1
100
AcDbPolyline
 90
    4
 70
    1
 43
0
 10
50.46768400000001
 20
31.601438
 10
50.46768400000001
 20
32.601438
 10
50.86768399999999
 20
32.601438
 10
50.86768399999999
 20
31.601438
  0
LWPOLYLINE
  5
AE
100
AcDbEntity
  8
My_Laser
  6
ByLayer
 62
  256
370
   -1
100
AcDbPolyline
 90
    4
 70
    1
 43
0
 10
51.11768399999999
 20
31.601438
 10
51.11768399999999
 20
32.601438
 10
51.517684
 20
32.601438
 10
51.517684
 20
31.601438
  0
LWPOLYLINE
  5
AF
100
AcDbEntity
  8
My_Laser
  6
ByLayer
 62
  256
370
   -1
100
AcDbPolyline
 90
    4
 70
    1
 43
0
 10
51.767684
 20
31.601438
 10
51.767684
 20
32.601438
 10
52.167684
 20
32.601438
 10
52.167684
 20
31.601438
  0
LWPOLYLINE
  5
B0
100
AcDbEntity
  8
My_Laser
  6
ByLayer
 62
  256
370
   -1
100
AcDbPolyline
 90
    4
 70
    1
 43
0
 10
52.417684
 20
31.601438
 10
52.417684
 20
32.601438
 10
52.81768400000001
 20
32.601438
 10
52.81768400000001
 20
31.601438
  0
LWPOLYLINE
  5
B1
100
AcDbEntity
  8
My_Laser
  6
ByLayer
 62
  256
370
   -1
100
AcDbPolyline
 90
    4
 70
    1
 43
0
 10
53.06768400000001
 20
31.601438
 10
53.06768400000001
 20
32.601438
 10
53.46768400000001
 20
32.601438
 10
53.46768400000001
 20
31.601438
  0
LWPOLYLINE
  5
B2
100
AcDbEntity
  8
My_Laser
  6
ByLayer
 62
  256
370
   -1
100
AcDbPolyline
 90
    4
 70
    1
 43
0
 10
48.517684
 20
37.401438
 10
48.517684
 20
38.401438
 10
48.917684
 20
38.401438
 10
48.917684
 20
37.401438
  0
LWPOLYLINE
  5
B3
100
AcDbEntity
  8
My_Laser
  6
ByLayer
 62
  256
370
   -1
100
AcDbPolyline
 90
    4
 70
    1
 43
0
 10
49.167684
 20
37.401438
 10
49.167684
 20
38.401438
 10
49.56768400000001
 20
38.401438
 10
49.56768400000001
 20
37.401438
  0
LWPOLYLINE
  5
B4
100
AcDbEntity
  8
My_Laser
  6
ByLayer
 62
  256
370
   -1
100
AcDbPolyline
 90
    4
 70
    1
 43
0
 10
49.81768400000001
 20
37.401438
 10
49.81768400000001
 20
38.401438
 10
50.21768400000001
 20
38.401438
 10
50.21768400000001
 20
37.401438
  0
LWPOLYLINE
  5
B5
100
AcDbEntity
  8
My_Laser
  6
ByLayer
 62
  256
370
   -1
100
AcDbPolyline
 90
    4
 70
    1
 43
0
 10
50.46768400000001
 20
37.401438
 10
50.46768400000001
 20
38.401438
 10
50.86768399999999
 20
38.401438
 10
50.86768399999999
 20
37.401438
  0
LWPOLYLINE
  5
B6
100
AcDbEntity
  8
My_Laser
  6
ByLayer
 62
  256
370
   -1
100
AcDbPolyline
 90
    4
 70
    1
 43
0
 10
51.11768399999999
 20
37.401438
 10
51.11768399999999
 20
38.401438
 10
51.517684
 20
38.401438
 10
51.517684
 20
37.401438
  0
LWPOLYLINE
  5
B7
100
AcDbEntity
  8
My_Laser
  6
ByLayer
 62
  256
370
   -1
100
AcDbPolyline
 90
    4
 70
    1
 43
0
 10
51.767684
 20
37.401438
 10
51.767684
 20
38.401438
 10
52.167684
 20
38.401438
 10
52.167684
 20
37.401438
  0
LWPOLYLINE
  5
B8
100
AcDbEntity
  8
My_Laser
  6
ByLayer
 62
  256
370
   -1
100
AcDbPolyline
 90
    4
 70
    1
 43
0
 10
52.417684
 20
37.401438
 10
52.417684
 20
38.401438
 10
52.81768400000001
 20
38.401438
 10
52.81768400000001
 20
37.401438
  0
LWPOLYLINE
  5
B9
100
AcDbEntity
  8
My_Laser
  6
ByLayer
 62
  256
370
   -1
100
AcDbPolyline
 90
    4
 70
    1
 43
0
 10
53.06768400000001
 20
37.401438
 10
53.06768400000001
 20
38.401438
 10
53.46768400000001
 20
38.401438
 10
53.46768400000001
 20
37.401438
  0
LWPOLYLINE
  5
BA
100
AcDbEntity
  8
My_Laser
  6
ByLayer
 62
  256
370
   -1
100
AcDbPolyline
 90
    8
 70
    1
 43
0
 10
56.142684
 20
33.95143800000001
 42
0.414213562373095
 10
56.392684
 20
34.20143800000001
 10
56.392684
 20
34.85143800000001
 42
0.414213562373095
 10
56.142684
 20
35.10143800000001
 10
54.84268400000001
 20
35.10143800000001
 42
0.414213562373095
 10
54.59268400000001
 20
34.85143800000001
 10
54.59268400000001
 20
34.20143800000001
 42
0.414213562373095
 10
54.84268400000001
 20
33.95143800000001
  0
LWPOLYLINE
  5
BB
100
AcDbEntity
  8
My_Laser
  6
ByLayer
 62
  256
370
   -1
100
AcDbPolyline
 90
    8
 70
    1
 43
0
 10
56.142684
 20
36.901438
 42
0.414213562373095
 10
56.392684
 20
37.151438
 10
56.392684
 20
37.801438
 42
0.414213562373095
 10
56.142684
 20
38.051438
 10
54.84268400000001
 20
38.051438
 42
0.414213562373095
 10
54.59268400000001
 20
37.801438
 10
54.59268400000001
 20
37.151438
 42
0.414213562373095
 10
54.84268400000001
 20
36.901438
  0
LWPOLYLINE
  5
BC
100
AcDbEntity
  8
My_Laser
  6
ByLayer
 62
  256
370
   -1
100
AcDbPolyline
 90
    8
 70
    1
 43
0
 10
62.94268400000001
 20
34.07643800000001
 42
0.414213562373095
 10
63.19268400000001
 20
34.32643800000001
 10
63.19268400000001
 20
34.85143800000001
 42
0.414213562373095
 10
62.94268400000001
 20
35.10143800000001
 10
62.042684
 20
35.10143800000001
 42
0.414213562373095
 10
61.792684
 20
34.85143800000001
 10
61.792684
 20
34.32643800000001
 42
0.414213562373095
 10
62.042684
 20
34.07643800000001
  0
LWPOLYLINE
  5
BD
100
AcDbEntity
  8
My_Laser
  6
ByLayer
 62
  256
370
   -1
100
AcDbPolyline
 90
    8
 70
    1
 43
0
 10
62.94268400000001
 20
35.901438
 42
0.414213562373095
 10
63.19268400000001
 20
36.151438
 10
63.19268400000001
 20
36.676438
 42
0.414213562373095
 10
62.94268400000001
 20
36.926438
 10
62.042684
 20
36.926438
 42
0.414213562373095
 10
61.792684
 20
36.676438
 10
61.792684
 20
36.151438
 42
0.414213562373095
 10
62.042684
 20
35.901438
  0
LWPOLYLINE
  5
BE
100
AcDbEntity
  8
My_Laser
  6
ByLayer
 62
  256
370
   -1
100
AcDbPolyline
 90
    8
 70
    1
 43
0
 10
66.44268400000001
 20
36.57643800000001
 42
0.414213562373095
 10
66.69268400000001
 20
36.82643800000001
 10
66.69268400000001
 20
37.35143800000001
 42
0.414213562373095
 10
66.44268400000001
 20
37.60143800000001
 10
65.54268400000001
 20
37.60143800000001
 42
0.414213562373095
 10
65.29268400000001
 20
37.35143800000001
 10
65.29268400000001
 20
36.82643800000001
 42
0.414213562373095
 10
65.54268400000001
 20
36.57643800000001
  0
LWPOLYLINE
  5
BF
100
AcDbEntity
  8
My_Laser
  6
ByLayer
 62
  256
370
   -1
100
AcDbPolyline
 90
    8
 70
    1
 43
0
 10
66.44268400000001
 20
38.401438
 42
0.414213562373095
 10
66.69268400000001
 20
38.651438
 10
66.69268400000001
 20
39.176438
 42
0.414213562373095
 10
66.44268400000001
 20
39.426438
 10
65.54268400000001
 20
39.426438
 42
0.414213562373095
 10
65.29268400000001
 20
39.176438
 10
65.29268400000001
 20
38.651438
 42
0.414213562373095
 10
65.54268400000001
 20
38.401438
  0
LWPOLYLINE
  5
C0
100
AcDbEntity
  8
My_Laser
  6
ByLayer
 62
  256
370
   -1
100
AcDbPolyline
 90
    8
 70
    1
 43
0
 10
68.69268400000001
 20
37.30143800000002
 42
0.414213562373095
 10
68.44268400000001
 20
37.55143800000002
 10
67.54268400000001
 20
37.55143800000002
 42
0.414213562373095
 10
67.29268400000001
 20
37.30143800000002
 10
67.29268400000001
 20
36.82643800000001
 42
0.414213562373095
 10
67.54268400000001
 20
36.57643800000001
 10
68.44268400000001
 20
36.57643800000001
 42
0.414213562373095
 10
68.69268400000001
 20
36.82643800000001
  0
LWPOLYLINE
  5
C1
100
AcDbEntity
  8
My_Laser
  6
ByLayer
 62
  256
370
   -1
100
AcDbPolyline
 90
    8
 70
    1
 43
0
 10
68.69268400000001
 20
39.17643800000002
 42
0.414213562373095
 10
68.44268400000001
 20
39.42643800000002
 10
67.54268400000001
 20
39.42643800000002
 42
0.414213562373095
 10
67.29268400000001
 20
39.17643800000002
 10
67.29268400000001
 20
38.70143800000001
 42
0.414213562373095
 10
67.54268400000001
 20
38.45143800000001
 10
68.44268400000001
 20
38.45143800000001
 42
0.414213562373095
 10
68.69268400000001
 20
38.70143800000001
  0
LWPOLYLINE
  5
C2
100
AcDbEntity
  8
My_Laser
  6
ByLayer
 62
  256
370
   -1
100
AcDbPolyline
 90
    8
 70
    1
 43
0
 10
60.06768400000001
 20
38.95143800000001
 42
-0.414213562373095
 10
60.31768400000001
 20
39.20143800000001
 10
60.84268400000001
 20
39.20143800000001
 42
-0.414213562373095
 10
61.09268400000001
 20
38.95143800000001
 10
61.09268400000001
 20
38.051438
 42
-0.414213562373095
 10
60.84268400000001
 20
37.801438
 10
60.31768400000001
 20
37.801438
 42
-0.414213562373095
 10
60.06768400000001
 20
38.051438
  0
LWPOLYLINE
  5
C3
100
AcDbEntity
  8
My_Laser
  6
ByLayer
 62
  256
370
   -1
100
AcDbPolyline
 90
    8
 70
    1
 43
0
 10
61.892684
 20
38.95143800000001
 42
-0.414213562373095
 10
62.142684
 20
39.20143800000001
 10
62.667684
 20
39.20143800000001
 42
-0.414213562373095
 10
62.917684
 20
38.95143800000001
 10
62.917684
 20
38.051438
 42
-0.414213562373095
 10
62.667684
 20
37.801438
 10
62.142684
 20
37.801438
 42
-0.414213562373095
 10
61.892684
 20
38.051438
  0
LWPOLYLINE
  5
C4
100
AcDbEntity
  8
My_Laser
  6
ByLayer
 62
  256
370
   -1
100
AcDbPolyline
 90
    8
 70
    1
 43
0
 10
71.04268400000001
 20
24.57643800000001
 42
0.414213562373095
 10
71.29268400000001
 20
24.82643800000001
 10
71.29268400000001
 20
25.35143800000001
 42
0.414213562373095
 10
71.04268400000001
 20
25.60143800000001
 10
70.142684
 20
25.60143800000001
 42
0.414213562373095
 10
69.892684
 20
25.35143800000001
 10
69.892684
 20
24.82643800000001
 42
0.414213562373095
 10
70.142684
 20
24.57643800000001
  0
LWPOLYLINE
  5
C5
100
AcDbEntity
  8
My_Laser
  6
ByLayer
 62
  256
370
   -1
100
AcDbPolyline
 90
    8
 70
    1
 43
0
 10
69.04268400000001
 20
24.57643800000001
 42
0.414213562373095
 10
69.29268400000001
 20
24.82643800000001
 10
69.29268400000001
 20
25.35143800000001
 42
0.414213562373095
 10
69.04268400000001
 20
25.60143800000001
 10
68.142684
 20
25.60143800000001
 42
0.414213562373095
 10
67.892684
 20
25.35143800000001
 10
67.892684
 20
24.82643800000001
 42
0.414213562373095
 10
68.142684
 20
24.57643800000001
  0
LWPOLYLINE
  5
C6
100
AcDbEntity
  8
My_Laser
  6
ByLayer
 62
  256
370
   -1
100
AcDbPolyline
 90
    8
 70
    1
 43
0
 10
69.04268400000001
 20
26.401438
 42
0.414213562373095
 10
69.29268400000001
 20
26.651438
 10
69.29268400000001
 20
27.176438
 42
0.414213562373095
 10
69.04268400000001
 20
27.426438
 10
68.142684
 20
27.426438
 42
0.414213562373095
 10
67.892684
 20
27.176438
 10
67.892684
 20
26.651438
 42
0.414213562373095
 10
68.142684
 20
26.401438
  0
LWPOLYLINE
  5
C7
100
AcDbEntity
  8
My_Laser
  6
ByLayer
 62
  256
370
   -1
100
AcDbPolyline
 90
    8
 70
    1
 43
0
 10
71.04268400000001
 20
26.401438
 42
0.414213562373095
 10
71.29268400000001
 20
26.651438
 10
71.29268400000001
 20
27.176438
 42
0.414213562373095
 10
71.04268400000001
 20
27.426438
 10
70.142684
 20
27.426438
 42
0.414213562373095
 10
69.892684
 20
27.176438
 10
69.892684
 20
26.651438
 42
0.414213562373095
 10
70.142684
 20
26.401438
  0
LWPOLYLINE
  5
C8
100
AcDbEntity
  8
My_Laser
  6
ByLayer
 62
  256
370
   -1
100
AcDbPolyline
 90
    8
 70
    1
 43
0
 10
65.84268400000002
 20
24.57643800000001
 42
0.414213562373095
 10
66.09268400000002
 20
24.82643800000001
 10
66.09268400000002
 20
25.35143800000001
 42
0.414213562373095
 10
65.84268400000002
 20
25.60143800000001
 10
64.94268400000001
 20
25.60143800000001
 42
0.414213562373095
 10
64.69268400000001
 20
25.35143800000001
 10
64.69268400000001
 20
24.82643800000001
 42
0.414213562373095
 10
64.94268400000001
 20
24.57643800000001
  0
LWPOLYLINE
  5
C9
100
AcDbEntity
  8
My_Laser
  6
ByLayer
 62
  256
370
   -1
100
AcDbPolyline
 90
    8
 70
    1
 43
0
 10
63.84268400000001
 20
24.57643800000001
 42
0.414213562373095
 10
64.09268400000002
 20
24.82643800000001
 10
64.09268400000002
 20
25.35143800000001
 42
0.414213562373095
 10
63.84268400000001
 20
25.60143800000001
 10
62.94268400000001
 20
25.60143800000001
 42
0.414213562373095
 10
62.69268400000001
 20
25.35143800000001
 10
62.69268400000001
 20
24.82643800000001
 42
0.414213562373095
 10
62.94268400000001
 20
24.57643800000001
  0
LWPOLYLINE
  5
CA
100
AcDbEntity
  8
My_Laser
  6
ByLayer
 62
  256
370
   -1
100
AcDbPolyline
 90
    8
 70
    1
 43
0
 10
63.84268400000001
 20
26.401438
 42
0.414213562373095
 10
64.09268400000002
 20
26.651438
 10
64.09268400000002
 20
27.176438
 42
0.414213562373095
 10
63.84268400000001
 20
27.426438
 10
62.94268400000001
 20
27.426438
 42
0.414213562373095
 10
62.69268400000001
 20
27.176438
 10
62.69268400000001
 20
26.651438
 42
0.414213562373095
 10
62.94268400000001
 20
26.401438
  0
LWPOLYLINE
  5
CB
100
AcDbEntity
  8
My_Laser
  6
ByLayer
 62
  256
370
   -1
100
AcDbPolyline
 90
    8
 70
    1
 43
0
 10
65.84268400000002
 20
26.401438
 42
0.414213562373095
 10
66.09268400000002
 20
26.651438
 10
66.09268400000002
 20
27.176438
 42
0.414213562373095
 10
65.84268400000002
 20
27.426438
 10
64.94268400000001
 20
27.426438
 42
0.414213562373095
 10
64.69268400000001
 20
27.176438
 10
64.69268400000001
 20
26.651438
 42
0.414213562373095
 10
64.94268400000001
 20
26.401438
  0
LWPOLYLINE
  5
CC
100
AcDbEntity
  8
My_Laser
  6
ByLayer
 62
  256
370
   -1
100
AcDbPolyline
 90
    8
 70
    1
 43
0
 10
71.29268400000001
 20
28.90143800000001
 42
0.414213562373095
 10
71.04268400000001
 20
29.15143800000001
 10
70.142684
 20
29.15143800000001
 42
0.414213562373095
 10
69.892684
 20
28.90143800000001
 10
69.892684
 20
28.426438
 42
0.414213562373095
 10
70.142684
 20
28.176438
 10
71.04268400000001
 20
28.176438
 42
0.414213562373095
 10
71.29268400000001
 20
28.426438
  0
LWPOLYLINE
  5
CD
100
AcDbEntity
  8
My_Laser
  6
ByLayer
 62
  256
370
   -1
100
AcDbPolyline
 90
    8
 70
    1
 43
0
 10
71.29268400000001
 20
30.77643800000001
 42
0.414213562373095
 10
71.04268400000001
 20
31.02643800000001
 10
70.142684
 20
31.02643800000001
 42
0.414213562373095
 10
69.892684
 20
30.77643800000001
 10
69.892684
 20
30.301438
 42
0.414213562373095
 10
70.142684
 20
30.051438
 10
71.04268400000001
 20
30.051438
 42
0.414213562373095
 10
71.29268400000001
 20
30.301438
  0
LWPOLYLINE
  5
CE
100
AcDbEntity
  8
My_Laser
  6
ByLayer
 62
  256
370
   -1
100
AcDbPolyline
 90
    8
 70
    1
 43
0
 10
69.29268400000001
 20
30.77643800000001
 42
0.414213562373095
 10
69.04268400000001
 20
31.02643800000001
 10
68.142684
 20
31.02643800000001
 42
0.414213562373095
 10
67.892684
 20
30.77643800000001
 10
67.892684
 20
30.301438
 42
0.414213562373095
 10
68.142684
 20
30.051438
 10
69.04268400000001
 20
30.051438
 42
0.414213562373095
 10
69.29268400000001
 20
30.301438
  0
LWPOLYLINE
  5
CF
100
AcDbEntity
  8
My_Laser
  6
ByLayer
 62
  256
370
   -1
100
AcDbPolyline
 90
    8
 70
    1
 43
0
 10
69.29268400000001
 20
28.90143800000001
 42
0.414213562373095
 10
69.04268400000001
 20
29.15143800000001
 10
68.142684
 20
29.15143800000001
 42
0.414213562373095
 10
67.892684
 20
28.90143800000001
 10
67.892684
 20
28.426438
 42
0.414213562373095
 10
68.142684
 20
28.176438
 10
69.04268400000001
 20
28.176438
 42
0.414213562373095
 10
69.29268400000001
 20
28.426438
  0
LWPOLYLINE
  5
D0
100
AcDbEntity
  8
My_Laser
  6
ByLayer
 62
  256
370
   -1
100
AcDbPolyline
 90
    8
 70
    1
 43
0
 10
66.09268400000002
 20
28.90143800000001
 42
0.414213562373095
 10
65.84268400000002
 20
29.15143800000001
 10
64.94268400000001
 20
29.15143800000001
 42
0.414213562373095
 10
64.69268400000001
 20
28.90143800000001
 10
64.69268400000001
 20
28.426438
 42
0.414213562373095
 10
64.94268400000001
 20
28.176438
 10
65.84268400000002
 20
28.176438
 42
0.414213562373095
 10
66.09268400000002
 20
28.426438
  0
LWPOLYLINE
  5
D1
100
AcDbEntity
  8
My_Laser
  6
ByLayer
 62
  256
370
   -1
100
AcDbPolyline
 90
    8
 70
    1
 43
0
 10
66.09268400000002
 20
30.77643800000001
 42
0.414213562373095
 10
65.84268400000002
 20
31.02643800000001
 10
64.94268400000001
 20
31.02643800000001
 42
0.414213562373095
 10
64.69268400000001
 20
30.77643800000001
 10
64.69268400000001
 20
30.301438
 42
0.414213562373095
 10
64.94268400000001
 20
30.051438
 10
65.84268400000002
 20
30.051438
 42
0.414213562373095
 10
66.09268400000002
 20
30.301438
  0
LWPOLYLINE
  5
D2
100
AcDbEntity
  8
My_Laser
  6
ByLayer
 62
  256
370
   -1
100
AcDbPolyline
 90
    8
 70
    1
 43
0
 10
64.09268400000002
 20
30.77643800000001
 42
0.414213562373095
 10
63.84268400000001
 20
31.02643800000001
 10
62.94268400000001
 20
31.02643800000001
 42
0.414213562373095
 10
62.69268400000001
 20
30.77643800000001
 10
62.69268400000001
 20
30.301438
 42
0.414213562373095
 10
62.94268400000001
 20
30.051438
 10
63.84268400000001
 20
30.051438
 42
0.414213562373095
 10
64.09268400000002
 20
30.301438
  0
LWPOLYLINE
  5
D3
100
AcDbEntity
  8
My_Laser
  6
ByLayer
 62
  256
370
   -1
100
AcDbPolyline
 90
    8
 70
    1
 43
0
 10
64.09268400000002
 20
28.90143800000001
 42
0.414213562373095
 10
63.84268400000001
 20
29.15143800000001
 10
62.94268400000001
 20
29.15143800000001
 42
0.414213562373095
 10
62.69268400000001
 20
28.90143800000001
 10
62.69268400000001
 20
28.426438
 42
0.414213562373095
 10
62.94268400000001
 20
28.176438
 10
63.84268400000001
 20
28.176438
 42
0.414213562373095
 10
64.09268400000002
 20
28.426438
  0
LWPOLYLINE
  5
D4
100
AcDbEntity
  8
My_Laser
  6
ByLayer
 62
  256
370
   -1
100
AcDbPolyline
 90
    8
 70
    1
 43
0
 10
50.292684
 20
27.776438
 42
0.414213562373095
 10
50.542684
 20
28.026438
 10
50.542684
 20
28.976438
 42
0.414213562373095
 10
50.292684
 20
29.226438
 10
49.792684
 20
29.226438
 42
0.414213562373095
 10
49.542684
 20
28.976438
 10
49.542684
 20
28.026438
 42
0.414213562373095
 10
49.792684
 20
27.776438
  0
LWPOLYLINE
  5
D5
100
AcDbEntity
  8
My_Laser
  6
ByLayer
 62
  256
370
   -1
100
AcDbPolyline
 90
    8
 70
    1
 43
0
 10
52.19268400000001
 20
27.776438
 42
0.414213562373095
 10
52.44268400000001
 20
28.026438
 10
52.44268400000001
 20
28.976438
 42
0.414213562373095
 10
52.19268400000001
 20
29.226438
 10
51.69268400000001
 20
29.226438
 42
0.414213562373095
 10
51.44268400000001
 20
28.976438
 10
51.44268400000001
 20
28.026438
 42
0.414213562373095
 10
51.69268400000001
 20
27.776438
  0
LWPOLYLINE
  5
D6
100
AcDbEntity
  8
My_Laser
  6
ByLayer
 62
  256
370
   -1
100
AcDbPolyline
 90
    8
 70
    1
 43
0
 10
54.96768400000001
 20
28.051438
 42
0.414213562373095
 10
55.21768400000001
 20
28.301438
 10
55.21768400000001
 20
28.801438
 42
0.414213562373095
 10
54.96768400000001
 20
29.051438
 10
54.017684
 20
29.051438
 42
0.414213562373095
 10
53.767684
 20
28.801438
 10
53.767684
 20
28.301438
 42
0.414213562373095
 10
54.017684
 20
28.051438
  0
LWPOLYLINE
  5
D7
100
AcDbEntity
  8
My_Laser
  6
ByLayer
 62
  256
370
   -1
100
AcDbPolyline
 90
    8
 70
    1
 43
0
 10
54.96768400000001
 20
29.95143800000001
 42
0.414213562373095
 10
55.21768400000001
 20
30.20143800000001
 10
55.21768400000001
 20
30.70143800000001
 42
0.414213562373095
 10
54.96768400000001
 20
30.95143800000001
 10
54.017684
 20
30.95143800000001
 42
0.414213562373095
 10
53.767684
 20
30.70143800000001
 10
53.767684
 20
30.20143800000001
 42
0.414213562373095
 10
54.017684
 20
29.95143800000001
  0
LWPOLYLINE
  5
D8
100
AcDbEntity
  8
My_Laser
  6
ByLayer
 62
  256
370
   -1
100
AcDbPolyline
 90
    8
 70
    1
 43
0
 10
38.492684
 20
27.726438
 42
-0.414213562373095
 10
38.392684
 20
27.826438
 10
38.392684
 20
28.026438
 42
-0.414213562373095
 10
38.492684
 20
28.126438
 10
39.76768399999999
 20
28.12643800000001
 42
-0.4142135623730534
 10
39.86768399999998
 20
28.026438
 10
39.86768399999998
 20
27.826438
 42
-0.4142135623730742
 10
39.76768399999999
 20
27.726438
  0
LWPOLYLINE
  5
D9
100
AcDbEntity
  8
My_Laser
  6
ByLayer
 62
  256
370
   -1
100
AcDbPolyline
 90
    8
 70
    1
 43
0
 10
38.492684
 20
27.07643800000001
 42
-0.414213562373095
 10
38.392684
 20
27.17643800000001
 10
38.392684
 20
27.37643800000001
 42
-0.414213562373095
 10
38.492684
 20
27.47643800000001
 10
39.76768399999999
 20
27.47643800000002
 42
-0.4142135623730534
 10
39.86768399999998
 20
27.37643800000001
 10
39.86768399999998
 20
27.17643800000001
 42
-0.4142135623730742
 10
39.76768399999999
 20
27.07643800000001
  0
LWPOLYLINE
  5
DA
100
AcDbEntity
  8
My_Laser
  6
ByLayer
 62
  256
370
   -1
100
AcDbPolyline
 90
    8
 70
    1
 43
0
 10
38.492684
 20
26.426438
 42
-0.4142135623730846
 10
38.392684
 20
26.526438
 10
38.392684
 20
26.72643800000001
 42
-0.414213562373095
 10
38.492684
 20
26.82643800000001
 10
39.76768399999999
 20
26.82643800000001
 42
-0.4142135623730534
 10
39.86768399999999
 20
26.72643800000001
 10
39.86768399999998
 20
26.526438
 42
-0.4142135623730638
 10
39.76768399999999
 20
26.426438
  0
LWPOLYLINE
  5
DB
100
AcDbEntity
  8
My_Laser
  6
ByLayer
 62
  256
370
   -1
100
AcDbPolyline
 90
    8
 70
    1
 43
0
 10
38.492684
 20
25.776438
 42
-0.414213562373095
 10
38.392684
 20
25.876438
 10
38.392684
 20
26.076438
 42
-0.414213562373095
 10
38.492684
 20
26.176438
 10
39.76768399999999
 20
26.176438
 42
-0.4142135623730638
 10
39.86768399999999
 20
26.076438
 10
39.86768399999998
 20
25.876438
 42
-0.4142135623730742
 10
39.76768399999999
 20
25.776438
  0
LWPOLYLINE
  5
DC
100
AcDbEntity
  8
My_Laser
  6
ByLayer
 62
  256
370
   -1
100
AcDbPolyline
 90
    8
 70
    1
 43
0
 10
38.492684
 20
25.126438
 42
-0.4142135623731003
 10
38.392684
 20
25.22643800000001
 10
38.392684
 20
25.42643800000001
 42
-0.4142135623730898
 10
38.492684
 20
25.52643800000001
 10
39.76768399999999
 20
25.52643800000001
 42
-0.4142135623730482
 10
39.86768399999999
 20
25.42643800000001
 10
39.86768399999998
 20
25.22643800000001
 42
-0.414213562373069
 10
39.76768399999999
 20
25.126438
  0
LWPOLYLINE
  5
DD
100
AcDbEntity
  8
My_Laser
  6
ByLayer
 62
  256
370
   -1
100
AcDbPolyline
 90
    8
 70
    1
 43
0
 10
38.492684
 20
24.476438
 42
-0.414213562373095
 10
38.392684
 20
24.576438
 10
38.392684
 20
24.776438
 42
-0.4142135623730898
 10
38.492684
 20
24.876438
 10
39.76768399999999
 20
24.876438
 42
-0.4142135623730482
 10
39.86768399999999
 20
24.776438
 10
39.86768399999998
 20
24.576438
 42
-0.4142135623730742
 10
39.76768399999999
 20
24.476438
  0
LWPOLYLINE
  5
DE
100
AcDbEntity
  8
My_Laser
  6
ByLayer
 62
  256
370
   -1
100
AcDbPolyline
 90
    8
 70
    1
 43
0
 10
38.492684
 20
23.82643800000001
 42
-0.4142135623730898
 10
38.392684
 20
23.92643800000001
 10
38.392684
 20
24.12643800000001
 42
-0.414213562373095
 10
38.492684
 20
24.22643800000001
 10
39.76768399999999
 20
24.22643800000001
 42
-0.4142135623730534
 10
39.86768399999999
 20
24.12643800000001
 10
39.86768399999998
 20
23.92643800000001
 42
-0.414213562373069
 10
39.76768399999999
 20
23.82643800000001
  0
LWPOLYLINE
  5
DF
100
AcDbEntity
  8
My_Laser
  6
ByLayer
 62
  256
370
   -1
100
AcDbPolyline
 90
    8
 70
    1
 43
0
 10
38.492684
 20
23.176438
 42
-0.414213562373095
 10
38.392684
 20
23.276438
 10
38.392684
 20
23.47643800000001
 42
-0.4142135623730898
 10
38.492684
 20
23.57643800000001
 10
39.76768399999999
 20
23.57643800000001
 42
-0.4142135623730482
 10
39.86768399999999
 20
23.47643800000001
 10
39.86768399999998
 20
23.276438
 42
-0.4142135623730742
 10
39.76768399999999
 20
23.176438
  0
LWPOLYLINE
  5
E0
100
AcDbEntity
  8
My_Laser
  6
ByLayer
 62
  256
370
   -1
100
AcDbPolyline
 90
    8
 70
    1
 43
0
 10
38.492684
 20
22.526438
 42
-0.414213562373095
 10
38.392684
 20
22.626438
 10
38.392684
 20
22.826438
 42
-0.414213562373095
 10
38.492684
 20
22.926438
 10
39.76768399999999
 20
22.926438
 42
-0.4142135623730534
 10
39.86768399999999
 20
22.826438
 10
39.86768399999998
 20
22.626438
 42
-0.4142135623730742
 10
39.76768399999999
 20
22.526438
  0
LWPOLYLINE
  5
E1
100
AcDbEntity
  8
My_Laser
  6
ByLayer
 62
  256
370
   -1
100
AcDbPolyline
 90
    8
 70
    1
 43
0
 10
38.492684
 20
21.876438
 42
-0.4142135623731003
 10
38.392684
 20
21.97643800000001
 10
38.392684
 20
22.17643800000001
 42
-0.4142135623730898
 10
38.492684
 20
22.27643800000001
 10
39.76768399999999
 20
22.27643800000001
 42
-0.4142135623730482
 10
39.86768399999999
 20
22.17643800000001
 10
39.86768399999998
 20
21.97643800000001
 42
-0.414213562373069
 10
39.76768399999999
 20
21.876438
  0
LWPOLYLINE
  5
E2
100
AcDbEntity
  8
My_Laser
  6
ByLayer
 62
  256
370
   -1
100
AcDbPolyline
 90
    8
 70
    1
 43
0
 10
44.21768400000001
 20
21.876438
 42
-0.4142135623730534
 10
44.117684
 20
21.97643800000001
 10
44.11768400000001
 20
22.17643800000001
 42
-0.4142135623730794
 10
44.21768400000001
 20
22.27643800000001
 10
45.492684
 20
22.27643800000001
 42
-0.4142135623730482
 10
45.592684
 20
22.17643800000001
 10
45.59268399999999
 20
21.97643800000001
 42
-0.414213562373069
 10
45.492684
 20
21.876438
  0
LWPOLYLINE
  5
E3
100
AcDbEntity
  8
My_Laser
  6
ByLayer
 62
  256
370
   -1
100
AcDbPolyline
 90
    8
 70
    1
 43
0
 10
44.21768400000001
 20
22.526438
 42
-0.4142135623730586
 10
44.117684
 20
22.626438
 10
44.11768400000001
 20
22.826438
 42
-0.4142135623730846
 10
44.21768400000001
 20
22.926438
 10
45.492684
 20
22.926438
 42
-0.4142135623730534
 10
45.592684
 20
22.826438
 10
45.59268399999999
 20
22.626438
 42
-0.4142135623730742
 10
45.492684
 20
22.526438
  0
LWPOLYLINE
  5
E4
100
AcDbEntity
  8
My_Laser
  6
ByLayer
 62
  256
370
   -1
100
AcDbPolyline
 90
    8
 70
    1
 43
0
 10
44.21768400000001
 20
23.176438
 42
-0.4142135623730586
 10
44.117684
 20
23.276438
 10
44.11768400000001
 20
23.47643800000001
 42
-0.4142135623730794
 10
44.21768400000001
 20
23.57643800000001
 10
45.492684
 20
23.57643800000001
 42
-0.4142135623730482
 10
45.592684
 20
23.47643800000001
 10
45.59268399999999
 20
23.276438
 42
-0.4142135623730742
 10
45.492684
 20
23.176438
  0
LWPOLYLINE
  5
E5
100
AcDbEntity
  8
My_Laser
  6
ByLayer
 62
  256
370
   -1
100
AcDbPolyline
 90
    8
 70
    1
 43
0
 10
44.21768400000001
 20
23.82643800000001
 42
-0.4142135623730534
 10
44.117684
 20
23.92643800000001
 10
44.117684
 20
24.12643800000001
 42
-0.4142135623730846
 10
44.21768400000001
 20
24.22643800000001
 10
45.492684
 20
24.22643800000001
 42
-0.4142135623730534
 10
45.592684
 20
24.12643800000001
 10
45.59268399999999
 20
23.92643800000001
 42
-0.414213562373069
 10
45.492684
 20
23.82643800000001
  0
LWPOLYLINE
  5
E6
100
AcDbEntity
  8
My_Laser
  6
ByLayer
 62
  256
370
   -1
100
AcDbPolyline
 90
    8
 70
    1
 43
0
 10
44.21768400000001
 20
24.476438
 42
-0.4142135623730586
 10
44.117684
 20
24.576438
 10
44.11768400000001
 20
24.776438
 42
-0.4142135623730794
 10
44.21768400000001
 20
24.876438
 10
45.492684
 20
24.876438
 42
-0.4142135623730482
 10
45.592684
 20
24.776438
 10
45.59268399999999
 20
24.576438
 42
-0.4142135623730742
 10
45.492684
 20
24.476438
  0
LWPOLYLINE
  5
E7
100
AcDbEntity
  8
My_Laser
  6
ByLayer
 62
  256
370
   -1
100
AcDbPolyline
 90
    8
 70
    1
 43
0
 10
44.21768400000001
 20
25.126438
 42
-0.4142135623730534
 10
44.117684
 20
25.22643800000001
 10
44.11768400000001
 20
25.42643800000001
 42
-0.4142135623730794
 10
44.21768400000001
 20
25.52643800000001
 10
45.492684
 20
25.52643800000001
 42
-0.4142135623730482
 10
45.592684
 20
25.42643800000001
 10
45.59268399999999
 20
25.22643800000001
 42
-0.414213562373069
 10
45.492684
 20
25.126438
  0
LWPOLYLINE
  5
E8
100
AcDbEntity
  8
My_Laser
  6
ByLayer
 62
  256
370
   -1
100
AcDbPolyline
 90
    8
 70
    1
 43
0
 10
44.21768400000001
 20
25.776438
 42
-0.4142135623730586
 10
44.117684
 20
25.876438
 10
44.117684
 20
26.076438
 42
-0.4142135623730846
 10
44.21768400000001
 20
26.176438
 10
45.492684
 20
26.176438
 42
-0.4142135623730638
 10
45.592684
 20
26.076438
 10
45.59268399999999
 20
25.876438
 42
-0.4142135623730742
 10
45.492684
 20
25.776438
  0
LWPOLYLINE
  5
E9
100
AcDbEntity
  8
My_Laser
  6
ByLayer
 62
  256
370
   -1
100
AcDbPolyline
 90
    8
 70
    1
 43
0
 10
44.21768400000001
 20
26.426438
 42
-0.4142135623730534
 10
44.117684
 20
26.526438
 10
44.117684
 20
26.72643800000001
 42
-0.4142135623730846
 10
44.21768400000001
 20
26.82643800000001
 10
45.492684
 20
26.82643800000001
 42
-0.4142135623730534
 10
45.592684
 20
26.72643800000001
 10
45.59268399999999
 20
26.526438
 42
-0.4142135623730638
 10
45.492684
 20
26.426438
  0
LWPOLYLINE
  5
EA
100
AcDbEntity
  8
My_Laser
  6
ByLayer
 62
  256
370
   -1
100
AcDbPolyline
 90
    8
 70
    1
 43
0
 10
44.21768400000001
 20
27.07643800000001
 42
-0.4142135623730638
 10
44.117684
 20
27.17643800000001
 10
44.11768400000001
 20
27.37643800000001
 42
-0.4142135623730846
 10
44.21768400000001
 20
27.47643800000001
 10
45.492684
 20
27.47643800000002
 42
-0.4142135623730534
 10
45.59268399999999
 20
27.37643800000001
 10
45.59268399999999
 20
27.17643800000001
 42
-0.4142135623730742
 10
45.492684
 20
27.07643800000001
  0
LWPOLYLINE
  5
EB
100
AcDbEntity
  8
My_Laser
  6
ByLayer
 62
  256
370
   -1
100
AcDbPolyline
 90
    8
 70
    1
 43
0
 10
44.21768400000001
 20
27.726438
 42
-0.4142135623730638
 10
44.117684
 20
27.826438
 10
44.117684
 20
28.026438
 42
-0.4142135623730846
 10
44.21768400000001
 20
28.126438
 10
45.492684
 20
28.12643800000001
 42
-0.4142135623730534
 10
45.59268399999999
 20
28.026438
 10
45.59268399999999
 20
27.826438
 42
-0.4142135623730742
 10
45.492684
 20
27.726438
  0
LWPOLYLINE
  5
EC
100
AcDbEntity
  8
My_Laser
  6
ByLayer
 62
  256
370
   -1
100
AcDbPolyline
 90
    9
 70
    0
 43
0
 10
36.96768400000001
 20
29.95143800000001
 42
0.414213562373095
 10
37.21768400000001
 20
30.20143800000001
 10
37.21768400000001
 20
30.70143800000001
 42
0.414213562373095
 10
36.96768400000001
 20
30.95143800000001
 10
36.017684
 20
30.95143800000001
 42
0.414213562373095
 10
35.767684
 20
30.70143800000001
 10
35.767684
 20
30.20143800000001
 42
0.414213562373095
 10
36.017684
 20
29.95143800000001
 10
36.96768400000001
 20
29.95143800000001
  0
LWPOLYLINE
  5
ED
100
AcDbEntity
  8
My_Laser
  6
ByLayer
 62
  256
370
   -1
100
AcDbPolyline
 90
    9
 70
    0
 43
0
 10
36.96768400000001
 20
28.051438
 42
0.414213562373095
 10
37.21768400000001
 20
28.301438
 10
37.21768400000001
 20
28.801438
 42
0.414213562373095
 10
36.96768400000001
 20
29.051438
 10
36.017684
 20
29.051438
 42
0.414213562373095
 10
35.767684
 20
28.801438
 10
35.767684
 20
28.301438
 42
0.414213562373095
 10
36.017684
 20
28.051438
 10
36.96768400000001
 20
28.051438
  0
LWPOLYLINE
  5
EE
100
AcDbEntity
  8
My_Laser
  6
ByLayer
 62
  256
370
   -1
100
AcDbPolyline
 90
    9
 70
    0
 43
0
 10
34.417684
 20
25.951438
 42
-0.414213562373095
 10
34.167684
 20
25.701438
 10
33.642684
 20
25.701438
 42
-0.414213562373095
 10
33.392684
 20
25.951438
 10
33.392684
 20
26.85143800000001
 42
-0.414213562373095
 10
33.642684
 20
27.10143800000001
 10
34.167684
 20
27.10143800000001
 42
-0.414213562373095
 10
34.417684
 20
26.85143800000001
 10
34.417684
 20
25.951438
  0
LWPOLYLINE
  5
EF
100
AcDbEntity
  8
My_Laser
  6
ByLayer
 62
  256
370
   -1
100
AcDbPolyline
 90
    9
 70
    0
 43
0
 10
32.59268400000001
 20
25.951438
 42
-0.414213562373095
 10
32.34268400000001
 20
25.701438
 10
31.81768400000001
 20
25.701438
 42
-0.414213562373095
 10
31.56768400000001
 20
25.951438
 10
31.56768400000001
 20
26.85143800000001
 42
-0.414213562373095
 10
31.81768400000001
 20
27.10143800000001
 10
32.34268400000001
 20
27.10143800000001
 42
-0.414213562373095
 10
32.59268400000001
 20
26.85143800000001
 10
32.59268400000001
 20
25.951438
  0
LWPOLYLINE
  5
F0
100
AcDbEntity
  8
My_Laser
  6
ByLayer
 62
  256
370
   -1
100
AcDbPolyline
 90
    9
 70
    0
 43
0
 10
32.59268400000001
 20
23.951438
 42
-0.414213562373095
 10
32.34268400000001
 20
23.701438
 10
31.81768400000001
 20
23.701438
 42
-0.414213562373095
 10
31.56768400000001
 20
23.951438
 10
31.56768400000001
 20
24.85143800000001
 42
-0.414213562373095
 10
31.81768400000001
 20
25.10143800000001
 10
32.34268400000001
 20
25.10143800000001
 42
-0.414213562373095
 10
32.59268400000001
 20
24.85143800000001
 10
32.59268400000001
 20
23.951438
  0
LWPOLYLINE
  5
F1
100
AcDbEntity
  8
My_Laser
  6
ByLayer
 62
  256
370
   -1
100
AcDbPolyline
 90
    9
 70
    0
 43
0
 10
34.417684
 20
23.951438
 42
-0.414213562373095
 10
34.167684
 20
23.701438
 10
33.642684
 20
23.701438
 42
-0.414213562373095
 10
33.392684
 20
23.951438
 10
33.392684
 20
24.85143800000001
 42
-0.414213562373095
 10
33.642684
 20
25.10143800000001
 10
34.167684
 20
25.10143800000001
 42
-0.414213562373095
 10
34.417684
 20
24.85143800000001
 10
34.417684
 20
23.951438
  0
LWPOLYLINE
  5
F2
100
AcDbEntity
  8
My_Laser
  6
ByLayer
 62
  256
370
   -1
100
AcDbPolyline
 90
    9
 70
    0
 43
0
 10
32.292684
 20
27.776438
 42
0.414213562373095
 10
32.542684
 20
28.026438
 10
32.542684
 20
28.976438
 42
0.414213562373095
 10
32.292684
 20
29.226438
 10
31.792684
 20
29.226438
 42
0.414213562373095
 10
31.542684
 20
28.976438
 10
31.542684
 20
28.026438
 42
0.414213562373095
 10
31.792684
 20
27.776438
 10
32.292684
 20
27.776438
  0
LWPOLYLINE
  5
F3
100
AcDbEntity
  8
My_Laser
  6
ByLayer
 62
  256
370
   -1
100
AcDbPolyline
 90
    9
 70
    0
 43
0
 10
34.19268400000001
 20
27.776438
 42
0.414213562373095
 10
34.44268400000001
 20
28.026438
 10
34.44268400000001
 20
28.976438
 42
0.414213562373095
 10
34.19268400000001
 20
29.226438
 10
33.69268400000001
 20
29.226438
 42
0.414213562373095
 10
33.44268400000001
 20
28.976438
 10
33.44268400000001
 20
28.026438
 42
0.414213562373095
 10
33.69268400000001
 20
27.776438
 10
34.19268400000001
 20
27.776438
  0
LWPOLYLINE
  5
F4
100
AcDbEntity
  8
My_Laser
  6
ByLayer
 62
  256
370
   -1
100
AcDbPolyline
 90
    9
 70
    0
 43
0
 10
32.94268400000001
 20
17.32643800000001
 42
0.414213562373095
 10
33.19268400000001
 20
17.57643800000001
 10
33.19268400000001
 20
18.10143800000001
 42
0.414213562373095
 10
32.94268400000001
 20
18.35143800000001
 10
32.042684
 20
18.35143800000001
 42
0.414213562373095
 10
31.792684
 20
18.10143800000001
 10
31.792684
 20
17.57643800000001
 42
0.414213562373095
 10
32.042684
 20
17.32643800000001
 10
32.94268400000001
 20
17.32643800000001
  0
LWPOLYLINE
  5
F5
100
AcDbEntity
  8
My_Laser
  6
ByLayer
 62
  256
370
   -1
100
AcDbPolyline
 90
    9
 70
    0
 43
0
 10
32.94268400000001
 20
19.151438
 42
0.414213562373095
 10
33.19268400000001
 20
19.401438
 10
33.19268400000001
 20
19.926438
 42
0.414213562373095
 10
32.94268400000001
 20
20.176438
 10
32.042684
 20
20.176438
 42
0.414213562373095
 10
31.792684
 20
19.926438
 10
31.792684
 20
19.401438
 42
0.414213562373095
 10
32.042684
 20
19.151438
 10
32.94268400000001
 20
19.151438
  0
LWPOLYLINE
  5
F6
100
AcDbEntity
  8
My_Laser
  6
ByLayer
 62
  256
370
   -1
100
AcDbPolyline
 90
    9
 70
    0
 43
0
 10
35.94268400000001
 20
19.151438
 42
0.414213562373095
 10
36.19268400000001
 20
19.401438
 10
36.19268400000001
 20
19.926438
 42
0.414213562373095
 10
35.94268400000001
 20
20.176438
 10
35.042684
 20
20.176438
 42
0.414213562373095
 10
34.792684
 20
19.926438
 10
34.792684
 20
19.401438
 42
0.414213562373095
 10
35.042684
 20
19.151438
 10
35.94268400000001
 20
19.151438
  0
LWPOLYLINE
  5
F7
100
AcDbEntity
  8
My_Laser
  6
ByLayer
 62
  256
370
   -1
100
AcDbPolyline
 90
    9
 70
    0
 43
0
 10
35.94268400000001
 20
17.32643800000001
 42
0.414213562373095
 10
36.19268400000001
 20
17.57643800000001
 10
36.19268400000001
 20
18.10143800000001
 42
0.414213562373095
 10
35.94268400000001
 20
18.35143800000001
 10
35.042684
 20
18.35143800000001
 42
0.414213562373095
 10
34.792684
 20
18.10143800000001
 10
34.792684
 20
17.57643800000001
 42
0.414213562373095
 10
35.042684
 20
17.32643800000001
 10
35.94268400000001
 20
17.32643800000001
  0
LWPOLYLINE
  5
F8
100
AcDbEntity
  8
My_Laser
  6
ByLayer
 62
  256
370
   -1
100
AcDbPolyline
 90
    9
 70
    0
 43
0
 10
40.292684
 20
19.676438
 42
0.414213562373095
 10
40.542684
 20
19.926438
 10
40.542684
 20
20.876438
 42
0.414213562373095
 10
40.292684
 20
21.126438
 10
39.792684
 20
21.126438
 42
0.414213562373095
 10
39.542684
 20
20.876438
 10
39.542684
 20
19.926438
 42
0.414213562373095
 10
39.792684
 20
19.676438
 10
40.292684
 20
19.676438
  0
LWPOLYLINE
  5
F9
100
AcDbEntity
  8
My_Laser
  6
ByLayer
 62
  256
370
   -1
100
AcDbPolyline
 90
    9
 70
    0
 43
0
 10
42.19268400000001
 20
19.676438
 42
0.414213562373095
 10
42.44268400000001
 20
19.926438
 10
42.44268400000001
 20
20.876438
 42
0.414213562373095
 10
42.19268400000001
 20
21.126438
 10
41.69268400000001
 20
21.126438
 42
0.414213562373095
 10
41.44268400000001
 20
20.876438
 10
41.44268400000001
 20
19.926438
 42
0.414213562373095
 10
41.69268400000001
 20
19.676438
 10
42.19268400000001
 20
19.676438
  0
LWPOLYLINE
  5
FA
100
AcDbEntity
  8
My_Laser
  6
ByLayer
 62
  256
370
   -1
100
AcDbPolyline
 90
    9
 70
    0
 43
0
 10
44.982684
 20
14.68643800000001
 42
0.414213562373095
 10
45.232684
 20
14.93643800000001
 10
45.232684
 20
15.46143800000001
 42
0.414213562373095
 10
44.982684
 20
15.71143800000001
 10
44.08268399999999
 20
15.71143800000001
 42
0.414213562373095
 10
43.83268399999999
 20
15.46143800000001
 10
43.83268399999999
 20
14.93643800000001
 42
0.414213562373095
 10
44.08268399999999
 20
14.68643800000001
 10
44.982684
 20
14.68643800000001
  0
LWPOLYLINE
  5
FB
100
AcDbEntity
  8
My_Laser
  6
ByLayer
 62
  256
370
   -1
100
AcDbPolyline
 90
    9
 70
    0
 43
0
 10
44.982684
 20
16.51143799999999
 42
0.414213562373095
 10
45.232684
 20
16.76143799999999
 10
45.232684
 20
17.286438
 42
0.414213562373095
 10
44.982684
 20
17.536438
 10
44.08268399999999
 20
17.536438
 42
0.414213562373095
 10
43.83268399999999
 20
17.286438
 10
43.83268399999999
 20
16.76143799999999
 42
0.414213562373095
 10
44.08268399999999
 20
16.51143799999999
 10
44.982684
 20
16.51143799999999
  0
LWPOLYLINE
  5
FC
100
AcDbEntity
  8
My_Laser
  6
ByLayer
 62
  256
370
   -1
100
AcDbPolyline
 90
    9
 70
    0
 43
0
 10
47.52268400000001
 20
16.51143799999999
 42
0.414213562373095
 10
47.77268400000001
 20
16.76143799999999
 10
47.77268400000001
 20
17.286438
 42
0.414213562373095
 10
47.52268400000001
 20
17.536438
 10
46.622684
 20
17.536438
 42
0.414213562373095
 10
46.372684
 20
17.286438
 10
46.372684
 20
16.76143799999999
 42
0.414213562373095
 10
46.622684
 20
16.51143799999999
 10
47.52268400000001
 20
16.51143799999999
  0
LWPOLYLINE
  5
FD
100
AcDbEntity
  8
My_Laser
  6
ByLayer
 62
  256
370
   -1
100
AcDbPolyline
 90
    9
 70
    0
 43
0
 10
47.52268400000001
 20
14.68643800000001
 42
0.414213562373095
 10
47.77268400000001
 20
14.93643800000001
 10
47.77268400000001
 20
15.46143800000001
 42
0.414213562373095
 10
47.52268400000001
 20
15.71143800000001
 10
46.622684
 20
15.71143800000001
 42
0.414213562373095
 10
46.372684
 20
15.46143800000001
 10
46.372684
 20
14.93643800000001
 42
0.414213562373095
 10
46.622684
 20
14.68643800000001
 10
47.52268400000001
 20
14.68643800000001
  0
LWPOLYLINE
  5
FE
100
AcDbEntity
  8
My_Laser
  6
ByLayer
 62
  256
370
   -1
100
AcDbPolyline
 90
    8
 70
    1
 43
0
 10
50.09268400000001
 20
19.551438
 42
-0.414213562373095
 10
49.84268400000001
 20
19.301438
 10
49.31768400000001
 20
19.301438
 42
-0.414213562373095
 10
49.06768400000001
 20
19.551438
 10
49.06768400000001
 20
20.45143800000001
 42
-0.414213562373095
 10
49.31768400000001
 20
20.70143800000001
 10
49.84268400000001
 20
20.70143800000001
 42
-0.414213562373095
 10
50.09268400000001
 20
20.45143800000001
  0
LWPOLYLINE
  5
FF
100
AcDbEntity
  8
My_Laser
  6
ByLayer
 62
  256
370
   -1
100
AcDbPolyline
 90
    8
 70
    1
 43
0
 10
50.09268400000001
 20
21.551438
 42
-0.414213562373095
 10
49.84268400000001
 20
21.301438
 10
49.31768400000001
 20
21.301438
 42
-0.414213562373095
 10
49.06768400000001
 20
21.551438
 10
49.06768400000001
 20
22.45143800000001
 42
-0.414213562373095
 10
49.31768400000001
 20
22.70143800000001
 10
49.84268400000001
 20
22.70143800000001
 42
-0.414213562373095
 10
50.09268400000001
 20
22.45143800000001
  0
LWPOLYLINE
  5
100
100
AcDbEntity
  8
My_Laser
  6
ByLayer
 62
  256
370
   -1
100
AcDbPolyline
 90
    8
 70
    1
 43
0
 10
51.917684
 20
21.551438
 42
-0.414213562373095
 10
51.667684
 20
21.301438
 10
51.142684
 20
21.301438
 42
-0.414213562373095
 10
50.892684
 20
21.551438
 10
50.892684
 20
22.45143800000001
 42
-0.414213562373095
 10
51.142684
 20
22.70143800000001
 10
51.667684
 20
22.70143800000001
 42
-0.414213562373095
 10
51.917684
 20
22.45143800000001
  0
LWPOLYLINE
  5
101
100
AcDbEntity
  8
My_Laser
  6
ByLayer
 62
  256
370
   -1
100
AcDbPolyline
 90
    8
 70
    1
 43
0
 10
51.917684
 20
19.551438
 42
-0.414213562373095
 10
51.667684
 20
19.301438
 10
51.142684
 20
19.301438
 42
-0.414213562373095
 10
50.892684
 20
19.551438
 10
50.892684
 20
20.45143800000001
 42
-0.414213562373095
 10
51.142684
 20
20.70143800000001
 10
51.667684
 20
20.70143800000001
 42
-0.414213562373095
 10
51.917684
 20
20.45143800000001
  0
LWPOLYLINE
  5
102
100
AcDbEntity
  8
My_Laser
  6
ByLayer
 62
  256
370
   -1
100
AcDbPolyline
 90
    8
 70
    1
 43
0
 10
54.09268400000001
 20
19.551438
 42
-0.414213562373095
 10
53.84268400000001
 20
19.301438
 10
53.31768400000001
 20
19.301438
 42
-0.414213562373095
 10
53.06768400000001
 20
19.551438
 10
53.06768400000001
 20
20.45143800000001
 42
-0.414213562373095
 10
53.31768400000001
 20
20.70143800000001
 10
53.84268400000001
 20
20.70143800000001
 42
-0.414213562373095
 10
54.09268400000001
 20
20.45143800000001
  0
LWPOLYLINE
  5
103
100
AcDbEntity
  8
My_Laser
  6
ByLayer
 62
  256
370
   -1
100
AcDbPolyline
 90
    8
 70
    1
 43
0
 10
54.09268400000001
 20
21.551438
 42
-0.414213562373095
 10
53.84268400000001
 20
21.301438
 10
53.31768400000001
 20
21.301438
 42
-0.414213562373095
 10
53.06768400000001
 20
21.551438
 10
53.06768400000001
 20
22.45143800000001
 42
-0.414213562373095
 10
53.31768400000001
 20
22.70143800000001
 10
53.84268400000001
 20
22.70143800000001
 42
-0.414213562373095
 10
54.09268400000001
 20
22.45143800000001
  0
LWPOLYLINE
  5
104
100
AcDbEntity
  8
My_Laser
  6
ByLayer
 62
  256
370
   -1
100
AcDbPolyline
 90
    8
 70
    1
 43
0
 10
55.917684
 20
21.551438
 42
-0.414213562373095
 10
55.667684
 20
21.301438
 10
55.142684
 20
21.301438
 42
-0.414213562373095
 10
54.892684
 20
21.551438
 10
54.892684
 20
22.45143800000001
 42
-0.414213562373095
 10
55.142684
 20
22.70143800000001
 10
55.667684
 20
22.70143800000001
 42
-0.414213562373095
 10
55.917684
 20
22.45143800000001
  0
LWPOLYLINE
  5
105
100
AcDbEntity
  8
My_Laser
  6
ByLayer
 62
  256
370
   -1
100
AcDbPolyline
 90
    8
 70
    1
 43
0
 10
55.917684
 20
19.551438
 42
-0.414213562373095
 10
55.667684
 20
19.301438
 10
55.142684
 20
19.301438
 42
-0.414213562373095
 10
54.892684
 20
19.551438
 10
54.892684
 20
20.45143800000001
 42
-0.414213562373095
 10
55.142684
 20
20.70143800000001
 10
55.667684
 20
20.70143800000001
 42
-0.414213562373095
 10
55.917684
 20
20.45143800000001
  0
LWPOLYLINE
  5
106
100
AcDbEntity
  8
My_Laser
  6
ByLayer
 62
  256
370
   -1
100
AcDbPolyline
 90
    8
 70
    1
 43
0
 10
57.730184
 20
20.70143800000001
 42
-0.414213562373095
 10
57.980184
 20
20.45143800000001
 10
57.980184
 20
19.551438
 42
-0.414213562373095
 10
57.730184
 20
19.301438
 10
57.25518400000001
 20
19.301438
 42
-0.414213562373095
 10
57.00518400000001
 20
19.551438
 10
57.00518400000001
 20
20.45143800000001
 42
-0.414213562373095
 10
57.25518400000001
 20
20.70143800000001
  0
LWPOLYLINE
  5
107
100
AcDbEntity
  8
My_Laser
  6
ByLayer
 62
  256
370
   -1
100
AcDbPolyline
 90
    8
 70
    1
 43
0
 10
59.605184
 20
20.70143800000001
 42
-0.414213562373095
 10
59.855184
 20
20.45143800000001
 10
59.855184
 20
19.551438
 42
-0.414213562373095
 10
59.605184
 20
19.301438
 10
59.13018400000001
 20
19.301438
 42
-0.414213562373095
 10
58.88018400000001
 20
19.551438
 10
58.88018400000001
 20
20.45143800000001
 42
-0.414213562373095
 10
59.13018400000001
 20
20.70143800000001
  0
LWPOLYLINE
  5
108
100
AcDbEntity
  8
My_Laser
  6
ByLayer
 62
  256
370
   -1
100
AcDbPolyline
 90
    8
 70
    1
 43
0
 10
60.09268400000001
 20
21.551438
 42
-0.414213562373095
 10
59.84268400000001
 20
21.301438
 10
59.31768400000001
 20
21.301438
 42
-0.414213562373095
 10
59.06768400000001
 20
21.551438
 10
59.06768400000001
 20
22.45143800000001
 42
-0.414213562373095
 10
59.31768400000001
 20
22.70143800000001
 10
59.84268400000001
 20
22.70143800000001
 42
-0.414213562373095
 10
60.09268400000001
 20
22.45143800000001
  0
LWPOLYLINE
  5
109
100
AcDbEntity
  8
My_Laser
  6
ByLayer
 62
  256
370
   -1
100
AcDbPolyline
 90
    8
 70
    1
 43
0
 10
61.917684
 20
21.551438
 42
-0.414213562373095
 10
61.667684
 20
21.301438
 10
61.142684
 20
21.301438
 42
-0.414213562373095
 10
60.892684
 20
21.551438
 10
60.892684
 20
22.45143800000001
 42
-0.414213562373095
 10
61.142684
 20
22.70143800000001
 10
61.667684
 20
22.70143800000001
 42
-0.414213562373095
 10
61.917684
 20
22.45143800000001
  0
LWPOLYLINE
  5
10A
100
AcDbEntity
  8
My_Laser
  6
ByLayer
 62
  256
370
   -1
100
AcDbPolyline
 90
    8
 70
    1
 43
0
 10
64.492684
 20
16.35143799999999
 42
-0.414213562373095
 10
64.242684
 20
16.10143799999999
 10
63.74268399999999
 20
16.10143799999999
 42
-0.414213562373095
 10
63.49268399999999
 20
16.35143799999999
 10
63.49268399999999
 20
19.351438
 42
-0.414213562373095
 10
63.74268399999999
 20
19.601438
 10
64.242684
 20
19.601438
 42
-0.414213562373095
 10
64.492684
 20
19.351438
  0
LWPOLYLINE
  5
10B
100
AcDbEntity
  8
My_Laser
  6
ByLayer
 62
  256
370
   -1
100
AcDbPolyline
 90
    8
 70
    1
 43
0
 10
66.492684
 20
16.35143799999999
 42
-0.414213562373095
 10
66.242684
 20
16.10143799999999
 10
65.742684
 20
16.10143799999999
 42
-0.414213562373095
 10
65.492684
 20
16.35143799999999
 10
65.492684
 20
19.351438
 42
-0.414213562373095
 10
65.742684
 20
19.601438
 10
66.242684
 20
19.601438
 42
-0.414213562373095
 10
66.492684
 20
19.351438
  0
LWPOLYLINE
  5
10C
100
AcDbEntity
  8
My_Laser
  6
ByLayer
 62
  256
370
   -1
100
AcDbPolyline
 90
    8
 70
    1
 43
0
 10
68.492684
 20
16.35143799999999
 42
-0.414213562373095
 10
68.242684
 20
16.10143799999999
 10
67.742684
 20
16.10143799999999
 42
-0.414213562373095
 10
67.492684
 20
16.35143799999999
 10
67.492684
 20
19.351438
 42
-0.414213562373095
 10
67.742684
 20
19.601438
 10
68.242684
 20
19.601438
 42
-0.414213562373095
 10
68.492684
 20
19.351438
  0
LWPOLYLINE
  5
10D
100
AcDbEntity
  8
My_Laser
  6
ByLayer
 62
  256
370
   -1
100
AcDbPolyline
 90
    8
 70
    1
 43
0
 10
70.492684
 20
16.35143799999999
 42
-0.414213562373095
 10
70.242684
 20
16.10143799999999
 10
69.742684
 20
16.10143799999999
 42
-0.414213562373095
 10
69.492684
 20
16.35143799999999
 10
69.492684
 20
19.351438
 42
-0.414213562373095
 10
69.742684
 20
19.601438
 10
70.242684
 20
19.601438
 42
-0.414213562373095
 10
70.492684
 20
19.351438
  0
LWPOLYLINE
  5
10E
100
AcDbEntity
  8
My_Laser
  6
ByLayer
 62
  256
370
   -1
100
AcDbPolyline
 90
    8
 70
    1
 43
0
 10
61.14268525000145
 20
10.40143800000025
 42
-0.4142137542694417
 10
60.89268500000071
 20
10.65143791379313
 10
60.89268400000001
 20
13.55143691379089
 42
-0.4142133704767776
 10
61.14268374999926
 20
13.80143699999775
 10
62.14268274999854
 20
13.80143799999975
 42
-0.4142137542694452
 10
62.39268299999928
 20
13.55143808620686
 10
62.39268399999996
 20
10.65143908620912
 42
-0.4142133704767688
 10
62.14268425000073
 20
10.40143900000226
  0
LWPOLYLINE
  5
10F
100
AcDbEntity
  8
My_Laser
  6
ByLayer
 62
  256
370
   -1
100
AcDbPolyline
 90
    8
 70
    1
 43
0
 10
71.8426852500011
 20
10.40143908620824
 42
-0.4142137542694418
 10
71.59268500000036
 20
10.65143900000113
 10
71.59268399999968
 20
13.55143799999888
 42
-0.4142133704767709
 10
71.84268374999891
 20
13.80143808620575
 10
72.84268274999819
 20
13.80143908620774
 42
-0.4142137542694421
 10
73.09268299999893
 20
13.55143917241485
 10
73.09268399999961
 20
10.65144017241711
 42
-0.4142133704767876
 10
72.84268425000039
 20
10.40144008621025
  0
LWPOLYLINE
  5
110
100
AcDbEntity
  8
My_Laser
  6
ByLayer
 62
  256
370
   -1
100
AcDbPolyline
 90
    5
 70
    0
 43
0
 10
0
 20
0
 10
84
 20
0
 10
84
 20
60
 10
0
 20
60
 10
0
 20
0
  0
ENDSEC
  0
SECTION
  2
OBJECTS
  0
DICTIONARY
  5
C
330
0
100
AcDbDictionary
281
    1
  3
ACAD_GROUP
350
D
  0
DICTIONARY
  5
D
330
C
100
AcDbDictionary
281
    1
  0
PLOTSETTINGS
  5
111
100
AcDbPlotSettings
  6
1x1
 40
0
 41
0
 42
0
 43
0
  0
ENDSEC
  0
EOF
