  0
SECTION
  2
HEADER
  9
$ANGBASE
  50
0.0
  9
$ANGDIR
  70
1
  9
$MEASUREMENT
  70
1
  0
ENDSEC
  0
SECTION
  2
TABLES
  0
TABLE
  2
LTYPE
  70
4
  0
LTYPE
  5
40F
  2
CONTINUOUS
  70
0
  3
Solid line
  72
65
  73
0
  40
0.0
  0
LTYPE
  5
410
  2
DASHDOT
 70
0
  3
Dash Dot ____ _ ____ _
 72
65
 73
4
 40
2.0
 49
1.25
 49
-0.25
 49
0.25
 49
-0.25
  0
LTYPE
  5
411
  2
DASHED
 70
0
  3
Dashed __ __ __ __ __
 72
65
 73
2
 40
0.75
 49
0.5
 49
-0.25
  0
LTYPE
  5
43B
  2
DOTTED
 70
0
  3
Dotted .  .  .  .
 72
65
 73
2
 40
0.2
 49
0.0
 49
-0.2
  0
ENDTAB
  0
TABLE
  2
STYLE
  70
4
  0
STYLE
  2
KICAD
  70
0
  40
0
  41
1
  42
1
  50
0
  71
0
  3
isocp.shx
  0
STYLE
  2
KICADB
  70
0
  40
0
  41
1
  42
1
  50
0
  71
0
  3
isocp.shx
  0
STYLE
  2
KICADI
  70
0
  40
0
  41
1
  42
1
  50
15
  71
0
  3
isocp.shx
  0
STYLE
  2
KICADBI
  70
0
  40
0
  41
1
  42
1
  50
15
  71
0
  3
isocp.shx
  0
ENDTAB
  0
TABLE
  2
LAYER
  70
1
  0
LAYER
  2
BLACK
  70
0
  62
7
  6
CONTINUOUS
  0
ENDTAB
  0
ENDSEC
  0
SECTION
  2
ENTITIES
0
LINE
8
BLACK
6
CONTINUOUS
10
128.4011069999999961
20
-109.0595769999999902
11
128.512613999999985
21
-109.116392999999988
0
LINE
8
BLACK
6
CONTINUOUS
10
128.512613999999985
20
-109.116392999999988
11
128.6011069999999847
21
-109.2048860000000019
0
LINE
8
BLACK
6
CONTINUOUS
10
128.6011069999999847
20
-109.2048860000000019
11
128.6579229999999825
21
-109.3163929999999908
0
LINE
8
BLACK
6
CONTINUOUS
10
128.6579229999999825
20
-109.3163929999999908
11
128.6774999999999807
21
-109.4399999999999977
0
LINE
8
BLACK
6
CONTINUOUS
10
128.6774999999999807
20
-109.4399999999999977
11
128.6774999999999807
21
-112.6400000000000006
0
LINE
8
BLACK
6
CONTINUOUS
10
128.6774999999999807
20
-112.6400000000000006
11
128.6579229999999825
21
-112.7636069999999933
0
LINE
8
BLACK
6
CONTINUOUS
10
128.6579229999999825
20
-112.7636069999999933
11
128.6011069999999847
21
-112.8751139999999964
0
LINE
8
BLACK
6
CONTINUOUS
10
128.6011069999999847
20
-112.8751139999999964
11
128.512613999999985
21
-112.9636069999999961
0
LINE
8
BLACK
6
CONTINUOUS
10
128.512613999999985
20
-112.9636069999999961
11
128.4011069999999961
21
-113.0204229999999939
0
LINE
8
BLACK
6
CONTINUOUS
10
128.4011069999999961
20
-113.0204229999999939
11
128.2775000000000034
21
-113.039999999999992
0
LINE
8
BLACK
6
CONTINUOUS
10
128.2775000000000034
20
-113.039999999999992
11
127.0775000000000006
21
-113.039999999999992
0
LINE
8
BLACK
6
CONTINUOUS
10
127.0775000000000006
20
-113.039999999999992
11
126.9538929999999937
21
-113.0204229999999939
0
LINE
8
BLACK
6
CONTINUOUS
10
126.9538929999999937
20
-113.0204229999999939
11
126.8423859999999905
21
-112.9636069999999961
0
LINE
8
BLACK
6
CONTINUOUS
10
126.8423859999999905
20
-112.9636069999999961
11
126.7538929999999908
21
-112.8751139999999964
0
LINE
8
BLACK
6
CONTINUOUS
10
126.7538929999999908
20
-112.8751139999999964
11
126.6970769999999931
21
-112.7636069999999933
0
LINE
8
BLACK
6
CONTINUOUS
10
126.6970769999999931
20
-112.7636069999999933
11
126.6774999999999949
21
-112.6400000000000006
0
LINE
8
BLACK
6
CONTINUOUS
10
126.6774999999999949
20
-112.6400000000000006
11
126.6774999999999949
21
-109.4399999999999977
0
LINE
8
BLACK
6
CONTINUOUS
10
126.6774999999999949
20
-109.4399999999999977
11
126.6970769999999931
21
-109.3163929999999908
0
LINE
8
BLACK
6
CONTINUOUS
10
126.6970769999999931
20
-109.3163929999999908
11
126.7538929999999908
21
-109.2048860000000019
0
LINE
8
BLACK
6
CONTINUOUS
10
126.7538929999999908
20
-109.2048860000000019
11
126.8423859999999905
21
-109.116392999999988
0
LINE
8
BLACK
6
CONTINUOUS
10
126.8423859999999905
20
-109.116392999999988
11
126.9538929999999937
21
-109.0595769999999902
0
LINE
8
BLACK
6
CONTINUOUS
10
126.9538929999999937
20
-109.0595769999999902
11
127.0775000000000006
21
-109.039999999999992
0
LINE
8
BLACK
6
CONTINUOUS
10
127.0775000000000006
20
-109.039999999999992
11
128.2775000000000034
21
-109.039999999999992
0
LINE
8
BLACK
6
CONTINUOUS
10
128.2775000000000034
20
-109.039999999999992
11
128.4011069999999961
21
-109.0595769999999902
0
LINE
8
BLACK
6
CONTINUOUS
10
131.9011069999999961
20
-109.0595769999999902
11
132.012613999999985
21
-109.116392999999988
0
LINE
8
BLACK
6
CONTINUOUS
10
132.012613999999985
20
-109.116392999999988
11
132.1011069999999847
21
-109.2048860000000019
0
LINE
8
BLACK
6
CONTINUOUS
10
132.1011069999999847
20
-109.2048860000000019
11
132.1579229999999825
21
-109.3163929999999908
0
LINE
8
BLACK
6
CONTINUOUS
10
132.1579229999999825
20
-109.3163929999999908
11
132.1774999999999807
21
-109.4399999999999977
0
LINE
8
BLACK
6
CONTINUOUS
10
132.1774999999999807
20
-109.4399999999999977
11
132.1774999999999807
21
-112.6400000000000006
0
LINE
8
BLACK
6
CONTINUOUS
10
132.1774999999999807
20
-112.6400000000000006
11
132.1579229999999825
21
-112.7636069999999933
0
LINE
8
BLACK
6
CONTINUOUS
10
132.1579229999999825
20
-112.7636069999999933
11
132.1011069999999847
21
-112.8751139999999964
0
LINE
8
BLACK
6
CONTINUOUS
10
132.1011069999999847
20
-112.8751139999999964
11
132.012613999999985
21
-112.9636069999999961
0
LINE
8
BLACK
6
CONTINUOUS
10
132.012613999999985
20
-112.9636069999999961
11
131.9011069999999961
21
-113.0204229999999939
0
LINE
8
BLACK
6
CONTINUOUS
10
131.9011069999999961
20
-113.0204229999999939
11
131.7775000000000034
21
-113.039999999999992
0
LINE
8
BLACK
6
CONTINUOUS
10
131.7775000000000034
20
-113.039999999999992
11
130.5774999999999864
21
-113.039999999999992
0
LINE
8
BLACK
6
CONTINUOUS
10
130.5774999999999864
20
-113.039999999999992
11
130.4538929999999937
21
-113.0204229999999939
0
LINE
8
BLACK
6
CONTINUOUS
10
130.4538929999999937
20
-113.0204229999999939
11
130.3423860000000047
21
-112.9636069999999961
0
LINE
8
BLACK
6
CONTINUOUS
10
130.3423860000000047
20
-112.9636069999999961
11
130.253893000000005
21
-112.8751139999999964
0
LINE
8
BLACK
6
CONTINUOUS
10
130.253893000000005
20
-112.8751139999999964
11
130.1970770000000073
21
-112.7636069999999933
0
LINE
8
BLACK
6
CONTINUOUS
10
130.1970770000000073
20
-112.7636069999999933
11
130.1774999999999807
21
-112.6400000000000006
0
LINE
8
BLACK
6
CONTINUOUS
10
130.1774999999999807
20
-112.6400000000000006
11
130.1774999999999807
21
-109.4399999999999977
0
LINE
8
BLACK
6
CONTINUOUS
10
130.1774999999999807
20
-109.4399999999999977
11
130.1970770000000073
21
-109.3163929999999908
0
LINE
8
BLACK
6
CONTINUOUS
10
130.1970770000000073
20
-109.3163929999999908
11
130.253893000000005
21
-109.2048860000000019
0
LINE
8
BLACK
6
CONTINUOUS
10
130.253893000000005
20
-109.2048860000000019
11
130.3423860000000047
21
-109.116392999999988
0
LINE
8
BLACK
6
CONTINUOUS
10
130.3423860000000047
20
-109.116392999999988
11
130.4538929999999937
21
-109.0595769999999902
0
LINE
8
BLACK
6
CONTINUOUS
10
130.4538929999999937
20
-109.0595769999999902
11
130.5774999999999864
21
-109.039999999999992
0
LINE
8
BLACK
6
CONTINUOUS
10
130.5774999999999864
20
-109.039999999999992
11
131.7775000000000034
21
-109.039999999999992
0
LINE
8
BLACK
6
CONTINUOUS
10
131.7775000000000034
20
-109.039999999999992
11
131.9011069999999961
21
-109.0595769999999902
0
LINE
8
BLACK
6
CONTINUOUS
10
179.4011069999999961
20
-74.5595769999999902
11
179.512613999999985
21
-74.6163930000000022
0
LINE
8
BLACK
6
CONTINUOUS
10
179.512613999999985
20
-74.6163930000000022
11
179.6011069999999847
21
-74.7048860000000019
0
LINE
8
BLACK
6
CONTINUOUS
10
179.6011069999999847
20
-74.7048860000000019
11
179.6579229999999825
21
-74.8163929999999908
0
LINE
8
BLACK
6
CONTINUOUS
10
179.6579229999999825
20
-74.8163929999999908
11
179.6774999999999807
21
-74.9399999999999977
0
LINE
8
BLACK
6
CONTINUOUS
10
179.6774999999999807
20
-74.9399999999999977
11
179.6774999999999807
21
-78.1400000000000006
0
LINE
8
BLACK
6
CONTINUOUS
10
179.6774999999999807
20
-78.1400000000000006
11
179.6579229999999825
21
-78.2636069999999933
0
LINE
8
BLACK
6
CONTINUOUS
10
179.6579229999999825
20
-78.2636069999999933
11
179.6011069999999847
21
-78.3751139999999964
0
LINE
8
BLACK
6
CONTINUOUS
10
179.6011069999999847
20
-78.3751139999999964
11
179.512613999999985
21
-78.4636069999999961
0
LINE
8
BLACK
6
CONTINUOUS
10
179.512613999999985
20
-78.4636069999999961
11
179.4011069999999961
21
-78.5204229999999939
0
LINE
8
BLACK
6
CONTINUOUS
10
179.4011069999999961
20
-78.5204229999999939
11
179.2775000000000034
21
-78.539999999999992
0
LINE
8
BLACK
6
CONTINUOUS
10
179.2775000000000034
20
-78.539999999999992
11
178.0774999999999864
21
-78.539999999999992
0
LINE
8
BLACK
6
CONTINUOUS
10
178.0774999999999864
20
-78.539999999999992
11
177.9538929999999937
21
-78.5204229999999939
0
LINE
8
BLACK
6
CONTINUOUS
10
177.9538929999999937
20
-78.5204229999999939
11
177.8423860000000047
21
-78.4636069999999961
0
LINE
8
BLACK
6
CONTINUOUS
10
177.8423860000000047
20
-78.4636069999999961
11
177.753893000000005
21
-78.3751139999999964
0
LINE
8
BLACK
6
CONTINUOUS
10
177.753893000000005
20
-78.3751139999999964
11
177.6970769999999789
21
-78.2636069999999933
0
LINE
8
BLACK
6
CONTINUOUS
10
177.6970769999999789
20
-78.2636069999999933
11
177.6774999999999807
21
-78.1400000000000006
0
LINE
8
BLACK
6
CONTINUOUS
10
177.6774999999999807
20
-78.1400000000000006
11
177.6774999999999807
21
-74.9399999999999977
0
LINE
8
BLACK
6
CONTINUOUS
10
177.6774999999999807
20
-74.9399999999999977
11
177.6970769999999789
21
-74.8163929999999908
0
LINE
8
BLACK
6
CONTINUOUS
10
177.6970769999999789
20
-74.8163929999999908
11
177.753893000000005
21
-74.7048860000000019
0
LINE
8
BLACK
6
CONTINUOUS
10
177.753893000000005
20
-74.7048860000000019
11
177.8423860000000047
21
-74.6163930000000022
0
LINE
8
BLACK
6
CONTINUOUS
10
177.8423860000000047
20
-74.6163930000000022
11
177.9538929999999937
21
-74.5595769999999902
0
LINE
8
BLACK
6
CONTINUOUS
10
177.9538929999999937
20
-74.5595769999999902
11
178.0774999999999864
21
-74.539999999999992
0
LINE
8
BLACK
6
CONTINUOUS
10
178.0774999999999864
20
-74.539999999999992
11
179.2775000000000034
21
-74.539999999999992
0
LINE
8
BLACK
6
CONTINUOUS
10
179.2775000000000034
20
-74.539999999999992
11
179.4011069999999961
21
-74.5595769999999902
0
LINE
8
BLACK
6
CONTINUOUS
10
183.4011069999999961
20
-74.5595769999999902
11
183.512613999999985
21
-74.6163930000000022
0
LINE
8
BLACK
6
CONTINUOUS
10
183.512613999999985
20
-74.6163930000000022
11
183.6011069999999847
21
-74.7048860000000019
0
LINE
8
BLACK
6
CONTINUOUS
10
183.6011069999999847
20
-74.7048860000000019
11
183.6579229999999825
21
-74.8163929999999908
0
LINE
8
BLACK
6
CONTINUOUS
10
183.6579229999999825
20
-74.8163929999999908
11
183.6774999999999807
21
-74.9399999999999977
0
LINE
8
BLACK
6
CONTINUOUS
10
183.6774999999999807
20
-74.9399999999999977
11
183.6774999999999807
21
-78.1400000000000006
0
LINE
8
BLACK
6
CONTINUOUS
10
183.6774999999999807
20
-78.1400000000000006
11
183.6579229999999825
21
-78.2636069999999933
0
LINE
8
BLACK
6
CONTINUOUS
10
183.6579229999999825
20
-78.2636069999999933
11
183.6011069999999847
21
-78.3751139999999964
0
LINE
8
BLACK
6
CONTINUOUS
10
183.6011069999999847
20
-78.3751139999999964
11
183.512613999999985
21
-78.4636069999999961
0
LINE
8
BLACK
6
CONTINUOUS
10
183.512613999999985
20
-78.4636069999999961
11
183.4011069999999961
21
-78.5204229999999939
0
LINE
8
BLACK
6
CONTINUOUS
10
183.4011069999999961
20
-78.5204229999999939
11
183.2775000000000034
21
-78.539999999999992
0
LINE
8
BLACK
6
CONTINUOUS
10
183.2775000000000034
20
-78.539999999999992
11
182.0774999999999864
21
-78.539999999999992
0
LINE
8
BLACK
6
CONTINUOUS
10
182.0774999999999864
20
-78.539999999999992
11
181.9538929999999937
21
-78.5204229999999939
0
LINE
8
BLACK
6
CONTINUOUS
10
181.9538929999999937
20
-78.5204229999999939
11
181.8423860000000047
21
-78.4636069999999961
0
LINE
8
BLACK
6
CONTINUOUS
10
181.8423860000000047
20
-78.4636069999999961
11
181.753893000000005
21
-78.3751139999999964
0
LINE
8
BLACK
6
CONTINUOUS
10
181.753893000000005
20
-78.3751139999999964
11
181.6970769999999789
21
-78.2636069999999933
0
LINE
8
BLACK
6
CONTINUOUS
10
181.6970769999999789
20
-78.2636069999999933
11
181.6774999999999807
21
-78.1400000000000006
0
LINE
8
BLACK
6
CONTINUOUS
10
181.6774999999999807
20
-78.1400000000000006
11
181.6774999999999807
21
-74.9399999999999977
0
LINE
8
BLACK
6
CONTINUOUS
10
181.6774999999999807
20
-74.9399999999999977
11
181.6970769999999789
21
-74.8163929999999908
0
LINE
8
BLACK
6
CONTINUOUS
10
181.6970769999999789
20
-74.8163929999999908
11
181.753893000000005
21
-74.7048860000000019
0
LINE
8
BLACK
6
CONTINUOUS
10
181.753893000000005
20
-74.7048860000000019
11
181.8423860000000047
21
-74.6163930000000022
0
LINE
8
BLACK
6
CONTINUOUS
10
181.8423860000000047
20
-74.6163930000000022
11
181.9538929999999937
21
-74.5595769999999902
0
LINE
8
BLACK
6
CONTINUOUS
10
181.9538929999999937
20
-74.5595769999999902
11
182.0774999999999864
21
-74.539999999999992
0
LINE
8
BLACK
6
CONTINUOUS
10
182.0774999999999864
20
-74.539999999999992
11
183.2775000000000034
21
-74.539999999999992
0
LINE
8
BLACK
6
CONTINUOUS
10
183.2775000000000034
20
-74.539999999999992
11
183.4011069999999961
21
-74.5595769999999902
  0
ENDSEC
  0
EOF
