  0
SECTION
  2
HEADER
  9
$ANGBASE
  50
0.0
  9
$ANGDIR
  70
1
  9
$MEASUREMENT
  70
1
  0
ENDSEC
  0
SECTION
  2
TABLES
  0
TABLE
  2
LTYPE
  70
4
  0
LTYPE
  5
40F
  2
CONTINUOUS
  70
0
  3
Solid line
  72
65
  73
0
  40
0.0
  0
LTYPE
  5
410
  2
DASHDOT
 70
0
  3
Dash Dot ____ _ ____ _
 72
65
 73
4
 40
2.0
 49
1.25
 49
-0.25
 49
0.25
 49
-0.25
  0
LTYPE
  5
411
  2
DASHED
 70
0
  3
Dashed __ __ __ __ __
 72
65
 73
2
 40
0.75
 49
0.5
 49
-0.25
  0
LTYPE
  5
43B
  2
DOTTED
 70
0
  3
Dotted .  .  .  .
 72
65
 73
2
 40
0.2
 49
0.0
 49
-0.2
  0
ENDTAB
  0
TABLE
  2
STYLE
  70
4
  0
STYLE
  2
KICAD
  70
0
  40
0
  41
1
  42
1
  50
0
  71
0
  3
isocp.shx
  0
STYLE
  2
KICADB
  70
0
  40
0
  41
1
  42
1
  50
0
  71
0
  3
isocp.shx
  0
STYLE
  2
KICADI
  70
0
  40
0
  41
1
  42
1
  50
15
  71
0
  3
isocp.shx
  0
STYLE
  2
KICADBI
  70
0
  40
0
  41
1
  42
1
  50
15
  71
0
  3
isocp.shx
  0
ENDTAB
  0
TABLE
  2
LAYER
  70
1
  0
LAYER
  2
BLACK
  70
0
  62
7
  6
CONTINUOUS
  0
ENDTAB
  0
ENDSEC
  0
SECTION
  2
ENTITIES
0
LINE
8
BLACK
6
CONTINUOUS
10
140.9716880000000003
20
-110.5060369999999921
11
141.1566689999999937
21
-110.5776989999999955
0
LINE
8
BLACK
6
CONTINUOUS
10
141.1566689999999937
20
-110.5776989999999955
11
141.3253320000000031
21
-110.6821309999999983
0
LINE
8
BLACK
6
CONTINUOUS
10
141.3253320000000031
20
-110.6821309999999983
11
141.471935000000002
21
-110.8157769999999971
0
LINE
8
BLACK
6
CONTINUOUS
10
141.471935000000002
20
-110.8157769999999971
11
141.5914829999999824
21
-110.9740849999999881
0
LINE
8
BLACK
6
CONTINUOUS
10
141.5914829999999824
20
-110.9740849999999881
11
141.6799079999999833
21
-111.1516649999999942
0
LINE
8
BLACK
6
CONTINUOUS
10
141.6799079999999833
20
-111.1516649999999942
11
141.7341959999999972
21
-111.3424689999999941
0
LINE
8
BLACK
6
CONTINUOUS
10
141.7341959999999972
20
-111.3424689999999941
11
141.7524999999999977
21
-111.539999999999992
0
LINE
8
BLACK
6
CONTINUOUS
10
141.7524999999999977
20
-111.539999999999992
11
141.7341959999999972
21
-111.7375309999999899
0
LINE
8
BLACK
6
CONTINUOUS
10
141.7341959999999972
20
-111.7375309999999899
11
141.6799079999999833
21
-111.9283349999999899
0
LINE
8
BLACK
6
CONTINUOUS
10
141.6799079999999833
20
-111.9283349999999899
11
141.5914829999999824
21
-112.105914999999996
0
LINE
8
BLACK
6
CONTINUOUS
10
141.5914829999999824
20
-112.105914999999996
11
141.471935000000002
21
-112.2642230000000012
0
LINE
8
BLACK
6
CONTINUOUS
10
141.471935000000002
20
-112.2642230000000012
11
141.3253320000000031
21
-112.397869
0
LINE
8
BLACK
6
CONTINUOUS
10
141.3253320000000031
20
-112.397869
11
141.1566689999999937
21
-112.5023009999999886
0
LINE
8
BLACK
6
CONTINUOUS
10
141.1566689999999937
20
-112.5023009999999886
11
140.9716880000000003
21
-112.573962999999992
0
LINE
8
BLACK
6
CONTINUOUS
10
140.9716880000000003
20
-112.573962999999992
11
140.7766880000000072
21
-112.6104139999999916
0
LINE
8
BLACK
6
CONTINUOUS
10
140.7766880000000072
20
-112.6104139999999916
11
140.5783119999999826
21
-112.6104139999999916
0
LINE
8
BLACK
6
CONTINUOUS
10
140.5783119999999826
20
-112.6104139999999916
11
140.3833119999999894
21
-112.573962999999992
0
LINE
8
BLACK
6
CONTINUOUS
10
140.3833119999999894
20
-112.573962999999992
11
140.198330999999996
21
-112.5023009999999886
0
LINE
8
BLACK
6
CONTINUOUS
10
140.198330999999996
20
-112.5023009999999886
11
140.0296679999999867
21
-112.397869
0
LINE
8
BLACK
6
CONTINUOUS
10
140.0296679999999867
20
-112.397869
11
139.8830649999999878
21
-112.2642230000000012
0
LINE
8
BLACK
6
CONTINUOUS
10
139.8830649999999878
20
-112.2642230000000012
11
139.7635170000000073
21
-112.105914999999996
0
LINE
8
BLACK
6
CONTINUOUS
10
139.7635170000000073
20
-112.105914999999996
11
139.6750920000000065
21
-111.9283349999999899
0
LINE
8
BLACK
6
CONTINUOUS
10
139.6750920000000065
20
-111.9283349999999899
11
139.6208039999999926
21
-111.7375309999999899
0
LINE
8
BLACK
6
CONTINUOUS
10
139.6208039999999926
20
-111.7375309999999899
11
139.602499999999992
21
-111.539999999999992
0
LINE
8
BLACK
6
CONTINUOUS
10
139.602499999999992
20
-111.539999999999992
11
139.6208039999999926
21
-111.3424689999999941
0
LINE
8
BLACK
6
CONTINUOUS
10
139.6208039999999926
20
-111.3424689999999941
11
139.6750920000000065
21
-111.1516649999999942
0
LINE
8
BLACK
6
CONTINUOUS
10
139.6750920000000065
20
-111.1516649999999942
11
139.7635170000000073
21
-110.9740849999999881
0
LINE
8
BLACK
6
CONTINUOUS
10
139.7635170000000073
20
-110.9740849999999881
11
139.8830649999999878
21
-110.8157769999999971
0
LINE
8
BLACK
6
CONTINUOUS
10
139.8830649999999878
20
-110.8157769999999971
11
140.0296679999999867
21
-110.6821309999999983
0
LINE
8
BLACK
6
CONTINUOUS
10
140.0296679999999867
20
-110.6821309999999983
11
140.198330999999996
21
-110.5776989999999955
0
LINE
8
BLACK
6
CONTINUOUS
10
140.198330999999996
20
-110.5776989999999955
11
140.3833119999999894
21
-110.5060369999999921
0
LINE
8
BLACK
6
CONTINUOUS
10
140.3833119999999894
20
-110.5060369999999921
11
140.5783119999999826
21
-110.4695859999999925
0
LINE
8
BLACK
6
CONTINUOUS
10
140.5783119999999826
20
-110.4695859999999925
11
140.7766880000000072
21
-110.4695859999999925
0
LINE
8
BLACK
6
CONTINUOUS
10
140.7766880000000072
20
-110.4695859999999925
11
140.9716880000000003
21
-110.5060369999999921
0
LINE
8
BLACK
6
CONTINUOUS
10
139.7677300000000002
20
-111.7333780000000019
11
139.8278159999999843
21
-111.918303999999992
0
LINE
8
BLACK
6
CONTINUOUS
10
139.8278159999999843
20
-111.918303999999992
11
139.9250370000000032
21
-112.0866959999999892
0
LINE
8
BLACK
6
CONTINUOUS
10
139.9250370000000032
20
-112.0866959999999892
11
140.0551449999999818
21
-112.2311949999999996
0
LINE
8
BLACK
6
CONTINUOUS
10
140.0551449999999818
20
-112.2311949999999996
11
140.2124519999999848
21
-112.345485999999994
0
LINE
8
BLACK
6
CONTINUOUS
10
140.2124519999999848
20
-112.345485999999994
11
140.3900849999999991
21
-112.4245729999999952
0
LINE
8
BLACK
6
CONTINUOUS
10
140.3900849999999991
20
-112.4245729999999952
11
140.5802789999999902
21
-112.4649999999999892
0
LINE
8
BLACK
6
CONTINUOUS
10
140.5802789999999902
20
-112.4649999999999892
11
140.7747209999999995
21
-112.4649999999999892
0
LINE
8
BLACK
6
CONTINUOUS
10
140.7747209999999995
20
-112.4649999999999892
11
140.9649149999999906
21
-112.4245729999999952
0
LINE
8
BLACK
6
CONTINUOUS
10
140.9649149999999906
20
-112.4245729999999952
11
141.142548000000005
21
-112.345485999999994
0
LINE
8
BLACK
6
CONTINUOUS
10
141.142548000000005
20
-112.345485999999994
11
141.2998549999999796
21
-112.2311949999999996
0
LINE
8
BLACK
6
CONTINUOUS
10
141.2998549999999796
20
-112.2311949999999996
11
141.4299629999999866
21
-112.0866959999999892
0
LINE
8
BLACK
6
CONTINUOUS
10
141.4299629999999866
20
-112.0866959999999892
11
141.5271840000000054
21
-111.918303999999992
0
LINE
8
BLACK
6
CONTINUOUS
10
141.5271840000000054
20
-111.918303999999992
11
141.5872699999999895
21
-111.7333780000000019
0
LINE
8
BLACK
6
CONTINUOUS
10
141.5872699999999895
20
-111.7333780000000019
11
141.6075950000000034
21
-111.539999999999992
0
LINE
8
BLACK
6
CONTINUOUS
10
141.6075950000000034
20
-111.539999999999992
11
141.5872699999999895
21
-111.3466219999999964
0
LINE
8
BLACK
6
CONTINUOUS
10
141.5872699999999895
20
-111.3466219999999964
11
141.5271840000000054
21
-111.1616959999999921
0
LINE
8
BLACK
6
CONTINUOUS
10
141.5271840000000054
20
-111.1616959999999921
11
141.4299629999999866
21
-110.9933039999999949
0
LINE
8
BLACK
6
CONTINUOUS
10
141.4299629999999866
20
-110.9933039999999949
11
141.2998549999999796
21
-110.8488049999999987
0
LINE
8
BLACK
6
CONTINUOUS
10
141.2998549999999796
20
-110.8488049999999987
11
141.142548000000005
21
-110.7345139999999901
0
LINE
8
BLACK
6
CONTINUOUS
10
141.142548000000005
20
-110.7345139999999901
11
140.9649149999999906
21
-110.6554269999999889
0
LINE
8
BLACK
6
CONTINUOUS
10
140.9649149999999906
20
-110.6554269999999889
11
140.7747209999999995
21
-110.6149999999999949
0
LINE
8
BLACK
6
CONTINUOUS
10
140.7747209999999995
20
-110.6149999999999949
11
140.5802789999999902
21
-110.6149999999999949
0
LINE
8
BLACK
6
CONTINUOUS
10
140.5802789999999902
20
-110.6149999999999949
11
140.3900849999999991
21
-110.6554269999999889
0
LINE
8
BLACK
6
CONTINUOUS
10
140.3900849999999991
20
-110.6554269999999889
11
140.2124529999999822
21
-110.7345139999999901
0
LINE
8
BLACK
6
CONTINUOUS
10
140.2124529999999822
20
-110.7345139999999901
11
140.0551449999999818
21
-110.8488049999999987
0
LINE
8
BLACK
6
CONTINUOUS
10
140.0551449999999818
20
-110.8488049999999987
11
139.9250370000000032
21
-110.9933039999999949
0
LINE
8
BLACK
6
CONTINUOUS
10
139.9250370000000032
20
-110.9933039999999949
11
139.8278159999999843
21
-111.1616959999999921
0
LINE
8
BLACK
6
CONTINUOUS
10
139.8278159999999843
20
-111.1616959999999921
11
139.7677300000000002
21
-111.3466219999999964
0
LINE
8
BLACK
6
CONTINUOUS
10
139.7677300000000002
20
-111.3466219999999964
11
139.7474049999999863
21
-111.539999999999992
0
LINE
8
BLACK
6
CONTINUOUS
10
139.7474049999999863
20
-111.539999999999992
11
139.7677300000000002
21
-111.7333780000000019
0
LINE
8
BLACK
6
CONTINUOUS
10
170.9716880000000003
20
-110.5060369999999921
11
171.1566689999999937
21
-110.5776989999999955
0
LINE
8
BLACK
6
CONTINUOUS
10
171.1566689999999937
20
-110.5776989999999955
11
171.3253320000000031
21
-110.6821309999999983
0
LINE
8
BLACK
6
CONTINUOUS
10
171.3253320000000031
20
-110.6821309999999983
11
171.471935000000002
21
-110.8157769999999971
0
LINE
8
BLACK
6
CONTINUOUS
10
171.471935000000002
20
-110.8157769999999971
11
171.5914829999999824
21
-110.9740849999999881
0
LINE
8
BLACK
6
CONTINUOUS
10
171.5914829999999824
20
-110.9740849999999881
11
171.6799079999999833
21
-111.1516649999999942
0
LINE
8
BLACK
6
CONTINUOUS
10
171.6799079999999833
20
-111.1516649999999942
11
171.7341959999999972
21
-111.3424689999999941
0
LINE
8
BLACK
6
CONTINUOUS
10
171.7341959999999972
20
-111.3424689999999941
11
171.7524999999999977
21
-111.539999999999992
0
LINE
8
BLACK
6
CONTINUOUS
10
171.7524999999999977
20
-111.539999999999992
11
171.7341959999999972
21
-111.7375309999999899
0
LINE
8
BLACK
6
CONTINUOUS
10
171.7341959999999972
20
-111.7375309999999899
11
171.6799079999999833
21
-111.9283349999999899
0
LINE
8
BLACK
6
CONTINUOUS
10
171.6799079999999833
20
-111.9283349999999899
11
171.5914829999999824
21
-112.105914999999996
0
LINE
8
BLACK
6
CONTINUOUS
10
171.5914829999999824
20
-112.105914999999996
11
171.471935000000002
21
-112.2642230000000012
0
LINE
8
BLACK
6
CONTINUOUS
10
171.471935000000002
20
-112.2642230000000012
11
171.3253320000000031
21
-112.397869
0
LINE
8
BLACK
6
CONTINUOUS
10
171.3253320000000031
20
-112.397869
11
171.1566689999999937
21
-112.5023009999999886
0
LINE
8
BLACK
6
CONTINUOUS
10
171.1566689999999937
20
-112.5023009999999886
11
170.9716880000000003
21
-112.573962999999992
0
LINE
8
BLACK
6
CONTINUOUS
10
170.9716880000000003
20
-112.573962999999992
11
170.7766879999999787
21
-112.6104139999999916
0
LINE
8
BLACK
6
CONTINUOUS
10
170.7766879999999787
20
-112.6104139999999916
11
170.5783119999999826
21
-112.6104139999999916
0
LINE
8
BLACK
6
CONTINUOUS
10
170.5783119999999826
20
-112.6104139999999916
11
170.3833119999999894
21
-112.573962999999992
0
LINE
8
BLACK
6
CONTINUOUS
10
170.3833119999999894
20
-112.573962999999992
11
170.198330999999996
21
-112.5023009999999886
0
LINE
8
BLACK
6
CONTINUOUS
10
170.198330999999996
20
-112.5023009999999886
11
170.0296679999999867
21
-112.397869
0
LINE
8
BLACK
6
CONTINUOUS
10
170.0296679999999867
20
-112.397869
11
169.8830649999999878
21
-112.2642230000000012
0
LINE
8
BLACK
6
CONTINUOUS
10
169.8830649999999878
20
-112.2642230000000012
11
169.7635169999999789
21
-112.105914999999996
0
LINE
8
BLACK
6
CONTINUOUS
10
169.7635169999999789
20
-112.105914999999996
11
169.6750920000000065
21
-111.9283349999999899
0
LINE
8
BLACK
6
CONTINUOUS
10
169.6750920000000065
20
-111.9283349999999899
11
169.6208039999999926
21
-111.7375309999999899
0
LINE
8
BLACK
6
CONTINUOUS
10
169.6208039999999926
20
-111.7375309999999899
11
169.602499999999992
21
-111.539999999999992
0
LINE
8
BLACK
6
CONTINUOUS
10
169.602499999999992
20
-111.539999999999992
11
169.6208039999999926
21
-111.3424689999999941
0
LINE
8
BLACK
6
CONTINUOUS
10
169.6208039999999926
20
-111.3424689999999941
11
169.6750920000000065
21
-111.1516649999999942
0
LINE
8
BLACK
6
CONTINUOUS
10
169.6750920000000065
20
-111.1516649999999942
11
169.7635169999999789
21
-110.9740849999999881
0
LINE
8
BLACK
6
CONTINUOUS
10
169.7635169999999789
20
-110.9740849999999881
11
169.8830649999999878
21
-110.8157769999999971
0
LINE
8
BLACK
6
CONTINUOUS
10
169.8830649999999878
20
-110.8157769999999971
11
170.0296679999999867
21
-110.6821309999999983
0
LINE
8
BLACK
6
CONTINUOUS
10
170.0296679999999867
20
-110.6821309999999983
11
170.198330999999996
21
-110.5776989999999955
0
LINE
8
BLACK
6
CONTINUOUS
10
170.198330999999996
20
-110.5776989999999955
11
170.3833119999999894
21
-110.5060369999999921
0
LINE
8
BLACK
6
CONTINUOUS
10
170.3833119999999894
20
-110.5060369999999921
11
170.5783119999999826
21
-110.4695859999999925
0
LINE
8
BLACK
6
CONTINUOUS
10
170.5783119999999826
20
-110.4695859999999925
11
170.7766879999999787
21
-110.4695859999999925
0
LINE
8
BLACK
6
CONTINUOUS
10
170.7766879999999787
20
-110.4695859999999925
11
170.9716880000000003
21
-110.5060369999999921
0
LINE
8
BLACK
6
CONTINUOUS
10
169.7677300000000002
20
-111.7333780000000019
11
169.8278159999999843
21
-111.918303999999992
0
LINE
8
BLACK
6
CONTINUOUS
10
169.8278159999999843
20
-111.918303999999992
11
169.9250370000000032
21
-112.0866959999999892
0
LINE
8
BLACK
6
CONTINUOUS
10
169.9250370000000032
20
-112.0866959999999892
11
170.0551449999999818
21
-112.2311949999999996
0
LINE
8
BLACK
6
CONTINUOUS
10
170.0551449999999818
20
-112.2311949999999996
11
170.2124519999999848
21
-112.345485999999994
0
LINE
8
BLACK
6
CONTINUOUS
10
170.2124519999999848
20
-112.345485999999994
11
170.3900849999999991
21
-112.4245729999999952
0
LINE
8
BLACK
6
CONTINUOUS
10
170.3900849999999991
20
-112.4245729999999952
11
170.5802789999999902
21
-112.4649999999999892
0
LINE
8
BLACK
6
CONTINUOUS
10
170.5802789999999902
20
-112.4649999999999892
11
170.7747209999999995
21
-112.4649999999999892
0
LINE
8
BLACK
6
CONTINUOUS
10
170.7747209999999995
20
-112.4649999999999892
11
170.9649149999999906
21
-112.4245729999999952
0
LINE
8
BLACK
6
CONTINUOUS
10
170.9649149999999906
20
-112.4245729999999952
11
171.142548000000005
21
-112.345485999999994
0
LINE
8
BLACK
6
CONTINUOUS
10
171.142548000000005
20
-112.345485999999994
11
171.2998549999999796
21
-112.2311949999999996
0
LINE
8
BLACK
6
CONTINUOUS
10
171.2998549999999796
20
-112.2311949999999996
11
171.4299629999999866
21
-112.0866959999999892
0
LINE
8
BLACK
6
CONTINUOUS
10
171.4299629999999866
20
-112.0866959999999892
11
171.5271840000000054
21
-111.918303999999992
0
LINE
8
BLACK
6
CONTINUOUS
10
171.5271840000000054
20
-111.918303999999992
11
171.5872699999999895
21
-111.7333780000000019
0
LINE
8
BLACK
6
CONTINUOUS
10
171.5872699999999895
20
-111.7333780000000019
11
171.6075950000000034
21
-111.539999999999992
0
LINE
8
BLACK
6
CONTINUOUS
10
171.6075950000000034
20
-111.539999999999992
11
171.5872699999999895
21
-111.3466219999999964
0
LINE
8
BLACK
6
CONTINUOUS
10
171.5872699999999895
20
-111.3466219999999964
11
171.5271840000000054
21
-111.1616959999999921
0
LINE
8
BLACK
6
CONTINUOUS
10
171.5271840000000054
20
-111.1616959999999921
11
171.4299629999999866
21
-110.9933039999999949
0
LINE
8
BLACK
6
CONTINUOUS
10
171.4299629999999866
20
-110.9933039999999949
11
171.2998549999999796
21
-110.8488049999999987
0
LINE
8
BLACK
6
CONTINUOUS
10
171.2998549999999796
20
-110.8488049999999987
11
171.142548000000005
21
-110.7345139999999901
0
LINE
8
BLACK
6
CONTINUOUS
10
171.142548000000005
20
-110.7345139999999901
11
170.9649149999999906
21
-110.6554269999999889
0
LINE
8
BLACK
6
CONTINUOUS
10
170.9649149999999906
20
-110.6554269999999889
11
170.7747209999999995
21
-110.6149999999999949
0
LINE
8
BLACK
6
CONTINUOUS
10
170.7747209999999995
20
-110.6149999999999949
11
170.5802789999999902
21
-110.6149999999999949
0
LINE
8
BLACK
6
CONTINUOUS
10
170.5802789999999902
20
-110.6149999999999949
11
170.3900849999999991
21
-110.6554269999999889
0
LINE
8
BLACK
6
CONTINUOUS
10
170.3900849999999991
20
-110.6554269999999889
11
170.2124529999999822
21
-110.7345139999999901
0
LINE
8
BLACK
6
CONTINUOUS
10
170.2124529999999822
20
-110.7345139999999901
11
170.0551449999999818
21
-110.8488049999999987
0
LINE
8
BLACK
6
CONTINUOUS
10
170.0551449999999818
20
-110.8488049999999987
11
169.9250370000000032
21
-110.9933039999999949
0
LINE
8
BLACK
6
CONTINUOUS
10
169.9250370000000032
20
-110.9933039999999949
11
169.8278159999999843
21
-111.1616959999999921
0
LINE
8
BLACK
6
CONTINUOUS
10
169.8278159999999843
20
-111.1616959999999921
11
169.7677300000000002
21
-111.3466219999999964
0
LINE
8
BLACK
6
CONTINUOUS
10
169.7677300000000002
20
-111.3466219999999964
11
169.7474049999999863
21
-111.539999999999992
0
LINE
8
BLACK
6
CONTINUOUS
10
169.7474049999999863
20
-111.539999999999992
11
169.7677300000000002
21
-111.7333780000000019
0
LINE
8
BLACK
6
CONTINUOUS
10
125.9716880000000003
20
-85.5060369999999921
11
126.1566689999999937
21
-85.5776989999999955
0
LINE
8
BLACK
6
CONTINUOUS
10
126.1566689999999937
20
-85.5776989999999955
11
126.3253319999999889
21
-85.6821309999999983
0
LINE
8
BLACK
6
CONTINUOUS
10
126.3253319999999889
20
-85.6821309999999983
11
126.4719349999999878
21
-85.8157769999999971
0
LINE
8
BLACK
6
CONTINUOUS
10
126.4719349999999878
20
-85.8157769999999971
11
126.5914829999999967
21
-85.9740850000000023
0
LINE
8
BLACK
6
CONTINUOUS
10
126.5914829999999967
20
-85.9740850000000023
11
126.6799079999999975
21
-86.1516649999999942
0
LINE
8
BLACK
6
CONTINUOUS
10
126.6799079999999975
20
-86.1516649999999942
11
126.7341959999999972
21
-86.3424689999999941
0
LINE
8
BLACK
6
CONTINUOUS
10
126.7341959999999972
20
-86.3424689999999941
11
126.7524999999999977
21
-86.539999999999992
0
LINE
8
BLACK
6
CONTINUOUS
10
126.7524999999999977
20
-86.539999999999992
11
126.7341959999999972
21
-86.7375309999999899
0
LINE
8
BLACK
6
CONTINUOUS
10
126.7341959999999972
20
-86.7375309999999899
11
126.6799079999999975
21
-86.9283349999999899
0
LINE
8
BLACK
6
CONTINUOUS
10
126.6799079999999975
20
-86.9283349999999899
11
126.5914829999999967
21
-87.105914999999996
0
LINE
8
BLACK
6
CONTINUOUS
10
126.5914829999999967
20
-87.105914999999996
11
126.4719349999999878
21
-87.2642230000000012
0
LINE
8
BLACK
6
CONTINUOUS
10
126.4719349999999878
20
-87.2642230000000012
11
126.3253319999999889
21
-87.397869
0
LINE
8
BLACK
6
CONTINUOUS
10
126.3253319999999889
20
-87.397869
11
126.1566689999999937
21
-87.5023010000000028
0
LINE
8
BLACK
6
CONTINUOUS
10
126.1566689999999937
20
-87.5023010000000028
11
125.9716880000000003
21
-87.573962999999992
0
LINE
8
BLACK
6
CONTINUOUS
10
125.9716880000000003
20
-87.573962999999992
11
125.7766879999999929
21
-87.6104139999999916
0
LINE
8
BLACK
6
CONTINUOUS
10
125.7766879999999929
20
-87.6104139999999916
11
125.5783119999999968
21
-87.6104139999999916
0
LINE
8
BLACK
6
CONTINUOUS
10
125.5783119999999968
20
-87.6104139999999916
11
125.3833119999999894
21
-87.573962999999992
0
LINE
8
BLACK
6
CONTINUOUS
10
125.3833119999999894
20
-87.573962999999992
11
125.198330999999996
21
-87.5023010000000028
0
LINE
8
BLACK
6
CONTINUOUS
10
125.198330999999996
20
-87.5023010000000028
11
125.0296680000000009
21
-87.397869
0
LINE
8
BLACK
6
CONTINUOUS
10
125.0296680000000009
20
-87.397869
11
124.8830649999999878
21
-87.2642230000000012
0
LINE
8
BLACK
6
CONTINUOUS
10
124.8830649999999878
20
-87.2642230000000012
11
124.7635169999999931
21
-87.105914999999996
0
LINE
8
BLACK
6
CONTINUOUS
10
124.7635169999999931
20
-87.105914999999996
11
124.6750919999999923
21
-86.9283349999999899
0
LINE
8
BLACK
6
CONTINUOUS
10
124.6750919999999923
20
-86.9283349999999899
11
124.6208039999999926
21
-86.7375309999999899
0
LINE
8
BLACK
6
CONTINUOUS
10
124.6208039999999926
20
-86.7375309999999899
11
124.602499999999992
21
-86.539999999999992
0
LINE
8
BLACK
6
CONTINUOUS
10
124.602499999999992
20
-86.539999999999992
11
124.6208039999999926
21
-86.3424689999999941
0
LINE
8
BLACK
6
CONTINUOUS
10
124.6208039999999926
20
-86.3424689999999941
11
124.6750919999999923
21
-86.1516649999999942
0
LINE
8
BLACK
6
CONTINUOUS
10
124.6750919999999923
20
-86.1516649999999942
11
124.7635169999999931
21
-85.9740850000000023
0
LINE
8
BLACK
6
CONTINUOUS
10
124.7635169999999931
20
-85.9740850000000023
11
124.8830649999999878
21
-85.8157769999999971
0
LINE
8
BLACK
6
CONTINUOUS
10
124.8830649999999878
20
-85.8157769999999971
11
125.0296680000000009
21
-85.6821309999999983
0
LINE
8
BLACK
6
CONTINUOUS
10
125.0296680000000009
20
-85.6821309999999983
11
125.198330999999996
21
-85.5776989999999955
0
LINE
8
BLACK
6
CONTINUOUS
10
125.198330999999996
20
-85.5776989999999955
11
125.3833119999999894
21
-85.5060369999999921
0
LINE
8
BLACK
6
CONTINUOUS
10
125.3833119999999894
20
-85.5060369999999921
11
125.5783119999999968
21
-85.4695859999999925
0
LINE
8
BLACK
6
CONTINUOUS
10
125.5783119999999968
20
-85.4695859999999925
11
125.7766879999999929
21
-85.4695859999999925
0
LINE
8
BLACK
6
CONTINUOUS
10
125.7766879999999929
20
-85.4695859999999925
11
125.9716880000000003
21
-85.5060369999999921
0
LINE
8
BLACK
6
CONTINUOUS
10
124.7677300000000002
20
-86.7333780000000019
11
124.8278159999999986
21
-86.918303999999992
0
LINE
8
BLACK
6
CONTINUOUS
10
124.8278159999999986
20
-86.918303999999992
11
124.925036999999989
21
-87.0866959999999892
0
LINE
8
BLACK
6
CONTINUOUS
10
124.925036999999989
20
-87.0866959999999892
11
125.055144999999996
21
-87.2311949999999996
0
LINE
8
BLACK
6
CONTINUOUS
10
125.055144999999996
20
-87.2311949999999996
11
125.212451999999999
21
-87.345485999999994
0
LINE
8
BLACK
6
CONTINUOUS
10
125.212451999999999
20
-87.345485999999994
11
125.3900849999999991
21
-87.4245729999999952
0
LINE
8
BLACK
6
CONTINUOUS
10
125.3900849999999991
20
-87.4245729999999952
11
125.5802789999999902
21
-87.4649999999999892
0
LINE
8
BLACK
6
CONTINUOUS
10
125.5802789999999902
20
-87.4649999999999892
11
125.7747209999999995
21
-87.4649999999999892
0
LINE
8
BLACK
6
CONTINUOUS
10
125.7747209999999995
20
-87.4649999999999892
11
125.9649149999999906
21
-87.4245729999999952
0
LINE
8
BLACK
6
CONTINUOUS
10
125.9649149999999906
20
-87.4245729999999952
11
126.1425479999999908
21
-87.345485999999994
0
LINE
8
BLACK
6
CONTINUOUS
10
126.1425479999999908
20
-87.345485999999994
11
126.2998549999999938
21
-87.2311949999999996
0
LINE
8
BLACK
6
CONTINUOUS
10
126.2998549999999938
20
-87.2311949999999996
11
126.4299630000000008
21
-87.0866959999999892
0
LINE
8
BLACK
6
CONTINUOUS
10
126.4299630000000008
20
-87.0866959999999892
11
126.5271839999999912
21
-86.918303999999992
0
LINE
8
BLACK
6
CONTINUOUS
10
126.5271839999999912
20
-86.918303999999992
11
126.5872699999999895
21
-86.7333780000000019
0
LINE
8
BLACK
6
CONTINUOUS
10
126.5872699999999895
20
-86.7333780000000019
11
126.6075949999999892
21
-86.539999999999992
0
LINE
8
BLACK
6
CONTINUOUS
10
126.6075949999999892
20
-86.539999999999992
11
126.5872699999999895
21
-86.3466219999999964
0
LINE
8
BLACK
6
CONTINUOUS
10
126.5872699999999895
20
-86.3466219999999964
11
126.5271839999999912
21
-86.1616959999999921
0
LINE
8
BLACK
6
CONTINUOUS
10
126.5271839999999912
20
-86.1616959999999921
11
126.4299630000000008
21
-85.9933039999999949
0
LINE
8
BLACK
6
CONTINUOUS
10
126.4299630000000008
20
-85.9933039999999949
11
126.2998549999999938
21
-85.8488049999999987
0
LINE
8
BLACK
6
CONTINUOUS
10
126.2998549999999938
20
-85.8488049999999987
11
126.1425479999999908
21
-85.7345139999999901
0
LINE
8
BLACK
6
CONTINUOUS
10
126.1425479999999908
20
-85.7345139999999901
11
125.9649149999999906
21
-85.6554270000000031
0
LINE
8
BLACK
6
CONTINUOUS
10
125.9649149999999906
20
-85.6554270000000031
11
125.7747209999999995
21
-85.6149999999999949
0
LINE
8
BLACK
6
CONTINUOUS
10
125.7747209999999995
20
-85.6149999999999949
11
125.5802789999999902
21
-85.6149999999999949
0
LINE
8
BLACK
6
CONTINUOUS
10
125.5802789999999902
20
-85.6149999999999949
11
125.3900849999999991
21
-85.6554270000000031
0
LINE
8
BLACK
6
CONTINUOUS
10
125.3900849999999991
20
-85.6554270000000031
11
125.2124529999999965
21
-85.7345139999999901
0
LINE
8
BLACK
6
CONTINUOUS
10
125.2124529999999965
20
-85.7345139999999901
11
125.055144999999996
21
-85.8488049999999987
0
LINE
8
BLACK
6
CONTINUOUS
10
125.055144999999996
20
-85.8488049999999987
11
124.925036999999989
21
-85.9933039999999949
0
LINE
8
BLACK
6
CONTINUOUS
10
124.925036999999989
20
-85.9933039999999949
11
124.8278159999999986
21
-86.1616959999999921
0
LINE
8
BLACK
6
CONTINUOUS
10
124.8278159999999986
20
-86.1616959999999921
11
124.7677300000000002
21
-86.3466219999999964
0
LINE
8
BLACK
6
CONTINUOUS
10
124.7677300000000002
20
-86.3466219999999964
11
124.7474050000000005
21
-86.539999999999992
0
LINE
8
BLACK
6
CONTINUOUS
10
124.7474050000000005
20
-86.539999999999992
11
124.7677300000000002
21
-86.7333780000000019
0
LINE
8
BLACK
6
CONTINUOUS
10
185.9716880000000003
20
-85.5060369999999921
11
186.1566689999999937
21
-85.5776989999999955
0
LINE
8
BLACK
6
CONTINUOUS
10
186.1566689999999937
20
-85.5776989999999955
11
186.3253320000000031
21
-85.6821309999999983
0
LINE
8
BLACK
6
CONTINUOUS
10
186.3253320000000031
20
-85.6821309999999983
11
186.471935000000002
21
-85.8157769999999971
0
LINE
8
BLACK
6
CONTINUOUS
10
186.471935000000002
20
-85.8157769999999971
11
186.5914829999999824
21
-85.9740850000000023
0
LINE
8
BLACK
6
CONTINUOUS
10
186.5914829999999824
20
-85.9740850000000023
11
186.6799079999999833
21
-86.1516649999999942
0
LINE
8
BLACK
6
CONTINUOUS
10
186.6799079999999833
20
-86.1516649999999942
11
186.7341959999999972
21
-86.3424689999999941
0
LINE
8
BLACK
6
CONTINUOUS
10
186.7341959999999972
20
-86.3424689999999941
11
186.7524999999999977
21
-86.539999999999992
0
LINE
8
BLACK
6
CONTINUOUS
10
186.7524999999999977
20
-86.539999999999992
11
186.7341959999999972
21
-86.7375309999999899
0
LINE
8
BLACK
6
CONTINUOUS
10
186.7341959999999972
20
-86.7375309999999899
11
186.6799079999999833
21
-86.9283349999999899
0
LINE
8
BLACK
6
CONTINUOUS
10
186.6799079999999833
20
-86.9283349999999899
11
186.5914829999999824
21
-87.105914999999996
0
LINE
8
BLACK
6
CONTINUOUS
10
186.5914829999999824
20
-87.105914999999996
11
186.471935000000002
21
-87.2642230000000012
0
LINE
8
BLACK
6
CONTINUOUS
10
186.471935000000002
20
-87.2642230000000012
11
186.3253320000000031
21
-87.397869
0
LINE
8
BLACK
6
CONTINUOUS
10
186.3253320000000031
20
-87.397869
11
186.1566689999999937
21
-87.5023010000000028
0
LINE
8
BLACK
6
CONTINUOUS
10
186.1566689999999937
20
-87.5023010000000028
11
185.9716880000000003
21
-87.573962999999992
0
LINE
8
BLACK
6
CONTINUOUS
10
185.9716880000000003
20
-87.573962999999992
11
185.7766879999999787
21
-87.6104139999999916
0
LINE
8
BLACK
6
CONTINUOUS
10
185.7766879999999787
20
-87.6104139999999916
11
185.5783119999999826
21
-87.6104139999999916
0
LINE
8
BLACK
6
CONTINUOUS
10
185.5783119999999826
20
-87.6104139999999916
11
185.3833119999999894
21
-87.573962999999992
0
LINE
8
BLACK
6
CONTINUOUS
10
185.3833119999999894
20
-87.573962999999992
11
185.198330999999996
21
-87.5023010000000028
0
LINE
8
BLACK
6
CONTINUOUS
10
185.198330999999996
20
-87.5023010000000028
11
185.0296679999999867
21
-87.397869
0
LINE
8
BLACK
6
CONTINUOUS
10
185.0296679999999867
20
-87.397869
11
184.8830649999999878
21
-87.2642230000000012
0
LINE
8
BLACK
6
CONTINUOUS
10
184.8830649999999878
20
-87.2642230000000012
11
184.7635169999999789
21
-87.105914999999996
0
LINE
8
BLACK
6
CONTINUOUS
10
184.7635169999999789
20
-87.105914999999996
11
184.675091999999978
21
-86.9283349999999899
0
LINE
8
BLACK
6
CONTINUOUS
10
184.675091999999978
20
-86.9283349999999899
11
184.6208039999999926
21
-86.7375309999999899
0
LINE
8
BLACK
6
CONTINUOUS
10
184.6208039999999926
20
-86.7375309999999899
11
184.602499999999992
21
-86.539999999999992
0
LINE
8
BLACK
6
CONTINUOUS
10
184.602499999999992
20
-86.539999999999992
11
184.6208039999999926
21
-86.3424689999999941
0
LINE
8
BLACK
6
CONTINUOUS
10
184.6208039999999926
20
-86.3424689999999941
11
184.675091999999978
21
-86.1516649999999942
0
LINE
8
BLACK
6
CONTINUOUS
10
184.675091999999978
20
-86.1516649999999942
11
184.7635169999999789
21
-85.9740850000000023
0
LINE
8
BLACK
6
CONTINUOUS
10
184.7635169999999789
20
-85.9740850000000023
11
184.8830649999999878
21
-85.8157769999999971
0
LINE
8
BLACK
6
CONTINUOUS
10
184.8830649999999878
20
-85.8157769999999971
11
185.0296679999999867
21
-85.6821309999999983
0
LINE
8
BLACK
6
CONTINUOUS
10
185.0296679999999867
20
-85.6821309999999983
11
185.198330999999996
21
-85.5776989999999955
0
LINE
8
BLACK
6
CONTINUOUS
10
185.198330999999996
20
-85.5776989999999955
11
185.3833119999999894
21
-85.5060369999999921
0
LINE
8
BLACK
6
CONTINUOUS
10
185.3833119999999894
20
-85.5060369999999921
11
185.5783119999999826
21
-85.4695859999999925
0
LINE
8
BLACK
6
CONTINUOUS
10
185.5783119999999826
20
-85.4695859999999925
11
185.7766879999999787
21
-85.4695859999999925
0
LINE
8
BLACK
6
CONTINUOUS
10
185.7766879999999787
20
-85.4695859999999925
11
185.9716880000000003
21
-85.5060369999999921
0
LINE
8
BLACK
6
CONTINUOUS
10
184.7677300000000002
20
-86.7333780000000019
11
184.8278159999999843
21
-86.918303999999992
0
LINE
8
BLACK
6
CONTINUOUS
10
184.8278159999999843
20
-86.918303999999992
11
184.9250370000000032
21
-87.0866959999999892
0
LINE
8
BLACK
6
CONTINUOUS
10
184.9250370000000032
20
-87.0866959999999892
11
185.0551449999999818
21
-87.2311949999999996
0
LINE
8
BLACK
6
CONTINUOUS
10
185.0551449999999818
20
-87.2311949999999996
11
185.2124519999999848
21
-87.345485999999994
0
LINE
8
BLACK
6
CONTINUOUS
10
185.2124519999999848
20
-87.345485999999994
11
185.3900849999999991
21
-87.4245729999999952
0
LINE
8
BLACK
6
CONTINUOUS
10
185.3900849999999991
20
-87.4245729999999952
11
185.5802789999999902
21
-87.4649999999999892
0
LINE
8
BLACK
6
CONTINUOUS
10
185.5802789999999902
20
-87.4649999999999892
11
185.7747209999999995
21
-87.4649999999999892
0
LINE
8
BLACK
6
CONTINUOUS
10
185.7747209999999995
20
-87.4649999999999892
11
185.9649149999999906
21
-87.4245729999999952
0
LINE
8
BLACK
6
CONTINUOUS
10
185.9649149999999906
20
-87.4245729999999952
11
186.142548000000005
21
-87.345485999999994
0
LINE
8
BLACK
6
CONTINUOUS
10
186.142548000000005
20
-87.345485999999994
11
186.2998549999999796
21
-87.2311949999999996
0
LINE
8
BLACK
6
CONTINUOUS
10
186.2998549999999796
20
-87.2311949999999996
11
186.4299629999999866
21
-87.0866959999999892
0
LINE
8
BLACK
6
CONTINUOUS
10
186.4299629999999866
20
-87.0866959999999892
11
186.5271840000000054
21
-86.918303999999992
0
LINE
8
BLACK
6
CONTINUOUS
10
186.5271840000000054
20
-86.918303999999992
11
186.5872699999999895
21
-86.7333780000000019
0
LINE
8
BLACK
6
CONTINUOUS
10
186.5872699999999895
20
-86.7333780000000019
11
186.6075950000000034
21
-86.539999999999992
0
LINE
8
BLACK
6
CONTINUOUS
10
186.6075950000000034
20
-86.539999999999992
11
186.5872699999999895
21
-86.3466219999999964
0
LINE
8
BLACK
6
CONTINUOUS
10
186.5872699999999895
20
-86.3466219999999964
11
186.5271840000000054
21
-86.1616959999999921
0
LINE
8
BLACK
6
CONTINUOUS
10
186.5271840000000054
20
-86.1616959999999921
11
186.4299629999999866
21
-85.9933039999999949
0
LINE
8
BLACK
6
CONTINUOUS
10
186.4299629999999866
20
-85.9933039999999949
11
186.2998549999999796
21
-85.8488049999999987
0
LINE
8
BLACK
6
CONTINUOUS
10
186.2998549999999796
20
-85.8488049999999987
11
186.142548000000005
21
-85.7345139999999901
0
LINE
8
BLACK
6
CONTINUOUS
10
186.142548000000005
20
-85.7345139999999901
11
185.9649149999999906
21
-85.6554270000000031
0
LINE
8
BLACK
6
CONTINUOUS
10
185.9649149999999906
20
-85.6554270000000031
11
185.7747209999999995
21
-85.6149999999999949
0
LINE
8
BLACK
6
CONTINUOUS
10
185.7747209999999995
20
-85.6149999999999949
11
185.5802789999999902
21
-85.6149999999999949
0
LINE
8
BLACK
6
CONTINUOUS
10
185.5802789999999902
20
-85.6149999999999949
11
185.3900849999999991
21
-85.6554270000000031
0
LINE
8
BLACK
6
CONTINUOUS
10
185.3900849999999991
20
-85.6554270000000031
11
185.2124529999999822
21
-85.7345139999999901
0
LINE
8
BLACK
6
CONTINUOUS
10
185.2124529999999822
20
-85.7345139999999901
11
185.0551449999999818
21
-85.8488049999999987
0
LINE
8
BLACK
6
CONTINUOUS
10
185.0551449999999818
20
-85.8488049999999987
11
184.9250370000000032
21
-85.9933039999999949
0
LINE
8
BLACK
6
CONTINUOUS
10
184.9250370000000032
20
-85.9933039999999949
11
184.8278159999999843
21
-86.1616959999999921
0
LINE
8
BLACK
6
CONTINUOUS
10
184.8278159999999843
20
-86.1616959999999921
11
184.7677300000000002
21
-86.3466219999999964
0
LINE
8
BLACK
6
CONTINUOUS
10
184.7677300000000002
20
-86.3466219999999964
11
184.7474049999999863
21
-86.539999999999992
0
LINE
8
BLACK
6
CONTINUOUS
10
184.7474049999999863
20
-86.539999999999992
11
184.7677300000000002
21
-86.7333780000000019
0
LINE
8
BLACK
6
CONTINUOUS
10
187.6921319999999866
20
-73.4664410000000032
11
187.7191679999999963
21
-73.4776399999999938
0
LINE
8
BLACK
6
CONTINUOUS
10
187.7191679999999963
20
-73.4776399999999938
11
187.7398599999999931
21
-73.4983319999999907
0
LINE
8
BLACK
6
CONTINUOUS
10
187.7398599999999931
20
-73.4983319999999907
11
187.7510589999999979
21
-73.5253680000000003
0
LINE
8
BLACK
6
CONTINUOUS
10
187.7510589999999979
20
-73.5253680000000003
11
187.7524999999999977
21
-113.539999999999992
0
LINE
8
BLACK
6
CONTINUOUS
10
187.7524999999999977
20
-113.539999999999992
11
187.7510589999999979
21
-113.554631999999998
0
LINE
8
BLACK
6
CONTINUOUS
10
187.7510589999999979
20
-113.554631999999998
11
187.7398599999999931
21
-113.5816679999999934
0
LINE
8
BLACK
6
CONTINUOUS
10
187.7398599999999931
20
-113.5816679999999934
11
187.7191679999999963
21
-113.6023599999999902
0
LINE
8
BLACK
6
CONTINUOUS
10
187.7191679999999963
20
-113.6023599999999902
11
187.6921319999999866
21
-113.6135589999999951
0
LINE
8
BLACK
6
CONTINUOUS
10
187.6921319999999866
20
-113.6135589999999951
11
123.6774999999999949
21
-113.6149999999999949
0
LINE
8
BLACK
6
CONTINUOUS
10
123.6774999999999949
20
-113.6149999999999949
11
123.6628679999999889
21
-113.6135589999999951
0
LINE
8
BLACK
6
CONTINUOUS
10
123.6628679999999889
20
-113.6135589999999951
11
123.6358319999999935
21
-113.6023599999999902
0
LINE
8
BLACK
6
CONTINUOUS
10
123.6358319999999935
20
-113.6023599999999902
11
123.6151399999999967
21
-113.5816679999999934
0
LINE
8
BLACK
6
CONTINUOUS
10
123.6151399999999967
20
-113.5816679999999934
11
123.6039409999999918
21
-113.554631999999998
0
LINE
8
BLACK
6
CONTINUOUS
10
123.6039409999999918
20
-113.554631999999998
11
123.602499999999992
21
-73.539999999999992
0
LINE
8
BLACK
6
CONTINUOUS
10
123.602499999999992
20
-73.539999999999992
11
123.6039409999999918
21
-73.5253680000000003
0
LINE
8
BLACK
6
CONTINUOUS
10
123.6039409999999918
20
-73.5253680000000003
11
123.6151399999999967
21
-73.4983319999999907
0
LINE
8
BLACK
6
CONTINUOUS
10
123.6151399999999967
20
-73.4983319999999907
11
123.6358319999999935
21
-73.4776399999999938
0
LINE
8
BLACK
6
CONTINUOUS
10
123.6358319999999935
20
-73.4776399999999938
11
123.6628679999999889
21
-73.4664410000000032
0
LINE
8
BLACK
6
CONTINUOUS
10
123.6628679999999889
20
-73.4664410000000032
11
187.6774999999999807
21
-73.4650000000000034
0
LINE
8
BLACK
6
CONTINUOUS
10
187.6774999999999807
20
-73.4650000000000034
11
187.6921319999999866
21
-73.4664410000000032
0
LINE
8
BLACK
6
CONTINUOUS
10
123.7510619999999903
20
-73.6149979999999999
11
123.7524969999999911
21
-113.4664379999999966
0
LINE
8
BLACK
6
CONTINUOUS
10
123.7524969999999911
20
-113.4664379999999966
11
187.6039370000000019
21
-113.4650010000000009
0
LINE
8
BLACK
6
CONTINUOUS
10
187.6039370000000019
20
-113.4650010000000009
11
187.602501999999987
21
-73.61356099999999
0
LINE
8
BLACK
6
CONTINUOUS
10
187.602501999999987
20
-73.61356099999999
11
123.7510619999999903
21
-73.6149979999999999
  0
ENDSEC
  0
EOF
